<svg xmlns="http://www.w3.org/2000/svg" xmlns:xlink="http://www.w3.org/1999/xlink" width="521.9" height="387.4" viewBox="0 0 521.9 387.4">
  <defs>
    <clipPath id="clip-path">
      <rect id="Rectangle_1" data-name="Rectangle 1" width="415.92" height="282" transform="translate(482.88 112.8)"/>
    </clipPath>
  </defs>
  <g id="Caffeine-Conv" transform="translate(-424.05 -74.87)">
    <g id="Group_1" data-name="Group 1">
      <path id="Path_1" data-name="Path 1" d="M483.03,113.86H898.95M483.03,160.8H898.95M483.03,207.6H898.95M483.03,254.4H898.95M483.03,301.44H898.95m-415.92,46.8H898.95" fill="none" stroke="#d9d9d9" stroke-linejoin="round" stroke-miterlimit="10" stroke-width="0.75"/>
    </g>
    <g id="Group_2" data-name="Group 2">
      <path id="Path_2" data-name="Path 2" d="M898.95,113.86V395.08M846.96,113.86V395.08M794.88,113.86V395.08M743.04,113.86V395.08M690.96,113.86V395.08M639.12,113.86V395.08M587.04,113.86V395.08M534.96,113.86V395.08" fill="none" stroke="#d9d9d9" stroke-linejoin="round" stroke-miterlimit="10" stroke-width="0.75"/>
    </g>
    <g id="Group_3" data-name="Group 3">
      <line id="Line_1" data-name="Line 1" y1="281.22" transform="translate(483.03 113.86)" fill="none" stroke="#bfbfbf" stroke-linejoin="round" stroke-miterlimit="10" stroke-width="0.75"/>
    </g>
    <g id="Group_4" data-name="Group 4">
      <line id="Line_2" data-name="Line 2" x2="415.92" transform="translate(483.03 395.08)" fill="none" stroke="#bfbfbf" stroke-linejoin="round" stroke-miterlimit="10" stroke-width="0.75"/>
    </g>
    <g id="Group_6" data-name="Group 6">
      <g id="Group_5" data-name="Group 5" clip-path="url(#clip-path)">
        <path id="Path_3" data-name="Path 3" d="M483.03,394.79l26.01-3.35,25.92-4.08,34.8-25.44,34.56-20.88,34.8-25.2,51.84-19.2,207.99-46.56" fill="none" stroke="#8fbc0a" stroke-linecap="round" stroke-linejoin="round" stroke-miterlimit="10" stroke-width="3"/>
      </g>
    </g>
    <g id="Group_7" data-name="Group 7">
      <circle id="Ellipse_1" data-name="Ellipse 1" cx="2.88" cy="2.88" r="2.88" transform="translate(479.78 391.49)" fill="#fff"/>
      <circle id="Ellipse_2" data-name="Ellipse 2" cx="2.88" cy="2.88" r="2.88" transform="translate(479.78 391.49)" fill="none" stroke="#8fbc0a" stroke-linejoin="round" stroke-miterlimit="10" stroke-width="3"/>
      <circle id="Ellipse_3" data-name="Ellipse 3" cx="2.88" cy="2.88" r="2.88" transform="translate(505.7 388.37)" fill="#fff"/>
      <circle id="Ellipse_4" data-name="Ellipse 4" cx="2.88" cy="2.88" r="2.88" transform="translate(505.7 388.37)" fill="none" stroke="#8fbc0a" stroke-linejoin="round" stroke-miterlimit="10" stroke-width="3"/>
      <circle id="Ellipse_5" data-name="Ellipse 5" cx="2.88" cy="2.88" r="2.88" transform="translate(531.86 384.05)" fill="#fff"/>
      <path id="Path_4" data-name="Path 4" d="M537.62,386.93a2.88,2.88,0,1,1-2.88-2.88A2.881,2.881,0,0,1,537.62,386.93Z" fill="none" stroke="#8fbc0a" stroke-linejoin="round" stroke-miterlimit="10" stroke-width="3"/>
      <circle id="Ellipse_6" data-name="Ellipse 6" cx="2.88" cy="2.88" r="2.88" transform="translate(566.014 363.873) rotate(-80.782)" fill="#fff"/>
      <path id="Path_5" data-name="Path 5" d="M572.18,361.49a2.88,2.88,0,1,1-2.88-2.88A2.881,2.881,0,0,1,572.18,361.49Z" fill="none" stroke="#8fbc0a" stroke-linejoin="round" stroke-miterlimit="10" stroke-width="3"/>
      <circle id="Ellipse_7" data-name="Ellipse 7" cx="2.88" cy="2.88" r="2.88" transform="translate(601.22 337.73)" fill="#fff"/>
      <path id="Path_6" data-name="Path 6" d="M606.98,340.61a2.88,2.88,0,1,1-2.88-2.88A2.881,2.881,0,0,1,606.98,340.61Z" fill="none" stroke="#8fbc0a" stroke-linejoin="round" stroke-miterlimit="10" stroke-width="3"/>
      <circle id="Ellipse_8" data-name="Ellipse 8" cx="2.88" cy="2.88" r="2.88" transform="translate(635.78 312.77)" fill="#fff"/>
      <path id="Path_7" data-name="Path 7" d="M641.54,315.65a2.88,2.88,0,1,1-2.88-2.88A2.881,2.881,0,0,1,641.54,315.65Z" fill="none" stroke="#8fbc0a" stroke-linejoin="round" stroke-miterlimit="10" stroke-width="3"/>
      <circle id="Ellipse_9" data-name="Ellipse 9" cx="2.88" cy="2.88" r="2.88" transform="translate(687.86 293.57)" fill="#fff"/>
      <path id="Path_8" data-name="Path 8" d="M693.62,296.45a2.88,2.88,0,1,1-2.88-2.88A2.881,2.881,0,0,1,693.62,296.45Z" fill="none" stroke="#8fbc0a" stroke-linejoin="round" stroke-miterlimit="10" stroke-width="3"/>
      <path id="Path_9" data-name="Path 9" d="M901.46,249.89a2.88,2.88,0,1,1-2.88-2.88A2.881,2.881,0,0,1,901.46,249.89Z" fill="#fff"/>
      <path id="Path_10" data-name="Path 10" d="M901.46,249.89a2.88,2.88,0,1,1-2.88-2.88A2.881,2.881,0,0,1,901.46,249.89Z" fill="none" stroke="#8fbc0a" stroke-linejoin="round" stroke-miterlimit="10" stroke-width="3"/>
    </g>
    <g id="Group_9" data-name="Group 9">
      <g id="Group_8" data-name="Group 8" clip-path="url(#clip-path)">
        <path id="Path_11" data-name="Path 11" d="M483.03,394.97l26.01-9.53,25.92-16.56,34.8-113.76,34.56-65.76,34.8-26.64,51.84-12.48,207.99-6.6" fill="none" stroke="#a6a6a6" stroke-linecap="round" stroke-linejoin="round" stroke-miterlimit="10" stroke-width="3"/>
      </g>
    </g>
    <g id="Group_10" data-name="Group 10">
      <circle id="Ellipse_10" data-name="Ellipse 10" cx="2.88" cy="2.88" r="2.88" transform="translate(479.78 391.73)" fill="#fff"/>
      <circle id="Ellipse_11" data-name="Ellipse 11" cx="2.88" cy="2.88" r="2.88" transform="translate(479.78 391.73)" fill="none" stroke="#7f7f7f" stroke-linejoin="round" stroke-miterlimit="10" stroke-width="3"/>
      <circle id="Ellipse_12" data-name="Ellipse 12" cx="2.88" cy="2.88" r="2.88" transform="translate(505.7 382.13)" fill="#fff"/>
      <circle id="Ellipse_13" data-name="Ellipse 13" cx="2.88" cy="2.88" r="2.88" transform="translate(505.7 382.13)" fill="none" stroke="#7f7f7f" stroke-linejoin="round" stroke-miterlimit="10" stroke-width="3"/>
      <circle id="Ellipse_14" data-name="Ellipse 14" cx="2.88" cy="2.88" r="2.88" transform="translate(531.454 371.074) rotate(-80.782)" fill="#fff"/>
      <path id="Path_12" data-name="Path 12" d="M537.62,368.69a2.88,2.88,0,1,1-2.88-2.88A2.881,2.881,0,0,1,537.62,368.69Z" fill="none" stroke="#7f7f7f" stroke-linejoin="round" stroke-miterlimit="10" stroke-width="3"/>
      <circle id="Ellipse_15" data-name="Ellipse 15" cx="2.88" cy="2.88" r="2.88" transform="translate(566.42 252.05)" fill="#fff"/>
      <path id="Path_13" data-name="Path 13" d="M572.18,254.93a2.88,2.88,0,1,1-2.88-2.88A2.881,2.881,0,0,1,572.18,254.93Z" fill="none" stroke="#7f7f7f" stroke-linejoin="round" stroke-miterlimit="10" stroke-width="3"/>
      <circle id="Ellipse_16" data-name="Ellipse 16" cx="2.88" cy="2.88" r="2.88" transform="translate(601.22 186.05)" fill="#fff"/>
      <path id="Path_14" data-name="Path 14" d="M606.98,188.93a2.88,2.88,0,1,1-2.88-2.88A2.881,2.881,0,0,1,606.98,188.93Z" fill="none" stroke="#7f7f7f" stroke-linejoin="round" stroke-miterlimit="10" stroke-width="3"/>
      <circle id="Ellipse_17" data-name="Ellipse 17" cx="2.88" cy="2.88" r="2.88" transform="translate(635.78 159.41)" fill="#fff"/>
      <path id="Path_15" data-name="Path 15" d="M641.54,162.29a2.88,2.88,0,1,1-2.88-2.88A2.881,2.881,0,0,1,641.54,162.29Z" fill="none" stroke="#7f7f7f" stroke-linejoin="round" stroke-miterlimit="10" stroke-width="3"/>
      <circle id="Ellipse_18" data-name="Ellipse 18" cx="2.88" cy="2.88" r="2.88" transform="translate(686.994 148.484) rotate(-22.5)" fill="#fff"/>
      <path id="Path_16" data-name="Path 16" d="M693.62,150.05a2.88,2.88,0,1,1-2.88-2.88A2.881,2.881,0,0,1,693.62,150.05Z" fill="none" stroke="#7f7f7f" stroke-linejoin="round" stroke-miterlimit="10" stroke-width="3"/>
      <path id="Path_17" data-name="Path 17" d="M901.46,143.33a2.88,2.88,0,1,1-2.88-2.88A2.881,2.881,0,0,1,901.46,143.33Z" fill="#fff"/>
      <path id="Path_18" data-name="Path 18" d="M901.46,143.33a2.88,2.88,0,1,1-2.88-2.88A2.881,2.881,0,0,1,901.46,143.33Z" fill="none" stroke="#7f7f7f" stroke-linejoin="round" stroke-miterlimit="10" stroke-width="3"/>
    </g>
    <g id="Group_12" data-name="Group 12">
      <g id="Group_11" data-name="Group 11" clip-path="url(#clip-path)">
        <path id="Path_19" data-name="Path 19" d="M483.03,394.9l26.01-6.1,25.92-9.36,34.8-62.4,34.56-43.68,34.8-30.72,51.84-30.24,207.99-37.37" fill="none" stroke="#41bfc6" stroke-linecap="round" stroke-linejoin="round" stroke-miterlimit="10" stroke-width="3"/>
      </g>
    </g>
    <g id="Group_13" data-name="Group 13">
      <circle id="Ellipse_19" data-name="Ellipse 19" cx="2.88" cy="2.88" r="2.88" transform="translate(479.78 391.73)" fill="#fff"/>
      <circle id="Ellipse_20" data-name="Ellipse 20" cx="2.88" cy="2.88" r="2.88" transform="translate(479.78 391.73)" fill="none" stroke="#41bfc6" stroke-linejoin="round" stroke-miterlimit="10" stroke-width="3"/>
      <circle id="Ellipse_21" data-name="Ellipse 21" cx="2.88" cy="2.88" r="2.88" transform="translate(505.7 385.49)" fill="#fff"/>
      <circle id="Ellipse_22" data-name="Ellipse 22" cx="2.88" cy="2.88" r="2.88" transform="translate(505.7 385.49)" fill="none" stroke="#41bfc6" stroke-linejoin="round" stroke-miterlimit="10" stroke-width="3"/>
      <circle id="Ellipse_23" data-name="Ellipse 23" cx="2.88" cy="2.88" r="2.88" transform="translate(531.86 376.13)" fill="#fff"/>
      <path id="Path_20" data-name="Path 20" d="M537.62,379.01a2.88,2.88,0,1,1-2.88-2.88A2.881,2.881,0,0,1,537.62,379.01Z" fill="none" stroke="#41bfc6" stroke-linejoin="round" stroke-miterlimit="10" stroke-width="3"/>
      <circle id="Ellipse_24" data-name="Ellipse 24" cx="2.88" cy="2.88" r="2.88" transform="translate(566.014 319.232) rotate(-80.782)" fill="#fff"/>
      <path id="Path_21" data-name="Path 21" d="M572.18,316.85a2.88,2.88,0,1,1-2.88-2.88A2.881,2.881,0,0,1,572.18,316.85Z" fill="none" stroke="#41bfc6" stroke-linejoin="round" stroke-miterlimit="10" stroke-width="3"/>
      <circle id="Ellipse_25" data-name="Ellipse 25" cx="2.88" cy="2.88" r="2.88" transform="translate(600.814 275.551) rotate(-80.782)" fill="#fff"/>
      <path id="Path_22" data-name="Path 22" d="M606.98,273.17a2.88,2.88,0,1,1-2.88-2.88A2.881,2.881,0,0,1,606.98,273.17Z" fill="none" stroke="#41bfc6" stroke-linejoin="round" stroke-miterlimit="10" stroke-width="3"/>
      <circle id="Ellipse_26" data-name="Ellipse 26" cx="2.88" cy="2.88" r="2.88" transform="translate(635.78 239.33)" fill="#fff"/>
      <path id="Path_23" data-name="Path 23" d="M641.54,242.21a2.88,2.88,0,1,1-2.88-2.88A2.881,2.881,0,0,1,641.54,242.21Z" fill="none" stroke="#41bfc6" stroke-linejoin="round" stroke-miterlimit="10" stroke-width="3"/>
      <circle id="Ellipse_27" data-name="Ellipse 27" cx="2.88" cy="2.88" r="2.88" transform="translate(687.86 209.33)" fill="#fff"/>
      <path id="Path_24" data-name="Path 24" d="M693.62,212.21a2.88,2.88,0,1,1-2.88-2.88A2.881,2.881,0,0,1,693.62,212.21Z" fill="none" stroke="#41bfc6" stroke-linejoin="round" stroke-miterlimit="10" stroke-width="3"/>
      <path id="Path_25" data-name="Path 25" d="M901.46,174.77a2.88,2.88,0,1,1-2.88-2.88A2.881,2.881,0,0,1,901.46,174.77Z" fill="#fff"/>
      <path id="Path_26" data-name="Path 26" d="M901.46,174.77a2.88,2.88,0,1,1-2.88-2.88A2.881,2.881,0,0,1,901.46,174.77Z" fill="none" stroke="#41bfc6" stroke-linejoin="round" stroke-miterlimit="10" stroke-width="3"/>
    </g>
    <g id="Group_14" data-name="Group 14">
      <line id="Line_3" data-name="Line 3" x2="19.2" transform="translate(493.84 458.05)" fill="none" stroke="#8fbc0a" stroke-linecap="round" stroke-linejoin="round" stroke-miterlimit="10" stroke-width="3"/>
    </g>
    <g id="Group_15" data-name="Group 15">
      <circle id="Ellipse_28" data-name="Ellipse 28" cx="2.88" cy="2.88" r="2.88" transform="translate(500.28 455.01)" fill="#fff"/>
      <circle id="Ellipse_29" data-name="Ellipse 29" cx="2.88" cy="2.88" r="2.88" transform="translate(500.28 455.01)" fill="none" stroke="#8fbc0a" stroke-linejoin="round" stroke-miterlimit="10" stroke-width="3"/>
    </g>
    <g id="Group_16" data-name="Group 16">
      <line id="Line_4" data-name="Line 4" x2="19.2" transform="translate(636.21 458.05)" fill="none" stroke="#a6a6a6" stroke-linecap="round" stroke-linejoin="round" stroke-miterlimit="10" stroke-width="3"/>
    </g>
    <g id="Group_17" data-name="Group 17">
      <circle id="Ellipse_30" data-name="Ellipse 30" cx="2.88" cy="2.88" r="2.88" transform="translate(642.6 455.01)" fill="#fff"/>
      <path id="Path_27" data-name="Path 27" d="M648.36,457.89a2.88,2.88,0,1,1-2.88-2.88A2.881,2.881,0,0,1,648.36,457.89Z" fill="none" stroke="#7f7f7f" stroke-linejoin="round" stroke-miterlimit="10" stroke-width="3"/>
    </g>
    <g id="Group_18" data-name="Group 18">
      <line id="Line_5" data-name="Line 5" x2="19.2" transform="translate(775.85 458.05)" fill="none" stroke="#41bfc6" stroke-linecap="round" stroke-linejoin="round" stroke-miterlimit="10" stroke-width="3"/>
    </g>
    <g id="Group_19" data-name="Group 19">
      <path id="Path_28" data-name="Path 28" d="M788.04,457.89a2.88,2.88,0,1,1-2.88-2.88A2.881,2.881,0,0,1,788.04,457.89Z" fill="#fff"/>
      <path id="Path_29" data-name="Path 29" d="M788.04,457.89a2.88,2.88,0,1,1-2.88-2.88A2.881,2.881,0,0,1,788.04,457.89Z" fill="none" stroke="#41bfc6" stroke-linejoin="round" stroke-miterlimit="10" stroke-width="3"/>
    </g>
    <g id="Group_20" data-name="Group 20">
      <path id="Path_30" data-name="Path 30" d="M615.95,75.49h2.62a3.853,3.853,0,0,1,4.22,4.2,4.3,4.3,0,0,1-1.15,3.24,4.587,4.587,0,0,1-3.31,1.12h-2.37V75.49Zm1,.86v6.84h1.21a3.643,3.643,0,0,0,2.67-.88,4.2,4.2,0,0,0,.06-5.12,3.35,3.35,0,0,0-2.5-.85h-1.44Z" fill="#767171"/>
      <path id="Path_31" data-name="Path 31" d="M624.47,75.89a.649.649,0,0,1,.16-.48.542.542,0,0,1,.41-.16.565.565,0,0,1,.42.16.8.8,0,0,1,0,.96.573.573,0,0,1-.42.17.55.55,0,0,1-.41-.17A.649.649,0,0,1,624.47,75.89Zm1.06,8.17h-.97V77.64h.97Z" fill="#767171"/>
      <path id="Path_32" data-name="Path 32" d="M629.21,83.37c1.05,0,1.58-.33,1.58-.98a.8.8,0,0,0-.33-.64,5.016,5.016,0,0,0-1.27-.63,6.358,6.358,0,0,1-1.28-.59,1.861,1.861,0,0,1-.56-.56,1.474,1.474,0,0,1-.18-.76,1.446,1.446,0,0,1,.64-1.24,2.862,2.862,0,0,1,1.71-.46,5.319,5.319,0,0,1,2.07.42l-.35.79a4.618,4.618,0,0,0-1.7-.39,2.211,2.211,0,0,0-1.09.21.66.66,0,0,0-.36.6.716.716,0,0,0,.13.44,1.39,1.39,0,0,0,.42.35,8.026,8.026,0,0,0,1.13.47,4.181,4.181,0,0,1,1.54.84,1.5,1.5,0,0,1,.4,1.06,1.586,1.586,0,0,1-.67,1.38,3.244,3.244,0,0,1-1.91.49,3.937,3.937,0,0,1-1.95-.4v-.9A4.6,4.6,0,0,0,629.21,83.37Z" fill="#767171"/>
      <path id="Path_33" data-name="Path 33" d="M634.93,83.37c1.05,0,1.58-.33,1.58-.98a.8.8,0,0,0-.33-.64,5.016,5.016,0,0,0-1.27-.63,6.358,6.358,0,0,1-1.28-.59,1.861,1.861,0,0,1-.56-.56,1.474,1.474,0,0,1-.18-.76,1.446,1.446,0,0,1,.64-1.24,2.862,2.862,0,0,1,1.71-.46,5.319,5.319,0,0,1,2.07.42l-.35.79a4.618,4.618,0,0,0-1.7-.39,2.211,2.211,0,0,0-1.09.21.66.66,0,0,0-.36.6.716.716,0,0,0,.13.44,1.39,1.39,0,0,0,.42.35,8.026,8.026,0,0,0,1.13.47,4.181,4.181,0,0,1,1.54.84,1.5,1.5,0,0,1,.4,1.06,1.586,1.586,0,0,1-.67,1.38,3.244,3.244,0,0,1-1.91.49,3.937,3.937,0,0,1-1.95-.4v-.9A4.6,4.6,0,0,0,634.93,83.37Z" fill="#767171"/>
      <path id="Path_34" data-name="Path 34" d="M638.66,80.84a3.567,3.567,0,0,1,.78-2.45,3.066,3.066,0,0,1,4.32.02,4.127,4.127,0,0,1,.01,4.87,2.824,2.824,0,0,1-2.19.88h-.05a2.632,2.632,0,0,1-2.07-.9,3.415,3.415,0,0,1-.8-2.35Zm2.94-2.49c-1.29,0-1.93.83-1.93,2.49a3.052,3.052,0,0,0,.5,1.88,1.963,1.963,0,0,0,2.9,0,3.02,3.02,0,0,0,.5-1.87,2.968,2.968,0,0,0-.5-1.86A1.775,1.775,0,0,0,641.6,78.35Z" fill="#767171"/>
      <path id="Path_35" data-name="Path 35" d="M647.25,84.06h-.97V74.94h.97Z" fill="#767171"/>
      <path id="Path_36" data-name="Path 36" d="M654.61,84.06h-.8l-.14-.86h-.05a1.906,1.906,0,0,1-.83.73,2.787,2.787,0,0,1-1.21.25,2.446,2.446,0,0,1-1.76-.56,2.408,2.408,0,0,1-.57-1.78v-4.2h.98v4.17a1.639,1.639,0,0,0,.36,1.17,1.486,1.486,0,0,0,1.12.38,1.81,1.81,0,0,0,1.47-.55,2.793,2.793,0,0,0,.47-1.8V77.63h.97v6.43Z" fill="#767171"/>
      <path id="Path_37" data-name="Path 37" d="M657.72,77.63h1.86v.76h-1.86v3.78a1.333,1.333,0,0,0,.27.89.932.932,0,0,0,.75.31,3.191,3.191,0,0,0,.89-.12V84a1.481,1.481,0,0,1-.46.12,4.127,4.127,0,0,1-.56.05c-1.24,0-1.86-.65-1.86-1.96V78.39h-.92v-.47l.92-.4.41-1.37h.56Z" fill="#767171"/>
      <path id="Path_38" data-name="Path 38" d="M660.83,75.89a.649.649,0,0,1,.16-.48.542.542,0,0,1,.41-.16.565.565,0,0,1,.42.16.8.8,0,0,1,0,.96.573.573,0,0,1-.42.17.55.55,0,0,1-.41-.17A.649.649,0,0,1,660.83,75.89Zm1.05,8.17h-.97V77.64h.97Z" fill="#767171"/>
      <path id="Path_39" data-name="Path 39" d="M663.58,80.84a3.567,3.567,0,0,1,.78-2.45,3.066,3.066,0,0,1,4.32.02,4.127,4.127,0,0,1,.01,4.87,2.824,2.824,0,0,1-2.19.88h-.05a2.632,2.632,0,0,1-2.07-.9,3.415,3.415,0,0,1-.8-2.35Zm2.94-2.49c-1.29,0-1.93.83-1.93,2.49a3.052,3.052,0,0,0,.5,1.88,1.963,1.963,0,0,0,2.9,0,3.02,3.02,0,0,0,.5-1.87,2.968,2.968,0,0,0-.5-1.86A1.775,1.775,0,0,0,666.52,78.35Z" fill="#767171"/>
      <path id="Path_40" data-name="Path 40" d="M674.23,77.52a2.393,2.393,0,0,1,1.75.57,2.425,2.425,0,0,1,.58,1.78v4.19h-.97V79.9a1.639,1.639,0,0,0-.36-1.17,1.486,1.486,0,0,0-1.12-.38,1.848,1.848,0,0,0-1.48.54,2.743,2.743,0,0,0-.47,1.79v3.37h-.97V77.63h.79l.16.88h.05a2.055,2.055,0,0,1,.83-.74A2.65,2.65,0,0,1,674.23,77.52Z" fill="#767171"/>
      <path id="Path_41" data-name="Path 41" d="M682.65,78.51a2.31,2.31,0,0,1,2-1,2.4,2.4,0,0,1,1.99.87,4.644,4.644,0,0,1-.01,4.92,2.4,2.4,0,0,1-2,.87,2.3,2.3,0,0,1-1.98-.94h-.07a8.11,8.11,0,0,1,.07,1.07v2.64h-.97v-9.3h.79l.13.88h.05Zm0,2.33a3.261,3.261,0,0,0,.45,1.94,1.708,1.708,0,0,0,1.45.58,1.482,1.482,0,0,0,1.3-.67,3.238,3.238,0,0,0,.47-1.86,3.071,3.071,0,0,0-.47-1.83,1.557,1.557,0,0,0-1.33-.64,1.736,1.736,0,0,0-1.43.54,2.824,2.824,0,0,0-.45,1.73v.21Z" fill="#767171"/>
      <path id="Path_42" data-name="Path 42" d="M691.96,77.52a3.672,3.672,0,0,1,.77.07l-.13.9a3.27,3.27,0,0,0-.7-.09,1.729,1.729,0,0,0-1.34.63,2.312,2.312,0,0,0-.56,1.58v3.45h-.97V77.64h.8l.11,1.19h.05a2.831,2.831,0,0,1,.86-.97A1.989,1.989,0,0,1,691.96,77.52Z" fill="#767171"/>
      <path id="Path_43" data-name="Path 43" d="M693.57,80.84a3.567,3.567,0,0,1,.78-2.45,3.066,3.066,0,0,1,4.32.02,4.127,4.127,0,0,1,.01,4.87,2.824,2.824,0,0,1-2.19.88h-.05a2.632,2.632,0,0,1-2.07-.9,3.415,3.415,0,0,1-.8-2.35Zm2.93-2.49c-1.29,0-1.93.83-1.93,2.49a3.052,3.052,0,0,0,.5,1.88,1.963,1.963,0,0,0,2.9,0,3.02,3.02,0,0,0,.5-1.87,2.968,2.968,0,0,0-.5-1.86A1.762,1.762,0,0,0,696.5,78.35Z" fill="#767171"/>
      <path id="Path_44" data-name="Path 44" d="M701.46,77.24q0-2.37,2.07-2.37a4.327,4.327,0,0,1,1.2.21l-.25.78a3.187,3.187,0,0,0-.96-.18.906.906,0,0,0-.81.37,2.111,2.111,0,0,0-.26,1.17v.42h1.63v.76h-1.63v5.67h-.97V78.4h-1.15v-.44l1.15-.35v-.37Z" fill="#767171"/>
      <path id="Path_45" data-name="Path 45" d="M705.16,75.89a.649.649,0,0,1,.16-.48.542.542,0,0,1,.41-.16.565.565,0,0,1,.42.16.8.8,0,0,1,0,.96.573.573,0,0,1-.42.17.55.55,0,0,1-.41-.17A.649.649,0,0,1,705.16,75.89Zm1.06,8.17h-.97V77.64h.97Z" fill="#767171"/>
      <path id="Path_46" data-name="Path 46" d="M709.25,84.06h-.97V74.94h.97Z" fill="#767171"/>
      <path id="Path_47" data-name="Path 47" d="M714.03,84.17a2.953,2.953,0,0,1-2.25-.87,3.38,3.38,0,0,1-.82-2.42,3.712,3.712,0,0,1,.76-2.46,2.494,2.494,0,0,1,2.02-.91,2.461,2.461,0,0,1,1.95.8,2.985,2.985,0,0,1,.7,2.09v.62h-4.42a2.542,2.542,0,0,0,.57,1.71,2.012,2.012,0,0,0,1.55.59,5.064,5.064,0,0,0,2.02-.43v.87a5.313,5.313,0,0,1-.98.32A5.147,5.147,0,0,1,714.03,84.17Zm1.32-3.94a2.125,2.125,0,0,0-.41-1.4,1.465,1.465,0,0,0-1.17-.49,1.627,1.627,0,0,0-1.23.5,2.254,2.254,0,0,0-.54,1.39Z" fill="#767171"/>
      <path id="Path_48" data-name="Path 48" d="M719.07,82.66l.09.13a11.545,11.545,0,0,1-.44,1.35c-.2.51-.39,1-.6,1.45h-.73c.11-.43.23-.94.35-1.51q.18-.825.27-1.44h1.06Z" fill="#767171"/>
      <path id="Path_49" data-name="Path 49" d="M727.75,84.17a3.682,3.682,0,0,1-2.92-1.15,4.755,4.755,0,0,1-1.03-3.26V79.7a5.021,5.021,0,0,1,.5-2.27,3.586,3.586,0,0,1,1.43-1.53,4.212,4.212,0,0,1,2.15-.54h.05a5.353,5.353,0,0,1,2.36.49l-.42.86a4.634,4.634,0,0,0-1.95-.46,2.8,2.8,0,0,0-2.23.94,4.569,4.569,0,0,0-.03,5.18,2.818,2.818,0,0,0,2.25.91,7.778,7.778,0,0,0,2.04-.32v.87A6.24,6.24,0,0,1,727.75,84.17Z" fill="#767171"/>
      <path id="Path_50" data-name="Path 50" d="M731.92,78.08a4.4,4.4,0,0,1,2.17-.55,2.445,2.445,0,0,1,1.71.51,2.127,2.127,0,0,1,.55,1.63v4.38h-.71l-.19-.91h-.05a2.349,2.349,0,0,1-2.15,1.03,2.139,2.139,0,0,1-1.5-.5,1.808,1.808,0,0,1-.54-1.4q0-1.935,3.12-2.04l1.09-.04v-.4a1.612,1.612,0,0,0-.33-1.12,1.415,1.415,0,0,0-1.09-.35,4.023,4.023,0,0,0-1.76.49Zm.29,4.21a1.017,1.017,0,0,0,.32.8,1.3,1.3,0,0,0,.9.28,1.992,1.992,0,0,0,1.43-.5,1.825,1.825,0,0,0,.52-1.39V80.9l-.97.04a3.6,3.6,0,0,0-1.67.36A1.094,1.094,0,0,0,732.21,82.29Z" fill="#767171"/>
      <path id="Path_51" data-name="Path 51" d="M738.64,77.24q0-2.37,2.07-2.37a4.327,4.327,0,0,1,1.2.21l-.25.78a3.187,3.187,0,0,0-.96-.18.906.906,0,0,0-.81.37,2.111,2.111,0,0,0-.26,1.17v.42h1.63v.76h-1.63v5.67h-.97V78.4h-1.15v-.44l1.15-.35v-.37Z" fill="#767171"/>
      <path id="Path_52" data-name="Path 52" d="M742.7,77.24q0-2.37,2.07-2.37a4.327,4.327,0,0,1,1.2.21l-.25.78a3.187,3.187,0,0,0-.96-.18.906.906,0,0,0-.81.37,2.111,2.111,0,0,0-.26,1.17v.42h1.63v.76h-1.63v5.67h-.97V78.4h-1.15v-.44l1.15-.35v-.37Z" fill="#767171"/>
      <path id="Path_53" data-name="Path 53" d="M749.2,84.17a2.953,2.953,0,0,1-2.25-.87,3.38,3.38,0,0,1-.82-2.42,3.712,3.712,0,0,1,.76-2.46,2.494,2.494,0,0,1,2.02-.91,2.461,2.461,0,0,1,1.95.8,2.985,2.985,0,0,1,.7,2.09v.62h-4.42a2.542,2.542,0,0,0,.57,1.71,2.012,2.012,0,0,0,1.55.59,5.064,5.064,0,0,0,2.02-.43v.87a5.313,5.313,0,0,1-.98.32A5.147,5.147,0,0,1,749.2,84.17Zm1.31-3.94a2.125,2.125,0,0,0-.41-1.4,1.465,1.465,0,0,0-1.17-.49,1.627,1.627,0,0,0-1.23.5,2.254,2.254,0,0,0-.54,1.39Z" fill="#767171"/>
      <path id="Path_54" data-name="Path 54" d="M753.13,75.89a.649.649,0,0,1,.16-.48.542.542,0,0,1,.41-.16.565.565,0,0,1,.42.16.8.8,0,0,1,0,.96.573.573,0,0,1-.42.17.55.55,0,0,1-.41-.17A.649.649,0,0,1,753.13,75.89Zm1.06,8.17h-.97V77.64h.97Z" fill="#767171"/>
      <path id="Path_55" data-name="Path 55" d="M759.29,77.52a2.393,2.393,0,0,1,1.75.57,2.425,2.425,0,0,1,.58,1.78v4.19h-.97V79.9a1.639,1.639,0,0,0-.36-1.17,1.486,1.486,0,0,0-1.12-.38,1.848,1.848,0,0,0-1.48.54,2.743,2.743,0,0,0-.47,1.79v3.37h-.97V77.63h.79l.16.88h.05a2.055,2.055,0,0,1,.83-.74A2.623,2.623,0,0,1,759.29,77.52Z" fill="#767171"/>
      <path id="Path_56" data-name="Path 56" d="M766.33,84.17a2.953,2.953,0,0,1-2.25-.87,3.38,3.38,0,0,1-.82-2.42,3.712,3.712,0,0,1,.76-2.46,2.494,2.494,0,0,1,2.02-.91,2.461,2.461,0,0,1,1.95.8,2.985,2.985,0,0,1,.7,2.09v.62h-4.42a2.542,2.542,0,0,0,.57,1.71,2.012,2.012,0,0,0,1.55.59,5.064,5.064,0,0,0,2.02-.43v.87a5.313,5.313,0,0,1-.98.32A5.147,5.147,0,0,1,766.33,84.17Zm1.32-3.94a2.125,2.125,0,0,0-.41-1.4,1.465,1.465,0,0,0-1.17-.49,1.627,1.627,0,0,0-1.23.5,2.254,2.254,0,0,0-.54,1.39Z" fill="#767171"/>
    </g>
    <g id="Group_21" data-name="Group 21">
      <path id="Path_57" data-name="Path 57" d="M459.65,121.92h-.95v-6.11c0-.48.02-.96.05-1.44a2.551,2.551,0,0,1-.24.23c-.08.07-.55.46-1.43,1.17l-.52-.67,2.27-1.75h.82Z" fill="#767171"/>
      <path id="Path_58" data-name="Path 58" d="M465.6,113.23a2.706,2.706,0,0,1,1.89.62,2.134,2.134,0,0,1,.68,1.66,3.274,3.274,0,0,1-.45,1.61,9.627,9.627,0,0,1-1.71,2.02l-1.88,1.83v.05h4.41v.9H462.9v-.84l2.26-2.27a18.183,18.183,0,0,0,1.38-1.51,3.23,3.23,0,0,0,.47-.84,2.674,2.674,0,0,0,.16-.91,1.439,1.439,0,0,0-.42-1.09,1.58,1.58,0,0,0-1.15-.4,2.826,2.826,0,0,0-1.01.18,4.028,4.028,0,0,0-1.06.64l-.52-.66A3.987,3.987,0,0,1,465.6,113.23Z" fill="#767171"/>
      <path id="Path_59" data-name="Path 59" d="M469.78,117.59a6.145,6.145,0,0,1,.7-3.29,2.336,2.336,0,0,1,2.11-1.09,2.4,2.4,0,0,1,2.14,1.13,7.974,7.974,0,0,1,.03,6.6,2.336,2.336,0,0,1-2.11,1.09,2.363,2.363,0,0,1-2.13-1.12A6.183,6.183,0,0,1,469.78,117.59Zm4.23-2.67a1.471,1.471,0,0,0-1.4-.86,1.486,1.486,0,0,0-1.41.85,6.153,6.153,0,0,0-.44,2.72,6.3,6.3,0,0,0,.44,2.72,1.582,1.582,0,0,0,2.81-.01,8.566,8.566,0,0,0,0-5.42Z" fill="#767171"/>
      <path id="Path_60" data-name="Path 60" d="M459.65,167.92h-.95v-6.11c0-.48.02-.96.05-1.44a2.55,2.55,0,0,1-.24.23c-.08.07-.55.46-1.43,1.17l-.52-.67,2.27-1.75h.82Z" fill="#767171"/>
      <path id="Path_61" data-name="Path 61" d="M462.92,163.59a6.145,6.145,0,0,1,.7-3.29,2.336,2.336,0,0,1,2.11-1.09,2.4,2.4,0,0,1,2.14,1.13,7.974,7.974,0,0,1,.03,6.6,2.336,2.336,0,0,1-2.11,1.09,2.363,2.363,0,0,1-2.13-1.12A6.183,6.183,0,0,1,462.92,163.59Zm4.23-2.67a1.471,1.471,0,0,0-1.4-.86,1.486,1.486,0,0,0-1.41.85,6.153,6.153,0,0,0-.44,2.72,6.3,6.3,0,0,0,.44,2.72,1.582,1.582,0,0,0,2.81-.01,8.566,8.566,0,0,0,0-5.42Z" fill="#767171"/>
      <path id="Path_62" data-name="Path 62" d="M469.78,163.59a6.145,6.145,0,0,1,.7-3.29,2.336,2.336,0,0,1,2.11-1.09,2.4,2.4,0,0,1,2.14,1.13,7.974,7.974,0,0,1,.03,6.6,2.336,2.336,0,0,1-2.11,1.09,2.363,2.363,0,0,1-2.13-1.12A6.183,6.183,0,0,1,469.78,163.59Zm4.23-2.67a1.471,1.471,0,0,0-1.4-.86,1.486,1.486,0,0,0-1.41.85,6.153,6.153,0,0,0-.44,2.72,6.3,6.3,0,0,0,.44,2.72,1.582,1.582,0,0,0,2.81-.01,8.566,8.566,0,0,0,0-5.42Z" fill="#767171"/>
      <path id="Path_63" data-name="Path 63" d="M463.21,207.27a1.818,1.818,0,0,1,.69-1.49,3.386,3.386,0,0,1,3.7,0,1.936,1.936,0,0,1,.29,2.66,3.581,3.581,0,0,1-1.25.94,4.2,4.2,0,0,1,1.48,1.05,1.916,1.916,0,0,1,.45,1.27,2.167,2.167,0,0,1-.74,1.71,3.132,3.132,0,0,1-2.08.63,3.191,3.191,0,0,1-2.07-.6,2.078,2.078,0,0,1-.74-1.7,2.548,2.548,0,0,1,1.79-2.29,3.284,3.284,0,0,1-1.15-.98A2.155,2.155,0,0,1,463.21,207.27Zm1.07,3.4a1.661,1.661,0,0,0-.39,1.12,1.282,1.282,0,0,0,.49,1.06,2.148,2.148,0,0,0,1.37.39,2.093,2.093,0,0,0,1.37-.41,1.38,1.38,0,0,0,.49-1.13,1.344,1.344,0,0,0-.46-1.01,4.911,4.911,0,0,0-1.59-.86A3.628,3.628,0,0,0,464.28,210.67Zm2.62-4.3a1.784,1.784,0,0,0-1.16-.35,1.736,1.736,0,0,0-1.15.35,1.15,1.15,0,0,0-.41.91,1.437,1.437,0,0,0,.35.96,3.791,3.791,0,0,0,1.28.77,3.252,3.252,0,0,0,1.19-.76,1.444,1.444,0,0,0,.35-.97A1.142,1.142,0,0,0,466.9,206.37Z" fill="#767171"/>
      <path id="Path_64" data-name="Path 64" d="M469.78,209.59a6.145,6.145,0,0,1,.7-3.29,2.336,2.336,0,0,1,2.11-1.09,2.4,2.4,0,0,1,2.14,1.13,7.974,7.974,0,0,1,.03,6.6,2.336,2.336,0,0,1-2.11,1.09,2.363,2.363,0,0,1-2.13-1.12A6.183,6.183,0,0,1,469.78,209.59Zm4.23-2.67a1.471,1.471,0,0,0-1.4-.86,1.486,1.486,0,0,0-1.41.85,6.153,6.153,0,0,0-.44,2.72,6.3,6.3,0,0,0,.44,2.72,1.582,1.582,0,0,0,2.81-.01,8.566,8.566,0,0,0,0-5.42Z" fill="#767171"/>
      <path id="Path_65" data-name="Path 65" d="M466.11,254.58a2.4,2.4,0,0,1,1.82.69,2.635,2.635,0,0,1,.67,1.9,2.9,2.9,0,0,1-.73,2.1,2.653,2.653,0,0,1-2.01.76,2.512,2.512,0,0,1-2.07-1,4.4,4.4,0,0,1-.78-2.78q0-5.025,3.88-5.03a3.91,3.91,0,0,1,1.04.11v.84a3.2,3.2,0,0,0-1.03-.15,2.577,2.577,0,0,0-2.11.87,4.457,4.457,0,0,0-.79,2.69h.07A2.264,2.264,0,0,1,466.11,254.58Zm-.25.77a1.909,1.909,0,0,0-1.29.49,1.412,1.412,0,0,0-.56,1.12,2.644,2.644,0,0,0,.23,1.12,2.04,2.04,0,0,0,.67.83,1.558,1.558,0,0,0,.94.31h.04a1.609,1.609,0,0,0,1.29-.53,2.154,2.154,0,0,0,.46-1.45,2.006,2.006,0,0,0-.43-1.4,1.622,1.622,0,0,0-1.27-.48A.249.249,0,0,0,465.86,255.35Z" fill="#767171"/>
      <path id="Path_66" data-name="Path 66" d="M469.78,255.59a6.145,6.145,0,0,1,.7-3.29,2.336,2.336,0,0,1,2.11-1.09,2.4,2.4,0,0,1,2.14,1.13,7.974,7.974,0,0,1,.03,6.6,2.336,2.336,0,0,1-2.11,1.09,2.363,2.363,0,0,1-2.13-1.12A6.183,6.183,0,0,1,469.78,255.59Zm4.23-2.67a1.471,1.471,0,0,0-1.4-.86,1.486,1.486,0,0,0-1.41.85,6.153,6.153,0,0,0-.44,2.72,6.3,6.3,0,0,0,.44,2.72,1.582,1.582,0,0,0,2.81-.01,8.566,8.566,0,0,0,0-5.42Z" fill="#767171"/>
      <path id="Path_67" data-name="Path 67" d="M467.67,303.06h1.27v.88h-1.27v1.97h-.93v-1.97h-4.17v-.85l4.07-5.79h1.03Zm-.93,0v-2.84c0-.6.02-1.23.06-1.9h-.05a7.3,7.3,0,0,1-.53.93l-2.68,3.81Z" fill="#767171"/>
      <path id="Path_68" data-name="Path 68" d="M469.78,301.59a6.145,6.145,0,0,1,.7-3.29,2.336,2.336,0,0,1,2.11-1.09,2.4,2.4,0,0,1,2.14,1.13,7.974,7.974,0,0,1,.03,6.6,2.336,2.336,0,0,1-2.11,1.09,2.363,2.363,0,0,1-2.13-1.12A6.183,6.183,0,0,1,469.78,301.59Zm4.23-2.67a1.471,1.471,0,0,0-1.4-.86,1.486,1.486,0,0,0-1.41.85,6.153,6.153,0,0,0-.44,2.72,6.3,6.3,0,0,0,.44,2.72,1.582,1.582,0,0,0,2.81-.01,8.566,8.566,0,0,0,0-5.42Z" fill="#767171"/>
      <path id="Path_69" data-name="Path 69" d="M465.6,343.23a2.706,2.706,0,0,1,1.89.62,2.133,2.133,0,0,1,.68,1.66,3.274,3.274,0,0,1-.45,1.61,9.628,9.628,0,0,1-1.71,2.02l-1.88,1.83v.05h4.41v.9H462.9v-.84l2.26-2.27a18.183,18.183,0,0,0,1.38-1.51,3.23,3.23,0,0,0,.47-.84,2.674,2.674,0,0,0,.16-.91,1.439,1.439,0,0,0-.42-1.09,1.58,1.58,0,0,0-1.15-.4,2.826,2.826,0,0,0-1.01.18,4.027,4.027,0,0,0-1.06.64l-.52-.66A3.987,3.987,0,0,1,465.6,343.23Z" fill="#767171"/>
      <path id="Path_70" data-name="Path 70" d="M469.78,347.59a6.145,6.145,0,0,1,.7-3.29,2.336,2.336,0,0,1,2.11-1.09,2.4,2.4,0,0,1,2.14,1.13,7.974,7.974,0,0,1,.03,6.6,2.336,2.336,0,0,1-2.11,1.09,2.363,2.363,0,0,1-2.13-1.12A6.183,6.183,0,0,1,469.78,347.59Zm4.23-2.67a1.471,1.471,0,0,0-1.4-.86,1.486,1.486,0,0,0-1.41.85,6.153,6.153,0,0,0-.44,2.72,6.3,6.3,0,0,0,.44,2.72,1.582,1.582,0,0,0,2.81-.01,8.566,8.566,0,0,0,0-5.42Z" fill="#767171"/>
      <path id="Path_71" data-name="Path 71" d="M469.78,393.59a6.145,6.145,0,0,1,.7-3.29,2.336,2.336,0,0,1,2.11-1.09,2.4,2.4,0,0,1,2.14,1.13,7.974,7.974,0,0,1,.03,6.6,2.336,2.336,0,0,1-2.11,1.09,2.363,2.363,0,0,1-2.13-1.12A6.183,6.183,0,0,1,469.78,393.59Zm4.23-2.67a1.471,1.471,0,0,0-1.4-.86,1.486,1.486,0,0,0-1.41.85,6.153,6.153,0,0,0-.44,2.72,6.3,6.3,0,0,0,.44,2.72,1.582,1.582,0,0,0,2.81-.01,8.566,8.566,0,0,0,0-5.42Z" fill="#767171"/>
    </g>
    <rect id="Rectangle_4" data-name="Rectangle 4" width="466.99" height="12" transform="translate(478.96 404.3)" fill="none"/>
    <text id="_0_30_60_90_120_150_180_210_240" data-name="0 30 60 90 120 150 180 210 240" transform="translate(478.963 413.419)" fill="#767171" font-size="12" font-family="SegoeUI, Segoe UI"><tspan x="0" y="0">0 30 60 90 120 150 180 210 240</tspan></text>
    <g id="Group_22" data-name="Group 22">
      <path id="Path_72" data-name="Path 72" d="M424.6,321.43v-2.62a3.853,3.853,0,0,1,4.2-4.22,4.3,4.3,0,0,1,3.24,1.15,4.587,4.587,0,0,1,1.12,3.31v2.37H424.6Zm.87-1h6.84v-1.21a3.643,3.643,0,0,0-.88-2.67,4.2,4.2,0,0,0-5.12-.06,3.35,3.35,0,0,0-.85,2.5v1.44Z" fill="#767171"/>
      <path id="Path_73" data-name="Path 73" d="M425.01,312.91a.648.648,0,0,1-.48-.16.542.542,0,0,1-.16-.41.565.565,0,0,1,.16-.42.8.8,0,0,1,.96,0,.573.573,0,0,1,.17.42.55.55,0,0,1-.17.41A.648.648,0,0,1,425.01,312.91Zm8.16-1.06v.97h-6.42v-.97Z" fill="#767171"/>
      <path id="Path_74" data-name="Path 74" d="M432.49,308.17c0-1.05-.33-1.58-.98-1.58a.8.8,0,0,0-.64.33,5.014,5.014,0,0,0-.63,1.27,6.358,6.358,0,0,1-.59,1.28,1.861,1.861,0,0,1-.56.56,1.474,1.474,0,0,1-.76.18,1.446,1.446,0,0,1-1.24-.64,2.862,2.862,0,0,1-.46-1.71,5.32,5.32,0,0,1,.42-2.07l.79.35a4.618,4.618,0,0,0-.39,1.7,2.211,2.211,0,0,0,.21,1.09.66.66,0,0,0,.6.36.716.716,0,0,0,.44-.13,1.391,1.391,0,0,0,.35-.42,8.025,8.025,0,0,0,.47-1.13,4.181,4.181,0,0,1,.84-1.54,1.5,1.5,0,0,1,1.06-.4,1.586,1.586,0,0,1,1.38.67,3.244,3.244,0,0,1,.49,1.91,3.937,3.937,0,0,1-.4,1.95h-.9A4.6,4.6,0,0,0,432.49,308.17Z" fill="#767171"/>
      <path id="Path_75" data-name="Path 75" d="M432.49,302.45c0-1.05-.33-1.58-.98-1.58a.8.8,0,0,0-.64.33,5.014,5.014,0,0,0-.63,1.27,6.358,6.358,0,0,1-.59,1.28,1.861,1.861,0,0,1-.56.56,1.474,1.474,0,0,1-.76.18,1.446,1.446,0,0,1-1.24-.64,2.862,2.862,0,0,1-.46-1.71,5.32,5.32,0,0,1,.42-2.07l.79.35a4.618,4.618,0,0,0-.39,1.7,2.211,2.211,0,0,0,.21,1.09.66.66,0,0,0,.6.36.716.716,0,0,0,.44-.13,1.391,1.391,0,0,0,.35-.42,8.025,8.025,0,0,0,.47-1.13,4.181,4.181,0,0,1,.84-1.54,1.5,1.5,0,0,1,1.06-.4,1.586,1.586,0,0,1,1.38.67,3.244,3.244,0,0,1,.49,1.91,3.937,3.937,0,0,1-.4,1.95h-.9A4.6,4.6,0,0,0,432.49,302.45Z" fill="#767171"/>
      <path id="Path_76" data-name="Path 76" d="M429.95,298.72a3.568,3.568,0,0,1-2.45-.78,3.066,3.066,0,0,1,.02-4.32,4.127,4.127,0,0,1,4.87-.01,2.825,2.825,0,0,1,.88,2.19v.05a2.632,2.632,0,0,1-.9,2.07,3.415,3.415,0,0,1-2.35.8Zm-2.49-2.94c0,1.29.83,1.93,2.49,1.93a3.052,3.052,0,0,0,1.88-.5,1.963,1.963,0,0,0,0-2.9,3.02,3.02,0,0,0-1.87-.5,2.968,2.968,0,0,0-1.86.5A1.775,1.775,0,0,0,427.46,295.78Z" fill="#767171"/>
      <path id="Path_77" data-name="Path 77" d="M433.17,290.13v.97h-9.12v-.97Z" fill="#767171"/>
      <path id="Path_78" data-name="Path 78" d="M433.17,285.53v1.14l-6.42,2.44v-1.04l3.81-1.38c.91-.32,1.49-.5,1.73-.55v-.05a12.15,12.15,0,0,1-1.25-.39c-.63-.22-2.06-.74-4.29-1.55v-1.04Z" fill="#767171"/>
      <path id="Path_79" data-name="Path 79" d="M433.29,279.35a2.953,2.953,0,0,1-.87,2.25,3.38,3.38,0,0,1-2.42.82,3.712,3.712,0,0,1-2.46-.76,2.5,2.5,0,0,1-.91-2.02,2.461,2.461,0,0,1,.8-1.95,2.985,2.985,0,0,1,2.09-.7h.62v4.42a2.541,2.541,0,0,0,1.71-.57,2.012,2.012,0,0,0,.59-1.55,5.064,5.064,0,0,0-.43-2.02h.87a5.314,5.314,0,0,1,.32.98A5.088,5.088,0,0,1,433.29,279.35Zm-3.95-1.32a2.125,2.125,0,0,0-1.4.41,1.465,1.465,0,0,0-.49,1.17,1.627,1.627,0,0,0,.5,1.23,2.254,2.254,0,0,0,1.39.54v-3.35Z" fill="#767171"/>
      <path id="Path_80" data-name="Path 80" d="M433.17,270.04v.79l-.86.13v.05a2.259,2.259,0,0,1,.98,1.98,2.441,2.441,0,0,1-.86,2,4.655,4.655,0,0,1-4.91,0,2.412,2.412,0,0,1-.88-1.98,2.331,2.331,0,0,1,.95-1.98v-.08l-.46.04-.45.02h-2.61v-.97Zm-2.99.97h-.21a3.176,3.176,0,0,0-1.95.46,1.7,1.7,0,0,0-.58,1.45,1.49,1.49,0,0,0,.66,1.31,3.327,3.327,0,0,0,1.88.45,3.177,3.177,0,0,0,1.85-.45,1.519,1.519,0,0,0,.63-1.32,1.758,1.758,0,0,0-.54-1.44A2.747,2.747,0,0,0,430.18,271.01Z" fill="#767171"/>
      <path id="Path_81" data-name="Path 81" d="M431.78,266.95l.13-.09a11.55,11.55,0,0,1,1.35.44c.51.2,1,.39,1.45.6v.73c-.43-.11-.94-.23-1.51-.35q-.825-.18-1.44-.27v-1.06Z" fill="#767171"/>
      <path id="Path_82" data-name="Path 82" d="M424.48,260.61a1.47,1.47,0,0,1,.7-1.31,4.623,4.623,0,0,1,4-.01,1.56,1.56,0,0,1-.02,2.59,3.7,3.7,0,0,1-2,.45C425.37,262.34,424.48,261.76,424.48,260.61Zm8.69-.66v.86l-8.57-4.75v-.86Zm-7.99.66a.734.734,0,0,0,.48.7,5.224,5.224,0,0,0,3,0,.743.743,0,0,0,.49-.7c0-.64-.66-.96-1.99-.96S425.18,259.97,425.18,260.61Zm5.4-3.43a3.692,3.692,0,0,1-1.99-.44,1.432,1.432,0,0,1-.67-1.29,1.483,1.483,0,0,1,.69-1.31,4.6,4.6,0,0,1,3.99-.01,1.467,1.467,0,0,1,.68,1.3,1.443,1.443,0,0,1-.7,1.3A3.68,3.68,0,0,1,430.58,257.18Zm.02-2.69a3.7,3.7,0,0,0-1.49.23.759.759,0,0,0-.48.72.746.746,0,0,0,.48.71,3.731,3.731,0,0,0,1.49.22,3.876,3.876,0,0,0,1.51-.22.733.733,0,0,0,.49-.71.745.745,0,0,0-.49-.72A3.811,3.811,0,0,0,430.6,254.49Z" fill="#767171"/>
      <path id="Path_83" data-name="Path 83" d="M433.17,242.36v1.03l-2.72,1.07v3.43l2.72,1.05v1.01l-8.6-3.39v-.84Zm-3.62,2.4-2.65,1c-.34.13-.76.27-1.24.4.37.09.78.21,1.24.37l2.65,1.01Z" fill="#767171"/>
      <path id="Path_84" data-name="Path 84" d="M432.42,239.36a2.411,2.411,0,0,0-.38-1.49,1.241,1.241,0,0,0-1.05-.51,1.362,1.362,0,0,0-.73.18,1.61,1.61,0,0,0-.52.59,9.367,9.367,0,0,0-.55,1.28,4.1,4.1,0,0,1-1.02,1.71,2.28,2.28,0,0,1-1.55.51,1.891,1.891,0,0,1-1.55-.74,3.123,3.123,0,0,1-.59-1.99,5.76,5.76,0,0,1,.47-2.32l.87.3a5.218,5.218,0,0,0-.45,2.06,1.986,1.986,0,0,0,.34,1.24,1.117,1.117,0,0,0,.94.45,1.461,1.461,0,0,0,.73-.16,1.59,1.59,0,0,0,.52-.54,6.609,6.609,0,0,0,.53-1.2,4.81,4.81,0,0,1,1.04-1.86,2.033,2.033,0,0,1,1.42-.5,2.1,2.1,0,0,1,1.76.82,3.689,3.689,0,0,1,.63,2.29,5.374,5.374,0,0,1-.39,2.28h-.96A6.244,6.244,0,0,0,432.42,239.36Z" fill="#767171"/>
      <path id="Path_85" data-name="Path 85" d="M432.42,232.77a2.411,2.411,0,0,0-.38-1.49,1.241,1.241,0,0,0-1.05-.51,1.362,1.362,0,0,0-.73.18,1.61,1.61,0,0,0-.52.59,9.367,9.367,0,0,0-.55,1.28,4.1,4.1,0,0,1-1.02,1.71,2.28,2.28,0,0,1-1.55.51,1.891,1.891,0,0,1-1.55-.74,3.123,3.123,0,0,1-.59-1.99,5.76,5.76,0,0,1,.47-2.32l.87.3a5.218,5.218,0,0,0-.45,2.06,1.986,1.986,0,0,0,.34,1.24,1.117,1.117,0,0,0,.94.45,1.461,1.461,0,0,0,.73-.16,1.59,1.59,0,0,0,.52-.54,6.609,6.609,0,0,0,.53-1.2,4.81,4.81,0,0,1,1.04-1.86,2.033,2.033,0,0,1,1.42-.5,2.1,2.1,0,0,1,1.76.82,3.689,3.689,0,0,1,.63,2.29,5.374,5.374,0,0,1-.39,2.28h-.96A6.206,6.206,0,0,0,432.42,232.77Z" fill="#767171"/>
      <path id="Path_86" data-name="Path 86" d="M433.17,221.59v1.03l-2.72,1.07v3.43l2.72,1.05v1.01l-8.6-3.39v-.84ZM429.55,224l-2.65,1c-.34.13-.76.27-1.24.4.37.09.78.21,1.24.37l2.65,1.01Z" fill="#767171"/>
      <path id="Path_87" data-name="Path 87" d="M433.17,217.73v1.01h-3.28l-5.29,2.85V220.5l4.28-2.27-4.28-2.29v-1.08l5.24,2.86h3.33Z" fill="#767171"/>
    </g>
    <g id="Group_23" data-name="Group 23">
      <path id="Path_88" data-name="Path 88" d="M662.9,425.09h-2.71v7.68h-1v-7.68h-2.71v-.88h6.42v.88Z" fill="#767171"/>
      <path id="Path_89" data-name="Path 89" d="M663.96,424.6a.649.649,0,0,1,.16-.48.542.542,0,0,1,.41-.16.565.565,0,0,1,.42.16.8.8,0,0,1,0,.96.573.573,0,0,1-.42.17.55.55,0,0,1-.41-.17A.633.633,0,0,1,663.96,424.6Zm1.05,8.17h-.97v-6.42h.97Z" fill="#767171"/>
      <path id="Path_90" data-name="Path 90" d="M674.06,426.23a2.164,2.164,0,0,1,1.64.57,2.51,2.51,0,0,1,.54,1.78v4.19h-.97v-4.18a1.7,1.7,0,0,0-.33-1.15,1.291,1.291,0,0,0-1.02-.38,1.63,1.63,0,0,0-1.34.52,2.466,2.466,0,0,0-.43,1.6v3.59h-.97v-4.18a1.7,1.7,0,0,0-.33-1.15,1.291,1.291,0,0,0-1.02-.38,1.6,1.6,0,0,0-1.34.54,2.964,2.964,0,0,0-.42,1.79v3.37h-.97v-6.42h.79l.16.88h.05a1.838,1.838,0,0,1,.78-.73,2.462,2.462,0,0,1,1.12-.26,1.909,1.909,0,0,1,1.97,1.09h.05a2,2,0,0,1,.83-.8A2.517,2.517,0,0,1,674.06,426.23Z" fill="#767171"/>
      <path id="Path_91" data-name="Path 91" d="M680.95,432.89a2.953,2.953,0,0,1-2.25-.87,3.38,3.38,0,0,1-.82-2.42,3.712,3.712,0,0,1,.76-2.46,2.5,2.5,0,0,1,2.02-.91,2.461,2.461,0,0,1,1.95.8,2.985,2.985,0,0,1,.7,2.09v.62h-4.42a2.542,2.542,0,0,0,.57,1.71,2.012,2.012,0,0,0,1.55.59,5.064,5.064,0,0,0,2.02-.43v.87a5.315,5.315,0,0,1-.98.32A5.089,5.089,0,0,1,680.95,432.89Zm1.32-3.95a2.125,2.125,0,0,0-.41-1.4,1.465,1.465,0,0,0-1.17-.49,1.627,1.627,0,0,0-1.23.5,2.254,2.254,0,0,0-.54,1.39h3.35Z" fill="#767171"/>
      <path id="Path_92" data-name="Path 92" d="M684.83,432.16a.9.9,0,0,1,.18-.6.643.643,0,0,1,.52-.21.678.678,0,0,1,.53.21,1.011,1.011,0,0,1,0,1.18.671.671,0,0,1-.52.21.7.7,0,0,1-.52-.19A.832.832,0,0,1,684.83,432.16Z" fill="#767171"/>
      <path id="Path_93" data-name="Path 93" d="M698.26,426.23a2.164,2.164,0,0,1,1.64.57,2.51,2.51,0,0,1,.54,1.78v4.19h-.97v-4.18a1.7,1.7,0,0,0-.33-1.15,1.291,1.291,0,0,0-1.02-.38,1.63,1.63,0,0,0-1.34.52,2.466,2.466,0,0,0-.43,1.6v3.59h-.97v-4.18a1.7,1.7,0,0,0-.33-1.15,1.291,1.291,0,0,0-1.02-.38,1.6,1.6,0,0,0-1.34.54,2.964,2.964,0,0,0-.42,1.79v3.37h-.97v-6.42h.79l.16.88h.05a1.838,1.838,0,0,1,.78-.73,2.462,2.462,0,0,1,1.12-.26,1.909,1.909,0,0,1,1.97,1.09h.05a2,2,0,0,1,.83-.8A2.517,2.517,0,0,1,698.26,426.23Z" fill="#767171"/>
      <path id="Path_94" data-name="Path 94" d="M702.36,424.6a.649.649,0,0,1,.16-.48.542.542,0,0,1,.41-.16.565.565,0,0,1,.42.16.8.8,0,0,1,0,.96.573.573,0,0,1-.42.17.55.55,0,0,1-.41-.17A.633.633,0,0,1,702.36,424.6Zm1.05,8.17h-.97v-6.42h.97Z" fill="#767171"/>
      <path id="Path_95" data-name="Path 95" d="M708.51,426.23a2.393,2.393,0,0,1,1.75.57,2.425,2.425,0,0,1,.58,1.78v4.19h-.97v-4.15a1.639,1.639,0,0,0-.36-1.17,1.486,1.486,0,0,0-1.12-.38,1.848,1.848,0,0,0-1.48.54,2.743,2.743,0,0,0-.47,1.79v3.37h-.97v-6.42h.79l.16.88h.05a2.055,2.055,0,0,1,.83-.74A2.654,2.654,0,0,1,708.51,426.23Z" fill="#767171"/>
      <path id="Path_96" data-name="Path 96" d="M718.14,432.77h-.8l-.14-.86h-.05a1.906,1.906,0,0,1-.83.73,2.787,2.787,0,0,1-1.21.25,2.446,2.446,0,0,1-1.76-.56,2.408,2.408,0,0,1-.57-1.78v-4.2h.98v4.17a1.639,1.639,0,0,0,.36,1.17,1.486,1.486,0,0,0,1.12.38,1.81,1.81,0,0,0,1.47-.55,2.793,2.793,0,0,0,.47-1.8v-3.38h.97v6.43Z" fill="#767171"/>
      <path id="Path_97" data-name="Path 97" d="M721.25,426.35h1.86v.76h-1.86v3.78a1.333,1.333,0,0,0,.27.89.931.931,0,0,0,.75.31,3.191,3.191,0,0,0,.89-.12v.75a1.481,1.481,0,0,1-.46.12,4.128,4.128,0,0,1-.56.05c-1.24,0-1.86-.65-1.86-1.96v-3.82h-.92v-.47l.92-.4.41-1.37h.56Z" fill="#767171"/>
      <path id="Path_98" data-name="Path 98" d="M727.16,432.89a2.953,2.953,0,0,1-2.25-.87,3.38,3.38,0,0,1-.82-2.42,3.712,3.712,0,0,1,.76-2.46,2.5,2.5,0,0,1,2.02-.91,2.461,2.461,0,0,1,1.95.8,2.985,2.985,0,0,1,.7,2.09v.62H725.1a2.542,2.542,0,0,0,.57,1.71,2.012,2.012,0,0,0,1.55.59,5.064,5.064,0,0,0,2.02-.43v.87a5.315,5.315,0,0,1-.98.32A5.146,5.146,0,0,1,727.16,432.89Zm1.31-3.95a2.125,2.125,0,0,0-.41-1.4,1.465,1.465,0,0,0-1.17-.49,1.627,1.627,0,0,0-1.23.5,2.254,2.254,0,0,0-.54,1.39h3.35Z" fill="#767171"/>
      <path id="Path_99" data-name="Path 99" d="M732.8,432.08c1.05,0,1.58-.33,1.58-.98a.8.8,0,0,0-.33-.64,5.015,5.015,0,0,0-1.27-.63,6.359,6.359,0,0,1-1.28-.59,1.861,1.861,0,0,1-.56-.56,1.474,1.474,0,0,1-.18-.76,1.446,1.446,0,0,1,.64-1.24,2.862,2.862,0,0,1,1.71-.46,5.319,5.319,0,0,1,2.07.42l-.35.79a4.618,4.618,0,0,0-1.7-.39,2.211,2.211,0,0,0-1.09.21.66.66,0,0,0-.36.6.716.716,0,0,0,.13.44,1.391,1.391,0,0,0,.42.35,8.025,8.025,0,0,0,1.13.47,4.181,4.181,0,0,1,1.54.84,1.5,1.5,0,0,1,.4,1.06,1.586,1.586,0,0,1-.67,1.38,3.244,3.244,0,0,1-1.91.49,3.937,3.937,0,0,1-1.95-.4v-.9A4.471,4.471,0,0,0,732.8,432.08Z" fill="#767171"/>
    </g>
    <g id="Group_24" data-name="Group 24">
      <path id="Path_100" data-name="Path 100" d="M518.32,452.68h2.15a3.372,3.372,0,0,1,2.13.55,2.006,2.006,0,0,1,.69,1.67,2.1,2.1,0,0,1-1.58,2.11l2.13,3.53h-1.08l-1.9-3.27h-1.64v3.27h-.91v-7.86Zm.92.8v3h1.25a2.23,2.23,0,0,0,1.42-.38,1.421,1.421,0,0,0,.45-1.15,1.308,1.308,0,0,0-.46-1.12,2.484,2.484,0,0,0-1.47-.35Z" fill="#767171"/>
      <path id="Path_101" data-name="Path 101" d="M525.12,452.68h2.41a3.888,3.888,0,0,1,2.85,1.01,3.828,3.828,0,0,1,1.02,2.84,3.92,3.92,0,0,1-1.06,2.97,4.168,4.168,0,0,1-3.03,1.03h-2.17v-7.85Zm.92.79v6.27h1.11a3.408,3.408,0,0,0,2.45-.8,3.15,3.15,0,0,0,.82-2.36,3.192,3.192,0,0,0-.77-2.33,3.083,3.083,0,0,0-2.29-.78h-1.32Z" fill="#767171"/>
      <path id="Path_102" data-name="Path 102" d="M532.61,456.57a5.616,5.616,0,0,1,.64-3.01,2.155,2.155,0,0,1,1.93-1,2.189,2.189,0,0,1,1.96,1.03,7.314,7.314,0,0,1,.03,6.05,2.371,2.371,0,0,1-3.89-.03A5.685,5.685,0,0,1,532.61,456.57Zm3.88-2.45a1.334,1.334,0,0,0-1.28-.79,1.355,1.355,0,0,0-1.29.78,5.716,5.716,0,0,0-.4,2.49,5.8,5.8,0,0,0,.4,2.5,1.452,1.452,0,0,0,2.58-.01,5.754,5.754,0,0,0,.4-2.48A5.841,5.841,0,0,0,536.49,454.12Z" fill="#767171"/>
      <path id="Path_103" data-name="Path 103" d="M538.9,456.57a5.616,5.616,0,0,1,.64-3.01,2.155,2.155,0,0,1,1.93-1,2.189,2.189,0,0,1,1.96,1.03,7.314,7.314,0,0,1,.03,6.05,2.371,2.371,0,0,1-3.89-.03A5.571,5.571,0,0,1,538.9,456.57Zm3.88-2.45a1.334,1.334,0,0,0-1.28-.79,1.355,1.355,0,0,0-1.29.78,5.715,5.715,0,0,0-.4,2.49,5.8,5.8,0,0,0,.4,2.5,1.452,1.452,0,0,0,2.58-.01,5.755,5.755,0,0,0,.4-2.48A5.843,5.843,0,0,0,542.78,454.12Z" fill="#767171"/>
      <path id="Path_104" data-name="Path 104" d="M545.19,456.57a5.616,5.616,0,0,1,.64-3.01,2.155,2.155,0,0,1,1.93-1,2.189,2.189,0,0,1,1.96,1.03,7.314,7.314,0,0,1,.03,6.05,2.371,2.371,0,0,1-3.89-.03A5.685,5.685,0,0,1,545.19,456.57Zm3.88-2.45a1.325,1.325,0,0,0-1.28-.79,1.355,1.355,0,0,0-1.29.78,5.716,5.716,0,0,0-.4,2.49,5.8,5.8,0,0,0,.4,2.5,1.452,1.452,0,0,0,2.58-.01,5.754,5.754,0,0,0,.4-2.48A5.842,5.842,0,0,0,549.07,454.12Z" fill="#767171"/>
      <path id="Path_105" data-name="Path 105" d="M553.92,452.57a2.736,2.736,0,0,1,1.78.52,1.782,1.782,0,0,1,.64,1.44,1.8,1.8,0,0,1-.42,1.23,2.116,2.116,0,0,1-1.2.64v.04a2.3,2.3,0,0,1,1.4.59,1.764,1.764,0,0,1,.46,1.28,2.056,2.056,0,0,1-.78,1.73,3.564,3.564,0,0,1-2.21.6,4.935,4.935,0,0,1-2.15-.42v-.85a4.964,4.964,0,0,0,2.19.52q2.04,0,2.04-1.59c0-.95-.75-1.43-2.25-1.43h-.77v-.77h.79a2.387,2.387,0,0,0,1.46-.41,1.33,1.33,0,0,0,.54-1.12,1.117,1.117,0,0,0-.39-.9,1.611,1.611,0,0,0-1.07-.33,3.324,3.324,0,0,0-.96.14,3.905,3.905,0,0,0-1.05.52l-.45-.6a3.657,3.657,0,0,1,1.12-.6A3.315,3.315,0,0,1,553.92,452.57Z" fill="#767171"/>
      <path id="Path_106" data-name="Path 106" d="M561.06,460.53h-.87v-5.6c0-.44.01-.88.04-1.32-.08.08-.15.15-.22.21s-.51.42-1.31,1.07l-.47-.61,2.08-1.61h.75v7.86Z" fill="#767171"/>
      <path id="Path_107" data-name="Path 107" d="M564.01,453.5v-.82h5.23v.71l-3.21,7.14h-.99l3.25-7.03Z" fill="#767171"/>
      <path id="Path_108" data-name="Path 108" d="M571.64,452.18v2.03c0,.43-.01.84-.04,1.22h.04a2.085,2.085,0,0,1,1.82-.88,2.193,2.193,0,0,1,1.83.79,4.229,4.229,0,0,1-.01,4.49,2.225,2.225,0,0,1-1.83.8,2.1,2.1,0,0,1-1.81-.87h-.06l-.19.76h-.64v-8.36h.89Zm3.36,5.39a2.958,2.958,0,0,0-.4-1.71,1.46,1.46,0,0,0-1.28-.56,1.517,1.517,0,0,0-1.28.52,2.926,2.926,0,0,0-.4,1.76,3.01,3.01,0,0,0,.41,1.78,1.6,1.6,0,0,0,1.33.53,1.392,1.392,0,0,0,1.22-.59A3.135,3.135,0,0,0,575,457.57Z" fill="#767171"/>
    </g>
    <g id="Group_25" data-name="Group 25">
      <path id="Path_109" data-name="Path 109" d="M661.15,452.68h2.15a3.372,3.372,0,0,1,2.13.55,2.006,2.006,0,0,1,.69,1.67,2.1,2.1,0,0,1-1.58,2.11l2.13,3.53h-1.08l-1.9-3.27h-1.64v3.27h-.91v-7.86Zm.92.8v3h1.25a2.23,2.23,0,0,0,1.42-.38,1.421,1.421,0,0,0,.45-1.15,1.308,1.308,0,0,0-.46-1.12,2.484,2.484,0,0,0-1.47-.35Z" fill="#767171"/>
      <path id="Path_110" data-name="Path 110" d="M667.95,452.68h2.41a3.888,3.888,0,0,1,2.85,1.01,3.824,3.824,0,0,1,1.01,2.84,3.92,3.92,0,0,1-1.06,2.97,4.177,4.177,0,0,1-3.04,1.03h-2.18v-7.85Zm.92.79v6.27h1.11a3.408,3.408,0,0,0,2.45-.8,3.135,3.135,0,0,0,.82-2.36,3.192,3.192,0,0,0-.77-2.33,3.083,3.083,0,0,0-2.29-.78h-1.32Z" fill="#767171"/>
      <path id="Path_111" data-name="Path 111" d="M675.44,456.57a5.616,5.616,0,0,1,.64-3.01,2.155,2.155,0,0,1,1.93-1,2.189,2.189,0,0,1,1.96,1.03,7.314,7.314,0,0,1,.03,6.05,2.371,2.371,0,0,1-3.89-.03A5.685,5.685,0,0,1,675.44,456.57Zm3.88-2.45a1.325,1.325,0,0,0-1.28-.79,1.355,1.355,0,0,0-1.29.78,5.716,5.716,0,0,0-.4,2.49,5.8,5.8,0,0,0,.4,2.5,1.452,1.452,0,0,0,2.58-.01,5.754,5.754,0,0,0,.4-2.48A5.842,5.842,0,0,0,679.32,454.12Z" fill="#767171"/>
      <path id="Path_112" data-name="Path 112" d="M681.73,456.57a5.616,5.616,0,0,1,.64-3.01,2.155,2.155,0,0,1,1.93-1,2.189,2.189,0,0,1,1.96,1.03,7.314,7.314,0,0,1,.03,6.05,2.371,2.371,0,0,1-3.89-.03A5.571,5.571,0,0,1,681.73,456.57Zm3.88-2.45a1.325,1.325,0,0,0-1.28-.79,1.355,1.355,0,0,0-1.29.78,5.715,5.715,0,0,0-.4,2.49,5.8,5.8,0,0,0,.4,2.5,1.452,1.452,0,0,0,2.58-.01,5.754,5.754,0,0,0,.4-2.48A5.841,5.841,0,0,0,685.61,454.12Z" fill="#767171"/>
      <path id="Path_113" data-name="Path 113" d="M688.02,456.57a5.616,5.616,0,0,1,.64-3.01,2.155,2.155,0,0,1,1.93-1,2.189,2.189,0,0,1,1.96,1.03,7.314,7.314,0,0,1,.03,6.05,2.371,2.371,0,0,1-3.89-.03A5.685,5.685,0,0,1,688.02,456.57Zm3.88-2.45a1.334,1.334,0,0,0-1.28-.79,1.355,1.355,0,0,0-1.29.78,5.716,5.716,0,0,0-.4,2.49,5.8,5.8,0,0,0,.4,2.5,1.452,1.452,0,0,0,2.58-.01,5.754,5.754,0,0,0,.4-2.48A5.843,5.843,0,0,0,691.9,454.12Z" fill="#767171"/>
      <path id="Path_114" data-name="Path 114" d="M696.75,452.57a2.688,2.688,0,0,1,1.77.52,1.782,1.782,0,0,1,.64,1.44,1.8,1.8,0,0,1-.42,1.23,2.116,2.116,0,0,1-1.2.64v.04a2.3,2.3,0,0,1,1.4.59,1.764,1.764,0,0,1,.46,1.28,2.056,2.056,0,0,1-.78,1.73,3.564,3.564,0,0,1-2.21.6,4.935,4.935,0,0,1-2.15-.42v-.85a4.964,4.964,0,0,0,2.19.52q2.04,0,2.04-1.59c0-.95-.75-1.43-2.24-1.43h-.77v-.77h.78a2.387,2.387,0,0,0,1.46-.41,1.33,1.33,0,0,0,.54-1.12,1.117,1.117,0,0,0-.39-.9,1.611,1.611,0,0,0-1.07-.33,3.324,3.324,0,0,0-.96.14,3.905,3.905,0,0,0-1.05.52l-.45-.6a3.657,3.657,0,0,1,1.12-.6A3.4,3.4,0,0,1,696.75,452.57Z" fill="#767171"/>
      <path id="Path_115" data-name="Path 115" d="M703.89,460.53h-.87v-5.6c0-.44.01-.88.04-1.32-.08.08-.15.15-.22.21s-.51.42-1.31,1.07l-.47-.61,2.08-1.61h.75v7.86Z" fill="#767171"/>
      <path id="Path_116" data-name="Path 116" d="M707.16,454.44a1.657,1.657,0,0,1,.63-1.36,3.1,3.1,0,0,1,3.39-.01,1.656,1.656,0,0,1,.63,1.38,1.7,1.7,0,0,1-.37,1.07,3.15,3.15,0,0,1-1.14.86,3.749,3.749,0,0,1,1.35.96,1.787,1.787,0,0,1,.41,1.16,1.965,1.965,0,0,1-.68,1.56,2.85,2.85,0,0,1-1.91.58,2.926,2.926,0,0,1-1.9-.55,1.91,1.91,0,0,1-.68-1.56,2.331,2.331,0,0,1,1.64-2.1,3.135,3.135,0,0,1-1.06-.89A2.047,2.047,0,0,1,707.16,454.44Zm.98,3.12a1.522,1.522,0,0,0-.36,1.03,1.173,1.173,0,0,0,.45.97,1.957,1.957,0,0,0,1.25.36,1.883,1.883,0,0,0,1.25-.37,1.3,1.3,0,0,0,.45-1.03,1.258,1.258,0,0,0-.42-.93,4.429,4.429,0,0,0-1.46-.79A3.189,3.189,0,0,0,708.14,457.56Zm2.4-3.94a1.645,1.645,0,0,0-1.07-.32,1.616,1.616,0,0,0-1.06.32,1.04,1.04,0,0,0-.38.83,1.324,1.324,0,0,0,.32.88,3.292,3.292,0,0,0,1.17.7,2.881,2.881,0,0,0,1.09-.7,1.331,1.331,0,0,0,.32-.89A.987.987,0,0,0,710.54,453.62Z" fill="#767171"/>
      <path id="Path_117" data-name="Path 117" d="M714.47,452.18v2.03c0,.43-.01.84-.04,1.22h.04a2.085,2.085,0,0,1,1.82-.88,2.193,2.193,0,0,1,1.83.79,4.229,4.229,0,0,1-.01,4.49,2.225,2.225,0,0,1-1.83.8,2.125,2.125,0,0,1-1.82-.87h-.06l-.19.76h-.64v-8.36h.9Zm3.36,5.39a2.958,2.958,0,0,0-.4-1.71,1.448,1.448,0,0,0-1.28-.56,1.5,1.5,0,0,0-1.28.52,2.926,2.926,0,0,0-.4,1.76,3.01,3.01,0,0,0,.41,1.78,1.6,1.6,0,0,0,1.33.53,1.392,1.392,0,0,0,1.22-.59A3.135,3.135,0,0,0,717.83,457.57Z" fill="#767171"/>
    </g>
    <g id="Group_26" data-name="Group 26">
      <path id="Path_118" data-name="Path 118" d="M803.52,452.68h2.15a3.372,3.372,0,0,1,2.13.55,2.006,2.006,0,0,1,.69,1.67,2.1,2.1,0,0,1-1.58,2.11l2.13,3.53h-1.08l-1.9-3.27h-1.64v3.27h-.91v-7.86Zm.91.8v3h1.25a2.18,2.18,0,0,0,1.41-.38,1.426,1.426,0,0,0,.46-1.15,1.308,1.308,0,0,0-.46-1.12,2.484,2.484,0,0,0-1.47-.35Z" fill="#767171"/>
      <path id="Path_119" data-name="Path 119" d="M810.32,452.68h2.41a3.888,3.888,0,0,1,2.85,1.01,3.824,3.824,0,0,1,1.01,2.84,3.92,3.92,0,0,1-1.06,2.97,4.211,4.211,0,0,1-3.03,1.03h-2.18v-7.85Zm.91.79v6.27h1.11a3.408,3.408,0,0,0,2.45-.8,3.15,3.15,0,0,0,.82-2.36,3.192,3.192,0,0,0-.77-2.33,3.083,3.083,0,0,0-2.29-.78h-1.32Z" fill="#767171"/>
      <path id="Path_120" data-name="Path 120" d="M817.81,456.57a5.616,5.616,0,0,1,.64-3.01,2.155,2.155,0,0,1,1.93-1,2.189,2.189,0,0,1,1.96,1.03,7.314,7.314,0,0,1,.03,6.05,2.371,2.371,0,0,1-3.89-.03A5.571,5.571,0,0,1,817.81,456.57Zm3.88-2.45a1.334,1.334,0,0,0-1.28-.79,1.355,1.355,0,0,0-1.29.78,5.715,5.715,0,0,0-.4,2.49,5.8,5.8,0,0,0,.4,2.5,1.452,1.452,0,0,0,2.58-.01,5.755,5.755,0,0,0,.4-2.48A6,6,0,0,0,821.69,454.12Z" fill="#767171"/>
      <path id="Path_121" data-name="Path 121" d="M824.1,456.57a5.616,5.616,0,0,1,.64-3.01,2.155,2.155,0,0,1,1.93-1,2.189,2.189,0,0,1,1.96,1.03,7.314,7.314,0,0,1,.03,6.05,2.371,2.371,0,0,1-3.89-.03A5.685,5.685,0,0,1,824.1,456.57Zm3.87-2.45a1.325,1.325,0,0,0-1.28-.79,1.355,1.355,0,0,0-1.29.78,5.716,5.716,0,0,0-.4,2.49,5.8,5.8,0,0,0,.4,2.5,1.452,1.452,0,0,0,2.58-.01,5.754,5.754,0,0,0,.4-2.48A5.689,5.689,0,0,0,827.97,454.12Z" fill="#767171"/>
      <path id="Path_122" data-name="Path 122" d="M830.39,456.57a5.616,5.616,0,0,1,.64-3.01,2.155,2.155,0,0,1,1.93-1,2.189,2.189,0,0,1,1.96,1.03,7.314,7.314,0,0,1,.03,6.05,2.371,2.371,0,0,1-3.89-.03A5.571,5.571,0,0,1,830.39,456.57Zm3.87-2.45a1.325,1.325,0,0,0-1.28-.79,1.355,1.355,0,0,0-1.29.78,5.715,5.715,0,0,0-.4,2.49,5.8,5.8,0,0,0,.4,2.5,1.452,1.452,0,0,0,2.58-.01,5.754,5.754,0,0,0,.4-2.48A5.69,5.69,0,0,0,834.26,454.12Z" fill="#767171"/>
      <path id="Path_123" data-name="Path 123" d="M839.12,452.57a2.688,2.688,0,0,1,1.77.52,1.752,1.752,0,0,1,.64,1.44,1.8,1.8,0,0,1-.42,1.23,2.116,2.116,0,0,1-1.2.64v.04a2.3,2.3,0,0,1,1.4.59,1.764,1.764,0,0,1,.46,1.28,2.056,2.056,0,0,1-.78,1.73,3.565,3.565,0,0,1-2.21.6,4.935,4.935,0,0,1-2.15-.42v-.85a4.964,4.964,0,0,0,2.19.52q2.04,0,2.04-1.59c0-.95-.75-1.43-2.25-1.43h-.77v-.77h.78a2.387,2.387,0,0,0,1.46-.41,1.33,1.33,0,0,0,.54-1.12,1.117,1.117,0,0,0-.39-.9,1.611,1.611,0,0,0-1.07-.33,3.324,3.324,0,0,0-.96.14,3.905,3.905,0,0,0-1.05.52l-.45-.6a3.657,3.657,0,0,1,1.12-.6A3.488,3.488,0,0,1,839.12,452.57Z" fill="#767171"/>
      <path id="Path_124" data-name="Path 124" d="M846.26,460.53h-.87v-5.6c0-.44.01-.88.04-1.32-.08.08-.15.15-.22.21s-.51.42-1.31,1.07l-.47-.61,2.08-1.61h.75v7.86Z" fill="#767171"/>
      <path id="Path_125" data-name="Path 125" d="M849.52,454.44a1.657,1.657,0,0,1,.63-1.36,3.1,3.1,0,0,1,3.39-.01,1.656,1.656,0,0,1,.63,1.38,1.7,1.7,0,0,1-.37,1.07,3.15,3.15,0,0,1-1.14.86,3.749,3.749,0,0,1,1.35.96,1.787,1.787,0,0,1,.41,1.16,1.965,1.965,0,0,1-.68,1.56,2.85,2.85,0,0,1-1.91.58,2.926,2.926,0,0,1-1.9-.55,1.881,1.881,0,0,1-.68-1.56,2.331,2.331,0,0,1,1.64-2.1,3.135,3.135,0,0,1-1.06-.89A1.887,1.887,0,0,1,849.52,454.44Zm.99,3.12a1.522,1.522,0,0,0-.36,1.03,1.173,1.173,0,0,0,.45.97,1.957,1.957,0,0,0,1.25.36,1.9,1.9,0,0,0,1.25-.37,1.321,1.321,0,0,0,.03-1.96,4.429,4.429,0,0,0-1.46-.79A3.1,3.1,0,0,0,850.51,457.56Zm2.39-3.94a1.645,1.645,0,0,0-1.07-.32,1.616,1.616,0,0,0-1.06.32,1.04,1.04,0,0,0-.38.83,1.324,1.324,0,0,0,.32.88,3.292,3.292,0,0,0,1.17.7,2.881,2.881,0,0,0,1.09-.7,1.331,1.331,0,0,0,.32-.89A.987.987,0,0,0,852.9,453.62Z" fill="#767171"/>
      <path id="Path_126" data-name="Path 126" d="M858.29,460.64a2.532,2.532,0,0,1-1.98-.78,3.294,3.294,0,0,1-.7-2.25,3.336,3.336,0,0,1,.71-2.27,2.565,2.565,0,0,1,2.03-.81,3.977,3.977,0,0,1,.83.09,2.952,2.952,0,0,1,.69.22l-.27.76a4.189,4.189,0,0,0-.63-.19,2.862,2.862,0,0,0-.63-.08c-1.2,0-1.79.76-1.79,2.28a2.746,2.746,0,0,0,.44,1.67,1.541,1.541,0,0,0,1.29.58,4.019,4.019,0,0,0,1.51-.32v.79A3.235,3.235,0,0,1,858.29,460.64Z" fill="#767171"/>
    </g>
  </g>
</svg>
