<?xml version="1.0" encoding="utf-8"?>
<!-- Generator: Adobe Illustrator 25.1.0, SVG Export Plug-In . SVG Version: 6.00 Build 0)  -->
<svg version="1.1" id="Layer_1" xmlns="http://www.w3.org/2000/svg" xmlns:xlink="http://www.w3.org/1999/xlink" x="0px" y="0px"
	 viewBox="0 0 960 540" style="enable-background:new 0 0 960 540;" xml:space="preserve">
<style type="text/css">
	.st0{fill:none;stroke:#D9D9D9;stroke-width:0.75;stroke-linejoin:round;stroke-miterlimit:10;}
	.st1{fill:none;stroke:#BFBFBF;stroke-width:0.75;stroke-linejoin:round;stroke-miterlimit:10;}
	
		.st2{clip-path:url(#SVGID_2_);fill:none;stroke:#8FBC0A;stroke-width:3;stroke-linecap:round;stroke-linejoin:round;stroke-miterlimit:10;}
	.st3{fill:#FFFFFF;}
	.st4{fill:none;stroke:#8FBC0A;stroke-width:3;stroke-linejoin:round;stroke-miterlimit:10;}
	
		.st5{clip-path:url(#SVGID_4_);fill:none;stroke:#41BFC6;stroke-width:3;stroke-linecap:round;stroke-linejoin:round;stroke-miterlimit:10;}
	.st6{fill:none;stroke:#41BFC6;stroke-width:3;stroke-linejoin:round;stroke-miterlimit:10;}
	
		.st7{clip-path:url(#SVGID_6_);fill:none;stroke:#A6A6A6;stroke-width:3;stroke-linecap:round;stroke-linejoin:round;stroke-miterlimit:10;}
	.st8{fill:none;stroke:#A6A6A6;stroke-width:3;stroke-linejoin:round;stroke-miterlimit:10;}
	.st9{fill:none;stroke:#8FBC0A;stroke-width:3;stroke-linecap:round;stroke-linejoin:round;stroke-miterlimit:10;}
	.st10{fill:none;stroke:#41BFC6;stroke-width:3;stroke-linecap:round;stroke-linejoin:round;stroke-miterlimit:10;}
	.st11{fill:none;stroke:#A6A6A6;stroke-width:3;stroke-linecap:round;stroke-linejoin:round;stroke-miterlimit:10;}
	.st12{fill:#767171;}
</style>
<g>
	<path class="st0" d="M103.02,151.58h401.53 M103.02,174.72h401.53 M103.02,197.76h401.53 M103.02,220.8h401.53 M103.02,243.84
		h401.53 M103.02,266.88h401.53 M103.02,289.92h401.53 M103.02,313.2h401.53 M103.02,336.24h401.53 M103.02,359.28h401.53
		 M103.02,382.32h401.53"/>
</g>
<g>
	<line class="st1" x1="103.02" y1="405.38" x2="103.02" y2="151.58"/>
</g>
<g>
	<line class="st1" x1="103.02" y1="405.38" x2="504.55" y2="405.38"/>
</g>
<g>
	<path class="st1" d="M504.55,405.38V409 M471.12,405.38V409 M437.52,405.38V409 M404.16,405.38V409 M370.8,405.38V409
		 M337.2,405.38V409 M303.84,405.38V409 M270.24,405.38V409 M236.88,405.38V409 M203.52,405.38V409 M169.92,405.38V409
		 M136.56,405.38V409 M103.02,405.38V409"/>
</g>
<g>
	<defs>
		<rect id="SVGID_1_" x="102.96" y="150.96" width="402" height="254.88"/>
	</defs>
	<clipPath id="SVGID_2_">
		<use xlink:href="#SVGID_1_"  style="overflow:visible;"/>
	</clipPath>
	<path class="st2" d="M103.02,405.38c5.58-0.86,11.15-1.14,16.73-2.57c5.58-1.44,10.22-2.72,16.73-6.05
		c5.64-2.88,15.86-2.46,22.31-13.91c7.44-13.22,14.87-52.14,22.31-65.38c6.45-11.49,14.24-9.16,22.31-14.03
		c6.13-3.7,15.07-13.46,33.46-19.61c27.88-9.34,89.23-26.06,133.84-36.4c44.61-10.34,89.23-17.07,133.84-25.61"/>
</g>
<g>
	<circle class="st3" cx="103.1" cy="405.55" r="2.4"/>
	<circle class="st4" cx="103.09" cy="405.55" r="2.4"/>
	<circle class="st3" cx="119.65" cy="402.91" r="2.4"/>
	<circle class="st4" cx="119.65" cy="402.91" r="2.4"/>
	
		<ellipse transform="matrix(0.2298 -0.9732 0.9732 0.2298 -281.1902 438.5247)" class="st3" cx="136.46" cy="396.91" rx="2.4" ry="2.4"/>
	
		<ellipse transform="matrix(0.2298 -0.9732 0.9732 0.2298 -281.1901 438.5253)" class="st4" cx="136.45" cy="396.91" rx="2.4" ry="2.4"/>
	<circle class="st3" cx="158.77" cy="382.99" r="2.4"/>
	
		<ellipse transform="matrix(0.2298 -0.9732 0.9732 0.2298 -250.4506 449.5263)" class="st4" cx="158.77" cy="382.99" rx="2.4" ry="2.4"/>
	<circle class="st3" cx="181.1" cy="317.47" r="2.4"/>
	
		<ellipse transform="matrix(0.2298 -0.9732 0.9732 0.2298 -169.4913 420.7826)" class="st4" cx="181.09" cy="317.47" rx="2.4" ry="2.4"/>
	<circle class="st3" cx="203.41" cy="303.55" r="2.4"/>
	
		<ellipse transform="matrix(0.2298 -0.9732 0.9732 0.2298 -138.7518 431.7837)" class="st4" cx="203.41" cy="303.55" rx="2.4" ry="2.4"/>
	
		<ellipse transform="matrix(0.8507 -0.5257 0.5257 0.8507 -113.8782 166.8761)" class="st3" cx="236.77" cy="283.87" rx="2.4" ry="2.4"/>
	<circle class="st4" cx="236.77" cy="283.87" r="2.4"/>
	<circle class="st3" cx="370.7" cy="247.39" r="2.4"/>
	<circle class="st4" cx="370.69" cy="247.39" r="2.4"/>
	<circle class="st3" cx="504.61" cy="221.95" r="2.4"/>
	<circle class="st4" cx="504.61" cy="221.95" r="2.4"/>
</g>
<g>
	<defs>
		<rect id="SVGID_3_" x="102.96" y="150.96" width="402" height="254.88"/>
	</defs>
	<clipPath id="SVGID_4_">
		<use xlink:href="#SVGID_3_"  style="overflow:visible;"/>
	</clipPath>
	<path class="st5" d="M103.02,405.38c5.58-0.47,11.15-0.22,16.73-1.4c5.58-1.18,10.22-2.93,16.73-5.66
		c5.05-2.12,16.53,0.22,22.31-10.73c7.44-14.09,14.87-55.31,22.31-73.82c7.44-18.52,13.01-24.99,22.31-37.29
		c7.42-9.81,11.2-25.65,33.46-36.49c27.88-13.58,89.23-34.33,133.84-44.97s89.23-12.57,133.84-18.85"/>
</g>
<g>
	<circle class="st3" cx="103.1" cy="405.55" r="2.4"/>
	<circle class="st6" cx="103.09" cy="405.55" r="2.4"/>
	<circle class="st3" cx="119.65" cy="404.11" r="2.4"/>
	<circle class="st6" cx="119.65" cy="404.11" r="2.4"/>
	
		<ellipse transform="matrix(0.2298 -0.9732 0.9732 0.2298 -282.5916 439.6339)" class="st3" cx="136.46" cy="398.35" rx="2.4" ry="2.4"/>
	
		<ellipse transform="matrix(0.2298 -0.9732 0.9732 0.2298 -282.5916 439.6344)" class="st6" cx="136.45" cy="398.35" rx="2.4" ry="2.4"/>
	<circle class="st3" cx="158.77" cy="387.55" r="2.4"/>
	
		<ellipse transform="matrix(0.2298 -0.9732 0.9732 0.2298 -254.8886 453.0387)" class="st6" cx="158.77" cy="387.55" rx="2.4" ry="2.4"/>
	
		<ellipse transform="matrix(0.1602 -0.9871 0.9871 0.1602 -157.7323 442.352)" class="st3" cx="181.1" cy="313.87" rx="2.4" ry="2.4"/>
	
		<ellipse transform="matrix(0.2298 -0.9732 0.9732 0.2298 -165.9877 418.0097)" class="st6" cx="181.09" cy="313.87" rx="2.4" ry="2.4"/>
	<circle class="st3" cx="203.41" cy="276.67" r="2.4"/>
	<circle class="st6" cx="203.41" cy="276.67" r="2.4"/>
	<circle class="st3" cx="236.77" cy="239.95" r="2.4"/>
	<circle class="st6" cx="236.77" cy="239.95" r="2.4"/>
	<circle class="st3" cx="370.7" cy="195.07" r="2.4"/>
	<circle class="st6" cx="370.69" cy="195.07" r="2.4"/>
	
		<ellipse transform="matrix(0.2298 -0.9732 0.9732 0.2298 217.0444 626.951)" class="st3" cx="504.61" cy="176.35" rx="2.4" ry="2.4"/>
	<circle class="st6" cx="504.61" cy="176.35" r="2.4"/>
</g>
<g>
	<defs>
		<rect id="SVGID_5_" x="102.96" y="150.96" width="402" height="254.88"/>
	</defs>
	<clipPath id="SVGID_6_">
		<use xlink:href="#SVGID_5_"  style="overflow:visible;"/>
	</clipPath>
	<path class="st7" d="M103.02,405.38c5.58-1.54,11.15-2.82,16.73-4.61c5.58-1.79,10.22-2.84,16.73-6.15
		c2.89-1.47,19-1.03,22.31-13.69c7.44-28.48,14.87-126.15,22.31-157.18c4.26-17.78,16.98-25.59,22.31-28.98
		c5.66-3.61,16.47-5.22,33.46-6.52c27.88-2.14,111.54-5.25,133.84-6.3"/>
</g>
<g>
	<circle class="st3" cx="103.1" cy="405.55" r="2.4"/>
	<circle class="st8" cx="103.09" cy="405.55" r="2.4"/>
	<circle class="st3" cx="119.65" cy="400.75" r="2.4"/>
	<circle class="st8" cx="119.65" cy="400.75" r="2.4"/>
	<circle class="st3" cx="136.46" cy="394.75" r="2.4"/>
	
		<ellipse transform="matrix(0.2298 -0.9732 0.9732 0.2298 -279.0879 436.8615)" class="st8" cx="136.45" cy="394.75" rx="2.4" ry="2.4"/>
	<circle class="st3" cx="158.77" cy="381.07" r="2.4"/>
	
		<ellipse transform="matrix(0.2298 -0.9732 0.9732 0.2298 -248.5819 448.0475)" class="st8" cx="158.77" cy="381.07" rx="2.4" ry="2.4"/>
	
		<ellipse transform="matrix(0.9239 -0.3827 0.3827 0.9239 -71.8872 86.3435)" class="st3" cx="181.1" cy="223.87" rx="2.4" ry="2.4"/>
	<circle class="st8" cx="181.09" cy="223.87" r="2.4"/>
	<circle class="st3" cx="203.41" cy="194.83" r="2.4"/>
	<circle class="st8" cx="203.41" cy="194.83" r="2.4"/>
	<ellipse transform="matrix(0.1891 -0.982 0.982 0.1891 7.0458 385.2361)" class="st3" cx="236.77" cy="188.35" rx="2.4" ry="2.4"/>
	<circle class="st8" cx="236.77" cy="188.35" r="2.4"/>
	<circle class="st3" cx="370.7" cy="182.11" r="2.4"/>
	<circle class="st8" cx="370.69" cy="182.11" r="2.4"/>
</g>
<g>
	<line class="st9" x1="170.91" y1="465.91" x2="190.11" y2="465.91"/>
</g>
<g>
	<circle class="st3" cx="180.6" cy="465.8" r="2.4"/>
	<circle class="st4" cx="180.6" cy="465.8" r="2.4"/>
</g>
<g>
	<line class="st10" x1="283.45" y1="465.91" x2="302.65" y2="465.91"/>
</g>
<g>
	<circle class="st3" cx="293.16" cy="465.8" r="2.4"/>
	<circle class="st6" cx="293.16" cy="465.8" r="2.4"/>
</g>
<g>
	<line class="st11" x1="392.93" y1="465.91" x2="412.13" y2="465.91"/>
</g>
<g>
	<circle class="st3" cx="402.6" cy="465.8" r="2.4"/>
	<circle class="st8" cx="402.6" cy="465.8" r="2.4"/>
</g>
<g>
	<path class="st12" d="M236.62,119.08h2.62c1.33,0,2.37,0.37,3.11,1.11s1.11,1.77,1.11,3.09c0,1.41-0.38,2.5-1.15,3.24
		s-1.87,1.12-3.31,1.12h-2.37V119.08z M237.62,119.94v6.84h1.21c1.18,0,2.08-0.29,2.67-0.88s0.9-1.44,0.9-2.57s-0.28-1.98-0.84-2.55
		s-1.39-0.85-2.5-0.85H237.62z"/>
	<path class="st12" d="M245.14,119.48c0-0.21,0.05-0.37,0.16-0.48s0.24-0.16,0.41-0.16s0.31,0.05,0.42,0.16s0.16,0.27,0.16,0.48
		s-0.05,0.37-0.16,0.48s-0.25,0.17-0.42,0.17s-0.3-0.06-0.41-0.17S245.14,119.7,245.14,119.48z M246.2,127.65h-0.97v-6.42h0.97
		V127.65z"/>
	<path class="st12" d="M249.88,126.96c1.05,0,1.58-0.33,1.58-0.98c0-0.25-0.11-0.46-0.33-0.64s-0.64-0.39-1.27-0.63
		c-0.6-0.22-1.03-0.42-1.28-0.59s-0.44-0.36-0.56-0.56s-0.18-0.46-0.18-0.76c0-0.52,0.21-0.93,0.64-1.24s1-0.46,1.71-0.46
		s1.4,0.14,2.07,0.42l-0.35,0.79c-0.64-0.26-1.21-0.39-1.7-0.39s-0.85,0.07-1.09,0.21s-0.36,0.34-0.36,0.6
		c0,0.17,0.04,0.32,0.13,0.44s0.23,0.24,0.42,0.35s0.57,0.27,1.13,0.47c0.76,0.28,1.28,0.56,1.54,0.84s0.4,0.63,0.4,1.06
		c0,0.6-0.22,1.06-0.67,1.38s-1.08,0.49-1.91,0.49s-1.48-0.13-1.95-0.4v-0.9C248.53,126.8,249.21,126.96,249.88,126.96z"/>
	<path class="st12" d="M255.6,126.96c1.05,0,1.58-0.33,1.58-0.98c0-0.25-0.11-0.46-0.33-0.64s-0.64-0.39-1.27-0.63
		c-0.6-0.22-1.03-0.42-1.28-0.59s-0.44-0.36-0.56-0.56s-0.18-0.46-0.18-0.76c0-0.52,0.21-0.93,0.64-1.24s1-0.46,1.71-0.46
		s1.4,0.14,2.07,0.42l-0.35,0.79c-0.64-0.26-1.21-0.39-1.7-0.39s-0.85,0.07-1.09,0.21s-0.36,0.34-0.36,0.6
		c0,0.17,0.04,0.32,0.13,0.44s0.23,0.24,0.42,0.35s0.57,0.27,1.13,0.47c0.76,0.28,1.28,0.56,1.54,0.84s0.4,0.63,0.4,1.06
		c0,0.6-0.22,1.06-0.67,1.38s-1.08,0.49-1.91,0.49s-1.48-0.13-1.95-0.4v-0.9C254.25,126.8,254.92,126.96,255.6,126.96z"/>
	<path class="st12" d="M259.34,124.43c0-1.05,0.26-1.86,0.78-2.45s1.24-0.88,2.16-0.88s1.64,0.3,2.16,0.9
		c0.54,0.59,0.8,1.41,0.8,2.44s-0.26,1.85-0.79,2.43s-1.26,0.88-2.19,0.88c-0.02,0-0.03,0-0.05,0c-0.85,0-1.54-0.3-2.07-0.9
		s-0.8-1.38-0.8-2.35C259.34,124.49,259.34,124.46,259.34,124.43z M262.27,121.94c-1.29,0-1.93,0.83-1.93,2.49
		c0,0.82,0.17,1.45,0.5,1.88s0.81,0.64,1.45,0.64s1.12-0.21,1.45-0.64s0.5-1.05,0.5-1.87s-0.17-1.44-0.5-1.86
		S262.92,121.94,262.27,121.94z"/>
	<path class="st12" d="M267.92,127.65h-0.97v-9.12h0.97V127.65z"/>
	<path class="st12" d="M275.29,127.65h-0.8l-0.14-0.86h-0.05c-0.2,0.32-0.47,0.56-0.83,0.73s-0.76,0.25-1.21,0.25
		c-0.79,0-1.38-0.19-1.76-0.56s-0.57-0.97-0.57-1.78v-4.2h0.98v4.17c0,0.53,0.12,0.92,0.36,1.17s0.61,0.38,1.12,0.38
		c0.67,0,1.16-0.18,1.47-0.55s0.47-0.97,0.47-1.8v-3.38h0.97V127.65z"/>
	<path class="st12" d="M278.39,121.23h1.86v0.76h-1.86v3.78c0,0.38,0.09,0.68,0.27,0.89s0.43,0.31,0.75,0.31s0.61-0.04,0.89-0.12
		v0.75c-0.09,0.05-0.25,0.09-0.46,0.12s-0.4,0.05-0.56,0.05c-1.24,0-1.86-0.65-1.86-1.96v-3.82h-0.92v-0.47l0.92-0.4l0.41-1.37h0.56
		V121.23z"/>
	<path class="st12" d="M281.5,119.48c0-0.21,0.05-0.37,0.16-0.48s0.24-0.16,0.41-0.16s0.31,0.05,0.42,0.16s0.16,0.27,0.16,0.48
		s-0.05,0.37-0.16,0.48s-0.25,0.17-0.42,0.17s-0.3-0.06-0.41-0.17S281.5,119.7,281.5,119.48z M282.56,127.65h-0.97v-6.42h0.97
		V127.65z"/>
	<path class="st12" d="M284.26,124.43c0-1.05,0.26-1.86,0.78-2.45s1.24-0.88,2.16-0.88s1.64,0.3,2.16,0.9
		c0.54,0.59,0.8,1.41,0.8,2.44s-0.26,1.85-0.79,2.43s-1.26,0.88-2.19,0.88c-0.02,0-0.03,0-0.05,0c-0.85,0-1.54-0.3-2.07-0.9
		s-0.8-1.38-0.8-2.35C284.26,124.49,284.26,124.46,284.26,124.43z M287.19,121.94c-1.29,0-1.93,0.83-1.93,2.49
		c0,0.82,0.17,1.45,0.5,1.88s0.81,0.64,1.45,0.64s1.12-0.21,1.45-0.64s0.5-1.05,0.5-1.87s-0.17-1.44-0.5-1.86
		S287.84,121.94,287.19,121.94z"/>
	<path class="st12" d="M294.9,121.11c0.78,0,1.37,0.19,1.75,0.57s0.58,0.97,0.58,1.78v4.19h-0.97v-4.15c0-0.53-0.12-0.92-0.36-1.17
		s-0.61-0.38-1.12-0.38c-0.68,0-1.17,0.18-1.48,0.54s-0.47,0.96-0.47,1.79v3.37h-0.97v-6.42h0.79l0.16,0.88h0.05
		c0.2-0.32,0.48-0.56,0.83-0.74S294.46,121.11,294.9,121.11z"/>
	<path class="st12" d="M303.32,122.11c0.47-0.66,1.13-1,2-1s1.52,0.29,1.99,0.87s0.7,1.4,0.7,2.46s-0.24,1.87-0.71,2.46
		s-1.14,0.87-2,0.87s-1.52-0.31-1.98-0.94h-0.07c0.05,0.38,0.07,0.73,0.07,1.07v2.64h-0.97v-9.3h0.79l0.13,0.88H303.32z
		 M303.32,124.43c0,0.9,0.15,1.54,0.45,1.94c0.3,0.39,0.78,0.58,1.45,0.58c0.56,0,0.99-0.22,1.3-0.67s0.47-1.07,0.47-1.86
		s-0.16-1.41-0.47-1.83s-0.75-0.64-1.33-0.64c-0.66,0-1.14,0.18-1.43,0.54s-0.44,0.94-0.45,1.73V124.43z"/>
	<path class="st12" d="M312.63,121.11c0.28,0,0.54,0.02,0.77,0.07l-0.13,0.9c-0.27-0.06-0.5-0.09-0.7-0.09
		c-0.52,0-0.97,0.21-1.34,0.63s-0.55,0.95-0.55,1.58v3.45h-0.97v-6.42h0.8l0.11,1.19h0.05c0.24-0.42,0.53-0.75,0.86-0.97
		S312.23,121.11,312.63,121.11z"/>
	<path class="st12" d="M314.24,124.43c0-1.05,0.26-1.86,0.78-2.45s1.24-0.88,2.16-0.88s1.64,0.3,2.16,0.9
		c0.54,0.59,0.8,1.41,0.8,2.44s-0.26,1.85-0.79,2.43s-1.26,0.88-2.19,0.88c-0.02,0-0.03,0-0.05,0c-0.85,0-1.54-0.3-2.07-0.9
		s-0.8-1.38-0.8-2.35C314.24,124.49,314.24,124.46,314.24,124.43z M317.17,121.94c-1.29,0-1.93,0.83-1.93,2.49
		c0,0.82,0.17,1.45,0.5,1.88s0.81,0.64,1.45,0.64s1.12-0.21,1.45-0.64s0.5-1.05,0.5-1.87s-0.17-1.44-0.5-1.86
		S317.82,121.94,317.17,121.94z"/>
	<path class="st12" d="M322.14,120.83c0-1.58,0.69-2.37,2.07-2.37c0.33,0,0.73,0.07,1.2,0.21l-0.25,0.78
		c-0.37-0.12-0.69-0.18-0.96-0.18c-0.37,0-0.64,0.12-0.81,0.37s-0.26,0.64-0.26,1.17v0.42h1.63v0.76h-1.63v5.67h-0.97v-5.67h-1.15
		v-0.44l1.15-0.35V120.83z"/>
	<path class="st12" d="M325.83,119.48c0-0.21,0.05-0.37,0.16-0.48s0.24-0.16,0.41-0.16s0.31,0.05,0.42,0.16s0.16,0.27,0.16,0.48
		s-0.05,0.37-0.16,0.48s-0.25,0.17-0.42,0.17s-0.3-0.06-0.41-0.17S325.83,119.7,325.83,119.48z M326.89,127.65h-0.97v-6.42h0.97
		V127.65z"/>
	<path class="st12" d="M329.92,127.65h-0.97v-9.12h0.97V127.65z"/>
	<path class="st12" d="M334.7,127.77c-0.95,0-1.7-0.29-2.25-0.87c-0.55-0.58-0.82-1.39-0.82-2.42s0.25-1.85,0.76-2.46
		s1.18-0.91,2.02-0.91s1.48,0.27,1.95,0.8c0.47,0.52,0.7,1.21,0.7,2.09v0.62h-4.42c0.02,0.75,0.21,1.32,0.57,1.71
		s0.88,0.59,1.55,0.59s1.35-0.14,2.02-0.43v0.87c-0.34,0.15-0.67,0.25-0.98,0.32S335.12,127.77,334.7,127.77z M336.02,123.82
		c0-0.61-0.14-1.08-0.41-1.4s-0.67-0.49-1.17-0.49s-0.92,0.17-1.23,0.5s-0.49,0.8-0.54,1.39H336.02z"/>
	<path class="st12" d="M339.74,126.25l0.09,0.13c-0.1,0.39-0.24,0.84-0.44,1.35s-0.39,1-0.6,1.45h-0.73
		c0.11-0.43,0.23-0.94,0.35-1.51c0.12-0.55,0.21-1.03,0.27-1.44H339.74z"/>
	<path class="st12" d="M351.6,127.33c-0.91,0.29-1.91,0.44-3.01,0.44c-1.3,0-2.31-0.38-3.03-1.15c-0.72-0.78-1.08-1.86-1.08-3.25
		c0-0.89,0.18-1.68,0.53-2.34s0.87-1.18,1.54-1.53s1.46-0.53,2.37-0.53s1.75,0.17,2.55,0.5l-0.39,0.88
		c-0.77-0.33-1.52-0.49-2.23-0.49c-1.04,0-1.86,0.31-2.44,0.93s-0.88,1.5-0.88,2.62s0.28,1.99,0.85,2.59s1.39,0.9,2.49,0.9
		c0.58,0,1.16-0.07,1.74-0.21v-2.64h-1.92v-0.89h2.91V127.33z"/>
	<path class="st12" d="M353.43,119.48c0-0.21,0.05-0.37,0.16-0.48s0.24-0.16,0.41-0.16s0.31,0.05,0.42,0.16s0.16,0.27,0.16,0.48
		s-0.05,0.37-0.16,0.48s-0.25,0.17-0.42,0.17s-0.3-0.06-0.41-0.17S353.43,119.7,353.43,119.48z M354.49,127.65h-0.97v-6.42h0.97
		V127.65z"/>
	<path class="st12" d="M359.58,121.11c0.78,0,1.37,0.19,1.75,0.57s0.58,0.97,0.58,1.78v4.19h-0.97v-4.15c0-0.53-0.12-0.92-0.36-1.17
		s-0.61-0.38-1.12-0.38c-0.68,0-1.17,0.18-1.48,0.54s-0.47,0.96-0.47,1.79v3.37h-0.97v-6.42h0.79l0.16,0.88h0.05
		c0.2-0.32,0.48-0.56,0.83-0.74S359.14,121.11,359.58,121.11z"/>
	<path class="st12" d="M365.79,126.63h1.14c0.7,0,1.23,0.15,1.6,0.44s0.56,0.72,0.56,1.28c0,0.71-0.29,1.25-0.86,1.63
		s-1.4,0.56-2.5,0.56c-0.84,0-1.49-0.16-1.94-0.47s-0.68-0.75-0.68-1.32c0-0.39,0.13-0.73,0.38-1.01s0.6-0.48,1.05-0.58
		c-0.17-0.08-0.31-0.2-0.42-0.35s-0.16-0.34-0.16-0.56s0.06-0.41,0.18-0.59s0.32-0.35,0.59-0.51c-0.33-0.13-0.6-0.37-0.81-0.7
		c-0.21-0.33-0.31-0.71-0.31-1.12c0-0.7,0.21-1.24,0.63-1.62s1.02-0.57,1.79-0.57c0.33,0,0.63,0.04,0.91,0.12h2.22v0.62l-1.19,0.13
		c0.28,0.36,0.42,0.78,0.42,1.28c0,0.63-0.21,1.13-0.64,1.51s-1.02,0.56-1.77,0.56c-0.18,0-0.36-0.02-0.54-0.05
		c-0.41,0.21-0.62,0.49-0.62,0.83c0,0.18,0.07,0.31,0.22,0.39S365.45,126.63,365.79,126.63z M366.62,127.5h-1.17
		c-0.45,0-0.79,0.11-1.03,0.32s-0.37,0.5-0.37,0.87c0,0.73,0.57,1.1,1.7,1.1c0.8,0,1.4-0.12,1.8-0.36s0.6-0.57,0.6-1
		c0-0.35-0.11-0.59-0.32-0.73S367.21,127.5,366.62,127.5z M366,121.82c-0.46,0-0.81,0.12-1.06,0.37s-0.37,0.6-0.37,1.06
		s0.13,0.81,0.38,1.04s0.61,0.35,1.06,0.35c0.95,0,1.42-0.46,1.42-1.38C367.44,122.31,366.96,121.82,366,121.82z"/>
	<path class="st12" d="M373.2,127.77c-0.95,0-1.7-0.29-2.25-0.87c-0.55-0.58-0.82-1.39-0.82-2.42s0.25-1.85,0.76-2.46
		s1.18-0.91,2.02-0.91s1.48,0.27,1.95,0.8c0.47,0.52,0.7,1.21,0.7,2.09v0.62h-4.42c0.02,0.75,0.21,1.32,0.57,1.71
		s0.88,0.59,1.55,0.59s1.35-0.14,2.02-0.43v0.87c-0.34,0.15-0.67,0.25-0.98,0.32S373.63,127.77,373.2,127.77z M374.52,123.82
		c0-0.61-0.14-1.08-0.41-1.4s-0.67-0.49-1.17-0.49s-0.92,0.17-1.23,0.5s-0.49,0.8-0.54,1.39H374.52z"/>
	<path class="st12" d="M380.15,121.11c0.28,0,0.54,0.02,0.77,0.07l-0.13,0.9c-0.27-0.06-0.5-0.09-0.7-0.09
		c-0.52,0-0.97,0.21-1.34,0.63s-0.55,0.95-0.55,1.58v3.45h-0.97v-6.42h0.8l0.11,1.19h0.05c0.24-0.42,0.53-0.75,0.86-0.97
		S379.75,121.11,380.15,121.11z"/>
	<path class="st12" d="M381.76,124.43c0-1.05,0.26-1.86,0.78-2.45s1.24-0.88,2.16-0.88s1.64,0.3,2.16,0.9
		c0.54,0.59,0.8,1.41,0.8,2.44s-0.26,1.85-0.79,2.43s-1.26,0.88-2.19,0.88c-0.02,0-0.03,0-0.05,0c-0.85,0-1.54-0.3-2.07-0.9
		s-0.8-1.38-0.8-2.35C381.76,124.49,381.76,124.46,381.76,124.43z M384.69,121.94c-1.29,0-1.93,0.83-1.93,2.49
		c0,0.82,0.17,1.45,0.5,1.88s0.81,0.64,1.45,0.64s1.12-0.21,1.45-0.64s0.5-1.05,0.5-1.87s-0.17-1.44-0.5-1.86
		S385.34,121.94,384.69,121.94z"/>
	<path class="st12" d="M390.34,127.65h-0.97v-9.12h0.97V127.65z"/>
	<path class="st12" d="M394.03,126.96c1.05,0,1.58-0.33,1.58-0.98c0-0.25-0.11-0.46-0.33-0.64s-0.64-0.39-1.27-0.63
		c-0.6-0.22-1.03-0.42-1.28-0.59s-0.44-0.36-0.56-0.56s-0.18-0.46-0.18-0.76c0-0.52,0.21-0.93,0.64-1.24s1-0.46,1.71-0.46
		s1.4,0.14,2.07,0.42l-0.35,0.79c-0.64-0.26-1.21-0.39-1.7-0.39s-0.85,0.07-1.09,0.21s-0.36,0.34-0.36,0.6
		c0,0.17,0.04,0.32,0.13,0.44s0.23,0.24,0.42,0.35s0.57,0.27,1.13,0.47c0.76,0.28,1.28,0.56,1.54,0.84s0.4,0.63,0.4,1.06
		c0,0.6-0.22,1.06-0.67,1.38s-1.08,0.49-1.91,0.49s-1.48-0.13-1.95-0.4v-0.9C392.67,126.8,393.35,126.96,394.03,126.96z"/>
</g>
<g>
	<path class="st12" d="M80.32,155.65h-0.95v-6.11c0-0.48,0.02-0.96,0.05-1.44c-0.08,0.09-0.16,0.16-0.24,0.23s-0.55,0.46-1.43,1.17
		l-0.52-0.67l2.27-1.75h0.82V155.65z"/>
	<path class="st12" d="M87.18,155.65h-0.95v-6.11c0-0.48,0.02-0.96,0.05-1.44c-0.08,0.09-0.16,0.16-0.24,0.23s-0.55,0.46-1.43,1.17
		l-0.52-0.67l2.27-1.75h0.82V155.65z"/>
	<path class="st12" d="M90.45,151.32c0-1.47,0.23-2.56,0.7-3.29s1.17-1.09,2.11-1.09s1.65,0.38,2.14,1.13s0.73,1.86,0.73,3.32
		s-0.23,2.55-0.7,3.28s-1.17,1.09-2.11,1.09s-1.65-0.37-2.13-1.12S90.45,152.79,90.45,151.32z M94.68,148.65
		c-0.29-0.57-0.76-0.86-1.4-0.86s-1.11,0.28-1.41,0.85s-0.44,1.47-0.44,2.72s0.15,2.15,0.44,2.72s0.76,0.85,1.41,0.85
		s1.11-0.29,1.4-0.86s0.44-1.48,0.44-2.71S94.98,149.22,94.68,148.65z"/>
	<path class="st12" d="M80.32,178.65h-0.95v-6.11c0-0.48,0.02-0.96,0.05-1.44c-0.08,0.09-0.16,0.16-0.24,0.23s-0.55,0.46-1.43,1.17
		l-0.52-0.67l2.27-1.75h0.82V178.65z"/>
	<path class="st12" d="M83.59,174.32c0-1.47,0.23-2.56,0.7-3.29s1.17-1.09,2.11-1.09s1.65,0.38,2.14,1.13s0.73,1.86,0.73,3.32
		s-0.23,2.55-0.7,3.28s-1.17,1.09-2.11,1.09s-1.65-0.37-2.13-1.12S83.59,175.79,83.59,174.32z M87.82,171.65
		c-0.29-0.57-0.76-0.86-1.4-0.86s-1.11,0.28-1.41,0.85s-0.44,1.47-0.44,2.72s0.15,2.15,0.44,2.72s0.76,0.85,1.41,0.85
		s1.11-0.29,1.4-0.86s0.44-1.48,0.44-2.71S88.11,172.22,87.82,171.65z"/>
	<path class="st12" d="M90.45,174.32c0-1.47,0.23-2.56,0.7-3.29s1.17-1.09,2.11-1.09s1.65,0.38,2.14,1.13s0.73,1.86,0.73,3.32
		s-0.23,2.55-0.7,3.28s-1.17,1.09-2.11,1.09s-1.65-0.37-2.13-1.12S90.45,175.79,90.45,174.32z M94.68,171.65
		c-0.29-0.57-0.76-0.86-1.4-0.86s-1.11,0.28-1.41,0.85s-0.44,1.47-0.44,2.72s0.15,2.15,0.44,2.72s0.76,0.85,1.41,0.85
		s1.11-0.29,1.4-0.86s0.44-1.48,0.44-2.71S94.98,172.22,94.68,171.65z"/>
	<path class="st12" d="M86.09,198.42c-0.76,0-1.36-0.23-1.8-0.68s-0.67-1.08-0.67-1.9c0-0.9,0.25-1.6,0.74-2.12s1.15-0.77,1.97-0.77
		c0.02,0,0.04,0,0.06,0c0.85,0,1.53,0.34,2.05,1.01s0.78,1.58,0.78,2.72c0,0.02,0,0.04,0,0.05c0,3.35-1.3,5.03-3.89,5.03
		c-0.45,0-0.81-0.04-1.08-0.12v-0.84c0.32,0.1,0.67,0.15,1.07,0.15c0.94,0,1.65-0.29,2.12-0.87s0.74-1.47,0.78-2.67h-0.07
		c-0.21,0.32-0.49,0.57-0.85,0.74S86.54,198.42,86.09,198.42z M85.03,194.33c-0.3,0.36-0.46,0.84-0.46,1.45s0.14,1.07,0.43,1.39
		s0.71,0.47,1.27,0.47c0.02,0,0.05,0,0.07,0c0.5,0,0.93-0.16,1.31-0.48s0.57-0.68,0.57-1.08c0-0.01,0-0.02,0-0.04
		c0-0.41-0.07-0.78-0.23-1.13s-0.38-0.62-0.67-0.82s-0.61-0.3-0.95-0.3c-0.02,0-0.03,0-0.04,0
		C85.77,193.79,85.34,193.97,85.03,194.33z"/>
	<path class="st12" d="M90.45,197.32c0-1.47,0.23-2.56,0.7-3.29s1.17-1.09,2.11-1.09s1.65,0.38,2.14,1.13s0.73,1.86,0.73,3.32
		s-0.23,2.55-0.7,3.28s-1.17,1.09-2.11,1.09s-1.65-0.37-2.13-1.12S90.45,198.79,90.45,197.32z M94.68,194.65
		c-0.29-0.57-0.76-0.86-1.4-0.86s-1.11,0.28-1.41,0.85s-0.44,1.47-0.44,2.72s0.15,2.15,0.44,2.72s0.76,0.85,1.41,0.85
		s1.11-0.29,1.4-0.86s0.44-1.48,0.44-2.71S94.98,195.22,94.68,194.65z"/>
	<path class="st12" d="M83.88,218c0-0.62,0.23-1.12,0.69-1.49s1.08-0.55,1.85-0.55s1.39,0.18,1.85,0.55s0.69,0.87,0.69,1.5
		c0,0.43-0.13,0.82-0.4,1.16s-0.68,0.66-1.25,0.94c0.7,0.34,1.2,0.69,1.48,1.05c0.3,0.36,0.45,0.78,0.45,1.27
		c0,0.71-0.25,1.28-0.74,1.71c-0.5,0.42-1.19,0.63-2.08,0.63s-1.58-0.2-2.07-0.6s-0.74-0.97-0.74-1.7c0-0.98,0.6-1.74,1.79-2.29
		c-0.53-0.3-0.92-0.63-1.15-0.98S83.88,218.45,83.88,218z M84.96,221.4c-0.26,0.3-0.39,0.68-0.39,1.12s0.16,0.8,0.49,1.06
		s0.78,0.39,1.37,0.39s1.04-0.14,1.37-0.41s0.49-0.65,0.49-1.13c0-0.38-0.15-0.72-0.46-1.01s-0.84-0.58-1.59-0.86
		C85.64,220.82,85.22,221.09,84.96,221.4z M87.57,217.1c-0.28-0.23-0.67-0.35-1.16-0.35s-0.88,0.12-1.15,0.35s-0.41,0.54-0.41,0.91
		s0.12,0.69,0.35,0.96c0.23,0.25,0.66,0.51,1.28,0.77c0.56-0.24,0.96-0.49,1.19-0.76s0.35-0.59,0.35-0.97S87.85,217.33,87.57,217.1z
		"/>
	<path class="st12" d="M90.45,220.32c0-1.47,0.23-2.56,0.7-3.29s1.17-1.09,2.11-1.09s1.65,0.38,2.14,1.13s0.73,1.86,0.73,3.32
		s-0.23,2.55-0.7,3.28s-1.17,1.09-2.11,1.09s-1.65-0.37-2.13-1.12S90.45,221.79,90.45,220.32z M94.68,217.65
		c-0.29-0.57-0.76-0.86-1.4-0.86s-1.11,0.28-1.41,0.85s-0.44,1.47-0.44,2.72s0.15,2.15,0.44,2.72s0.76,0.85,1.41,0.85
		s1.11-0.29,1.4-0.86s0.44-1.48,0.44-2.71S94.98,218.22,94.68,217.65z"/>
	<path class="st12" d="M83.54,239.98v-0.9h5.71v0.78l-3.5,7.79h-1.08l3.55-7.67H83.54z"/>
	<path class="st12" d="M90.45,243.32c0-1.47,0.23-2.56,0.7-3.29s1.17-1.09,2.11-1.09s1.65,0.38,2.14,1.13s0.73,1.86,0.73,3.32
		s-0.23,2.55-0.7,3.28s-1.17,1.09-2.11,1.09s-1.65-0.37-2.13-1.12S90.45,244.79,90.45,243.32z M94.68,240.65
		c-0.29-0.57-0.76-0.86-1.4-0.86s-1.11,0.28-1.41,0.85s-0.44,1.47-0.44,2.72s0.15,2.15,0.44,2.72s0.76,0.85,1.41,0.85
		s1.11-0.29,1.4-0.86s0.44-1.48,0.44-2.71S94.98,241.22,94.68,240.65z"/>
	<path class="st12" d="M86.78,265.31c0.77,0,1.38,0.23,1.82,0.69s0.67,1.09,0.67,1.9c0,0.89-0.24,1.59-0.73,2.1
		s-1.16,0.76-2.01,0.76s-1.54-0.33-2.07-1c-0.52-0.66-0.78-1.59-0.78-2.78c0-3.35,1.29-5.03,3.88-5.03c0.45,0,0.8,0.04,1.04,0.11
		v0.84c-0.29-0.1-0.64-0.15-1.03-0.15c-0.93,0-1.63,0.29-2.11,0.87s-0.74,1.47-0.79,2.69h0.07
		C85.17,265.64,85.85,265.31,86.78,265.31z M86.53,266.08c-0.48,0-0.91,0.16-1.29,0.49s-0.57,0.7-0.56,1.12
		c0,0.4,0.07,0.77,0.23,1.12s0.38,0.62,0.67,0.83s0.6,0.31,0.94,0.31c0.02,0,0.03,0,0.04,0c0.56,0,0.99-0.18,1.29-0.53
		s0.46-0.83,0.46-1.45s-0.14-1.08-0.43-1.4s-0.71-0.48-1.27-0.48C86.58,266.08,86.56,266.08,86.53,266.08z"/>
	<path class="st12" d="M90.45,266.32c0-1.47,0.23-2.56,0.7-3.29s1.17-1.09,2.11-1.09s1.65,0.38,2.14,1.13s0.73,1.86,0.73,3.32
		s-0.23,2.55-0.7,3.28s-1.17,1.09-2.11,1.09s-1.65-0.37-2.13-1.12S90.45,267.79,90.45,266.32z M94.68,263.65
		c-0.29-0.57-0.76-0.86-1.4-0.86s-1.11,0.28-1.41,0.85s-0.44,1.47-0.44,2.72s0.15,2.15,0.44,2.72s0.76,0.85,1.41,0.85
		s1.11-0.29,1.4-0.86s0.44-1.48,0.44-2.71S94.98,264.22,94.68,263.65z"/>
	<path class="st12" d="M88.56,285.98h-3.43l-0.22,2.57c0.46-0.09,0.91-0.13,1.34-0.13c0.91,0,1.62,0.22,2.13,0.67
		c0.52,0.45,0.78,1.06,0.78,1.83c0,0.89-0.28,1.58-0.85,2.09s-1.34,0.76-2.31,0.76s-1.72-0.15-2.23-0.46v-0.94
		c0.28,0.18,0.62,0.32,1.02,0.42s0.8,0.15,1.2,0.15c0.69,0,1.23-0.16,1.61-0.49s0.57-0.79,0.57-1.4c0-1.2-0.73-1.79-2.2-1.79
		c-0.36,0-0.86,0.06-1.49,0.17l-0.5-0.32l0.32-4.01h4.26V285.98z"/>
	<path class="st12" d="M90.45,289.32c0-1.47,0.23-2.56,0.7-3.29s1.17-1.09,2.11-1.09s1.65,0.38,2.14,1.13s0.73,1.86,0.73,3.32
		s-0.23,2.55-0.7,3.28s-1.17,1.09-2.11,1.09s-1.65-0.37-2.13-1.12S90.45,290.79,90.45,289.32z M94.68,286.65
		c-0.29-0.57-0.76-0.86-1.4-0.86s-1.11,0.28-1.41,0.85s-0.44,1.47-0.44,2.72s0.15,2.15,0.44,2.72s0.76,0.85,1.41,0.85
		s1.11-0.29,1.4-0.86s0.44-1.48,0.44-2.71S94.98,287.22,94.68,286.65z"/>
	<path class="st12" d="M88.34,313.79h1.27v0.88h-1.27v1.97h-0.93v-1.97h-4.17v-0.85l4.07-5.79h1.03V313.79z M87.41,313.79v-2.84
		c0-0.6,0.02-1.23,0.06-1.9h-0.05c-0.19,0.38-0.36,0.69-0.53,0.93l-2.68,3.81H87.41z"/>
	<path class="st12" d="M90.45,312.32c0-1.47,0.23-2.56,0.7-3.29s1.17-1.09,2.11-1.09s1.65,0.38,2.14,1.13s0.73,1.86,0.73,3.32
		s-0.23,2.55-0.7,3.28s-1.17,1.09-2.11,1.09s-1.65-0.37-2.13-1.12S90.45,313.79,90.45,312.32z M94.68,309.65
		c-0.29-0.57-0.76-0.86-1.4-0.86s-1.11,0.28-1.41,0.85s-0.44,1.47-0.44,2.72s0.15,2.15,0.44,2.72s0.76,0.85,1.41,0.85
		s1.11-0.29,1.4-0.86s0.44-1.48,0.44-2.71S94.98,310.22,94.68,309.65z"/>
	<path class="st12" d="M86.26,330.96c0.83,0,1.47,0.19,1.94,0.57s0.69,0.9,0.69,1.57c0,0.54-0.15,0.99-0.46,1.34
		s-0.74,0.58-1.31,0.7v0.05c0.68,0.08,1.19,0.3,1.52,0.64s0.5,0.81,0.5,1.39c0,0.82-0.28,1.45-0.85,1.89s-1.37,0.66-2.41,0.66
		c-0.93,0-1.71-0.15-2.35-0.46v-0.93c0.76,0.38,1.56,0.56,2.38,0.56c1.48,0,2.22-0.58,2.22-1.74c0-1.04-0.82-1.56-2.45-1.56h-0.84
		v-0.84h0.86c0.67,0,1.2-0.15,1.59-0.44s0.59-0.7,0.59-1.23c0-0.42-0.14-0.75-0.43-0.98s-0.68-0.36-1.17-0.36
		c-0.37,0-0.72,0.05-1.05,0.15s-0.72,0.29-1.15,0.57l-0.49-0.66c0.36-0.28,0.76-0.5,1.22-0.66S85.76,330.96,86.26,330.96z"/>
	<path class="st12" d="M90.45,335.32c0-1.47,0.23-2.56,0.7-3.29s1.17-1.09,2.11-1.09s1.65,0.38,2.14,1.13s0.73,1.86,0.73,3.32
		s-0.23,2.55-0.7,3.28s-1.17,1.09-2.11,1.09s-1.65-0.37-2.13-1.12S90.45,336.79,90.45,335.32z M94.68,332.65
		c-0.29-0.57-0.76-0.86-1.4-0.86s-1.11,0.28-1.41,0.85s-0.44,1.47-0.44,2.72s0.15,2.15,0.44,2.72s0.76,0.85,1.41,0.85
		s1.11-0.29,1.4-0.86s0.44-1.48,0.44-2.71S94.98,333.22,94.68,332.65z"/>
	<path class="st12" d="M86.27,353.96c0.81,0,1.44,0.21,1.89,0.62c0.45,0.41,0.68,0.96,0.68,1.66c0,0.54-0.15,1.07-0.45,1.61
		s-0.87,1.21-1.71,2.02l-1.88,1.83v0.05h4.41v0.9h-5.64v-0.84l2.26-2.27c0.71-0.72,1.17-1.23,1.38-1.51s0.37-0.56,0.47-0.84
		s0.16-0.58,0.16-0.91c0-0.46-0.14-0.82-0.42-1.09s-0.66-0.4-1.15-0.4c-0.36,0-0.69,0.06-1.01,0.18s-0.67,0.33-1.06,0.64l-0.52-0.66
		C84.48,354.29,85.34,353.96,86.27,353.96z"/>
	<path class="st12" d="M90.45,358.32c0-1.47,0.23-2.56,0.7-3.29s1.17-1.09,2.11-1.09s1.65,0.38,2.14,1.13s0.73,1.86,0.73,3.32
		s-0.23,2.55-0.7,3.28s-1.17,1.09-2.11,1.09s-1.65-0.37-2.13-1.12S90.45,359.79,90.45,358.32z M94.68,355.65
		c-0.29-0.57-0.76-0.86-1.4-0.86s-1.11,0.28-1.41,0.85s-0.44,1.47-0.44,2.72s0.15,2.15,0.44,2.72s0.76,0.85,1.41,0.85
		s1.11-0.29,1.4-0.86s0.44-1.48,0.44-2.71S94.98,356.22,94.68,355.65z"/>
	<path class="st12" d="M87.18,385.65h-0.95v-6.11c0-0.48,0.02-0.96,0.05-1.44c-0.08,0.09-0.16,0.16-0.24,0.23s-0.55,0.46-1.43,1.17
		l-0.52-0.67l2.27-1.75h0.82V385.65z"/>
	<path class="st12" d="M90.45,381.32c0-1.47,0.23-2.56,0.7-3.29s1.17-1.09,2.11-1.09s1.65,0.38,2.14,1.13s0.73,1.86,0.73,3.32
		s-0.23,2.55-0.7,3.28s-1.17,1.09-2.11,1.09s-1.65-0.37-2.13-1.12S90.45,382.79,90.45,381.32z M94.68,378.65
		c-0.29-0.57-0.76-0.86-1.4-0.86s-1.11,0.28-1.41,0.85s-0.44,1.47-0.44,2.72s0.15,2.15,0.44,2.72s0.76,0.85,1.41,0.85
		s1.11-0.29,1.4-0.86s0.44-1.48,0.44-2.71S94.98,379.22,94.68,378.65z"/>
	<path class="st12" d="M90.45,404.32c0-1.47,0.23-2.56,0.7-3.29s1.17-1.09,2.11-1.09s1.65,0.38,2.14,1.13s0.73,1.86,0.73,3.32
		s-0.23,2.55-0.7,3.28s-1.17,1.09-2.11,1.09s-1.65-0.37-2.13-1.12S90.45,405.79,90.45,404.32z M94.68,401.65
		c-0.29-0.57-0.76-0.86-1.4-0.86s-1.11,0.28-1.41,0.85s-0.44,1.47-0.44,2.72s0.15,2.15,0.44,2.72s0.76,0.85,1.41,0.85
		s1.11-0.29,1.4-0.86s0.44-1.48,0.44-2.71S94.98,402.22,94.68,401.65z"/>
</g>
<g>
	<path class="st12" d="M100.23,420.51c0-1.47,0.23-2.56,0.7-3.29s1.17-1.09,2.11-1.09s1.65,0.38,2.14,1.13s0.73,1.86,0.73,3.32
		s-0.23,2.55-0.7,3.28s-1.17,1.09-2.11,1.09s-1.65-0.37-2.13-1.12S100.23,421.98,100.23,420.51z M104.46,417.84
		c-0.29-0.57-0.76-0.86-1.4-0.86s-1.11,0.28-1.41,0.85s-0.44,1.47-0.44,2.72s0.15,2.15,0.44,2.72s0.76,0.85,1.41,0.85
		s1.11-0.29,1.4-0.86s0.44-1.48,0.44-2.71S104.76,418.41,104.46,417.84z"/>
	<path class="st12" d="M131.1,416.15c0.83,0,1.47,0.19,1.94,0.57s0.69,0.9,0.69,1.57c0,0.54-0.15,0.99-0.46,1.34
		s-0.74,0.58-1.31,0.7v0.05c0.68,0.08,1.19,0.3,1.52,0.64s0.5,0.81,0.5,1.39c0,0.82-0.28,1.45-0.85,1.89s-1.37,0.66-2.41,0.66
		c-0.93,0-1.71-0.15-2.35-0.46v-0.93c0.76,0.38,1.56,0.56,2.38,0.56c1.48,0,2.22-0.58,2.22-1.74c0-1.04-0.82-1.56-2.45-1.56h-0.84
		v-0.84h0.86c0.67,0,1.2-0.15,1.59-0.44s0.59-0.7,0.59-1.23c0-0.42-0.14-0.75-0.43-0.98s-0.68-0.36-1.17-0.36
		c-0.37,0-0.72,0.05-1.05,0.15s-0.72,0.29-1.15,0.57l-0.49-0.66c0.36-0.28,0.76-0.5,1.22-0.66S130.6,416.15,131.1,416.15z"/>
	<path class="st12" d="M135.24,420.51c0-1.47,0.23-2.56,0.7-3.29s1.17-1.09,2.11-1.09s1.65,0.38,2.14,1.13s0.73,1.86,0.73,3.32
		s-0.23,2.55-0.7,3.28s-1.17,1.09-2.11,1.09s-1.65-0.37-2.13-1.12S135.24,421.98,135.24,420.51z M139.47,417.84
		c-0.29-0.57-0.76-0.86-1.4-0.86s-1.11,0.28-1.41,0.85s-0.44,1.47-0.44,2.72s0.15,2.15,0.44,2.72s0.76,0.85,1.41,0.85
		s1.11-0.29,1.4-0.86s0.44-1.48,0.44-2.71S139.76,418.41,139.47,417.84z"/>
	<path class="st12" d="M166.63,419.5c0.77,0,1.38,0.23,1.82,0.69s0.67,1.09,0.67,1.9c0,0.89-0.24,1.59-0.73,2.1
		s-1.16,0.76-2.01,0.76s-1.54-0.33-2.07-1c-0.52-0.66-0.78-1.59-0.78-2.78c0-3.35,1.29-5.03,3.88-5.03c0.45,0,0.8,0.04,1.04,0.11
		v0.84c-0.29-0.1-0.64-0.15-1.03-0.15c-0.93,0-1.63,0.29-2.11,0.87s-0.74,1.47-0.79,2.69h0.07
		C165.02,419.83,165.7,419.5,166.63,419.5z M166.38,420.27c-0.48,0-0.91,0.16-1.29,0.49s-0.57,0.7-0.56,1.12
		c0,0.4,0.07,0.77,0.23,1.12s0.38,0.62,0.67,0.83s0.6,0.31,0.94,0.31c0.02,0,0.03,0,0.04,0c0.56,0,0.99-0.18,1.29-0.53
		s0.46-0.83,0.46-1.45s-0.14-1.08-0.43-1.4s-0.71-0.48-1.27-0.48C166.43,420.27,166.4,420.27,166.38,420.27z"/>
	<path class="st12" d="M170.24,420.51c0-1.47,0.23-2.56,0.7-3.29s1.17-1.09,2.11-1.09s1.65,0.38,2.14,1.13s0.73,1.86,0.73,3.32
		s-0.23,2.55-0.7,3.28s-1.17,1.09-2.11,1.09s-1.65-0.37-2.13-1.12S170.24,421.98,170.24,420.51z M174.47,417.84
		c-0.29-0.57-0.76-0.86-1.4-0.86s-1.11,0.28-1.41,0.85s-0.44,1.47-0.44,2.72s0.15,2.15,0.44,2.72s0.76,0.85,1.41,0.85
		s1.11-0.29,1.4-0.86s0.44-1.48,0.44-2.71S174.76,418.41,174.47,417.84z"/>
	<path class="st12" d="M200.94,421.61c-0.76,0-1.36-0.23-1.8-0.68s-0.67-1.08-0.67-1.9c0-0.9,0.25-1.6,0.74-2.12
		s1.15-0.77,1.97-0.77c0.02,0,0.04,0,0.06,0c0.85,0,1.53,0.34,2.05,1.01s0.78,1.58,0.78,2.72c0,0.02,0,0.04,0,0.05
		c0,3.35-1.3,5.03-3.89,5.03c-0.45,0-0.81-0.04-1.08-0.12V424c0.32,0.1,0.67,0.15,1.07,0.15c0.94,0,1.65-0.29,2.12-0.87
		s0.74-1.47,0.78-2.67h-0.07c-0.21,0.32-0.49,0.57-0.85,0.74S201.39,421.61,200.94,421.61z M199.88,417.52
		c-0.3,0.36-0.46,0.84-0.46,1.45s0.14,1.07,0.43,1.39s0.71,0.47,1.27,0.47c0.02,0,0.05,0,0.07,0c0.5,0,0.93-0.16,1.31-0.48
		s0.57-0.68,0.57-1.08c0-0.01,0-0.02,0-0.04c0-0.41-0.07-0.78-0.23-1.13s-0.38-0.62-0.67-0.82s-0.61-0.3-0.95-0.3
		c-0.02,0-0.03,0-0.04,0C200.62,416.98,200.19,417.16,199.88,417.52z"/>
	<path class="st12" d="M205.24,420.51c0-1.47,0.23-2.56,0.7-3.29s1.17-1.09,2.11-1.09s1.65,0.38,2.14,1.13s0.73,1.86,0.73,3.32
		s-0.23,2.55-0.7,3.28s-1.17,1.09-2.11,1.09s-1.65-0.37-2.13-1.12S205.24,421.98,205.24,420.51z M209.47,417.84
		c-0.29-0.57-0.76-0.86-1.4-0.86s-1.11,0.28-1.41,0.85s-0.44,1.47-0.44,2.72s0.15,2.15,0.44,2.72s0.76,0.85,1.41,0.85
		s1.11-0.29,1.4-0.86s0.44-1.48,0.44-2.71S209.77,418.41,209.47,417.84z"/>
	<path class="st12" d="M230.92,424.84h-0.95v-6.11c0-0.48,0.02-0.96,0.05-1.44c-0.08,0.09-0.16,0.16-0.24,0.23s-0.55,0.46-1.43,1.17
		l-0.52-0.67l2.27-1.75h0.82V424.84z"/>
	<path class="st12" d="M236.81,416.15c0.81,0,1.44,0.21,1.89,0.62c0.45,0.41,0.68,0.96,0.68,1.66c0,0.54-0.15,1.07-0.45,1.61
		s-0.87,1.21-1.71,2.02l-1.88,1.83v0.05h4.41v0.9h-5.64V424l2.26-2.27c0.71-0.72,1.17-1.23,1.38-1.51s0.37-0.56,0.47-0.84
		s0.16-0.58,0.16-0.91c0-0.46-0.14-0.82-0.42-1.09s-0.66-0.4-1.15-0.4c-0.36,0-0.69,0.06-1.01,0.18s-0.67,0.33-1.06,0.64l-0.52-0.66
		C235.02,416.48,235.88,416.15,236.81,416.15z"/>
	<path class="st12" d="M240.93,420.51c0-1.47,0.23-2.56,0.7-3.29s1.17-1.09,2.11-1.09s1.65,0.38,2.14,1.13s0.73,1.86,0.73,3.32
		s-0.23,2.55-0.7,3.28s-1.17,1.09-2.11,1.09s-1.65-0.37-2.13-1.12S240.93,421.98,240.93,420.51z M245.16,417.84
		c-0.29-0.57-0.76-0.86-1.4-0.86s-1.11,0.28-1.41,0.85s-0.44,1.47-0.44,2.72s0.15,2.15,0.44,2.72s0.76,0.85,1.41,0.85
		s1.11-0.29,1.4-0.86s0.44-1.48,0.44-2.71S245.46,418.41,245.16,417.84z"/>
	<path class="st12" d="M263.55,424.84h-0.95v-6.11c0-0.48,0.02-0.96,0.05-1.44c-0.08,0.09-0.16,0.16-0.24,0.23s-0.55,0.46-1.43,1.17
		l-0.52-0.67l2.27-1.75h0.82V424.84z"/>
	<path class="st12" d="M271.73,417.17h-3.43l-0.22,2.57c0.46-0.09,0.91-0.13,1.34-0.13c0.91,0,1.62,0.22,2.13,0.67
		c0.52,0.45,0.78,1.06,0.78,1.83c0,0.89-0.28,1.58-0.85,2.09s-1.34,0.76-2.31,0.76s-1.72-0.15-2.23-0.46v-0.94
		c0.28,0.18,0.62,0.32,1.02,0.42s0.8,0.15,1.2,0.15c0.69,0,1.23-0.16,1.61-0.49s0.57-0.79,0.57-1.4c0-1.2-0.73-1.79-2.2-1.79
		c-0.36,0-0.86,0.06-1.49,0.17l-0.5-0.32l0.32-4.01h4.26V417.17z"/>
	<path class="st12" d="M273.56,420.51c0-1.47,0.23-2.56,0.7-3.29s1.17-1.09,2.11-1.09s1.65,0.38,2.14,1.13s0.73,1.86,0.73,3.32
		s-0.23,2.55-0.7,3.28s-1.17,1.09-2.11,1.09s-1.65-0.37-2.13-1.12S273.56,421.98,273.56,420.51z M277.8,417.84
		c-0.29-0.57-0.76-0.86-1.4-0.86s-1.11,0.28-1.41,0.85s-0.44,1.47-0.44,2.72s0.15,2.15,0.44,2.72s0.76,0.85,1.41,0.85
		s1.11-0.29,1.4-0.86s0.44-1.48,0.44-2.71S278.09,418.41,277.8,417.84z"/>
	<path class="st12" d="M296.19,424.84h-0.95v-6.11c0-0.48,0.02-0.96,0.05-1.44c-0.08,0.09-0.16,0.16-0.24,0.23s-0.55,0.46-1.43,1.17
		l-0.52-0.67l2.27-1.75h0.82V424.84z"/>
	<path class="st12" d="M299.69,418.19c0-0.62,0.23-1.12,0.69-1.49s1.08-0.55,1.85-0.55s1.39,0.18,1.85,0.55s0.69,0.87,0.69,1.5
		c0,0.43-0.13,0.82-0.4,1.16s-0.68,0.66-1.25,0.94c0.7,0.34,1.2,0.69,1.48,1.05c0.3,0.36,0.45,0.78,0.45,1.27
		c0,0.71-0.25,1.28-0.74,1.71c-0.5,0.42-1.19,0.63-2.08,0.63s-1.58-0.2-2.07-0.6s-0.74-0.97-0.74-1.7c0-0.98,0.6-1.74,1.79-2.29
		c-0.53-0.3-0.92-0.63-1.15-0.98S299.69,418.64,299.69,418.19z M300.76,421.59c-0.26,0.3-0.39,0.68-0.39,1.12s0.16,0.8,0.49,1.06
		s0.78,0.39,1.37,0.39s1.04-0.14,1.37-0.41s0.49-0.65,0.49-1.13c0-0.38-0.15-0.72-0.46-1.01s-0.84-0.58-1.59-0.86
		C301.44,421.01,301.02,421.29,300.76,421.59z M303.37,417.29c-0.28-0.23-0.67-0.35-1.16-0.35s-0.88,0.12-1.15,0.35
		s-0.41,0.54-0.41,0.91s0.12,0.69,0.35,0.96c0.23,0.25,0.66,0.51,1.28,0.77c0.56-0.24,0.96-0.49,1.19-0.76s0.35-0.59,0.35-0.97
		S303.66,417.52,303.37,417.29z"/>
	<path class="st12" d="M306.2,420.51c0-1.47,0.23-2.56,0.7-3.29s1.17-1.09,2.11-1.09s1.65,0.38,2.14,1.13s0.73,1.86,0.73,3.32
		s-0.23,2.55-0.7,3.28s-1.17,1.09-2.11,1.09s-1.65-0.37-2.13-1.12S306.2,421.98,306.2,420.51z M310.43,417.84
		c-0.29-0.57-0.76-0.86-1.4-0.86s-1.11,0.28-1.41,0.85s-0.44,1.47-0.44,2.72s0.15,2.15,0.44,2.72s0.76,0.85,1.41,0.85
		s1.11-0.29,1.4-0.86s0.44-1.48,0.44-2.71S310.72,418.41,310.43,417.84z"/>
	<path class="st12" d="M330.96,416.15c0.81,0,1.44,0.21,1.89,0.62c0.45,0.41,0.68,0.96,0.68,1.66c0,0.54-0.15,1.07-0.45,1.61
		s-0.87,1.21-1.71,2.02l-1.88,1.83v0.05h4.41v0.9h-5.64V424l2.26-2.27c0.71-0.72,1.17-1.23,1.38-1.51s0.37-0.56,0.47-0.84
		s0.16-0.58,0.16-0.91c0-0.46-0.14-0.82-0.42-1.09s-0.66-0.4-1.15-0.4c-0.36,0-0.69,0.06-1.01,0.18s-0.67,0.33-1.06,0.64l-0.52-0.66
		C329.17,416.48,330.03,416.15,330.96,416.15z"/>
	<path class="st12" d="M338.68,424.84h-0.95v-6.11c0-0.48,0.02-0.96,0.05-1.44c-0.08,0.09-0.16,0.16-0.24,0.23s-0.55,0.46-1.43,1.17
		l-0.52-0.67l2.27-1.75h0.82V424.84z"/>
	<path class="st12" d="M341.89,420.51c0-1.47,0.23-2.56,0.7-3.29s1.17-1.09,2.11-1.09s1.65,0.38,2.14,1.13s0.73,1.86,0.73,3.32
		s-0.23,2.55-0.7,3.28s-1.17,1.09-2.11,1.09s-1.65-0.37-2.13-1.12S341.89,421.98,341.89,420.51z M346.12,417.84
		c-0.29-0.57-0.76-0.86-1.4-0.86s-1.11,0.28-1.41,0.85s-0.44,1.47-0.44,2.72s0.15,2.15,0.44,2.72s0.76,0.85,1.41,0.85
		s1.11-0.29,1.4-0.86s0.44-1.48,0.44-2.71S346.41,418.41,346.12,417.84z"/>
	<path class="st12" d="M363.6,416.15c0.81,0,1.44,0.21,1.89,0.62c0.45,0.41,0.68,0.96,0.68,1.66c0,0.54-0.15,1.07-0.45,1.61
		s-0.87,1.21-1.71,2.02l-1.88,1.83v0.05h4.41v0.9h-5.64V424l2.26-2.27c0.71-0.72,1.17-1.23,1.38-1.51s0.37-0.56,0.47-0.84
		s0.16-0.58,0.16-0.91c0-0.46-0.14-0.82-0.42-1.09s-0.66-0.4-1.15-0.4c-0.36,0-0.69,0.06-1.01,0.18s-0.67,0.33-1.06,0.64l-0.52-0.66
		C361.81,416.48,362.67,416.15,363.6,416.15z"/>
	<path class="st12" d="M372.47,421.98h1.27v0.88h-1.27v1.97h-0.93v-1.97h-4.17v-0.85l4.07-5.79h1.03V421.98z M371.54,421.98v-2.84
		c0-0.6,0.02-1.23,0.06-1.9h-0.05c-0.19,0.38-0.36,0.69-0.53,0.93l-2.68,3.81H371.54z"/>
	<path class="st12" d="M374.52,420.51c0-1.47,0.23-2.56,0.7-3.29s1.17-1.09,2.11-1.09s1.65,0.38,2.14,1.13s0.73,1.86,0.73,3.32
		s-0.23,2.55-0.7,3.28s-1.17,1.09-2.11,1.09s-1.65-0.37-2.13-1.12S374.52,421.98,374.52,420.51z M378.75,417.84
		c-0.29-0.57-0.76-0.86-1.4-0.86s-1.11,0.28-1.41,0.85s-0.44,1.47-0.44,2.72s0.15,2.15,0.44,2.72s0.76,0.85,1.41,0.85
		s1.11-0.29,1.4-0.86s0.44-1.48,0.44-2.71S379.04,418.41,378.75,417.84z"/>
	<path class="st12" d="M399.28,416.15c0.81,0,1.44,0.21,1.89,0.62c0.45,0.41,0.68,0.96,0.68,1.66c0,0.54-0.15,1.07-0.45,1.61
		s-0.87,1.21-1.71,2.02l-1.88,1.83v0.05h4.41v0.9h-5.64V424l2.26-2.27c0.71-0.72,1.17-1.23,1.38-1.51s0.37-0.56,0.47-0.84
		s0.16-0.58,0.16-0.91c0-0.46-0.14-0.82-0.42-1.09s-0.66-0.4-1.15-0.4c-0.36,0-0.69,0.06-1.01,0.18s-0.67,0.33-1.06,0.64l-0.52-0.66
		C397.5,416.48,398.35,416.15,399.28,416.15z"/>
	<path class="st12" d="M403.36,417.17v-0.9h5.71v0.78l-3.5,7.79h-1.08l3.55-7.67H403.36z"/>
	<path class="st12" d="M410.21,420.51c0-1.47,0.23-2.56,0.7-3.29s1.17-1.09,2.11-1.09s1.65,0.38,2.14,1.13s0.73,1.86,0.73,3.32
		s-0.23,2.55-0.7,3.28s-1.17,1.09-2.11,1.09s-1.65-0.37-2.13-1.12S410.21,421.98,410.21,420.51z M414.44,417.84
		c-0.29-0.57-0.76-0.86-1.4-0.86s-1.11,0.28-1.41,0.85s-0.44,1.47-0.44,2.72s0.15,2.15,0.44,2.72s0.76,0.85,1.41,0.85
		s1.11-0.29,1.4-0.86s0.44-1.48,0.44-2.71S414.73,418.41,414.44,417.84z"/>
	<path class="st12" d="M431.91,416.15c0.83,0,1.47,0.19,1.94,0.57s0.69,0.9,0.69,1.57c0,0.54-0.15,0.99-0.46,1.34
		s-0.74,0.58-1.31,0.7v0.05c0.68,0.08,1.19,0.3,1.52,0.64s0.5,0.81,0.5,1.39c0,0.82-0.28,1.45-0.85,1.89s-1.37,0.66-2.41,0.66
		c-0.93,0-1.71-0.15-2.35-0.46v-0.93c0.76,0.38,1.56,0.56,2.38,0.56c1.48,0,2.22-0.58,2.22-1.74c0-1.04-0.82-1.56-2.45-1.56h-0.84
		v-0.84h0.86c0.67,0,1.2-0.15,1.59-0.44s0.59-0.7,0.59-1.23c0-0.42-0.14-0.75-0.43-0.98s-0.68-0.36-1.17-0.36
		c-0.37,0-0.72,0.05-1.05,0.15s-0.72,0.29-1.15,0.57l-0.49-0.66c0.36-0.28,0.76-0.5,1.22-0.66S431.41,416.15,431.91,416.15z"/>
	<path class="st12" d="M436.04,420.51c0-1.47,0.23-2.56,0.7-3.29s1.17-1.09,2.11-1.09s1.65,0.38,2.14,1.13s0.73,1.86,0.73,3.32
		s-0.23,2.55-0.7,3.28s-1.17,1.09-2.11,1.09s-1.65-0.37-2.13-1.12S436.04,421.98,436.04,420.51z M440.27,417.84
		c-0.29-0.57-0.76-0.86-1.4-0.86s-1.11,0.28-1.41,0.85s-0.44,1.47-0.44,2.72s0.15,2.15,0.44,2.72s0.76,0.85,1.41,0.85
		s1.11-0.29,1.4-0.86s0.44-1.48,0.44-2.71S440.56,418.41,440.27,417.84z"/>
	<path class="st12" d="M442.84,420.51c0-1.47,0.23-2.56,0.7-3.29s1.17-1.09,2.11-1.09s1.65,0.38,2.14,1.13s0.73,1.86,0.73,3.32
		s-0.23,2.55-0.7,3.28s-1.17,1.09-2.11,1.09s-1.65-0.37-2.13-1.12S442.84,421.98,442.84,420.51z M447.07,417.84
		c-0.29-0.57-0.76-0.86-1.4-0.86s-1.11,0.28-1.41,0.85s-0.44,1.47-0.44,2.72s0.15,2.15,0.44,2.72s0.76,0.85,1.41,0.85
		s1.11-0.29,1.4-0.86s0.44-1.48,0.44-2.71S447.37,418.41,447.07,417.84z"/>
	<path class="st12" d="M464.54,416.15c0.83,0,1.47,0.19,1.94,0.57s0.69,0.9,0.69,1.57c0,0.54-0.15,0.99-0.46,1.34
		s-0.74,0.58-1.31,0.7v0.05c0.68,0.08,1.19,0.3,1.52,0.64s0.5,0.81,0.5,1.39c0,0.82-0.28,1.45-0.85,1.89s-1.37,0.66-2.41,0.66
		c-0.93,0-1.71-0.15-2.35-0.46v-0.93c0.76,0.38,1.56,0.56,2.38,0.56c1.48,0,2.22-0.58,2.22-1.74c0-1.04-0.82-1.56-2.45-1.56h-0.84
		v-0.84h0.86c0.67,0,1.2-0.15,1.59-0.44s0.59-0.7,0.59-1.23c0-0.42-0.14-0.75-0.43-0.98s-0.68-0.36-1.17-0.36
		c-0.37,0-0.72,0.05-1.05,0.15s-0.72,0.29-1.15,0.57l-0.49-0.66c0.36-0.28,0.76-0.5,1.22-0.66S464.04,416.15,464.54,416.15z"/>
	<path class="st12" d="M471.34,416.15c0.83,0,1.47,0.19,1.94,0.57s0.69,0.9,0.69,1.57c0,0.54-0.15,0.99-0.46,1.34
		s-0.74,0.58-1.31,0.7v0.05c0.68,0.08,1.19,0.3,1.52,0.64s0.5,0.81,0.5,1.39c0,0.82-0.28,1.45-0.85,1.89s-1.37,0.66-2.41,0.66
		c-0.93,0-1.71-0.15-2.35-0.46v-0.93c0.76,0.38,1.56,0.56,2.38,0.56c1.48,0,2.22-0.58,2.22-1.74c0-1.04-0.82-1.56-2.45-1.56h-0.84
		v-0.84h0.86c0.67,0,1.2-0.15,1.59-0.44s0.59-0.7,0.59-1.23c0-0.42-0.14-0.75-0.43-0.98s-0.68-0.36-1.17-0.36
		c-0.37,0-0.72,0.05-1.05,0.15s-0.72,0.29-1.15,0.57l-0.49-0.66c0.36-0.28,0.76-0.5,1.22-0.66S470.84,416.15,471.34,416.15z"/>
	<path class="st12" d="M475.48,420.51c0-1.47,0.23-2.56,0.7-3.29s1.17-1.09,2.11-1.09s1.65,0.38,2.14,1.13
		c0.48,0.75,0.73,1.86,0.73,3.32s-0.23,2.55-0.7,3.28c-0.47,0.73-1.17,1.09-2.11,1.09s-1.65-0.37-2.13-1.12
		S475.48,421.98,475.48,420.51z M479.71,417.84c-0.29-0.57-0.76-0.86-1.4-0.86s-1.11,0.28-1.41,0.85s-0.44,1.47-0.44,2.72
		s0.15,2.15,0.44,2.72s0.76,0.85,1.41,0.85s1.11-0.29,1.4-0.86s0.44-1.48,0.44-2.71S480,418.41,479.71,417.84z"/>
	<path class="st12" d="M497.17,416.15c0.83,0,1.47,0.19,1.94,0.57s0.69,0.9,0.69,1.57c0,0.54-0.15,0.99-0.46,1.34
		s-0.74,0.58-1.31,0.7v0.05c0.68,0.08,1.19,0.3,1.52,0.64s0.5,0.81,0.5,1.39c0,0.82-0.28,1.45-0.85,1.89s-1.37,0.66-2.41,0.66
		c-0.93,0-1.71-0.15-2.35-0.46v-0.93c0.76,0.38,1.56,0.56,2.38,0.56c1.48,0,2.22-0.58,2.22-1.74c0-1.04-0.82-1.56-2.45-1.56h-0.84
		v-0.84h0.86c0.67,0,1.2-0.15,1.59-0.44s0.59-0.7,0.59-1.23c0-0.42-0.14-0.75-0.43-0.98s-0.68-0.36-1.17-0.36
		c-0.37,0-0.72,0.05-1.05,0.15s-0.72,0.29-1.15,0.57l-0.49-0.66c0.36-0.28,0.76-0.5,1.22-0.66S496.67,416.15,497.17,416.15z"/>
	<path class="st12" d="M504.5,419.5c0.77,0,1.38,0.23,1.82,0.69s0.67,1.09,0.67,1.9c0,0.89-0.24,1.59-0.73,2.1s-1.16,0.76-2.01,0.76
		s-1.54-0.33-2.07-1c-0.52-0.66-0.78-1.59-0.78-2.78c0-3.35,1.29-5.03,3.88-5.03c0.45,0,0.8,0.04,1.04,0.11v0.84
		c-0.29-0.1-0.64-0.15-1.03-0.15c-0.93,0-1.63,0.29-2.11,0.87s-0.74,1.47-0.79,2.69h0.07C502.89,419.83,503.57,419.5,504.5,419.5z
		 M504.25,420.27c-0.48,0-0.91,0.16-1.29,0.49s-0.57,0.7-0.56,1.12c0,0.4,0.07,0.77,0.23,1.12s0.38,0.62,0.67,0.83
		s0.6,0.31,0.94,0.31c0.02,0,0.03,0,0.04,0c0.56,0,0.99-0.18,1.29-0.53s0.46-0.83,0.46-1.45s-0.14-1.08-0.43-1.4
		s-0.71-0.48-1.27-0.48C504.3,420.27,504.27,420.27,504.25,420.27z"/>
	<path class="st12" d="M508.11,420.51c0-1.47,0.23-2.56,0.7-3.29s1.17-1.09,2.11-1.09s1.65,0.38,2.14,1.13s0.73,1.86,0.73,3.32
		s-0.23,2.55-0.7,3.28s-1.17,1.09-2.11,1.09s-1.65-0.37-2.13-1.12S508.11,421.98,508.11,420.51z M512.34,417.84
		c-0.29-0.57-0.76-0.86-1.4-0.86s-1.11,0.28-1.41,0.85s-0.44,1.47-0.44,2.72s0.15,2.15,0.44,2.72s0.76,0.85,1.41,0.85
		s1.11-0.29,1.4-0.86s0.44-1.48,0.44-2.71S512.63,418.41,512.34,417.84z"/>
</g>
<g>
	<path class="st12" d="M45.28,327.68v-2.62c0-1.33,0.37-2.37,1.11-3.11s1.77-1.11,3.09-1.11c1.41,0,2.5,0.38,3.24,1.15
		s1.12,1.87,1.12,3.31v2.37H45.28z M46.14,326.68h6.84v-1.21c0-1.18-0.29-2.08-0.88-2.67s-1.44-0.9-2.57-0.9s-1.98,0.28-2.55,0.84
		s-0.85,1.39-0.85,2.5V326.68z"/>
	<path class="st12" d="M45.68,319.16c-0.21,0-0.37-0.05-0.48-0.16s-0.16-0.24-0.16-0.41s0.05-0.31,0.16-0.42s0.27-0.16,0.48-0.16
		s0.37,0.05,0.48,0.16s0.17,0.25,0.17,0.42s-0.06,0.3-0.17,0.41S45.89,319.16,45.68,319.16z M53.84,318.1v0.97h-6.42v-0.97H53.84z"
		/>
	<path class="st12" d="M53.16,314.42c0-1.05-0.33-1.58-0.98-1.58c-0.25,0-0.46,0.11-0.64,0.33s-0.39,0.64-0.63,1.27
		c-0.22,0.6-0.42,1.03-0.59,1.28s-0.36,0.44-0.56,0.56s-0.46,0.18-0.76,0.18c-0.52,0-0.93-0.21-1.24-0.64s-0.46-1-0.46-1.71
		s0.14-1.4,0.42-2.07l0.79,0.35c-0.26,0.64-0.39,1.21-0.39,1.7s0.07,0.85,0.21,1.09s0.34,0.36,0.6,0.36c0.17,0,0.32-0.04,0.44-0.13
		s0.24-0.23,0.35-0.42s0.27-0.57,0.47-1.13c0.28-0.76,0.56-1.28,0.84-1.54s0.63-0.4,1.06-0.4c0.6,0,1.06,0.22,1.38,0.67
		s0.49,1.08,0.49,1.91s-0.13,1.48-0.4,1.95h-0.9C52.99,315.77,53.16,315.1,53.16,314.42z"/>
	<path class="st12" d="M53.16,308.7c0-1.05-0.33-1.58-0.98-1.58c-0.25,0-0.46,0.11-0.64,0.33s-0.39,0.64-0.63,1.27
		c-0.22,0.6-0.42,1.03-0.59,1.28s-0.36,0.44-0.56,0.56s-0.46,0.18-0.76,0.18c-0.52,0-0.93-0.21-1.24-0.64s-0.46-1-0.46-1.71
		s0.14-1.4,0.42-2.07l0.79,0.35c-0.26,0.64-0.39,1.21-0.39,1.7s0.07,0.85,0.21,1.09s0.34,0.36,0.6,0.36c0.17,0,0.32-0.04,0.44-0.13
		s0.24-0.23,0.35-0.42s0.27-0.57,0.47-1.13c0.28-0.76,0.56-1.28,0.84-1.54s0.63-0.4,1.06-0.4c0.6,0,1.06,0.22,1.38,0.67
		s0.49,1.08,0.49,1.91s-0.13,1.48-0.4,1.95h-0.9C52.99,310.05,53.16,309.38,53.16,308.7z"/>
	<path class="st12" d="M50.63,304.97c-1.05,0-1.86-0.26-2.45-0.78s-0.88-1.24-0.88-2.16s0.3-1.64,0.9-2.16
		c0.59-0.54,1.41-0.8,2.44-0.8s1.85,0.26,2.43,0.79s0.88,1.26,0.88,2.19c0,0.02,0,0.03,0,0.05c0,0.85-0.3,1.54-0.9,2.07
		s-1.38,0.8-2.35,0.8C50.68,304.97,50.65,304.97,50.63,304.97z M48.14,302.03c0,1.29,0.83,1.93,2.49,1.93c0.82,0,1.45-0.17,1.88-0.5
		s0.64-0.81,0.64-1.45s-0.21-1.12-0.64-1.45s-1.05-0.5-1.87-0.5s-1.44,0.17-1.86,0.5S48.14,301.39,48.14,302.03z"/>
	<path class="st12" d="M53.84,296.38v0.97h-9.12v-0.97H53.84z"/>
	<path class="st12" d="M53.84,291.78v1.14l-6.42,2.44v-1.04l3.81-1.38c0.91-0.32,1.49-0.5,1.73-0.55v-0.05
		c-0.2-0.04-0.62-0.17-1.25-0.39s-2.06-0.74-4.29-1.55v-1.04L53.84,291.78z"/>
	<path class="st12" d="M53.96,285.59c0,0.95-0.29,1.7-0.87,2.25c-0.58,0.55-1.39,0.82-2.42,0.82s-1.85-0.25-2.46-0.76
		s-0.91-1.18-0.91-2.02s0.27-1.48,0.8-1.95c0.52-0.47,1.21-0.7,2.09-0.7h0.62v4.42c0.75-0.02,1.32-0.21,1.71-0.57
		s0.59-0.88,0.59-1.55s-0.14-1.35-0.43-2.02h0.87c0.15,0.34,0.25,0.67,0.32,0.98S53.96,285.17,53.96,285.59z M50.02,284.28
		c-0.61,0-1.08,0.14-1.4,0.41s-0.49,0.67-0.49,1.17s0.17,0.92,0.5,1.23s0.8,0.49,1.39,0.54V284.28z"/>
	<path class="st12" d="M53.84,276.28v0.79l-0.86,0.13v0.05c0.65,0.45,0.98,1.11,0.98,1.98s-0.29,1.53-0.86,2
		c-0.58,0.46-1.4,0.7-2.45,0.7s-1.88-0.23-2.46-0.7s-0.88-1.13-0.88-1.98s0.32-1.51,0.95-1.98v-0.08l-0.46,0.04l-0.45,0.02h-2.61
		v-0.97H53.84z M50.86,277.26h-0.21c-0.91,0-1.56,0.15-1.95,0.46c-0.39,0.29-0.58,0.78-0.58,1.45c0,0.57,0.22,1.01,0.66,1.31
		s1.07,0.45,1.88,0.45s1.43-0.15,1.85-0.45s0.63-0.74,0.63-1.32c0-0.66-0.18-1.15-0.54-1.44S51.66,277.26,50.86,277.26z"/>
	<path class="st12" d="M52.45,273.2l0.13-0.09c0.39,0.1,0.84,0.24,1.35,0.44s1,0.39,1.45,0.6v0.73c-0.43-0.11-0.94-0.23-1.51-0.35
		c-0.55-0.12-1.03-0.21-1.44-0.27V273.2z"/>
	<path class="st12" d="M45.15,266.86c0-0.57,0.23-1,0.7-1.31s1.13-0.46,2.01-0.46s1.54,0.15,1.99,0.45s0.68,0.73,0.68,1.29
		s-0.23,1-0.7,1.3s-1.13,0.45-2,0.45C46.05,268.58,45.15,268.01,45.15,266.86z M53.84,266.19v0.86l-8.57-4.75v-0.86L53.84,266.19z
		 M45.85,266.86c0,0.32,0.16,0.55,0.48,0.7s0.82,0.22,1.5,0.22s1.18-0.07,1.5-0.22s0.49-0.38,0.49-0.7c0-0.64-0.66-0.96-1.99-0.96
		S45.85,266.22,45.85,266.86z M51.25,263.43c-0.88,0-1.54-0.15-1.99-0.44s-0.67-0.72-0.67-1.29s0.23-1,0.69-1.31s1.13-0.46,2-0.46
		s1.54,0.15,1.99,0.45s0.68,0.73,0.68,1.3s-0.23,1-0.7,1.3S52.13,263.43,51.25,263.43z M51.27,260.73c-0.67,0-1.17,0.08-1.49,0.23
		s-0.48,0.4-0.48,0.72s0.16,0.56,0.48,0.71s0.82,0.22,1.49,0.22s1.18-0.07,1.51-0.22s0.49-0.38,0.49-0.71s-0.16-0.57-0.49-0.72
		S51.95,260.73,51.27,260.73z"/>
	<path class="st12" d="M53.84,248.6v1.03l-2.72,1.07v3.43l2.72,1.05v1.01l-8.6-3.39v-0.84L53.84,248.6z M50.22,251.01l-2.65,1
		c-0.34,0.13-0.76,0.27-1.24,0.4c0.37,0.09,0.78,0.21,1.24,0.37l2.65,1.01V251.01z"/>
	<path class="st12" d="M53.09,245.6c0-0.66-0.12-1.15-0.38-1.49s-0.6-0.51-1.05-0.51c-0.29,0-0.54,0.06-0.73,0.18
		s-0.37,0.32-0.52,0.59s-0.34,0.7-0.55,1.28c-0.29,0.8-0.63,1.37-1.02,1.71s-0.91,0.51-1.55,0.51s-1.16-0.25-1.55-0.74
		s-0.59-1.16-0.59-1.99s0.16-1.61,0.47-2.32l0.87,0.3c-0.3,0.7-0.45,1.39-0.45,2.06c0,0.53,0.11,0.94,0.34,1.24s0.54,0.45,0.94,0.45
		c0.29,0,0.54-0.05,0.73-0.16s0.36-0.29,0.52-0.54s0.33-0.65,0.53-1.2c0.33-0.91,0.68-1.53,1.04-1.86s0.84-0.5,1.42-0.5
		c0.75,0,1.33,0.27,1.76,0.82c0.42,0.55,0.63,1.31,0.63,2.29s-0.13,1.74-0.39,2.28h-0.96C52.93,247.23,53.09,246.44,53.09,245.6z"/>
	<path class="st12" d="M53.09,239.02c0-0.66-0.12-1.15-0.38-1.49s-0.6-0.51-1.05-0.51c-0.29,0-0.54,0.06-0.73,0.18
		s-0.37,0.32-0.52,0.59s-0.34,0.7-0.55,1.28c-0.29,0.8-0.63,1.37-1.02,1.71s-0.91,0.51-1.55,0.51s-1.16-0.25-1.55-0.74
		s-0.59-1.16-0.59-1.99s0.16-1.61,0.47-2.32l0.87,0.3c-0.3,0.7-0.45,1.39-0.45,2.06c0,0.53,0.11,0.94,0.34,1.24s0.54,0.45,0.94,0.45
		c0.29,0,0.54-0.05,0.73-0.16s0.36-0.29,0.52-0.54s0.33-0.65,0.53-1.2c0.33-0.91,0.68-1.53,1.04-1.86s0.84-0.5,1.42-0.5
		c0.75,0,1.33,0.27,1.76,0.82c0.42,0.55,0.63,1.31,0.63,2.29s-0.13,1.74-0.39,2.28h-0.96C52.93,240.64,53.09,239.85,53.09,239.02z"
		/>
	<path class="st12" d="M53.84,227.84v1.03l-2.72,1.07v3.43l2.72,1.05v1.01l-8.6-3.39v-0.84L53.84,227.84z M50.22,230.25l-2.65,1
		c-0.34,0.13-0.76,0.27-1.24,0.4c0.37,0.09,0.78,0.21,1.24,0.37l2.65,1.01V230.25z"/>
	<path class="st12" d="M53.84,223.98v1.01h-3.28l-5.29,2.85v-1.09l4.28-2.27l-4.28-2.29v-1.08l5.24,2.86H53.84z"/>
</g>
<g>
	<path class="st12" d="M286.09,439.16h-2.71v7.68h-1v-7.68h-2.71v-0.88h6.42V439.16z"/>
	<path class="st12" d="M287.15,438.67c0-0.21,0.05-0.37,0.16-0.48s0.24-0.16,0.41-0.16s0.31,0.05,0.42,0.16s0.16,0.27,0.16,0.48
		s-0.05,0.37-0.16,0.48s-0.25,0.17-0.42,0.17s-0.3-0.06-0.41-0.17S287.15,438.88,287.15,438.67z M288.21,446.84h-0.97v-6.42h0.97
		V446.84z"/>
	<path class="st12" d="M297.26,440.3c0.73,0,1.28,0.19,1.64,0.57s0.54,0.97,0.54,1.78v4.19h-0.97v-4.18c0-0.52-0.11-0.9-0.33-1.15
		s-0.56-0.38-1.02-0.38c-0.61,0-1.05,0.17-1.34,0.52s-0.43,0.88-0.43,1.6v3.59h-0.97v-4.18c0-0.52-0.11-0.9-0.33-1.15
		s-0.56-0.38-1.02-0.38c-0.61,0-1.06,0.18-1.34,0.54s-0.42,0.96-0.42,1.79v3.37h-0.97v-6.42h0.79l0.16,0.88h0.05
		c0.18-0.31,0.44-0.56,0.78-0.73s0.71-0.26,1.12-0.26c1,0,1.66,0.36,1.97,1.09h0.05c0.19-0.34,0.47-0.61,0.83-0.8
		S296.79,440.3,297.26,440.3z"/>
	<path class="st12" d="M304.15,446.95c-0.95,0-1.7-0.29-2.25-0.87c-0.55-0.58-0.82-1.39-0.82-2.42s0.25-1.85,0.76-2.46
		s1.18-0.91,2.02-0.91s1.48,0.27,1.95,0.8c0.47,0.52,0.7,1.21,0.7,2.09v0.62h-4.42c0.02,0.75,0.21,1.32,0.57,1.71
		s0.88,0.59,1.55,0.59s1.35-0.14,2.02-0.43v0.87c-0.34,0.15-0.67,0.25-0.98,0.32S304.57,446.95,304.15,446.95z M305.46,443.01
		c0-0.61-0.14-1.08-0.41-1.4s-0.67-0.49-1.17-0.49s-0.92,0.17-1.23,0.5s-0.49,0.8-0.54,1.39H305.46z"/>
	<path class="st12" d="M308.03,446.22c0-0.26,0.06-0.46,0.18-0.6s0.29-0.21,0.52-0.21s0.4,0.07,0.53,0.21s0.19,0.33,0.19,0.59
		s-0.06,0.45-0.19,0.59s-0.3,0.21-0.52,0.21s-0.39-0.06-0.52-0.19S308.03,446.49,308.03,446.22z"/>
	<path class="st12" d="M321.46,440.3c0.73,0,1.28,0.19,1.64,0.57s0.54,0.97,0.54,1.78v4.19h-0.97v-4.18c0-0.52-0.11-0.9-0.33-1.15
		s-0.56-0.38-1.02-0.38c-0.61,0-1.05,0.17-1.34,0.52s-0.43,0.88-0.43,1.6v3.59h-0.97v-4.18c0-0.52-0.11-0.9-0.33-1.15
		s-0.56-0.38-1.02-0.38c-0.61,0-1.06,0.18-1.34,0.54s-0.42,0.96-0.42,1.79v3.37h-0.97v-6.42h0.79l0.16,0.88h0.05
		c0.18-0.31,0.44-0.56,0.78-0.73s0.71-0.26,1.12-0.26c1,0,1.66,0.36,1.97,1.09h0.05c0.19-0.34,0.47-0.61,0.83-0.8
		S321,440.3,321.46,440.3z"/>
	<path class="st12" d="M325.56,438.67c0-0.21,0.05-0.37,0.16-0.48s0.24-0.16,0.41-0.16s0.31,0.05,0.42,0.16s0.16,0.27,0.16,0.48
		s-0.05,0.37-0.16,0.48s-0.25,0.17-0.42,0.17s-0.3-0.06-0.41-0.17S325.56,438.88,325.56,438.67z M326.61,446.84h-0.97v-6.42h0.97
		V446.84z"/>
	<path class="st12" d="M331.71,440.3c0.78,0,1.37,0.19,1.75,0.57s0.58,0.97,0.58,1.78v4.19h-0.97v-4.15c0-0.53-0.12-0.92-0.36-1.17
		s-0.61-0.38-1.12-0.38c-0.68,0-1.17,0.18-1.48,0.54s-0.47,0.96-0.47,1.79v3.37h-0.97v-6.42h0.79l0.16,0.88h0.05
		c0.2-0.32,0.48-0.56,0.83-0.74S331.26,440.3,331.71,440.3z"/>
	<path class="st12" d="M341.34,446.84h-0.8l-0.14-0.86h-0.05c-0.2,0.32-0.47,0.56-0.83,0.73s-0.76,0.25-1.21,0.25
		c-0.79,0-1.38-0.19-1.76-0.56s-0.57-0.97-0.57-1.78v-4.2h0.98v4.17c0,0.53,0.12,0.92,0.36,1.17s0.61,0.38,1.12,0.38
		c0.67,0,1.16-0.18,1.47-0.55s0.47-0.97,0.47-1.8v-3.38h0.97V446.84z"/>
	<path class="st12" d="M344.45,440.42h1.86v0.76h-1.86v3.78c0,0.38,0.09,0.68,0.27,0.89s0.43,0.31,0.75,0.31s0.61-0.04,0.89-0.12
		v0.75c-0.09,0.05-0.25,0.09-0.46,0.12s-0.4,0.05-0.56,0.05c-1.24,0-1.86-0.65-1.86-1.96v-3.82h-0.92v-0.47l0.92-0.4l0.41-1.37h0.56
		V440.42z"/>
	<path class="st12" d="M350.35,446.95c-0.95,0-1.7-0.29-2.25-0.87c-0.55-0.58-0.82-1.39-0.82-2.42s0.25-1.85,0.76-2.46
		s1.18-0.91,2.02-0.91s1.48,0.27,1.95,0.8c0.47,0.52,0.7,1.21,0.7,2.09v0.62h-4.42c0.02,0.75,0.21,1.32,0.57,1.71
		s0.88,0.59,1.55,0.59s1.35-0.14,2.02-0.43v0.87c-0.34,0.15-0.67,0.25-0.98,0.32S350.78,446.95,350.35,446.95z M351.67,443.01
		c0-0.61-0.14-1.08-0.41-1.4s-0.67-0.49-1.17-0.49s-0.92,0.17-1.23,0.5s-0.49,0.8-0.54,1.39H351.67z"/>
	<path class="st12" d="M356,446.15c1.05,0,1.58-0.33,1.58-0.98c0-0.25-0.11-0.46-0.33-0.64s-0.64-0.39-1.27-0.63
		c-0.6-0.22-1.03-0.42-1.28-0.59s-0.44-0.36-0.56-0.56s-0.18-0.46-0.18-0.76c0-0.52,0.21-0.93,0.64-1.24s1-0.46,1.71-0.46
		s1.4,0.14,2.07,0.42l-0.35,0.79c-0.64-0.26-1.21-0.39-1.7-0.39s-0.85,0.07-1.09,0.21s-0.36,0.34-0.36,0.6
		c0,0.17,0.04,0.32,0.13,0.44s0.23,0.24,0.42,0.35s0.57,0.27,1.13,0.47c0.76,0.28,1.28,0.56,1.54,0.84s0.4,0.63,0.4,1.06
		c0,0.6-0.22,1.06-0.67,1.38s-1.08,0.49-1.91,0.49s-1.48-0.13-1.95-0.4v-0.9C354.64,445.98,355.32,446.15,356,446.15z"/>
</g>
<g>
	<path class="st12" d="M198.18,461.45h2.15c0.96,0,1.67,0.18,2.13,0.55s0.69,0.92,0.69,1.67c0,1.04-0.53,1.74-1.58,2.11l2.13,3.53
		h-1.08l-1.9-3.27h-1.64v3.27h-0.91V461.45z M199.1,462.25v3h1.25c0.64,0,1.11-0.13,1.42-0.38c0.3-0.25,0.45-0.64,0.45-1.15
		s-0.15-0.89-0.46-1.12c-0.31-0.23-0.8-0.35-1.47-0.35H199.1z"/>
	<path class="st12" d="M204.98,461.45h2.41c1.22,0,2.17,0.34,2.85,1.01c0.68,0.68,1.02,1.62,1.02,2.84c0,1.3-0.35,2.29-1.06,2.97
		s-1.72,1.03-3.03,1.03h-2.18V461.45z M205.9,462.24v6.27h1.11c1.08,0,1.9-0.27,2.45-0.8c0.55-0.54,0.82-1.32,0.82-2.36
		c0-1.04-0.26-1.81-0.77-2.33s-1.28-0.78-2.29-0.78H205.9z"/>
	<path class="st12" d="M212.47,465.34c0-1.34,0.21-2.35,0.64-3.01s1.07-1,1.93-1c0.86,0,1.51,0.34,1.96,1.03s0.67,1.7,0.67,3.04
		c0,1.34-0.21,2.34-0.64,3.01s-1.08,1-1.94,1c-0.86,0-1.51-0.34-1.95-1.03S212.47,466.68,212.47,465.34z M216.35,462.89
		c-0.27-0.53-0.69-0.79-1.28-0.79s-1.02,0.26-1.29,0.78s-0.4,1.35-0.4,2.49c0,1.14,0.13,1.97,0.4,2.5c0.27,0.52,0.7,0.78,1.29,0.78
		s1.02-0.26,1.29-0.79c0.27-0.53,0.4-1.36,0.4-2.48C216.75,464.24,216.62,463.42,216.35,462.89z"/>
	<path class="st12" d="M218.76,465.34c0-1.34,0.21-2.35,0.64-3.01s1.07-1,1.93-1c0.86,0,1.51,0.34,1.96,1.03s0.67,1.7,0.67,3.04
		c0,1.34-0.21,2.34-0.64,3.01s-1.08,1-1.94,1c-0.86,0-1.51-0.34-1.95-1.03S218.76,466.68,218.76,465.34z M222.64,462.89
		c-0.27-0.53-0.69-0.79-1.28-0.79s-1.02,0.26-1.29,0.78s-0.4,1.35-0.4,2.49c0,1.14,0.13,1.97,0.4,2.5c0.27,0.52,0.7,0.78,1.29,0.78
		s1.02-0.26,1.29-0.79c0.27-0.53,0.4-1.36,0.4-2.48C223.04,464.24,222.91,463.42,222.64,462.89z"/>
	<path class="st12" d="M225.05,465.34c0-1.34,0.21-2.35,0.64-3.01s1.07-1,1.93-1c0.86,0,1.51,0.34,1.96,1.03s0.67,1.7,0.67,3.04
		c0,1.34-0.21,2.34-0.64,3.01s-1.08,1-1.94,1c-0.86,0-1.51-0.34-1.95-1.03S225.05,466.68,225.05,465.34z M228.93,462.89
		c-0.27-0.53-0.69-0.79-1.28-0.79s-1.02,0.26-1.29,0.78s-0.4,1.35-0.4,2.49c0,1.14,0.13,1.97,0.4,2.5c0.27,0.52,0.7,0.78,1.29,0.78
		s1.02-0.26,1.29-0.79c0.27-0.53,0.4-1.36,0.4-2.48C229.33,464.24,229.19,463.42,228.93,462.89z"/>
	<path class="st12" d="M233.78,461.34c0.76,0,1.35,0.17,1.77,0.52c0.42,0.35,0.64,0.83,0.64,1.44c0,0.5-0.14,0.91-0.42,1.23
		s-0.68,0.53-1.2,0.64v0.04c0.62,0.08,1.09,0.27,1.4,0.59s0.46,0.75,0.46,1.28c0,0.75-0.26,1.33-0.78,1.73s-1.26,0.6-2.21,0.6
		c-0.85,0-1.57-0.14-2.15-0.42v-0.85c0.7,0.34,1.43,0.52,2.19,0.52c1.36,0,2.04-0.53,2.04-1.59c0-0.95-0.75-1.43-2.25-1.43h-0.77
		v-0.77h0.78c0.61,0,1.1-0.14,1.46-0.41s0.54-0.65,0.54-1.12c0-0.38-0.13-0.68-0.39-0.9c-0.26-0.22-0.62-0.33-1.07-0.33
		c-0.34,0-0.66,0.05-0.96,0.14c-0.31,0.09-0.66,0.26-1.05,0.52l-0.45-0.6c0.33-0.26,0.7-0.46,1.12-0.6
		C232.88,461.41,233.32,461.34,233.78,461.34z"/>
	<path class="st12" d="M237.63,465.34c0-1.34,0.21-2.35,0.64-3.01s1.07-1,1.93-1c0.86,0,1.51,0.34,1.96,1.03s0.67,1.7,0.67,3.04
		c0,1.34-0.21,2.34-0.64,3.01s-1.08,1-1.94,1c-0.86,0-1.51-0.34-1.95-1.03S237.63,466.68,237.63,465.34z M241.51,462.89
		c-0.27-0.53-0.69-0.79-1.28-0.79s-1.02,0.26-1.29,0.78s-0.4,1.35-0.4,2.49c0,1.14,0.13,1.97,0.4,2.5c0.27,0.52,0.7,0.78,1.29,0.78
		s1.02-0.26,1.29-0.79c0.27-0.53,0.4-1.36,0.4-2.48C241.91,464.24,241.77,463.42,241.51,462.89z"/>
	<path class="st12" d="M246.36,461.34c0.76,0,1.35,0.17,1.77,0.52c0.42,0.35,0.64,0.83,0.64,1.44c0,0.5-0.14,0.91-0.42,1.23
		s-0.68,0.53-1.2,0.64v0.04c0.62,0.08,1.09,0.27,1.4,0.59s0.46,0.75,0.46,1.28c0,0.75-0.26,1.33-0.78,1.73s-1.26,0.6-2.21,0.6
		c-0.85,0-1.57-0.14-2.15-0.42v-0.85c0.7,0.34,1.43,0.52,2.19,0.52c1.36,0,2.04-0.53,2.04-1.59c0-0.95-0.75-1.43-2.25-1.43h-0.77
		v-0.77h0.78c0.61,0,1.1-0.14,1.46-0.41s0.54-0.65,0.54-1.12c0-0.38-0.13-0.68-0.39-0.9c-0.26-0.22-0.62-0.33-1.07-0.33
		c-0.34,0-0.66,0.05-0.96,0.14c-0.31,0.09-0.66,0.26-1.05,0.52l-0.45-0.6c0.33-0.26,0.7-0.46,1.12-0.6
		C245.46,461.41,245.9,461.34,246.36,461.34z"/>
	<path class="st12" d="M250.82,463.83c0.62-0.34,1.28-0.5,1.99-0.5s1.23,0.16,1.57,0.47c0.33,0.31,0.5,0.81,0.5,1.5v4.02h-0.66
		l-0.18-0.84H254c-0.29,0.37-0.59,0.62-0.88,0.75c-0.29,0.13-0.66,0.2-1.09,0.2c-0.58,0-1.04-0.15-1.38-0.45s-0.5-0.73-0.5-1.28
		c0-1.19,0.95-1.81,2.86-1.87l1-0.03v-0.37c0-0.46-0.1-0.81-0.3-1.02c-0.2-0.22-0.53-0.33-1-0.33s-1.01,0.15-1.62,0.45
		L250.82,463.83z M251.1,467.69c0,0.32,0.1,0.56,0.29,0.73s0.47,0.25,0.82,0.25c0.56,0,0.99-0.15,1.31-0.46
		c0.32-0.31,0.48-0.73,0.48-1.28v-0.53l-0.89,0.04c-0.71,0.03-1.22,0.13-1.53,0.33C251.25,466.97,251.1,467.28,251.1,467.69z"/>
</g>
<g>
	<path class="st12" d="M308.72,461.45h2.15c0.96,0,1.67,0.18,2.13,0.55s0.69,0.92,0.69,1.67c0,1.04-0.53,1.74-1.58,2.11l2.13,3.53
		h-1.08l-1.9-3.27h-1.64v3.27h-0.91V461.45z M309.63,462.25v3h1.25c0.64,0,1.11-0.13,1.42-0.38c0.3-0.25,0.45-0.64,0.45-1.15
		s-0.15-0.89-0.46-1.12c-0.31-0.23-0.8-0.35-1.47-0.35H309.63z"/>
	<path class="st12" d="M315.52,461.45h2.41c1.22,0,2.17,0.34,2.85,1.01c0.68,0.68,1.02,1.62,1.02,2.84c0,1.3-0.35,2.29-1.06,2.97
		s-1.72,1.03-3.03,1.03h-2.18V461.45z M316.43,462.24v6.27h1.11c1.08,0,1.9-0.27,2.45-0.8c0.55-0.54,0.82-1.32,0.82-2.36
		c0-1.04-0.26-1.81-0.77-2.33s-1.28-0.78-2.29-0.78H316.43z"/>
	<path class="st12" d="M323,465.34c0-1.34,0.21-2.35,0.64-3.01s1.07-1,1.93-1c0.86,0,1.51,0.34,1.96,1.03s0.67,1.7,0.67,3.04
		c0,1.34-0.21,2.34-0.64,3.01s-1.08,1-1.94,1c-0.86,0-1.51-0.34-1.95-1.03S323,466.68,323,465.34z M326.88,462.89
		c-0.27-0.53-0.69-0.79-1.28-0.79s-1.02,0.26-1.29,0.78s-0.4,1.35-0.4,2.49c0,1.14,0.13,1.97,0.4,2.5c0.27,0.52,0.7,0.78,1.29,0.78
		s1.02-0.26,1.29-0.79c0.27-0.53,0.4-1.36,0.4-2.48C327.28,464.24,327.15,463.42,326.88,462.89z"/>
	<path class="st12" d="M329.29,465.34c0-1.34,0.21-2.35,0.64-3.01s1.07-1,1.93-1c0.86,0,1.51,0.34,1.96,1.03s0.67,1.7,0.67,3.04
		c0,1.34-0.21,2.34-0.64,3.01s-1.08,1-1.94,1c-0.86,0-1.51-0.34-1.95-1.03S329.29,466.68,329.29,465.34z M333.17,462.89
		c-0.27-0.53-0.69-0.79-1.28-0.79s-1.02,0.26-1.29,0.78s-0.4,1.35-0.4,2.49c0,1.14,0.13,1.97,0.4,2.5c0.27,0.52,0.7,0.78,1.29,0.78
		s1.02-0.26,1.29-0.79c0.27-0.53,0.4-1.36,0.4-2.48C333.57,464.24,333.44,463.42,333.17,462.89z"/>
	<path class="st12" d="M335.58,465.34c0-1.34,0.21-2.35,0.64-3.01s1.07-1,1.93-1c0.86,0,1.51,0.34,1.96,1.03s0.67,1.7,0.67,3.04
		c0,1.34-0.21,2.34-0.64,3.01s-1.08,1-1.94,1c-0.86,0-1.51-0.34-1.95-1.03S335.58,466.68,335.58,465.34z M339.46,462.89
		c-0.27-0.53-0.69-0.79-1.28-0.79s-1.02,0.26-1.29,0.78s-0.4,1.35-0.4,2.49c0,1.14,0.13,1.97,0.4,2.5c0.27,0.52,0.7,0.78,1.29,0.78
		s1.02-0.26,1.29-0.79c0.27-0.53,0.4-1.36,0.4-2.48C339.86,464.24,339.73,463.42,339.46,462.89z"/>
	<path class="st12" d="M344.32,461.34c0.76,0,1.35,0.17,1.77,0.52c0.42,0.35,0.64,0.83,0.64,1.44c0,0.5-0.14,0.91-0.42,1.23
		s-0.68,0.53-1.2,0.64v0.04c0.62,0.08,1.09,0.27,1.4,0.59s0.46,0.75,0.46,1.28c0,0.75-0.26,1.33-0.78,1.73s-1.26,0.6-2.21,0.6
		c-0.85,0-1.57-0.14-2.15-0.42v-0.85c0.7,0.34,1.43,0.52,2.19,0.52c1.36,0,2.04-0.53,2.04-1.59c0-0.95-0.75-1.43-2.25-1.43h-0.77
		v-0.77h0.78c0.61,0,1.1-0.14,1.46-0.41s0.54-0.65,0.54-1.12c0-0.38-0.13-0.68-0.39-0.9c-0.26-0.22-0.62-0.33-1.07-0.33
		c-0.34,0-0.66,0.05-0.96,0.14c-0.31,0.09-0.66,0.26-1.05,0.52l-0.45-0.6c0.33-0.26,0.7-0.46,1.12-0.6
		C343.42,461.41,343.86,461.34,344.32,461.34z"/>
	<path class="st12" d="M348.16,465.34c0-1.34,0.21-2.35,0.64-3.01s1.07-1,1.93-1c0.86,0,1.51,0.34,1.96,1.03s0.67,1.7,0.67,3.04
		c0,1.34-0.21,2.34-0.64,3.01s-1.08,1-1.94,1c-0.86,0-1.51-0.34-1.95-1.03S348.16,466.68,348.16,465.34z M352.04,462.89
		c-0.27-0.53-0.69-0.79-1.28-0.79s-1.02,0.26-1.29,0.78s-0.4,1.35-0.4,2.49c0,1.14,0.13,1.97,0.4,2.5c0.27,0.52,0.7,0.78,1.29,0.78
		s1.02-0.26,1.29-0.79c0.27-0.53,0.4-1.36,0.4-2.48C352.44,464.24,352.31,463.42,352.04,462.89z"/>
	<path class="st12" d="M356.89,461.34c0.76,0,1.35,0.17,1.77,0.52c0.42,0.35,0.64,0.83,0.64,1.44c0,0.5-0.14,0.91-0.42,1.23
		s-0.68,0.53-1.2,0.64v0.04c0.62,0.08,1.09,0.27,1.4,0.59s0.46,0.75,0.46,1.28c0,0.75-0.26,1.33-0.78,1.73s-1.26,0.6-2.21,0.6
		c-0.85,0-1.57-0.14-2.15-0.42v-0.85c0.7,0.34,1.43,0.52,2.19,0.52c1.36,0,2.04-0.53,2.04-1.59c0-0.95-0.75-1.43-2.25-1.43h-0.77
		v-0.77h0.78c0.61,0,1.1-0.14,1.46-0.41s0.54-0.65,0.54-1.12c0-0.38-0.13-0.68-0.39-0.9c-0.26-0.22-0.62-0.33-1.07-0.33
		c-0.34,0-0.66,0.05-0.96,0.14c-0.31,0.09-0.66,0.26-1.05,0.52l-0.45-0.6c0.33-0.26,0.7-0.46,1.12-0.6
		C356,461.41,356.44,461.34,356.89,461.34z"/>
	<path class="st12" d="M362.03,460.95v2.03c0,0.43-0.01,0.84-0.04,1.22h0.04c0.42-0.59,1.02-0.88,1.82-0.88
		c0.8,0,1.41,0.26,1.83,0.79c0.43,0.53,0.64,1.27,0.64,2.24s-0.22,1.72-0.65,2.25c-0.43,0.53-1.04,0.8-1.83,0.8
		s-1.39-0.29-1.82-0.87h-0.06l-0.19,0.76h-0.64v-8.36H362.03z M365.39,466.34c0-0.76-0.13-1.33-0.4-1.71s-0.69-0.56-1.28-0.56
		s-1.01,0.17-1.28,0.52c-0.27,0.35-0.4,0.93-0.4,1.76s0.14,1.42,0.41,1.78c0.28,0.35,0.72,0.53,1.33,0.53c0.54,0,0.95-0.2,1.22-0.59
		C365.26,467.68,365.39,467.1,365.39,466.34z"/>
</g>
<g>
	<path class="st12" d="M420.34,461.45h2.15c0.96,0,1.67,0.18,2.13,0.55s0.69,0.92,0.69,1.67c0,1.04-0.53,1.74-1.58,2.11l2.13,3.53
		h-1.08l-1.9-3.27h-1.64v3.27h-0.91V461.45z M421.26,462.25v3h1.25c0.64,0,1.11-0.13,1.42-0.38c0.3-0.25,0.45-0.64,0.45-1.15
		s-0.15-0.89-0.46-1.12c-0.31-0.23-0.8-0.35-1.47-0.35H421.26z"/>
	<path class="st12" d="M427.14,461.45h2.41c1.22,0,2.17,0.34,2.85,1.01c0.68,0.68,1.02,1.62,1.02,2.84c0,1.3-0.35,2.29-1.06,2.97
		c-0.71,0.69-1.72,1.03-3.03,1.03h-2.18V461.45z M428.06,462.24v6.27h1.11c1.08,0,1.9-0.27,2.45-0.8c0.55-0.54,0.82-1.32,0.82-2.36
		c0-1.04-0.26-1.81-0.77-2.33s-1.28-0.78-2.29-0.78H428.06z"/>
	<path class="st12" d="M434.63,465.34c0-1.34,0.21-2.35,0.64-3.01c0.43-0.66,1.07-1,1.93-1s1.51,0.34,1.96,1.03
		c0.44,0.69,0.67,1.7,0.67,3.04c0,1.34-0.21,2.34-0.64,3.01s-1.08,1-1.94,1s-1.51-0.34-1.95-1.03S434.63,466.68,434.63,465.34z
		 M438.51,462.89c-0.26-0.53-0.69-0.79-1.28-0.79s-1.02,0.26-1.29,0.78s-0.4,1.35-0.4,2.49c0,1.14,0.13,1.97,0.4,2.5
		c0.27,0.52,0.7,0.78,1.29,0.78s1.02-0.26,1.29-0.79s0.4-1.36,0.4-2.48C438.91,464.24,438.78,463.42,438.51,462.89z"/>
	<path class="st12" d="M440.92,465.34c0-1.34,0.21-2.35,0.64-3.01c0.43-0.66,1.07-1,1.93-1c0.86,0,1.51,0.34,1.96,1.03
		c0.44,0.69,0.67,1.7,0.67,3.04c0,1.34-0.21,2.34-0.64,3.01s-1.08,1-1.94,1c-0.86,0-1.51-0.34-1.95-1.03
		S440.92,466.68,440.92,465.34z M444.8,462.89c-0.27-0.53-0.69-0.79-1.28-0.79s-1.02,0.26-1.29,0.78s-0.4,1.35-0.4,2.49
		c0,1.14,0.13,1.97,0.4,2.5c0.27,0.52,0.7,0.78,1.29,0.78s1.02-0.26,1.29-0.79c0.27-0.53,0.4-1.36,0.4-2.48
		C445.2,464.24,445.07,463.42,444.8,462.89z"/>
	<path class="st12" d="M447.21,465.34c0-1.34,0.21-2.35,0.64-3.01c0.43-0.66,1.07-1,1.93-1s1.51,0.34,1.96,1.03
		c0.44,0.69,0.67,1.7,0.67,3.04c0,1.34-0.21,2.34-0.64,3.01s-1.08,1-1.94,1s-1.51-0.34-1.95-1.03S447.21,466.68,447.21,465.34z
		 M451.09,462.89c-0.26-0.53-0.69-0.79-1.28-0.79s-1.02,0.26-1.29,0.78s-0.4,1.35-0.4,2.49c0,1.14,0.13,1.97,0.4,2.5
		c0.27,0.52,0.7,0.78,1.29,0.78s1.02-0.26,1.29-0.79s0.4-1.36,0.4-2.48C451.49,464.24,451.36,463.42,451.09,462.89z"/>
	<path class="st12" d="M455.94,461.34c0.76,0,1.35,0.17,1.78,0.52c0.42,0.35,0.64,0.83,0.64,1.44c0,0.5-0.14,0.91-0.42,1.23
		s-0.68,0.53-1.2,0.64v0.04c0.62,0.08,1.09,0.27,1.4,0.59c0.31,0.32,0.46,0.75,0.46,1.28c0,0.75-0.26,1.33-0.78,1.73
		c-0.52,0.4-1.26,0.6-2.21,0.6c-0.85,0-1.57-0.14-2.15-0.42v-0.85c0.7,0.34,1.43,0.52,2.19,0.52c1.36,0,2.04-0.53,2.04-1.59
		c0-0.95-0.75-1.43-2.25-1.43h-0.77v-0.77h0.78c0.61,0,1.1-0.14,1.46-0.41c0.36-0.27,0.54-0.65,0.54-1.12c0-0.38-0.13-0.68-0.39-0.9
		c-0.26-0.22-0.62-0.33-1.07-0.33c-0.34,0-0.66,0.05-0.96,0.14c-0.31,0.09-0.66,0.26-1.05,0.52l-0.45-0.6
		c0.33-0.26,0.7-0.46,1.12-0.6C455.04,461.41,455.48,461.34,455.94,461.34z"/>
	<path class="st12" d="M459.79,465.34c0-1.34,0.21-2.35,0.64-3.01c0.43-0.66,1.07-1,1.93-1s1.51,0.34,1.96,1.03
		c0.44,0.69,0.67,1.7,0.67,3.04c0,1.34-0.21,2.34-0.64,3.01s-1.08,1-1.94,1s-1.51-0.34-1.95-1.03S459.79,466.68,459.79,465.34z
		 M463.67,462.89c-0.26-0.53-0.69-0.79-1.28-0.79s-1.02,0.26-1.29,0.78s-0.4,1.35-0.4,2.49c0,1.14,0.13,1.97,0.4,2.5
		c0.27,0.52,0.7,0.78,1.29,0.78s1.02-0.26,1.29-0.79s0.4-1.36,0.4-2.48C464.07,464.24,463.93,463.42,463.67,462.89z"/>
	<path class="st12" d="M470.43,466.69h1.17v0.81h-1.17v1.8h-0.85v-1.8h-3.82v-0.78l3.73-5.31h0.95V466.69z M469.58,466.69v-2.61
		c0-0.55,0.02-1.13,0.05-1.74h-0.04c-0.17,0.34-0.33,0.63-0.48,0.85l-2.46,3.49H469.58z"/>
</g>
</svg>
