<?xml version="1.0" encoding="utf-8"?>
<!-- Generator: Adobe Illustrator 25.1.0, SVG Export Plug-In . SVG Version: 6.00 Build 0)  -->
<svg version="1.1" id="Layer_1" xmlns="http://www.w3.org/2000/svg" xmlns:xlink="http://www.w3.org/1999/xlink" x="0px" y="0px"
	 viewBox="0 0 960 540" style="enable-background:new 0 0 960 540;" xml:space="preserve">
<style type="text/css">
	.st0{fill:none;stroke:#D9D9D9;stroke-width:0.75;stroke-linejoin:round;stroke-miterlimit:10;}
	.st1{fill:none;stroke:#BFBFBF;stroke-width:0.75;stroke-linejoin:round;stroke-miterlimit:10;}
	
		.st2{clip-path:url(#SVGID_2_);fill:none;stroke:#8FBC0A;stroke-width:3;stroke-linecap:round;stroke-linejoin:round;stroke-miterlimit:10;}
	.st3{fill:#FFFFFF;}
	.st4{fill:none;stroke:#8FBC0A;stroke-width:3;stroke-linejoin:round;stroke-miterlimit:10;}
	
		.st5{clip-path:url(#SVGID_4_);fill:none;stroke:#41BFC6;stroke-width:3;stroke-linecap:round;stroke-linejoin:round;stroke-miterlimit:10;}
	.st6{fill:none;stroke:#41BFC6;stroke-width:3;stroke-linejoin:round;stroke-miterlimit:10;}
	.st7{fill:none;stroke:#8FBC0A;stroke-width:3;stroke-linecap:round;stroke-linejoin:round;stroke-miterlimit:10;}
	.st8{fill:none;stroke:#41BFC6;stroke-width:3;stroke-linecap:round;stroke-linejoin:round;stroke-miterlimit:10;}
	.st9{fill:#767171;}
	.st10{fill:none;}
</style>
<g>
	<path class="st0" d="M104.17,151.9h429.18 M104.17,173.76h429.18 M104.17,195.6h429.18 M104.17,217.2h429.18 M104.17,239.04h429.18
		 M104.17,260.88h429.18 M104.17,282.72h429.18 M104.17,304.56h429.18 M104.17,326.16h429.18 M104.17,348h429.18 M104.17,369.84
		h429.18"/>
</g>
<g>
	<line class="st1" x1="104.17" y1="391.63" x2="104.17" y2="151.9"/>
</g>
<g>
	<line class="st1" x1="104.17" y1="391.63" x2="533.35" y2="391.63"/>
</g>
<g>
	<path class="st1" d="M533.35,391.63v4.31 M497.52,391.63v4.31 M461.76,391.63v4.31 M426,391.63v4.31 M390.24,391.63v4.31
		 M354.48,391.63v4.31 M318.72,391.63v4.31 M282.96,391.63v4.31 M247.2,391.63v4.31 M211.44,391.63v4.31 M175.68,391.63v4.31
		 M139.92,391.63v4.31 M104.17,391.63v4.31"/>
</g>
<g>
	<defs>
		<rect id="SVGID_1_" x="103.92" y="150.96" width="430.08" height="240.96"/>
	</defs>
	<clipPath id="SVGID_2_">
		<use xlink:href="#SVGID_1_"  style="overflow:visible;"/>
	</clipPath>
	<path class="st2" d="M104.17,391.63c5.96-11.76,11.92-23.9,17.88-35.27c5.33-10.17,11.66-15.26,17.88-32.94
		c6.95-19.77,15.9-69.11,23.84-85.65c5.94-12.36,17.9-9.98,23.84-13.57c7.95-4.8,13.91-12.03,23.84-15.22
		c5.96-1.91,17.88-1.97,35.77-3.92c29.8-3.26,119.22-13.01,143.06-15.62"/>
</g>
<g>
	<circle class="st3" cx="104.31" cy="391.48" r="2.4"/>
	<circle class="st4" cx="104.31" cy="391.48" r="2.4"/>
	<circle class="st3" cx="122.07" cy="356.2" r="2.4"/>
	<circle class="st4" cx="122.07" cy="356.2" r="2.4"/>
	<circle class="st3" cx="140.07" cy="323.32" r="2.4"/>
	
		<ellipse transform="matrix(0.2298 -0.9732 0.9732 0.2298 -206.7849 385.3655)" class="st4" cx="140.07" cy="323.32" rx="2.4" ry="2.4"/>
	<circle class="st3" cx="163.83" cy="237.64" r="2.4"/>
	<circle class="st4" cx="163.83" cy="237.64" r="2.4"/>
	
		<ellipse transform="matrix(0.1602 -0.9871 0.9871 0.1602 -63.766 373.4613)" class="st3" cx="187.59" cy="224.2" rx="2.4" ry="2.4"/>
	<circle class="st4" cx="187.59" cy="224.2" r="2.4"/>
	<circle class="st3" cx="211.59" cy="208.84" r="2.4"/>
	<circle class="st4" cx="211.59" cy="208.84" r="2.4"/>
	<circle class="st3" cx="247.35" cy="205" r="2.4"/>
	<circle class="st4" cx="247.35" cy="205" r="2.4"/>
	<circle class="st3" cx="390.39" cy="189.4" r="2.4"/>
	<circle class="st4" cx="390.39" cy="189.4" r="2.4"/>
</g>
<g>
	<defs>
		<rect id="SVGID_3_" x="103.92" y="150.96" width="430.08" height="240.96"/>
	</defs>
	<clipPath id="SVGID_4_">
		<use xlink:href="#SVGID_3_"  style="overflow:visible;"/>
	</clipPath>
	<path class="st5" d="M104.17,391.63c5.7,0,12.18,6.89,17.88,0c5.96-7.2,10.93-22.92,17.88-43.2c6.95-20.27,15.9-60.98,23.84-78.44
		c7.35-16.15,16.49-20.14,23.84-26.29c7.95-6.65,13.91-6.14,23.84-13.61c7.6-5.72,12.97-24.61,35.77-31.23
		c29.8-8.65,95.37-13.8,143.06-20.69"/>
</g>
<g>
	<circle class="st3" cx="104.31" cy="391.48" r="2.4"/>
	<circle class="st6" cx="104.31" cy="391.48" r="2.4"/>
	<circle class="st3" cx="122.07" cy="391.48" r="2.4"/>
	<circle class="st6" cx="122.07" cy="391.48" r="2.4"/>
	<circle class="st3" cx="140.07" cy="348.28" r="2.4"/>
	
		<ellipse transform="matrix(0.2298 -0.9732 0.9732 0.2298 -231.0772 404.5909)" class="st6" cx="140.07" cy="348.28" rx="2.4" ry="2.4"/>
	<circle class="st3" cx="163.83" cy="269.8" r="2.4"/>
	<circle class="st6" cx="163.83" cy="269.8" r="2.4"/>
	<circle class="st3" cx="187.59" cy="243.64" r="2.4"/>
	<circle class="st6" cx="187.59" cy="243.64" r="2.4"/>
	<circle class="st3" cx="211.59" cy="229.96" r="2.4"/>
	<circle class="st6" cx="211.59" cy="229.96" r="2.4"/>
	<ellipse transform="matrix(0.1891 -0.982 0.982 0.1891 5.3983 404.0663)" class="st3" cx="247.35" cy="198.76" rx="2.4" ry="2.4"/>
	<circle class="st6" cx="247.35" cy="198.76" r="2.4"/>
	<circle class="st3" cx="390.39" cy="178.12" r="2.4"/>
	<circle class="st6" cx="390.39" cy="178.12" r="2.4"/>
</g>
<g>
	<line class="st7" x1="181.31" y1="455.91" x2="200.51" y2="455.91"/>
</g>
<g>
	<circle class="st3" cx="190.92" cy="456.01" r="2.4"/>
	<circle class="st4" cx="190.92" cy="456.01" r="2.4"/>
</g>
<g>
	<line class="st8" x1="350.89" y1="455.91" x2="370.09" y2="455.91"/>
</g>
<g>
	<circle class="st3" cx="360.6" cy="456.01" r="2.4"/>
	<circle class="st6" cx="360.6" cy="456.01" r="2.4"/>
</g>
<g>
	<path class="st9" d="M236.04,109.72h2.62c1.33,0,2.37,0.37,3.11,1.11s1.11,1.77,1.11,3.09c0,1.41-0.38,2.5-1.15,3.24
		s-1.87,1.12-3.31,1.12h-2.37V109.72z M237.04,110.58v6.84h1.21c1.18,0,2.08-0.29,2.67-0.88s0.9-1.44,0.9-2.57s-0.28-1.98-0.84-2.55
		s-1.39-0.85-2.5-0.85H237.04z"/>
	<path class="st9" d="M244.56,110.12c0-0.21,0.05-0.37,0.16-0.48s0.24-0.16,0.41-0.16s0.31,0.05,0.42,0.16s0.16,0.27,0.16,0.48
		s-0.05,0.37-0.16,0.48s-0.25,0.17-0.42,0.17s-0.3-0.06-0.41-0.17S244.56,110.34,244.56,110.12z M245.62,118.29h-0.97v-6.42h0.97
		V118.29z"/>
	<path class="st9" d="M249.3,117.6c1.05,0,1.58-0.33,1.58-0.98c0-0.25-0.11-0.46-0.33-0.64s-0.64-0.39-1.27-0.63
		c-0.6-0.22-1.03-0.42-1.28-0.59s-0.44-0.36-0.56-0.56s-0.18-0.46-0.18-0.76c0-0.52,0.21-0.93,0.64-1.24s1-0.46,1.71-0.46
		s1.4,0.14,2.07,0.42l-0.35,0.79c-0.64-0.26-1.21-0.39-1.7-0.39s-0.85,0.07-1.09,0.21s-0.36,0.34-0.36,0.6
		c0,0.17,0.04,0.32,0.13,0.44s0.23,0.24,0.42,0.35s0.57,0.27,1.13,0.47c0.76,0.28,1.28,0.56,1.54,0.84s0.4,0.63,0.4,1.06
		c0,0.6-0.22,1.06-0.67,1.38s-1.08,0.49-1.91,0.49s-1.48-0.13-1.95-0.4v-0.9C247.95,117.43,248.62,117.6,249.3,117.6z"/>
	<path class="st9" d="M255.02,117.6c1.05,0,1.58-0.33,1.58-0.98c0-0.25-0.11-0.46-0.33-0.64s-0.64-0.39-1.27-0.63
		c-0.6-0.22-1.03-0.42-1.28-0.59s-0.44-0.36-0.56-0.56s-0.18-0.46-0.18-0.76c0-0.52,0.21-0.93,0.64-1.24s1-0.46,1.71-0.46
		s1.4,0.14,2.07,0.42l-0.35,0.79c-0.64-0.26-1.21-0.39-1.7-0.39s-0.85,0.07-1.09,0.21s-0.36,0.34-0.36,0.6
		c0,0.17,0.04,0.32,0.13,0.44s0.23,0.24,0.42,0.35s0.57,0.27,1.13,0.47c0.76,0.28,1.28,0.56,1.54,0.84s0.4,0.63,0.4,1.06
		c0,0.6-0.22,1.06-0.67,1.38s-1.08,0.49-1.91,0.49s-1.48-0.13-1.95-0.4v-0.9C253.67,117.43,254.34,117.6,255.02,117.6z"/>
	<path class="st9" d="M258.75,115.07c0-1.05,0.26-1.86,0.78-2.45s1.24-0.88,2.16-0.88s1.64,0.3,2.16,0.9
		c0.54,0.59,0.8,1.41,0.8,2.44s-0.26,1.85-0.79,2.43s-1.26,0.88-2.19,0.88c-0.02,0-0.03,0-0.05,0c-0.85,0-1.54-0.3-2.07-0.9
		s-0.8-1.38-0.8-2.35C258.75,115.13,258.75,115.1,258.75,115.07z M261.69,112.58c-1.29,0-1.93,0.83-1.93,2.49
		c0,0.82,0.17,1.45,0.5,1.88s0.81,0.64,1.45,0.64s1.12-0.21,1.45-0.64s0.5-1.05,0.5-1.87s-0.17-1.44-0.5-1.86
		S262.33,112.58,261.69,112.58z"/>
	<path class="st9" d="M267.34,118.29h-0.97v-9.12h0.97V118.29z"/>
	<path class="st9" d="M274.7,118.29h-0.8l-0.14-0.86h-0.05c-0.2,0.32-0.47,0.56-0.83,0.73s-0.76,0.25-1.21,0.25
		c-0.79,0-1.38-0.19-1.76-0.56s-0.57-0.97-0.57-1.78v-4.2h0.98v4.17c0,0.53,0.12,0.92,0.36,1.17s0.61,0.38,1.12,0.38
		c0.67,0,1.16-0.18,1.47-0.55s0.47-0.97,0.47-1.8v-3.38h0.97V118.29z"/>
	<path class="st9" d="M277.81,111.87h1.86v0.76h-1.86v3.78c0,0.38,0.09,0.68,0.27,0.89s0.43,0.31,0.75,0.31s0.61-0.04,0.89-0.12
		v0.75c-0.09,0.05-0.25,0.09-0.46,0.12s-0.4,0.05-0.56,0.05c-1.24,0-1.86-0.65-1.86-1.96v-3.82h-0.92v-0.47l0.92-0.4l0.41-1.37h0.56
		V111.87z"/>
	<path class="st9" d="M280.92,110.12c0-0.21,0.05-0.37,0.16-0.48s0.24-0.16,0.41-0.16s0.31,0.05,0.42,0.16s0.16,0.27,0.16,0.48
		s-0.05,0.37-0.16,0.48s-0.25,0.17-0.42,0.17s-0.3-0.06-0.41-0.17S280.92,110.34,280.92,110.12z M281.97,118.29H281v-6.42h0.97
		V118.29z"/>
	<path class="st9" d="M283.67,115.07c0-1.05,0.26-1.86,0.78-2.45s1.24-0.88,2.16-0.88s1.64,0.3,2.16,0.9
		c0.54,0.59,0.8,1.41,0.8,2.44s-0.26,1.85-0.79,2.43s-1.26,0.88-2.19,0.88c-0.02,0-0.03,0-0.05,0c-0.85,0-1.54-0.3-2.07-0.9
		s-0.8-1.38-0.8-2.35C283.67,115.13,283.67,115.1,283.67,115.07z M286.61,112.58c-1.29,0-1.93,0.83-1.93,2.49
		c0,0.82,0.17,1.45,0.5,1.88s0.81,0.64,1.45,0.64s1.12-0.21,1.45-0.64s0.5-1.05,0.5-1.87s-0.17-1.44-0.5-1.86
		S287.25,112.58,286.61,112.58z"/>
	<path class="st9" d="M294.32,111.75c0.78,0,1.37,0.19,1.75,0.57s0.58,0.97,0.58,1.78v4.19h-0.97v-4.15c0-0.53-0.12-0.92-0.36-1.17
		s-0.61-0.38-1.12-0.38c-0.68,0-1.17,0.18-1.48,0.54s-0.47,0.96-0.47,1.79v3.37h-0.97v-6.42h0.79l0.16,0.88h0.05
		c0.2-0.32,0.48-0.56,0.83-0.74S293.88,111.75,294.32,111.75z"/>
	<path class="st9" d="M302.74,112.75c0.47-0.66,1.13-1,2-1s1.52,0.29,1.99,0.87s0.7,1.4,0.7,2.46s-0.24,1.87-0.71,2.46
		s-1.14,0.87-2,0.87s-1.52-0.31-1.98-0.94h-0.07c0.05,0.38,0.07,0.73,0.07,1.07v2.64h-0.97v-9.3h0.79l0.13,0.88H302.74z
		 M302.74,115.07c0,0.9,0.15,1.54,0.45,1.94c0.3,0.39,0.78,0.58,1.45,0.58c0.56,0,0.99-0.22,1.3-0.67s0.47-1.07,0.47-1.86
		s-0.16-1.41-0.47-1.83s-0.75-0.64-1.33-0.64c-0.66,0-1.14,0.18-1.43,0.54s-0.44,0.94-0.45,1.73V115.07z"/>
	<path class="st9" d="M312.05,111.75c0.28,0,0.54,0.02,0.77,0.07l-0.13,0.9c-0.27-0.06-0.5-0.09-0.7-0.09
		c-0.52,0-0.97,0.21-1.34,0.63s-0.55,0.95-0.55,1.58v3.45h-0.97v-6.42h0.8l0.11,1.19h0.05c0.24-0.42,0.53-0.75,0.86-0.97
		S311.65,111.75,312.05,111.75z"/>
	<path class="st9" d="M313.66,115.07c0-1.05,0.26-1.86,0.78-2.45s1.24-0.88,2.16-0.88s1.64,0.3,2.16,0.9
		c0.54,0.59,0.8,1.41,0.8,2.44s-0.26,1.85-0.79,2.43s-1.26,0.88-2.19,0.88c-0.02,0-0.03,0-0.05,0c-0.85,0-1.54-0.3-2.07-0.9
		s-0.8-1.38-0.8-2.35C313.66,115.13,313.66,115.1,313.66,115.07z M316.59,112.58c-1.29,0-1.93,0.83-1.93,2.49
		c0,0.82,0.17,1.45,0.5,1.88s0.81,0.64,1.45,0.64s1.12-0.21,1.45-0.64s0.5-1.05,0.5-1.87s-0.17-1.44-0.5-1.86
		S317.24,112.58,316.59,112.58z"/>
	<path class="st9" d="M321.55,111.47c0-1.58,0.69-2.37,2.07-2.37c0.33,0,0.73,0.07,1.2,0.21l-0.25,0.78
		c-0.37-0.12-0.69-0.18-0.96-0.18c-0.37,0-0.64,0.12-0.81,0.37s-0.26,0.64-0.26,1.17v0.42h1.63v0.76h-1.63v5.67h-0.97v-5.67h-1.15
		v-0.44l1.15-0.35V111.47z"/>
	<path class="st9" d="M325.25,110.12c0-0.21,0.05-0.37,0.16-0.48s0.24-0.16,0.41-0.16s0.31,0.05,0.42,0.16s0.16,0.27,0.16,0.48
		s-0.05,0.37-0.16,0.48s-0.25,0.17-0.42,0.17s-0.3-0.06-0.41-0.17S325.25,110.34,325.25,110.12z M326.31,118.29h-0.97v-6.42h0.97
		V118.29z"/>
	<path class="st9" d="M329.34,118.29h-0.97v-9.12h0.97V118.29z"/>
	<path class="st9" d="M334.12,118.41c-0.95,0-1.7-0.29-2.25-0.87c-0.55-0.58-0.82-1.39-0.82-2.42s0.25-1.85,0.76-2.46
		s1.18-0.91,2.02-0.91s1.48,0.27,1.95,0.8c0.47,0.52,0.7,1.21,0.7,2.09v0.62h-4.42c0.02,0.75,0.21,1.32,0.57,1.71
		s0.88,0.59,1.55,0.59s1.35-0.14,2.02-0.43v0.87c-0.34,0.15-0.67,0.25-0.98,0.32S334.54,118.41,334.12,118.41z M335.44,114.46
		c0-0.61-0.14-1.08-0.41-1.4s-0.67-0.49-1.17-0.49s-0.92,0.17-1.23,0.5s-0.49,0.8-0.54,1.39H335.44z"/>
	<path class="st9" d="M339.16,116.89l0.09,0.13c-0.1,0.39-0.24,0.84-0.44,1.35s-0.39,1-0.6,1.45h-0.73
		c0.11-0.43,0.23-0.94,0.35-1.51c0.12-0.55,0.21-1.03,0.27-1.44H339.16z"/>
	<path class="st9" d="M351.02,117.97c-0.91,0.29-1.91,0.44-3.01,0.44c-1.3,0-2.31-0.38-3.03-1.15c-0.72-0.78-1.08-1.86-1.08-3.25
		c0-0.89,0.18-1.68,0.53-2.34s0.87-1.18,1.54-1.53s1.46-0.53,2.37-0.53s1.75,0.17,2.55,0.5l-0.39,0.88
		c-0.77-0.33-1.52-0.49-2.23-0.49c-1.04,0-1.86,0.31-2.44,0.93s-0.88,1.5-0.88,2.62s0.28,1.99,0.85,2.59s1.39,0.9,2.49,0.9
		c0.58,0,1.16-0.07,1.74-0.21v-2.64h-1.92v-0.89h2.91V117.97z"/>
	<path class="st9" d="M352.85,110.12c0-0.21,0.05-0.37,0.16-0.48s0.24-0.16,0.41-0.16s0.31,0.05,0.42,0.16s0.16,0.27,0.16,0.48
		s-0.05,0.37-0.16,0.48s-0.25,0.17-0.42,0.17s-0.3-0.06-0.41-0.17S352.85,110.34,352.85,110.12z M353.9,118.29h-0.97v-6.42h0.97
		V118.29z"/>
	<path class="st9" d="M359,111.75c0.78,0,1.37,0.19,1.75,0.57s0.58,0.97,0.58,1.78v4.19h-0.97v-4.15c0-0.53-0.12-0.92-0.36-1.17
		s-0.61-0.38-1.12-0.38c-0.68,0-1.17,0.18-1.48,0.54s-0.47,0.96-0.47,1.79v3.37h-0.97v-6.42h0.79l0.16,0.88h0.05
		c0.2-0.32,0.48-0.56,0.83-0.74S358.56,111.75,359,111.75z"/>
	<path class="st9" d="M364.96,117.6c1.05,0,1.58-0.33,1.58-0.98c0-0.25-0.11-0.46-0.33-0.64s-0.64-0.39-1.27-0.63
		c-0.6-0.22-1.03-0.42-1.28-0.59s-0.44-0.36-0.56-0.56s-0.18-0.46-0.18-0.76c0-0.52,0.21-0.93,0.64-1.24s1-0.46,1.71-0.46
		s1.4,0.14,2.07,0.42l-0.35,0.79c-0.64-0.26-1.21-0.39-1.7-0.39s-0.85,0.07-1.09,0.21s-0.36,0.34-0.36,0.6
		c0,0.17,0.04,0.32,0.13,0.44s0.23,0.24,0.42,0.35s0.57,0.27,1.13,0.47c0.76,0.28,1.28,0.56,1.54,0.84s0.4,0.63,0.4,1.06
		c0,0.6-0.22,1.06-0.67,1.38s-1.08,0.49-1.91,0.49s-1.48-0.13-1.95-0.4v-0.9C363.6,117.43,364.28,117.6,364.96,117.6z"/>
	<path class="st9" d="M371.76,118.41c-0.95,0-1.7-0.29-2.25-0.87c-0.55-0.58-0.82-1.39-0.82-2.42s0.25-1.85,0.76-2.46
		s1.18-0.91,2.02-0.91s1.48,0.27,1.95,0.8c0.47,0.52,0.7,1.21,0.7,2.09v0.62h-4.42c0.02,0.75,0.21,1.32,0.57,1.71
		s0.88,0.59,1.55,0.59s1.35-0.14,2.02-0.43v0.87c-0.34,0.15-0.67,0.25-0.98,0.32S372.19,118.41,371.76,118.41z M373.08,114.46
		c0-0.61-0.14-1.08-0.41-1.4s-0.67-0.49-1.17-0.49s-0.92,0.17-1.23,0.5s-0.49,0.8-0.54,1.39H373.08z"/>
	<path class="st9" d="M378.82,111.75c0.78,0,1.37,0.19,1.75,0.57s0.58,0.97,0.58,1.78v4.19h-0.97v-4.15c0-0.53-0.12-0.92-0.36-1.17
		s-0.61-0.38-1.12-0.38c-0.68,0-1.17,0.18-1.48,0.54s-0.47,0.96-0.47,1.79v3.37h-0.97v-6.42h0.79l0.16,0.88h0.05
		c0.2-0.32,0.48-0.56,0.83-0.74S378.37,111.75,378.82,111.75z"/>
	<path class="st9" d="M382.79,115.07c0-1.05,0.26-1.86,0.78-2.45s1.24-0.88,2.16-0.88s1.64,0.3,2.16,0.9
		c0.54,0.59,0.8,1.41,0.8,2.44s-0.26,1.85-0.79,2.43s-1.26,0.88-2.19,0.88c-0.02,0-0.03,0-0.05,0c-0.85,0-1.54-0.3-2.07-0.9
		s-0.8-1.38-0.8-2.35C382.79,115.13,382.79,115.1,382.79,115.07z M385.72,112.58c-1.29,0-1.93,0.83-1.93,2.49
		c0,0.82,0.17,1.45,0.5,1.88s0.81,0.64,1.45,0.64s1.12-0.21,1.45-0.64s0.5-1.05,0.5-1.87s-0.17-1.44-0.5-1.86
		S386.37,112.58,385.72,112.58z"/>
	<path class="st9" d="M392.02,117.6c1.05,0,1.58-0.33,1.58-0.98c0-0.25-0.11-0.46-0.33-0.64s-0.64-0.39-1.27-0.63
		c-0.6-0.22-1.03-0.42-1.28-0.59s-0.44-0.36-0.56-0.56s-0.18-0.46-0.18-0.76c0-0.52,0.21-0.93,0.64-1.24s1-0.46,1.71-0.46
		s1.4,0.14,2.07,0.42l-0.35,0.79c-0.64-0.26-1.21-0.39-1.7-0.39s-0.85,0.07-1.09,0.21s-0.36,0.34-0.36,0.6
		c0,0.17,0.04,0.32,0.13,0.44s0.23,0.24,0.42,0.35s0.57,0.27,1.13,0.47c0.76,0.28,1.28,0.56,1.54,0.84s0.4,0.63,0.4,1.06
		c0,0.6-0.22,1.06-0.67,1.38s-1.08,0.49-1.91,0.49s-1.48-0.13-1.95-0.4v-0.9C390.67,117.43,391.34,117.6,392.02,117.6z"/>
	<path class="st9" d="M396.03,110.12c0-0.21,0.05-0.37,0.16-0.48s0.24-0.16,0.41-0.16s0.31,0.05,0.42,0.16s0.16,0.27,0.16,0.48
		s-0.05,0.37-0.16,0.48s-0.25,0.17-0.42,0.17s-0.3-0.06-0.41-0.17S396.03,110.34,396.03,110.12z M397.09,118.29h-0.97v-6.42h0.97
		V118.29z"/>
	<path class="st9" d="M404.44,118.29h-0.79l-0.13-0.86h-0.05c-0.45,0.65-1.11,0.98-1.98,0.98s-1.53-0.29-2-0.86
		c-0.46-0.58-0.7-1.4-0.7-2.45s0.23-1.88,0.7-2.46s1.13-0.88,1.98-0.88s1.51,0.32,1.98,0.95h0.08l-0.04-0.46l-0.02-0.45v-2.61h0.97
		V118.29z M403.47,115.3v-0.21c0-0.91-0.15-1.56-0.46-1.95c-0.29-0.39-0.78-0.58-1.45-0.58c-0.57,0-1.01,0.22-1.31,0.66
		s-0.45,1.07-0.45,1.88s0.15,1.43,0.45,1.85s0.74,0.63,1.32,0.63c0.66,0,1.15-0.18,1.44-0.54S403.47,116.1,403.47,115.3z"/>
	<path class="st9" d="M409.22,118.41c-0.95,0-1.7-0.29-2.25-0.87c-0.55-0.58-0.82-1.39-0.82-2.42s0.25-1.85,0.76-2.46
		s1.18-0.91,2.02-0.91s1.48,0.27,1.95,0.8c0.47,0.52,0.7,1.21,0.7,2.09v0.62h-4.42c0.02,0.75,0.21,1.32,0.57,1.71
		s0.88,0.59,1.55,0.59s1.35-0.14,2.02-0.43v0.87c-0.34,0.15-0.67,0.25-0.98,0.32S409.64,118.41,409.22,118.41z M410.54,114.46
		c0-0.61-0.14-1.08-0.41-1.4s-0.67-0.49-1.17-0.49s-0.92,0.17-1.23,0.5s-0.49,0.8-0.54,1.39H410.54z"/>
	<path class="st9" d="M414.86,117.6c1.05,0,1.58-0.33,1.58-0.98c0-0.25-0.11-0.46-0.33-0.64s-0.64-0.39-1.27-0.63
		c-0.6-0.22-1.03-0.42-1.28-0.59s-0.44-0.36-0.56-0.56s-0.18-0.46-0.18-0.76c0-0.52,0.21-0.93,0.64-1.24s1-0.46,1.71-0.46
		s1.4,0.14,2.07,0.42l-0.35,0.79c-0.64-0.26-1.21-0.39-1.7-0.39s-0.85,0.07-1.09,0.21s-0.36,0.34-0.36,0.6
		c0,0.17,0.04,0.32,0.13,0.44s0.23,0.24,0.42,0.35s0.57,0.27,1.13,0.47c0.76,0.28,1.28,0.56,1.54,0.84s0.4,0.63,0.4,1.06
		c0,0.6-0.22,1.06-0.67,1.38s-1.08,0.49-1.91,0.49s-1.48-0.13-1.95-0.4v-0.9C413.51,117.43,414.18,117.6,414.86,117.6z"/>
</g>
<line class="st10" x1="96.13" y1="137.17" x2="96.13" y2="405.08"/>
<g>
	<path class="st9" d="M99.65,409.15c0-1.47,0.23-2.56,0.7-3.29s1.17-1.09,2.11-1.09s1.65,0.38,2.14,1.13s0.73,1.86,0.73,3.32
		s-0.23,2.55-0.7,3.28s-1.17,1.09-2.11,1.09s-1.65-0.37-2.13-1.12S99.65,410.61,99.65,409.15z M103.88,406.48
		c-0.29-0.57-0.76-0.86-1.4-0.86s-1.11,0.28-1.41,0.85s-0.44,1.47-0.44,2.72s0.15,2.15,0.44,2.72s0.76,0.85,1.41,0.85
		s1.11-0.29,1.4-0.86s0.44-1.48,0.44-2.71S104.17,407.05,103.88,406.48z"/>
	<path class="st9" d="M136.63,404.79c0.83,0,1.47,0.19,1.94,0.57s0.69,0.9,0.69,1.57c0,0.54-0.15,0.99-0.46,1.34
		s-0.74,0.58-1.31,0.7v0.05c0.68,0.08,1.19,0.3,1.52,0.64s0.5,0.81,0.5,1.39c0,0.82-0.28,1.45-0.85,1.89s-1.37,0.66-2.41,0.66
		c-0.93,0-1.71-0.15-2.35-0.46v-0.93c0.76,0.38,1.56,0.56,2.38,0.56c1.48,0,2.22-0.58,2.22-1.74c0-1.04-0.82-1.56-2.45-1.56h-0.84
		v-0.84h0.86c0.67,0,1.2-0.15,1.59-0.44s0.59-0.7,0.59-1.23c0-0.42-0.14-0.75-0.43-0.98s-0.68-0.36-1.17-0.36
		c-0.37,0-0.72,0.05-1.05,0.15s-0.72,0.29-1.15,0.57l-0.49-0.66c0.36-0.28,0.76-0.5,1.22-0.66S136.13,404.79,136.63,404.79z"/>
	<path class="st9" d="M140.77,409.15c0-1.47,0.23-2.56,0.7-3.29s1.17-1.09,2.11-1.09s1.65,0.38,2.14,1.13s0.73,1.86,0.73,3.32
		s-0.23,2.55-0.7,3.28s-1.17,1.09-2.11,1.09s-1.65-0.37-2.13-1.12S140.77,410.61,140.77,409.15z M145,406.48
		c-0.29-0.57-0.76-0.86-1.4-0.86s-1.11,0.28-1.41,0.85s-0.44,1.47-0.44,2.72s0.15,2.15,0.44,2.72s0.76,0.85,1.41,0.85
		s1.11-0.29,1.4-0.86s0.44-1.48,0.44-2.71S145.29,407.05,145,406.48z"/>
	<path class="st9" d="M172.16,408.14c0.77,0,1.38,0.23,1.82,0.69s0.67,1.09,0.67,1.9c0,0.89-0.24,1.59-0.73,2.1
		s-1.16,0.76-2.01,0.76s-1.54-0.33-2.07-1c-0.52-0.66-0.78-1.59-0.78-2.78c0-3.35,1.29-5.03,3.88-5.03c0.45,0,0.8,0.04,1.04,0.11
		v0.84c-0.29-0.1-0.64-0.15-1.03-0.15c-0.93,0-1.63,0.29-2.11,0.87s-0.74,1.47-0.79,2.69h0.07
		C170.55,408.47,171.23,408.14,172.16,408.14z M171.91,408.9c-0.48,0-0.91,0.16-1.29,0.49s-0.57,0.7-0.56,1.12
		c0,0.4,0.07,0.77,0.23,1.12s0.38,0.62,0.67,0.83s0.6,0.31,0.94,0.31c0.02,0,0.03,0,0.04,0c0.56,0,0.99-0.18,1.29-0.53
		s0.46-0.83,0.46-1.45s-0.14-1.08-0.43-1.4s-0.71-0.48-1.27-0.48C171.96,408.9,171.94,408.9,171.91,408.9z"/>
	<path class="st9" d="M175.77,409.15c0-1.47,0.23-2.56,0.7-3.29s1.17-1.09,2.11-1.09s1.65,0.38,2.14,1.13s0.73,1.86,0.73,3.32
		s-0.23,2.55-0.7,3.28s-1.17,1.09-2.11,1.09s-1.65-0.37-2.13-1.12S175.77,410.61,175.77,409.15z M180,406.48
		c-0.29-0.57-0.76-0.86-1.4-0.86s-1.11,0.28-1.41,0.85s-0.44,1.47-0.44,2.72s0.15,2.15,0.44,2.72s0.76,0.85,1.41,0.85
		s1.11-0.29,1.4-0.86s0.44-1.48,0.44-2.71S180.29,407.05,180,406.48z"/>
	<path class="st9" d="M206.47,410.25c-0.76,0-1.36-0.23-1.8-0.68s-0.67-1.08-0.67-1.9c0-0.9,0.25-1.6,0.74-2.12s1.15-0.77,1.97-0.77
		c0.02,0,0.04,0,0.06,0c0.85,0,1.53,0.34,2.05,1.01s0.78,1.58,0.78,2.72c0,0.02,0,0.04,0,0.05c0,3.35-1.3,5.03-3.89,5.03
		c-0.45,0-0.81-0.04-1.08-0.12v-0.84c0.32,0.1,0.67,0.15,1.07,0.15c0.94,0,1.65-0.29,2.12-0.87s0.74-1.47,0.78-2.67h-0.07
		c-0.21,0.32-0.49,0.57-0.85,0.74S206.92,410.25,206.47,410.25z M205.41,406.15c-0.3,0.36-0.46,0.84-0.46,1.45s0.14,1.07,0.43,1.39
		s0.71,0.47,1.27,0.47c0.02,0,0.05,0,0.07,0c0.5,0,0.93-0.16,1.31-0.48s0.57-0.68,0.57-1.08c0-0.01,0-0.02,0-0.04
		c0-0.41-0.07-0.78-0.23-1.13s-0.38-0.62-0.67-0.82s-0.61-0.3-0.95-0.3c-0.02,0-0.03,0-0.04,0
		C206.15,405.62,205.72,405.8,205.41,406.15z"/>
	<path class="st9" d="M210.77,409.15c0-1.47,0.23-2.56,0.7-3.29s1.17-1.09,2.11-1.09s1.65,0.38,2.14,1.13s0.73,1.86,0.73,3.32
		s-0.23,2.55-0.7,3.28s-1.17,1.09-2.11,1.09s-1.65-0.37-2.13-1.12S210.77,410.61,210.77,409.15z M215,406.48
		c-0.29-0.57-0.76-0.86-1.4-0.86s-1.11,0.28-1.41,0.85s-0.44,1.47-0.44,2.72s0.15,2.15,0.44,2.72s0.76,0.85,1.41,0.85
		s1.11-0.29,1.4-0.86s0.44-1.48,0.44-2.71S215.3,407.05,215,406.48z"/>
	<path class="st9" d="M242.57,413.47h-0.95v-6.11c0-0.48,0.02-0.96,0.05-1.44c-0.08,0.09-0.16,0.16-0.24,0.23s-0.55,0.46-1.43,1.17
		l-0.52-0.67l2.27-1.75h0.82V413.47z"/>
	<path class="st9" d="M248.45,404.79c0.81,0,1.44,0.21,1.89,0.62c0.45,0.41,0.68,0.96,0.68,1.66c0,0.54-0.15,1.07-0.45,1.61
		s-0.87,1.21-1.71,2.02l-1.88,1.83v0.05h4.41v0.9h-5.64v-0.84l2.26-2.27c0.71-0.72,1.17-1.23,1.38-1.51s0.37-0.56,0.47-0.84
		s0.16-0.58,0.16-0.91c0-0.46-0.14-0.82-0.42-1.09s-0.66-0.4-1.15-0.4c-0.36,0-0.69,0.06-1.01,0.18s-0.67,0.33-1.06,0.64l-0.52-0.66
		C246.67,405.11,247.52,404.79,248.45,404.79z"/>
	<path class="st9" d="M252.58,409.15c0-1.47,0.23-2.56,0.7-3.29s1.17-1.09,2.11-1.09s1.65,0.38,2.14,1.13s0.73,1.86,0.73,3.32
		s-0.23,2.55-0.7,3.28s-1.17,1.09-2.11,1.09s-1.65-0.37-2.13-1.12S252.58,410.61,252.58,409.15z M256.81,406.48
		c-0.29-0.57-0.76-0.86-1.4-0.86s-1.11,0.28-1.41,0.85s-0.44,1.47-0.44,2.72s0.15,2.15,0.44,2.72s0.76,0.85,1.41,0.85
		s1.11-0.29,1.4-0.86s0.44-1.48,0.44-2.71S257.1,407.05,256.81,406.48z"/>
	<path class="st9" d="M278.26,413.47h-0.95v-6.11c0-0.48,0.02-0.96,0.05-1.44c-0.08,0.09-0.16,0.16-0.24,0.23s-0.55,0.46-1.43,1.17
		l-0.52-0.67l2.27-1.75h0.82V413.47z"/>
	<path class="st9" d="M286.44,405.8h-3.43l-0.22,2.57c0.46-0.09,0.91-0.13,1.34-0.13c0.91,0,1.62,0.22,2.13,0.67
		c0.52,0.45,0.78,1.06,0.78,1.83c0,0.89-0.28,1.58-0.85,2.09s-1.34,0.76-2.31,0.76s-1.72-0.15-2.23-0.46v-0.94
		c0.28,0.18,0.62,0.32,1.02,0.42s0.8,0.15,1.2,0.15c0.69,0,1.23-0.16,1.61-0.49s0.57-0.79,0.57-1.4c0-1.2-0.73-1.79-2.2-1.79
		c-0.36,0-0.86,0.06-1.49,0.17l-0.5-0.32l0.32-4.01h4.26V405.8z"/>
	<path class="st9" d="M288.27,409.15c0-1.47,0.23-2.56,0.7-3.29s1.17-1.09,2.11-1.09s1.65,0.38,2.14,1.13s0.73,1.86,0.73,3.32
		s-0.23,2.55-0.7,3.28s-1.17,1.09-2.11,1.09s-1.65-0.37-2.13-1.12S288.27,410.61,288.27,409.15z M292.5,406.48
		c-0.29-0.57-0.76-0.86-1.4-0.86s-1.11,0.28-1.41,0.85s-0.44,1.47-0.44,2.72s0.15,2.15,0.44,2.72s0.76,0.85,1.41,0.85
		s1.11-0.29,1.4-0.86s0.44-1.48,0.44-2.71S292.79,407.05,292.5,406.48z"/>
	<path class="st9" d="M313.95,413.47H313v-6.11c0-0.48,0.02-0.96,0.05-1.44c-0.08,0.09-0.16,0.16-0.24,0.23s-0.55,0.46-1.43,1.17
		l-0.52-0.67l2.27-1.75h0.82V413.47z"/>
	<path class="st9" d="M317.45,406.82c0-0.62,0.23-1.12,0.69-1.49s1.08-0.55,1.85-0.55s1.39,0.18,1.85,0.55s0.69,0.87,0.69,1.5
		c0,0.43-0.13,0.82-0.4,1.16s-0.68,0.66-1.25,0.94c0.7,0.34,1.2,0.69,1.48,1.05c0.3,0.36,0.45,0.78,0.45,1.27
		c0,0.71-0.25,1.28-0.74,1.71c-0.5,0.42-1.19,0.63-2.08,0.63s-1.58-0.2-2.07-0.6s-0.74-0.97-0.74-1.7c0-0.98,0.6-1.74,1.79-2.29
		c-0.53-0.3-0.92-0.63-1.15-0.98S317.45,407.27,317.45,406.82z M318.52,410.23c-0.26,0.3-0.39,0.68-0.39,1.12s0.16,0.8,0.49,1.06
		s0.78,0.39,1.37,0.39s1.04-0.14,1.37-0.41s0.49-0.65,0.49-1.13c0-0.38-0.15-0.72-0.46-1.01s-0.84-0.58-1.59-0.86
		C319.21,409.65,318.78,409.92,318.52,410.23z M321.14,405.93c-0.28-0.23-0.67-0.35-1.16-0.35s-0.88,0.12-1.15,0.35
		s-0.41,0.54-0.41,0.91s0.12,0.69,0.35,0.96c0.23,0.25,0.66,0.51,1.28,0.77c0.56-0.24,0.96-0.49,1.19-0.76s0.35-0.59,0.35-0.97
		S321.42,406.15,321.14,405.93z"/>
	<path class="st9" d="M323.96,409.15c0-1.47,0.23-2.56,0.7-3.29s1.17-1.09,2.11-1.09s1.65,0.38,2.14,1.13s0.73,1.86,0.73,3.32
		s-0.23,2.55-0.7,3.28s-1.17,1.09-2.11,1.09s-1.65-0.37-2.13-1.12S323.96,410.61,323.96,409.15z M328.19,406.48
		c-0.29-0.57-0.76-0.86-1.4-0.86s-1.11,0.28-1.41,0.85s-0.44,1.47-0.44,2.72s0.15,2.15,0.44,2.72s0.76,0.85,1.41,0.85
		s1.11-0.29,1.4-0.86s0.44-1.48,0.44-2.71S328.48,407.05,328.19,406.48z"/>
	<path class="st9" d="M348.72,404.79c0.81,0,1.44,0.21,1.89,0.62c0.45,0.41,0.68,0.96,0.68,1.66c0,0.54-0.15,1.07-0.45,1.61
		s-0.87,1.21-1.71,2.02l-1.88,1.83v0.05h4.41v0.9h-5.64v-0.84l2.26-2.27c0.71-0.72,1.17-1.23,1.38-1.51s0.37-0.56,0.47-0.84
		s0.16-0.58,0.16-0.91c0-0.46-0.14-0.82-0.42-1.09s-0.66-0.4-1.15-0.4c-0.36,0-0.69,0.06-1.01,0.18s-0.67,0.33-1.06,0.64l-0.52-0.66
		C346.93,405.11,347.79,404.79,348.72,404.79z"/>
	<path class="st9" d="M356.44,413.47h-0.95v-6.11c0-0.48,0.02-0.96,0.05-1.44c-0.08,0.09-0.16,0.16-0.24,0.23s-0.55,0.46-1.43,1.17
		l-0.52-0.67l2.27-1.75h0.82V413.47z"/>
	<path class="st9" d="M359.65,409.15c0-1.47,0.23-2.56,0.7-3.29s1.17-1.09,2.11-1.09s1.65,0.38,2.14,1.13s0.73,1.86,0.73,3.32
		s-0.23,2.55-0.7,3.28s-1.17,1.09-2.11,1.09s-1.65-0.37-2.13-1.12S359.65,410.61,359.65,409.15z M363.88,406.48
		c-0.29-0.57-0.76-0.86-1.4-0.86s-1.11,0.28-1.41,0.85s-0.44,1.47-0.44,2.72s0.15,2.15,0.44,2.72s0.76,0.85,1.41,0.85
		s1.11-0.29,1.4-0.86s0.44-1.48,0.44-2.71S364.17,407.05,363.88,406.48z"/>
	<path class="st9" d="M384.41,404.79c0.81,0,1.44,0.21,1.89,0.62c0.45,0.41,0.68,0.96,0.68,1.66c0,0.54-0.15,1.07-0.45,1.61
		s-0.87,1.21-1.71,2.02l-1.88,1.83v0.05h4.41v0.9h-5.64v-0.84l2.26-2.27c0.71-0.72,1.17-1.23,1.38-1.51s0.37-0.56,0.47-0.84
		s0.16-0.58,0.16-0.91c0-0.46-0.14-0.82-0.42-1.09s-0.66-0.4-1.15-0.4c-0.36,0-0.69,0.06-1.01,0.18s-0.67,0.33-1.06,0.64l-0.52-0.66
		C382.62,405.11,383.48,404.79,384.41,404.79z"/>
	<path class="st9" d="M393.29,410.62h1.27v0.88h-1.27v1.97h-0.93v-1.97h-4.17v-0.85l4.07-5.79h1.03V410.62z M392.36,410.62v-2.84
		c0-0.6,0.02-1.23,0.06-1.9h-0.05c-0.19,0.38-0.36,0.69-0.53,0.93l-2.68,3.81H392.36z"/>
	<path class="st9" d="M395.34,409.15c0-1.47,0.23-2.56,0.7-3.29s1.17-1.09,2.11-1.09s1.65,0.38,2.14,1.13s0.73,1.86,0.73,3.32
		s-0.23,2.55-0.7,3.28s-1.17,1.09-2.11,1.09s-1.65-0.37-2.13-1.12S395.34,410.61,395.34,409.15z M399.57,406.48
		c-0.29-0.57-0.76-0.86-1.4-0.86s-1.11,0.28-1.41,0.85s-0.44,1.47-0.44,2.72s0.15,2.15,0.44,2.72s0.76,0.85,1.41,0.85
		s1.11-0.29,1.4-0.86s0.44-1.48,0.44-2.71S399.86,407.05,399.57,406.48z"/>
	<path class="st9" d="M420.1,404.79c0.81,0,1.44,0.21,1.89,0.62c0.45,0.41,0.68,0.96,0.68,1.66c0,0.54-0.15,1.07-0.45,1.61
		s-0.87,1.21-1.71,2.02l-1.88,1.83v0.05h4.41v0.9h-5.64v-0.84l2.26-2.27c0.71-0.72,1.17-1.23,1.38-1.51s0.37-0.56,0.47-0.84
		s0.16-0.58,0.16-0.91c0-0.46-0.14-0.82-0.42-1.09s-0.66-0.4-1.15-0.4c-0.36,0-0.69,0.06-1.01,0.18s-0.67,0.33-1.06,0.64l-0.52-0.66
		C418.31,405.11,419.17,404.79,420.1,404.79z"/>
	<path class="st9" d="M424.17,405.8v-0.9h5.71v0.78l-3.5,7.79h-1.08l3.55-7.67H424.17z"/>
	<path class="st9" d="M431.03,409.15c0-1.47,0.23-2.56,0.7-3.29s1.17-1.09,2.11-1.09s1.65,0.38,2.14,1.13s0.73,1.86,0.73,3.32
		s-0.23,2.55-0.7,3.28s-1.17,1.09-2.11,1.09s-1.65-0.37-2.13-1.12S431.03,410.61,431.03,409.15z M435.26,406.48
		c-0.29-0.57-0.76-0.86-1.4-0.86s-1.11,0.28-1.41,0.85s-0.44,1.47-0.44,2.72s0.15,2.15,0.44,2.72s0.76,0.85,1.41,0.85
		s1.11-0.29,1.4-0.86s0.44-1.48,0.44-2.71S435.55,407.05,435.26,406.48z"/>
	<path class="st9" d="M455.78,404.79c0.83,0,1.47,0.19,1.94,0.57s0.69,0.9,0.69,1.57c0,0.54-0.15,0.99-0.46,1.34
		s-0.74,0.58-1.31,0.7v0.05c0.68,0.08,1.19,0.3,1.52,0.64s0.5,0.81,0.5,1.39c0,0.82-0.28,1.45-0.85,1.89s-1.37,0.66-2.41,0.66
		c-0.93,0-1.71-0.15-2.35-0.46v-0.93c0.76,0.38,1.56,0.56,2.38,0.56c1.48,0,2.22-0.58,2.22-1.74c0-1.04-0.82-1.56-2.45-1.56h-0.84
		v-0.84h0.86c0.67,0,1.2-0.15,1.59-0.44s0.59-0.7,0.59-1.23c0-0.42-0.14-0.75-0.43-0.98s-0.68-0.36-1.17-0.36
		c-0.37,0-0.72,0.05-1.05,0.15s-0.72,0.29-1.15,0.57l-0.49-0.66c0.36-0.28,0.76-0.5,1.22-0.66S455.28,404.79,455.78,404.79z"/>
	<path class="st9" d="M459.92,409.15c0-1.47,0.23-2.56,0.7-3.29s1.17-1.09,2.11-1.09s1.65,0.38,2.14,1.13s0.73,1.86,0.73,3.32
		s-0.23,2.55-0.7,3.28s-1.17,1.09-2.11,1.09s-1.65-0.37-2.13-1.12S459.92,410.61,459.92,409.15z M464.15,406.48
		c-0.29-0.57-0.76-0.86-1.4-0.86s-1.11,0.28-1.41,0.85s-0.44,1.47-0.44,2.72s0.15,2.15,0.44,2.72s0.76,0.85,1.41,0.85
		s1.11-0.29,1.4-0.86s0.44-1.48,0.44-2.71S464.44,407.05,464.15,406.48z"/>
	<path class="st9" d="M466.72,409.15c0-1.47,0.23-2.56,0.7-3.29s1.17-1.09,2.11-1.09s1.65,0.38,2.14,1.13s0.73,1.86,0.73,3.32
		s-0.23,2.55-0.7,3.28s-1.17,1.09-2.11,1.09s-1.65-0.37-2.13-1.12S466.72,410.61,466.72,409.15z M470.95,406.48
		c-0.29-0.57-0.76-0.86-1.4-0.86s-1.11,0.28-1.41,0.85s-0.44,1.47-0.44,2.72s0.15,2.15,0.44,2.72s0.76,0.85,1.41,0.85
		s1.11-0.29,1.4-0.86s0.44-1.48,0.44-2.71S471.24,407.05,470.95,406.48z"/>
	<path class="st9" d="M491.47,404.79c0.83,0,1.47,0.19,1.94,0.57s0.69,0.9,0.69,1.57c0,0.54-0.15,0.99-0.46,1.34
		s-0.74,0.58-1.31,0.7v0.05c0.68,0.08,1.19,0.3,1.52,0.64s0.5,0.81,0.5,1.39c0,0.82-0.28,1.45-0.85,1.89s-1.37,0.66-2.41,0.66
		c-0.93,0-1.71-0.15-2.35-0.46v-0.93c0.76,0.38,1.56,0.56,2.38,0.56c1.48,0,2.22-0.58,2.22-1.74c0-1.04-0.82-1.56-2.45-1.56h-0.84
		v-0.84h0.86c0.67,0,1.2-0.15,1.59-0.44s0.59-0.7,0.59-1.23c0-0.42-0.14-0.75-0.43-0.98s-0.68-0.36-1.17-0.36
		c-0.37,0-0.72,0.05-1.05,0.15s-0.72,0.29-1.15,0.57l-0.49-0.66c0.36-0.28,0.76-0.5,1.22-0.66S490.97,404.79,491.47,404.79z"/>
	<path class="st9" d="M498.27,404.79c0.83,0,1.47,0.19,1.94,0.57s0.69,0.9,0.69,1.57c0,0.54-0.15,0.99-0.46,1.34
		s-0.74,0.58-1.31,0.7v0.05c0.68,0.08,1.19,0.3,1.52,0.64s0.5,0.81,0.5,1.39c0,0.82-0.28,1.45-0.85,1.89s-1.37,0.66-2.41,0.66
		c-0.93,0-1.71-0.15-2.35-0.46v-0.93c0.76,0.38,1.56,0.56,2.38,0.56c1.48,0,2.22-0.58,2.22-1.74c0-1.04-0.82-1.56-2.45-1.56h-0.84
		v-0.84h0.86c0.67,0,1.2-0.15,1.59-0.44s0.59-0.7,0.59-1.23c0-0.42-0.14-0.75-0.43-0.98s-0.68-0.36-1.17-0.36
		c-0.37,0-0.72,0.05-1.05,0.15s-0.72,0.29-1.15,0.57l-0.49-0.66c0.36-0.28,0.76-0.5,1.22-0.66S497.77,404.79,498.27,404.79z"/>
	<path class="st9" d="M502.41,409.15c0-1.47,0.23-2.56,0.7-3.29s1.17-1.09,2.11-1.09s1.65,0.38,2.14,1.13s0.73,1.86,0.73,3.32
		s-0.23,2.55-0.7,3.28s-1.17,1.09-2.11,1.09s-1.65-0.37-2.13-1.12S502.41,410.61,502.41,409.15z M506.64,406.48
		c-0.29-0.57-0.76-0.86-1.4-0.86s-1.11,0.28-1.41,0.85s-0.44,1.47-0.44,2.72s0.15,2.15,0.44,2.72s0.76,0.85,1.41,0.85
		s1.11-0.29,1.4-0.86s0.44-1.48,0.44-2.71S506.93,407.05,506.64,406.48z"/>
	<path class="st9" d="M527.16,404.79c0.83,0,1.47,0.19,1.94,0.57s0.69,0.9,0.69,1.57c0,0.54-0.15,0.99-0.46,1.34
		s-0.74,0.58-1.31,0.7v0.05c0.68,0.08,1.19,0.3,1.52,0.64s0.5,0.81,0.5,1.39c0,0.82-0.28,1.45-0.85,1.89s-1.37,0.66-2.41,0.66
		c-0.93,0-1.71-0.15-2.35-0.46v-0.93c0.76,0.38,1.56,0.56,2.38,0.56c1.48,0,2.22-0.58,2.22-1.74c0-1.04-0.82-1.56-2.45-1.56h-0.84
		v-0.84h0.86c0.67,0,1.2-0.15,1.59-0.44s0.59-0.7,0.59-1.23c0-0.42-0.14-0.75-0.43-0.98s-0.68-0.36-1.17-0.36
		c-0.37,0-0.72,0.05-1.05,0.15s-0.72,0.29-1.15,0.57l-0.49-0.66c0.36-0.28,0.76-0.5,1.22-0.66S526.66,404.79,527.16,404.79z"/>
	<path class="st9" d="M534.49,408.14c0.77,0,1.38,0.23,1.82,0.69s0.67,1.09,0.67,1.9c0,0.89-0.24,1.59-0.73,2.1
		s-1.16,0.76-2.01,0.76s-1.54-0.33-2.07-1c-0.52-0.66-0.78-1.59-0.78-2.78c0-3.35,1.29-5.03,3.88-5.03c0.45,0,0.8,0.04,1.04,0.11
		v0.84c-0.29-0.1-0.64-0.15-1.03-0.15c-0.93,0-1.63,0.29-2.11,0.87s-0.74,1.47-0.79,2.69h0.07
		C532.88,408.47,533.56,408.14,534.49,408.14z M534.24,408.9c-0.48,0-0.91,0.16-1.29,0.49s-0.57,0.7-0.56,1.12
		c0,0.4,0.07,0.77,0.23,1.12s0.38,0.62,0.67,0.83s0.6,0.31,0.94,0.31c0.02,0,0.03,0,0.04,0c0.56,0,0.99-0.18,1.29-0.53
		s0.46-0.83,0.46-1.45s-0.14-1.08-0.43-1.4s-0.71-0.48-1.27-0.48C534.29,408.9,534.26,408.9,534.24,408.9z"/>
	<path class="st9" d="M538.1,409.15c0-1.47,0.23-2.56,0.7-3.29s1.17-1.09,2.11-1.09s1.65,0.38,2.14,1.13s0.73,1.86,0.73,3.32
		s-0.23,2.55-0.7,3.28s-1.17,1.09-2.11,1.09s-1.65-0.37-2.13-1.12S538.1,410.61,538.1,409.15z M542.33,406.48
		c-0.29-0.57-0.76-0.86-1.4-0.86s-1.11,0.28-1.41,0.85s-0.44,1.47-0.44,2.72s0.15,2.15,0.44,2.72s0.76,0.85,1.41,0.85
		s1.11-0.29,1.4-0.86s0.44-1.48,0.44-2.71S542.62,407.05,542.33,406.48z"/>
</g>
<g>
	<path class="st9" d="M44.7,318.32v-2.62c0-1.33,0.37-2.37,1.11-3.11s1.77-1.11,3.09-1.11c1.41,0,2.5,0.38,3.24,1.15
		s1.12,1.87,1.12,3.31v2.37H44.7z M45.56,317.32h6.84v-1.21c0-1.18-0.29-2.08-0.88-2.67s-1.44-0.9-2.57-0.9s-1.98,0.28-2.55,0.84
		s-0.85,1.39-0.85,2.5V317.32z"/>
	<path class="st9" d="M45.1,309.8c-0.21,0-0.37-0.05-0.48-0.16s-0.16-0.24-0.16-0.41s0.05-0.31,0.16-0.42s0.27-0.16,0.48-0.16
		s0.37,0.05,0.48,0.16s0.17,0.25,0.17,0.42s-0.06,0.3-0.17,0.41S45.31,309.8,45.1,309.8z M53.26,308.74v0.97h-6.42v-0.97H53.26z"/>
	<path class="st9" d="M52.58,305.06c0-1.05-0.33-1.58-0.98-1.58c-0.25,0-0.46,0.11-0.64,0.33s-0.39,0.64-0.63,1.27
		c-0.22,0.6-0.42,1.03-0.59,1.28s-0.36,0.44-0.56,0.56s-0.46,0.18-0.76,0.18c-0.52,0-0.93-0.21-1.24-0.64s-0.46-1-0.46-1.71
		s0.14-1.4,0.42-2.07l0.79,0.35c-0.26,0.64-0.39,1.21-0.39,1.7s0.07,0.85,0.21,1.09s0.34,0.36,0.6,0.36c0.17,0,0.32-0.04,0.44-0.13
		s0.24-0.23,0.35-0.42s0.27-0.57,0.47-1.13c0.28-0.76,0.56-1.28,0.84-1.54s0.63-0.4,1.06-0.4c0.6,0,1.06,0.22,1.38,0.67
		s0.49,1.08,0.49,1.91s-0.13,1.48-0.4,1.95h-0.9C52.41,306.41,52.58,305.74,52.58,305.06z"/>
	<path class="st9" d="M52.58,299.34c0-1.05-0.33-1.58-0.98-1.58c-0.25,0-0.46,0.11-0.64,0.33s-0.39,0.64-0.63,1.27
		c-0.22,0.6-0.42,1.03-0.59,1.28s-0.36,0.44-0.56,0.56s-0.46,0.18-0.76,0.18c-0.52,0-0.93-0.21-1.24-0.64s-0.46-1-0.46-1.71
		s0.14-1.4,0.42-2.07l0.79,0.35c-0.26,0.64-0.39,1.21-0.39,1.7s0.07,0.85,0.21,1.09s0.34,0.36,0.6,0.36c0.17,0,0.32-0.04,0.44-0.13
		s0.24-0.23,0.35-0.42s0.27-0.57,0.47-1.13c0.28-0.76,0.56-1.28,0.84-1.54s0.63-0.4,1.06-0.4c0.6,0,1.06,0.22,1.38,0.67
		s0.49,1.08,0.49,1.91s-0.13,1.48-0.4,1.95h-0.9C52.41,300.69,52.58,300.02,52.58,299.34z"/>
	<path class="st9" d="M50.04,295.6c-1.05,0-1.86-0.26-2.45-0.78s-0.88-1.24-0.88-2.16s0.3-1.64,0.9-2.16
		c0.59-0.54,1.41-0.8,2.44-0.8s1.85,0.26,2.43,0.79s0.88,1.26,0.88,2.19c0,0.02,0,0.03,0,0.05c0,0.85-0.3,1.54-0.9,2.07
		s-1.38,0.8-2.35,0.8C50.1,295.6,50.07,295.6,50.04,295.6z M47.55,292.67c0,1.29,0.83,1.93,2.49,1.93c0.82,0,1.45-0.17,1.88-0.5
		s0.64-0.81,0.64-1.45s-0.21-1.12-0.64-1.45s-1.05-0.5-1.87-0.5s-1.44,0.17-1.86,0.5S47.55,292.02,47.55,292.67z"/>
	<path class="st9" d="M53.26,287.02v0.97h-9.12v-0.97H53.26z"/>
	<path class="st9" d="M53.26,282.42v1.14l-6.42,2.44v-1.04l3.81-1.38c0.91-0.32,1.49-0.5,1.73-0.55v-0.05
		c-0.2-0.04-0.62-0.17-1.25-0.39s-2.06-0.74-4.29-1.55v-1.04L53.26,282.42z"/>
	<path class="st9" d="M53.38,276.23c0,0.95-0.29,1.7-0.87,2.25c-0.58,0.55-1.39,0.82-2.42,0.82s-1.85-0.25-2.46-0.76
		s-0.91-1.18-0.91-2.02s0.27-1.48,0.8-1.95c0.52-0.47,1.21-0.7,2.09-0.7h0.62v4.42c0.75-0.02,1.32-0.21,1.71-0.57
		s0.59-0.88,0.59-1.55s-0.14-1.35-0.43-2.02h0.87c0.15,0.34,0.25,0.67,0.32,0.98S53.38,275.81,53.38,276.23z M49.44,274.92
		c-0.61,0-1.08,0.14-1.4,0.41s-0.49,0.67-0.49,1.17s0.17,0.92,0.5,1.23s0.8,0.49,1.39,0.54V274.92z"/>
	<path class="st9" d="M53.26,266.92v0.79l-0.86,0.13v0.05c0.65,0.45,0.98,1.11,0.98,1.98s-0.29,1.53-0.86,2
		c-0.58,0.46-1.4,0.7-2.45,0.7s-1.88-0.23-2.46-0.7s-0.88-1.13-0.88-1.98s0.32-1.51,0.95-1.98v-0.08l-0.46,0.04l-0.45,0.02h-2.61
		v-0.97H53.26z M50.27,267.9h-0.21c-0.91,0-1.56,0.15-1.95,0.46c-0.39,0.29-0.58,0.78-0.58,1.45c0,0.57,0.22,1.01,0.66,1.31
		s1.07,0.45,1.88,0.45s1.43-0.15,1.85-0.45s0.63-0.74,0.63-1.32c0-0.66-0.18-1.15-0.54-1.44S51.08,267.9,50.27,267.9z"/>
	<path class="st9" d="M51.87,263.84l0.13-0.09c0.39,0.1,0.84,0.24,1.35,0.44s1,0.39,1.45,0.6v0.73c-0.43-0.11-0.94-0.23-1.51-0.35
		c-0.55-0.12-1.03-0.21-1.44-0.27V263.84z"/>
	<path class="st9" d="M44.57,257.5c0-0.57,0.23-1,0.7-1.31s1.13-0.46,2.01-0.46s1.54,0.15,1.99,0.45s0.68,0.73,0.68,1.29
		s-0.23,1-0.7,1.3s-1.13,0.45-2,0.45C45.46,259.22,44.57,258.65,44.57,257.5z M53.26,256.83v0.86l-8.57-4.75v-0.86L53.26,256.83z
		 M45.27,257.5c0,0.32,0.16,0.55,0.48,0.7s0.82,0.22,1.5,0.22s1.18-0.07,1.5-0.22s0.49-0.38,0.49-0.7c0-0.64-0.66-0.96-1.99-0.96
		S45.27,256.85,45.27,257.5z M50.67,254.07c-0.88,0-1.54-0.15-1.99-0.44s-0.67-0.72-0.67-1.29s0.23-1,0.69-1.31s1.13-0.46,2-0.46
		s1.54,0.15,1.99,0.45s0.68,0.73,0.68,1.3s-0.23,1-0.7,1.3S51.55,254.07,50.67,254.07z M50.69,251.37c-0.67,0-1.17,0.08-1.49,0.23
		s-0.48,0.4-0.48,0.72s0.16,0.56,0.48,0.71s0.82,0.22,1.49,0.22s1.18-0.07,1.51-0.22s0.49-0.38,0.49-0.71s-0.16-0.57-0.49-0.72
		S51.37,251.37,50.69,251.37z"/>
	<path class="st9" d="M53.26,239.24v1.03l-2.72,1.07v3.43l2.72,1.05v1.01l-8.6-3.39v-0.84L53.26,239.24z M49.64,241.65l-2.65,1
		c-0.34,0.13-0.76,0.27-1.24,0.4c0.37,0.09,0.78,0.21,1.24,0.37l2.65,1.01V241.65z"/>
	<path class="st9" d="M52.51,236.24c0-0.66-0.12-1.15-0.38-1.49s-0.6-0.51-1.05-0.51c-0.29,0-0.54,0.06-0.73,0.18
		s-0.37,0.32-0.52,0.59s-0.34,0.7-0.55,1.28c-0.29,0.8-0.63,1.37-1.02,1.71s-0.91,0.51-1.55,0.51s-1.16-0.25-1.55-0.74
		s-0.59-1.16-0.59-1.99s0.16-1.61,0.47-2.32l0.87,0.3c-0.3,0.7-0.45,1.39-0.45,2.06c0,0.53,0.11,0.94,0.34,1.24s0.54,0.45,0.94,0.45
		c0.29,0,0.54-0.05,0.73-0.16s0.36-0.29,0.52-0.54s0.33-0.65,0.53-1.2c0.33-0.91,0.68-1.53,1.04-1.86s0.84-0.5,1.42-0.5
		c0.75,0,1.33,0.27,1.76,0.82c0.42,0.55,0.63,1.31,0.63,2.29s-0.13,1.74-0.39,2.28h-0.96C52.35,237.87,52.51,237.08,52.51,236.24z"
		/>
	<path class="st9" d="M52.51,229.66c0-0.66-0.12-1.15-0.38-1.49s-0.6-0.51-1.05-0.51c-0.29,0-0.54,0.06-0.73,0.18
		s-0.37,0.32-0.52,0.59s-0.34,0.7-0.55,1.28c-0.29,0.8-0.63,1.37-1.02,1.71s-0.91,0.51-1.55,0.51s-1.16-0.25-1.55-0.74
		s-0.59-1.16-0.59-1.99s0.16-1.61,0.47-2.32l0.87,0.3c-0.3,0.7-0.45,1.39-0.45,2.06c0,0.53,0.11,0.94,0.34,1.24s0.54,0.45,0.94,0.45
		c0.29,0,0.54-0.05,0.73-0.16s0.36-0.29,0.52-0.54s0.33-0.65,0.53-1.2c0.33-0.91,0.68-1.53,1.04-1.86s0.84-0.5,1.42-0.5
		c0.75,0,1.33,0.27,1.76,0.82c0.42,0.55,0.63,1.31,0.63,2.29s-0.13,1.74-0.39,2.28h-0.96C52.35,231.28,52.51,230.49,52.51,229.66z"
		/>
	<path class="st9" d="M53.26,218.48v1.03l-2.72,1.07v3.43l2.72,1.05v1.01l-8.6-3.39v-0.84L53.26,218.48z M49.64,220.89l-2.65,1
		c-0.34,0.13-0.76,0.27-1.24,0.4c0.37,0.09,0.78,0.21,1.24,0.37l2.65,1.01V220.89z"/>
	<path class="st9" d="M53.26,214.62v1.01h-3.28l-5.29,2.85v-1.09l4.28-2.27l-4.28-2.29v-1.08l5.24,2.86H53.26z"/>
</g>
<g>
	<path class="st9" d="M211.42,452.09h2.15c0.96,0,1.67,0.18,2.13,0.55s0.69,0.92,0.69,1.67c0,1.04-0.53,1.74-1.58,2.11l2.13,3.53
		h-1.08l-1.9-3.27h-1.64v3.27h-0.91V452.09z M212.33,452.89v3h1.25c0.64,0,1.11-0.13,1.42-0.38c0.3-0.25,0.45-0.64,0.45-1.15
		s-0.15-0.89-0.46-1.12c-0.31-0.23-0.8-0.35-1.47-0.35H212.33z"/>
	<path class="st9" d="M218.22,452.09h2.41c1.22,0,2.17,0.34,2.85,1.01c0.68,0.68,1.02,1.62,1.02,2.84c0,1.3-0.35,2.29-1.06,2.97
		s-1.72,1.03-3.03,1.03h-2.18V452.09z M219.13,452.88v6.27h1.11c1.08,0,1.9-0.27,2.45-0.8c0.55-0.54,0.82-1.32,0.82-2.36
		c0-1.04-0.26-1.81-0.77-2.33s-1.28-0.78-2.29-0.78H219.13z"/>
	<path class="st9" d="M225.7,455.98c0-1.34,0.21-2.35,0.64-3.01s1.07-1,1.93-1c0.86,0,1.51,0.34,1.96,1.03s0.67,1.7,0.67,3.04
		c0,1.34-0.21,2.34-0.64,3.01s-1.08,1-1.94,1c-0.86,0-1.51-0.34-1.95-1.03S225.7,457.32,225.7,455.98z M229.58,453.53
		c-0.27-0.53-0.69-0.79-1.28-0.79s-1.02,0.26-1.29,0.78s-0.4,1.35-0.4,2.49c0,1.14,0.13,1.97,0.4,2.5c0.27,0.52,0.7,0.78,1.29,0.78
		s1.02-0.26,1.29-0.79c0.27-0.53,0.4-1.36,0.4-2.48C229.98,454.88,229.85,454.05,229.58,453.53z"/>
	<path class="st9" d="M231.99,455.98c0-1.34,0.21-2.35,0.64-3.01s1.07-1,1.93-1c0.86,0,1.51,0.34,1.96,1.03s0.67,1.7,0.67,3.04
		c0,1.34-0.21,2.34-0.64,3.01s-1.08,1-1.94,1c-0.86,0-1.51-0.34-1.95-1.03S231.99,457.32,231.99,455.98z M235.87,453.53
		c-0.27-0.53-0.69-0.79-1.28-0.79s-1.02,0.26-1.29,0.78s-0.4,1.35-0.4,2.49c0,1.14,0.13,1.97,0.4,2.5c0.27,0.52,0.7,0.78,1.29,0.78
		s1.02-0.26,1.29-0.79c0.27-0.53,0.4-1.36,0.4-2.48C236.27,454.88,236.14,454.05,235.87,453.53z"/>
	<path class="st9" d="M238.28,455.98c0-1.34,0.21-2.35,0.64-3.01s1.07-1,1.93-1c0.86,0,1.51,0.34,1.96,1.03s0.67,1.7,0.67,3.04
		c0,1.34-0.21,2.34-0.64,3.01s-1.08,1-1.94,1c-0.86,0-1.51-0.34-1.95-1.03S238.28,457.32,238.28,455.98z M242.16,453.53
		c-0.27-0.53-0.69-0.79-1.28-0.79s-1.02,0.26-1.29,0.78s-0.4,1.35-0.4,2.49c0,1.14,0.13,1.97,0.4,2.5c0.27,0.52,0.7,0.78,1.29,0.78
		s1.02-0.26,1.29-0.79c0.27-0.53,0.4-1.36,0.4-2.48C242.56,454.88,242.43,454.05,242.16,453.53z"/>
	<path class="st9" d="M247.02,451.98c0.76,0,1.35,0.17,1.77,0.52c0.42,0.35,0.64,0.83,0.64,1.44c0,0.5-0.14,0.91-0.42,1.23
		s-0.68,0.53-1.2,0.64v0.04c0.62,0.08,1.09,0.27,1.4,0.59s0.46,0.75,0.46,1.28c0,0.75-0.26,1.33-0.78,1.73s-1.26,0.6-2.21,0.6
		c-0.85,0-1.57-0.14-2.15-0.42v-0.85c0.7,0.34,1.43,0.52,2.19,0.52c1.36,0,2.04-0.53,2.04-1.59c0-0.95-0.75-1.43-2.25-1.43h-0.77
		v-0.77h0.78c0.61,0,1.1-0.14,1.46-0.41s0.54-0.65,0.54-1.12c0-0.38-0.13-0.68-0.39-0.9c-0.26-0.22-0.62-0.33-1.07-0.33
		c-0.34,0-0.66,0.05-0.96,0.14c-0.31,0.09-0.66,0.26-1.05,0.52l-0.45-0.6c0.33-0.26,0.7-0.46,1.12-0.6
		C246.12,452.05,246.56,451.98,247.02,451.98z"/>
	<path class="st9" d="M253.32,451.98c0.74,0,1.32,0.19,1.73,0.57c0.42,0.37,0.62,0.88,0.62,1.52c0,0.49-0.14,0.98-0.41,1.47
		s-0.8,1.1-1.57,1.85l-1.72,1.68v0.04h4.04v0.83h-5.17v-0.77l2.07-2.08c0.65-0.66,1.07-1.12,1.26-1.39s0.33-0.52,0.44-0.77
		c0.1-0.25,0.15-0.53,0.15-0.84c0-0.42-0.13-0.76-0.38-1c-0.26-0.24-0.61-0.37-1.06-0.37c-0.33,0-0.63,0.05-0.93,0.16
		c-0.29,0.11-0.62,0.3-0.98,0.58l-0.47-0.61C251.68,452.28,252.46,451.98,253.32,451.98z"/>
	<path class="st9" d="M259.61,451.98c0.74,0,1.32,0.19,1.73,0.57c0.42,0.37,0.62,0.88,0.62,1.52c0,0.49-0.14,0.98-0.41,1.47
		s-0.8,1.1-1.57,1.85l-1.72,1.68v0.04h4.04v0.83h-5.17v-0.77l2.07-2.08c0.65-0.66,1.07-1.12,1.26-1.39s0.33-0.52,0.44-0.77
		c0.1-0.25,0.15-0.53,0.15-0.84c0-0.42-0.13-0.76-0.38-1c-0.26-0.24-0.61-0.37-1.06-0.37c-0.33,0-0.63,0.05-0.93,0.16
		c-0.29,0.11-0.62,0.3-0.98,0.58l-0.47-0.61C257.97,452.28,258.75,451.98,259.61,451.98z"/>
	<path class="st9" d="M264.06,454.47c0.62-0.34,1.28-0.5,1.99-0.5s1.23,0.16,1.57,0.47c0.33,0.31,0.5,0.81,0.5,1.5v4.02h-0.66
		l-0.18-0.84h-0.04c-0.29,0.37-0.59,0.62-0.88,0.75c-0.29,0.13-0.66,0.2-1.09,0.2c-0.58,0-1.04-0.15-1.38-0.45s-0.5-0.73-0.5-1.28
		c0-1.19,0.95-1.81,2.86-1.87l1-0.03v-0.37c0-0.46-0.1-0.81-0.3-1.02c-0.2-0.22-0.53-0.33-1-0.33s-1.01,0.15-1.62,0.45
		L264.06,454.47z M264.33,458.33c0,0.32,0.1,0.56,0.29,0.73s0.47,0.25,0.82,0.25c0.56,0,0.99-0.15,1.31-0.46
		c0.32-0.31,0.48-0.73,0.48-1.28v-0.53l-0.89,0.04c-0.71,0.03-1.22,0.13-1.53,0.33C264.49,457.61,264.33,457.92,264.33,458.33z"/>
</g>
<g>
	<path class="st9" d="M72.48,156.8h-0.95v-6.11c0-0.48,0.02-0.96,0.05-1.44c-0.08,0.09-0.16,0.16-0.24,0.23s-0.55,0.46-1.43,1.17
		l-0.52-0.67l2.27-1.75h0.82V156.8z"/>
	<path class="st9" d="M79.34,156.8H78.4v-6.11c0-0.48,0.02-0.96,0.05-1.44c-0.08,0.09-0.16,0.16-0.24,0.23s-0.55,0.46-1.43,1.17
		l-0.52-0.67l2.27-1.75h0.82V156.8z"/>
	<path class="st9" d="M82.61,152.47c0-1.47,0.23-2.56,0.7-3.29s1.17-1.09,2.11-1.09s1.65,0.38,2.14,1.13s0.73,1.86,0.73,3.32
		s-0.23,2.55-0.7,3.28s-1.17,1.09-2.11,1.09s-1.65-0.37-2.13-1.12S82.61,153.94,82.61,152.47z M86.84,149.8
		c-0.29-0.57-0.76-0.86-1.4-0.86s-1.11,0.28-1.41,0.85s-0.44,1.47-0.44,2.72s0.15,2.15,0.44,2.72s0.76,0.85,1.41,0.85
		s1.11-0.29,1.4-0.86s0.44-1.48,0.44-2.71S87.14,150.38,86.84,149.8z"/>
	<path class="st9" d="M89.77,156.19c0-0.26,0.06-0.46,0.18-0.6s0.29-0.21,0.52-0.21s0.4,0.07,0.53,0.21s0.19,0.33,0.19,0.59
		s-0.06,0.45-0.19,0.59s-0.3,0.21-0.52,0.21s-0.39-0.06-0.52-0.19S89.77,156.45,89.77,156.19z"/>
	<path class="st9" d="M92.67,152.47c0-1.47,0.23-2.56,0.7-3.29s1.17-1.09,2.11-1.09s1.65,0.38,2.14,1.13s0.73,1.86,0.73,3.32
		s-0.23,2.55-0.7,3.28s-1.17,1.09-2.11,1.09s-1.65-0.37-2.13-1.12S92.67,153.94,92.67,152.47z M96.9,149.8
		c-0.29-0.57-0.76-0.86-1.4-0.86s-1.11,0.28-1.41,0.85s-0.44,1.47-0.44,2.72s0.15,2.15,0.44,2.72s0.76,0.85,1.41,0.85
		s1.11-0.29,1.4-0.86s0.44-1.48,0.44-2.71S97.19,150.38,96.9,149.8z"/>
	<path class="st9" d="M72.48,178.4h-0.95v-6.11c0-0.48,0.02-0.96,0.05-1.44c-0.08,0.09-0.16,0.16-0.24,0.23s-0.55,0.46-1.43,1.17
		l-0.52-0.67l2.27-1.75h0.82V178.4z"/>
	<path class="st9" d="M75.75,174.07c0-1.47,0.23-2.56,0.7-3.29s1.17-1.09,2.11-1.09s1.65,0.38,2.14,1.13s0.73,1.86,0.73,3.32
		s-0.23,2.55-0.7,3.28s-1.17,1.09-2.11,1.09s-1.65-0.37-2.13-1.12S75.75,175.54,75.75,174.07z M79.98,171.4
		c-0.29-0.57-0.76-0.86-1.4-0.86s-1.11,0.28-1.41,0.85s-0.44,1.47-0.44,2.72s0.15,2.15,0.44,2.72s0.76,0.85,1.41,0.85
		s1.11-0.29,1.4-0.86s0.44-1.48,0.44-2.71S80.28,171.98,79.98,171.4z"/>
	<path class="st9" d="M82.61,174.07c0-1.47,0.23-2.56,0.7-3.29s1.17-1.09,2.11-1.09s1.65,0.38,2.14,1.13s0.73,1.86,0.73,3.32
		s-0.23,2.55-0.7,3.28s-1.17,1.09-2.11,1.09s-1.65-0.37-2.13-1.12S82.61,175.54,82.61,174.07z M86.84,171.4
		c-0.29-0.57-0.76-0.86-1.4-0.86s-1.11,0.28-1.41,0.85s-0.44,1.47-0.44,2.72s0.15,2.15,0.44,2.72s0.76,0.85,1.41,0.85
		s1.11-0.29,1.4-0.86s0.44-1.48,0.44-2.71S87.14,171.98,86.84,171.4z"/>
	<path class="st9" d="M89.77,177.79c0-0.26,0.06-0.46,0.18-0.6s0.29-0.21,0.52-0.21s0.4,0.07,0.53,0.21s0.19,0.33,0.19,0.59
		s-0.06,0.45-0.19,0.59s-0.3,0.21-0.52,0.21s-0.39-0.06-0.52-0.19S89.77,178.05,89.77,177.79z"/>
	<path class="st9" d="M92.67,174.07c0-1.47,0.23-2.56,0.7-3.29s1.17-1.09,2.11-1.09s1.65,0.38,2.14,1.13s0.73,1.86,0.73,3.32
		s-0.23,2.55-0.7,3.28s-1.17,1.09-2.11,1.09s-1.65-0.37-2.13-1.12S92.67,175.54,92.67,174.07z M96.9,171.4
		c-0.29-0.57-0.76-0.86-1.4-0.86s-1.11,0.28-1.41,0.85s-0.44,1.47-0.44,2.72s0.15,2.15,0.44,2.72s0.76,0.85,1.41,0.85
		s1.11-0.29,1.4-0.86s0.44-1.48,0.44-2.71S97.19,171.98,96.9,171.4z"/>
	<path class="st9" d="M78.25,196.77c-0.76,0-1.36-0.23-1.8-0.68s-0.67-1.08-0.67-1.9c0-0.9,0.25-1.6,0.74-2.12s1.15-0.77,1.97-0.77
		c0.02,0,0.04,0,0.06,0c0.85,0,1.53,0.34,2.05,1.01s0.78,1.58,0.78,2.72c0,0.02,0,0.04,0,0.05c0,3.35-1.3,5.03-3.89,5.03
		c-0.45,0-0.81-0.04-1.08-0.12v-0.84c0.32,0.1,0.67,0.15,1.07,0.15c0.94,0,1.65-0.29,2.12-0.87s0.74-1.47,0.78-2.67h-0.07
		c-0.21,0.32-0.49,0.57-0.85,0.74S78.7,196.77,78.25,196.77z M77.19,192.68c-0.3,0.36-0.46,0.84-0.46,1.45s0.14,1.07,0.43,1.39
		s0.71,0.47,1.27,0.47c0.02,0,0.05,0,0.07,0c0.5,0,0.93-0.16,1.31-0.48s0.57-0.68,0.57-1.08c0-0.01,0-0.02,0-0.04
		c0-0.41-0.07-0.78-0.23-1.13s-0.38-0.62-0.67-0.82s-0.61-0.3-0.95-0.3c-0.02,0-0.03,0-0.04,0
		C77.93,192.14,77.5,192.32,77.19,192.68z"/>
	<path class="st9" d="M82.61,195.67c0-1.47,0.23-2.56,0.7-3.29s1.17-1.09,2.11-1.09s1.65,0.38,2.14,1.13s0.73,1.86,0.73,3.32
		s-0.23,2.55-0.7,3.28s-1.17,1.09-2.11,1.09s-1.65-0.37-2.13-1.12S82.61,197.14,82.61,195.67z M86.84,193
		c-0.29-0.57-0.76-0.86-1.4-0.86s-1.11,0.28-1.41,0.85s-0.44,1.47-0.44,2.72s0.15,2.15,0.44,2.72s0.76,0.85,1.41,0.85
		s1.11-0.29,1.4-0.86s0.44-1.48,0.44-2.71S87.14,193.58,86.84,193z"/>
	<path class="st9" d="M89.77,199.39c0-0.26,0.06-0.46,0.18-0.6s0.29-0.21,0.52-0.21s0.4,0.07,0.53,0.21s0.19,0.33,0.19,0.59
		s-0.06,0.45-0.19,0.59s-0.3,0.21-0.52,0.21s-0.39-0.06-0.52-0.19S89.77,199.65,89.77,199.39z"/>
	<path class="st9" d="M92.67,195.67c0-1.47,0.23-2.56,0.7-3.29s1.17-1.09,2.11-1.09s1.65,0.38,2.14,1.13s0.73,1.86,0.73,3.32
		s-0.23,2.55-0.7,3.28s-1.17,1.09-2.11,1.09s-1.65-0.37-2.13-1.12S92.67,197.14,92.67,195.67z M96.9,193
		c-0.29-0.57-0.76-0.86-1.4-0.86s-1.11,0.28-1.41,0.85s-0.44,1.47-0.44,2.72s0.15,2.15,0.44,2.72s0.76,0.85,1.41,0.85
		s1.11-0.29,1.4-0.86s0.44-1.48,0.44-2.71S97.19,193.58,96.9,193z"/>
	<path class="st9" d="M76.05,214.95c0-0.62,0.23-1.12,0.69-1.49s1.08-0.55,1.85-0.55s1.39,0.18,1.85,0.55s0.69,0.87,0.69,1.5
		c0,0.43-0.13,0.82-0.4,1.16s-0.68,0.66-1.25,0.94c0.7,0.34,1.2,0.69,1.48,1.05c0.3,0.36,0.45,0.78,0.45,1.27
		c0,0.71-0.25,1.28-0.74,1.71c-0.5,0.42-1.19,0.63-2.08,0.63s-1.58-0.2-2.07-0.6s-0.74-0.97-0.74-1.7c0-0.98,0.6-1.74,1.79-2.29
		c-0.53-0.3-0.92-0.63-1.15-0.98S76.05,215.4,76.05,214.95z M77.12,218.35c-0.26,0.3-0.39,0.68-0.39,1.12s0.16,0.8,0.49,1.06
		s0.78,0.39,1.37,0.39s1.04-0.14,1.37-0.41s0.49-0.65,0.49-1.13c0-0.38-0.15-0.72-0.46-1.01s-0.84-0.58-1.59-0.86
		C77.8,217.77,77.38,218.05,77.12,218.35z M79.73,214.05c-0.28-0.23-0.67-0.35-1.16-0.35s-0.88,0.12-1.15,0.35S77,214.59,77,214.96
		s0.12,0.69,0.35,0.96c0.23,0.25,0.66,0.51,1.28,0.77c0.56-0.24,0.96-0.49,1.19-0.76s0.35-0.59,0.35-0.97S80.02,214.28,79.73,214.05
		z"/>
	<path class="st9" d="M82.61,217.27c0-1.47,0.23-2.56,0.7-3.29s1.17-1.09,2.11-1.09s1.65,0.38,2.14,1.13s0.73,1.86,0.73,3.32
		s-0.23,2.55-0.7,3.28s-1.17,1.09-2.11,1.09s-1.65-0.37-2.13-1.12S82.61,218.74,82.61,217.27z M86.84,214.6
		c-0.29-0.57-0.76-0.86-1.4-0.86s-1.11,0.28-1.41,0.85s-0.44,1.47-0.44,2.72s0.15,2.15,0.44,2.72s0.76,0.85,1.41,0.85
		s1.11-0.29,1.4-0.86s0.44-1.48,0.44-2.71S87.14,215.17,86.84,214.6z"/>
	<path class="st9" d="M89.77,220.99c0-0.26,0.06-0.46,0.18-0.6s0.29-0.21,0.52-0.21s0.4,0.07,0.53,0.21s0.19,0.33,0.19,0.59
		s-0.06,0.45-0.19,0.59s-0.3,0.21-0.52,0.21s-0.39-0.06-0.52-0.19S89.77,221.25,89.77,220.99z"/>
	<path class="st9" d="M92.67,217.27c0-1.47,0.23-2.56,0.7-3.29s1.17-1.09,2.11-1.09s1.65,0.38,2.14,1.13s0.73,1.86,0.73,3.32
		s-0.23,2.55-0.7,3.28s-1.17,1.09-2.11,1.09s-1.65-0.37-2.13-1.12S92.67,218.74,92.67,217.27z M96.9,214.6
		c-0.29-0.57-0.76-0.86-1.4-0.86s-1.11,0.28-1.41,0.85s-0.44,1.47-0.44,2.72s0.15,2.15,0.44,2.72s0.76,0.85,1.41,0.85
		s1.11-0.29,1.4-0.86s0.44-1.48,0.44-2.71S97.19,215.17,96.9,214.6z"/>
	<path class="st9" d="M75.7,235.53v-0.9h5.71v0.78l-3.5,7.79h-1.08l3.55-7.67H75.7z"/>
	<path class="st9" d="M82.61,238.87c0-1.47,0.23-2.56,0.7-3.29s1.17-1.09,2.11-1.09s1.65,0.38,2.14,1.13s0.73,1.86,0.73,3.32
		s-0.23,2.55-0.7,3.28s-1.17,1.09-2.11,1.09s-1.65-0.37-2.13-1.12S82.61,240.34,82.61,238.87z M86.84,236.2
		c-0.29-0.57-0.76-0.86-1.4-0.86s-1.11,0.28-1.41,0.85s-0.44,1.47-0.44,2.72s0.15,2.15,0.44,2.72s0.76,0.85,1.41,0.85
		s1.11-0.29,1.4-0.86s0.44-1.48,0.44-2.71S87.14,236.77,86.84,236.2z"/>
	<path class="st9" d="M89.77,242.59c0-0.26,0.06-0.46,0.18-0.6s0.29-0.21,0.52-0.21s0.4,0.07,0.53,0.21s0.19,0.33,0.19,0.59
		s-0.06,0.45-0.19,0.59s-0.3,0.21-0.52,0.21s-0.39-0.06-0.52-0.19S89.77,242.85,89.77,242.59z"/>
	<path class="st9" d="M92.67,238.87c0-1.47,0.23-2.56,0.7-3.29s1.17-1.09,2.11-1.09s1.65,0.38,2.14,1.13s0.73,1.86,0.73,3.32
		s-0.23,2.55-0.7,3.28s-1.17,1.09-2.11,1.09s-1.65-0.37-2.13-1.12S92.67,240.34,92.67,238.87z M96.9,236.2
		c-0.29-0.57-0.76-0.86-1.4-0.86s-1.11,0.28-1.41,0.85s-0.44,1.47-0.44,2.72s0.15,2.15,0.44,2.72s0.76,0.85,1.41,0.85
		s1.11-0.29,1.4-0.86s0.44-1.48,0.44-2.71S97.19,236.77,96.9,236.2z"/>
	<path class="st9" d="M78.95,259.46c0.77,0,1.38,0.23,1.82,0.69s0.67,1.09,0.67,1.9c0,0.89-0.24,1.59-0.73,2.1s-1.16,0.76-2.01,0.76
		s-1.54-0.33-2.07-1c-0.52-0.66-0.78-1.59-0.78-2.78c0-3.35,1.29-5.03,3.88-5.03c0.45,0,0.8,0.04,1.04,0.11v0.84
		c-0.29-0.1-0.64-0.15-1.03-0.15c-0.93,0-1.63,0.29-2.11,0.87s-0.74,1.47-0.79,2.69h0.07C77.33,259.8,78.01,259.46,78.95,259.46z
		 M78.69,260.23c-0.48,0-0.91,0.16-1.29,0.49s-0.57,0.7-0.56,1.12c0,0.4,0.07,0.77,0.23,1.12s0.38,0.62,0.67,0.83
		s0.6,0.31,0.94,0.31c0.02,0,0.03,0,0.04,0c0.56,0,0.99-0.18,1.29-0.53s0.46-0.83,0.46-1.45s-0.14-1.08-0.43-1.4
		s-0.71-0.48-1.27-0.48C78.74,260.23,78.72,260.23,78.69,260.23z"/>
	<path class="st9" d="M82.61,260.47c0-1.47,0.23-2.56,0.7-3.29s1.17-1.09,2.11-1.09s1.65,0.38,2.14,1.13s0.73,1.86,0.73,3.32
		s-0.23,2.55-0.7,3.28s-1.17,1.09-2.11,1.09s-1.65-0.37-2.13-1.12S82.61,261.94,82.61,260.47z M86.84,257.8
		c-0.29-0.57-0.76-0.86-1.4-0.86s-1.11,0.28-1.41,0.85s-0.44,1.47-0.44,2.72s0.15,2.15,0.44,2.72s0.76,0.85,1.41,0.85
		s1.11-0.29,1.4-0.86s0.44-1.48,0.44-2.71S87.14,258.38,86.84,257.8z"/>
	<path class="st9" d="M89.77,264.19c0-0.26,0.06-0.46,0.18-0.6s0.29-0.21,0.52-0.21s0.4,0.07,0.53,0.21s0.19,0.33,0.19,0.59
		s-0.06,0.45-0.19,0.59s-0.3,0.21-0.52,0.21s-0.39-0.06-0.52-0.19S89.77,264.45,89.77,264.19z"/>
	<path class="st9" d="M92.67,260.47c0-1.47,0.23-2.56,0.7-3.29s1.17-1.09,2.11-1.09s1.65,0.38,2.14,1.13s0.73,1.86,0.73,3.32
		s-0.23,2.55-0.7,3.28s-1.17,1.09-2.11,1.09s-1.65-0.37-2.13-1.12S92.67,261.94,92.67,260.47z M96.9,257.8
		c-0.29-0.57-0.76-0.86-1.4-0.86s-1.11,0.28-1.41,0.85s-0.44,1.47-0.44,2.72s0.15,2.15,0.44,2.72s0.76,0.85,1.41,0.85
		s1.11-0.29,1.4-0.86s0.44-1.48,0.44-2.71S97.19,258.38,96.9,257.8z"/>
	<path class="st9" d="M80.72,278.73h-3.43l-0.22,2.57c0.46-0.09,0.91-0.13,1.34-0.13c0.91,0,1.62,0.22,2.13,0.67
		c0.52,0.45,0.78,1.06,0.78,1.83c0,0.89-0.28,1.58-0.85,2.09s-1.34,0.76-2.31,0.76s-1.72-0.15-2.23-0.46v-0.94
		c0.28,0.18,0.62,0.32,1.02,0.42s0.8,0.15,1.2,0.15c0.69,0,1.23-0.16,1.61-0.49s0.57-0.79,0.57-1.4c0-1.2-0.73-1.79-2.2-1.79
		c-0.36,0-0.86,0.06-1.49,0.17l-0.5-0.32l0.32-4.01h4.26V278.73z"/>
	<path class="st9" d="M82.61,282.07c0-1.47,0.23-2.56,0.7-3.29s1.17-1.09,2.11-1.09s1.65,0.38,2.14,1.13s0.73,1.86,0.73,3.32
		s-0.23,2.55-0.7,3.28s-1.17,1.09-2.11,1.09s-1.65-0.37-2.13-1.12S82.61,283.54,82.61,282.07z M86.84,279.4
		c-0.29-0.57-0.76-0.86-1.4-0.86s-1.11,0.28-1.41,0.85s-0.44,1.47-0.44,2.72s0.15,2.15,0.44,2.72s0.76,0.85,1.41,0.85
		s1.11-0.29,1.4-0.86s0.44-1.48,0.44-2.71S87.14,279.97,86.84,279.4z"/>
	<path class="st9" d="M89.77,285.79c0-0.26,0.06-0.46,0.18-0.6s0.29-0.21,0.52-0.21s0.4,0.07,0.53,0.21s0.19,0.33,0.19,0.59
		s-0.06,0.45-0.19,0.59s-0.3,0.21-0.52,0.21s-0.39-0.06-0.52-0.19S89.77,286.05,89.77,285.79z"/>
	<path class="st9" d="M92.67,282.07c0-1.47,0.23-2.56,0.7-3.29s1.17-1.09,2.11-1.09s1.65,0.38,2.14,1.13s0.73,1.86,0.73,3.32
		s-0.23,2.55-0.7,3.28s-1.17,1.09-2.11,1.09s-1.65-0.37-2.13-1.12S92.67,283.54,92.67,282.07z M96.9,279.4
		c-0.29-0.57-0.76-0.86-1.4-0.86s-1.11,0.28-1.41,0.85s-0.44,1.47-0.44,2.72s0.15,2.15,0.44,2.72s0.76,0.85,1.41,0.85
		s1.11-0.29,1.4-0.86s0.44-1.48,0.44-2.71S97.19,279.97,96.9,279.4z"/>
	<path class="st9" d="M80.5,305.15h1.27v0.88H80.5V308h-0.93v-1.97h-4.17v-0.85l4.07-5.79h1.03V305.15z M79.57,305.15v-2.84
		c0-0.6,0.02-1.23,0.06-1.9h-0.05c-0.19,0.38-0.36,0.69-0.53,0.93l-2.68,3.81H79.57z"/>
	<path class="st9" d="M82.61,303.67c0-1.47,0.23-2.56,0.7-3.29s1.17-1.09,2.11-1.09s1.65,0.38,2.14,1.13s0.73,1.86,0.73,3.32
		s-0.23,2.55-0.7,3.28s-1.17,1.09-2.11,1.09s-1.65-0.37-2.13-1.12S82.61,305.14,82.61,303.67z M86.84,301
		c-0.29-0.57-0.76-0.86-1.4-0.86s-1.11,0.28-1.41,0.85s-0.44,1.47-0.44,2.72s0.15,2.15,0.44,2.72s0.76,0.85,1.41,0.85
		s1.11-0.29,1.4-0.86s0.44-1.48,0.44-2.71S87.14,301.58,86.84,301z"/>
	<path class="st9" d="M89.77,307.39c0-0.26,0.06-0.46,0.18-0.6s0.29-0.21,0.52-0.21s0.4,0.07,0.53,0.21s0.19,0.33,0.19,0.59
		s-0.06,0.45-0.19,0.59s-0.3,0.21-0.52,0.21s-0.39-0.06-0.52-0.19S89.77,307.65,89.77,307.39z"/>
	<path class="st9" d="M92.67,303.67c0-1.47,0.23-2.56,0.7-3.29s1.17-1.09,2.11-1.09s1.65,0.38,2.14,1.13s0.73,1.86,0.73,3.32
		s-0.23,2.55-0.7,3.28s-1.17,1.09-2.11,1.09s-1.65-0.37-2.13-1.12S92.67,305.14,92.67,303.67z M96.9,301
		c-0.29-0.57-0.76-0.86-1.4-0.86s-1.11,0.28-1.41,0.85s-0.44,1.47-0.44,2.72s0.15,2.15,0.44,2.72s0.76,0.85,1.41,0.85
		s1.11-0.29,1.4-0.86s0.44-1.48,0.44-2.71S97.19,301.58,96.9,301z"/>
	<path class="st9" d="M78.42,320.91c0.83,0,1.47,0.19,1.94,0.57s0.69,0.9,0.69,1.57c0,0.54-0.15,0.99-0.46,1.34s-0.74,0.58-1.31,0.7
		v0.05c0.68,0.08,1.19,0.3,1.52,0.64s0.5,0.81,0.5,1.39c0,0.82-0.28,1.45-0.85,1.89s-1.37,0.66-2.41,0.66
		c-0.93,0-1.71-0.15-2.35-0.46v-0.93c0.76,0.38,1.56,0.56,2.38,0.56c1.48,0,2.22-0.58,2.22-1.74c0-1.04-0.82-1.56-2.45-1.56h-0.84
		v-0.84h0.86c0.67,0,1.2-0.15,1.59-0.44s0.59-0.7,0.59-1.23c0-0.42-0.14-0.75-0.43-0.98s-0.68-0.36-1.17-0.36
		c-0.37,0-0.72,0.05-1.05,0.15s-0.72,0.29-1.15,0.57l-0.49-0.66c0.36-0.28,0.76-0.5,1.22-0.66S77.92,320.91,78.42,320.91z"/>
	<path class="st9" d="M82.61,325.27c0-1.47,0.23-2.56,0.7-3.29s1.17-1.09,2.11-1.09s1.65,0.38,2.14,1.13s0.73,1.86,0.73,3.32
		s-0.23,2.55-0.7,3.28s-1.17,1.09-2.11,1.09s-1.65-0.37-2.13-1.12S82.61,326.74,82.61,325.27z M86.84,322.6
		c-0.29-0.57-0.76-0.86-1.4-0.86s-1.11,0.28-1.41,0.85s-0.44,1.47-0.44,2.72s0.15,2.15,0.44,2.72s0.76,0.85,1.41,0.85
		s1.11-0.29,1.4-0.86s0.44-1.48,0.44-2.71S87.14,323.17,86.84,322.6z"/>
	<path class="st9" d="M89.77,328.99c0-0.26,0.06-0.46,0.18-0.6s0.29-0.21,0.52-0.21s0.4,0.07,0.53,0.21s0.19,0.33,0.19,0.59
		s-0.06,0.45-0.19,0.59s-0.3,0.21-0.52,0.21s-0.39-0.06-0.52-0.19S89.77,329.25,89.77,328.99z"/>
	<path class="st9" d="M92.67,325.27c0-1.47,0.23-2.56,0.7-3.29s1.17-1.09,2.11-1.09s1.65,0.38,2.14,1.13s0.73,1.86,0.73,3.32
		s-0.23,2.55-0.7,3.28s-1.17,1.09-2.11,1.09s-1.65-0.37-2.13-1.12S92.67,326.74,92.67,325.27z M96.9,322.6
		c-0.29-0.57-0.76-0.86-1.4-0.86s-1.11,0.28-1.41,0.85s-0.44,1.47-0.44,2.72s0.15,2.15,0.44,2.72s0.76,0.85,1.41,0.85
		s1.11-0.29,1.4-0.86s0.44-1.48,0.44-2.71S97.19,323.17,96.9,322.6z"/>
	<path class="st9" d="M78.43,342.51c0.81,0,1.44,0.21,1.89,0.62c0.45,0.41,0.68,0.96,0.68,1.66c0,0.54-0.15,1.07-0.45,1.61
		s-0.87,1.21-1.71,2.02l-1.88,1.83v0.05h4.41v0.9h-5.64v-0.84L78,348.1c0.71-0.72,1.17-1.23,1.38-1.51s0.37-0.56,0.47-0.84
		s0.16-0.58,0.16-0.91c0-0.46-0.14-0.82-0.42-1.09s-0.66-0.4-1.15-0.4c-0.36,0-0.69,0.06-1.01,0.18s-0.67,0.33-1.06,0.64l-0.52-0.66
		C76.64,342.84,77.5,342.51,78.43,342.51z"/>
	<path class="st9" d="M82.61,346.87c0-1.47,0.23-2.56,0.7-3.29s1.17-1.09,2.11-1.09s1.65,0.38,2.14,1.13s0.73,1.86,0.73,3.32
		s-0.23,2.55-0.7,3.28s-1.17,1.09-2.11,1.09s-1.65-0.37-2.13-1.12S82.61,348.34,82.61,346.87z M86.84,344.21
		c-0.29-0.57-0.76-0.86-1.4-0.86s-1.11,0.28-1.41,0.85s-0.44,1.47-0.44,2.72s0.15,2.15,0.44,2.72s0.76,0.85,1.41,0.85
		s1.11-0.29,1.4-0.86s0.44-1.48,0.44-2.71S87.14,344.78,86.84,344.21z"/>
	<path class="st9" d="M89.77,350.59c0-0.26,0.06-0.46,0.18-0.6s0.29-0.21,0.52-0.21s0.4,0.07,0.53,0.21s0.19,0.33,0.19,0.59
		s-0.06,0.45-0.19,0.59s-0.3,0.21-0.52,0.21s-0.39-0.06-0.52-0.19S89.77,350.85,89.77,350.59z"/>
	<path class="st9" d="M92.67,346.87c0-1.47,0.23-2.56,0.7-3.29s1.17-1.09,2.11-1.09s1.65,0.38,2.14,1.13s0.73,1.86,0.73,3.32
		s-0.23,2.55-0.7,3.28s-1.17,1.09-2.11,1.09s-1.65-0.37-2.13-1.12S92.67,348.34,92.67,346.87z M96.9,344.21
		c-0.29-0.57-0.76-0.86-1.4-0.86s-1.11,0.28-1.41,0.85s-0.44,1.47-0.44,2.72s0.15,2.15,0.44,2.72s0.76,0.85,1.41,0.85
		s1.11-0.29,1.4-0.86s0.44-1.48,0.44-2.71S97.19,344.78,96.9,344.21z"/>
	<path class="st9" d="M79.34,372.8H78.4v-6.11c0-0.48,0.02-0.96,0.05-1.44c-0.08,0.09-0.16,0.16-0.24,0.23s-0.55,0.46-1.43,1.17
		l-0.52-0.67l2.27-1.75h0.82V372.8z"/>
	<path class="st9" d="M82.61,368.47c0-1.47,0.23-2.56,0.7-3.29s1.17-1.09,2.11-1.09s1.65,0.38,2.14,1.13s0.73,1.86,0.73,3.32
		s-0.23,2.55-0.7,3.28s-1.17,1.09-2.11,1.09s-1.65-0.37-2.13-1.12S82.61,369.94,82.61,368.47z M86.84,365.8
		c-0.29-0.57-0.76-0.86-1.4-0.86s-1.11,0.28-1.41,0.85s-0.44,1.47-0.44,2.72s0.15,2.15,0.44,2.72s0.76,0.85,1.41,0.85
		s1.11-0.29,1.4-0.86s0.44-1.48,0.44-2.71S87.14,366.38,86.84,365.8z"/>
	<path class="st9" d="M89.77,372.19c0-0.26,0.06-0.46,0.18-0.6s0.29-0.21,0.52-0.21s0.4,0.07,0.53,0.21s0.19,0.33,0.19,0.59
		s-0.06,0.45-0.19,0.59s-0.3,0.21-0.52,0.21s-0.39-0.06-0.52-0.19S89.77,372.45,89.77,372.19z"/>
	<path class="st9" d="M92.67,368.47c0-1.47,0.23-2.56,0.7-3.29s1.17-1.09,2.11-1.09s1.65,0.38,2.14,1.13s0.73,1.86,0.73,3.32
		s-0.23,2.55-0.7,3.28s-1.17,1.09-2.11,1.09s-1.65-0.37-2.13-1.12S92.67,369.94,92.67,368.47z M96.9,365.8
		c-0.29-0.57-0.76-0.86-1.4-0.86s-1.11,0.28-1.41,0.85s-0.44,1.47-0.44,2.72s0.15,2.15,0.44,2.72s0.76,0.85,1.41,0.85
		s1.11-0.29,1.4-0.86s0.44-1.48,0.44-2.71S97.19,366.38,96.9,365.8z"/>
	<path class="st9" d="M82.61,390.07c0-1.47,0.23-2.56,0.7-3.29s1.17-1.09,2.11-1.09s1.65,0.38,2.14,1.13s0.73,1.86,0.73,3.32
		s-0.23,2.55-0.7,3.28s-1.17,1.09-2.11,1.09s-1.65-0.37-2.13-1.12S82.61,391.54,82.61,390.07z M86.84,387.4
		c-0.29-0.57-0.76-0.86-1.4-0.86s-1.11,0.28-1.41,0.85s-0.44,1.47-0.44,2.72s0.15,2.15,0.44,2.72s0.76,0.85,1.41,0.85
		s1.11-0.29,1.4-0.86s0.44-1.48,0.44-2.71S87.14,387.97,86.84,387.4z"/>
	<path class="st9" d="M89.77,393.79c0-0.26,0.06-0.46,0.18-0.6s0.29-0.21,0.52-0.21s0.4,0.07,0.53,0.21s0.19,0.33,0.19,0.59
		s-0.06,0.45-0.19,0.59s-0.3,0.21-0.52,0.21s-0.39-0.06-0.52-0.19S89.77,394.05,89.77,393.79z"/>
	<path class="st9" d="M92.67,390.07c0-1.47,0.23-2.56,0.7-3.29s1.17-1.09,2.11-1.09s1.65,0.38,2.14,1.13s0.73,1.86,0.73,3.32
		s-0.23,2.55-0.7,3.28s-1.17,1.09-2.11,1.09s-1.65-0.37-2.13-1.12S92.67,391.54,92.67,390.07z M96.9,387.4
		c-0.29-0.57-0.76-0.86-1.4-0.86s-1.11,0.28-1.41,0.85s-0.44,1.47-0.44,2.72s0.15,2.15,0.44,2.72s0.76,0.85,1.41,0.85
		s1.11-0.29,1.4-0.86s0.44-1.48,0.44-2.71S97.19,387.97,96.9,387.4z"/>
</g>
<g>
	<path class="st9" d="M270.42,429.54h-2.71v7.68h-1v-7.68H264v-0.88h6.42V429.54z"/>
	<path class="st9" d="M271.48,429.06c0-0.21,0.05-0.37,0.16-0.48s0.24-0.16,0.41-0.16s0.31,0.05,0.42,0.16s0.16,0.27,0.16,0.48
		s-0.05,0.37-0.16,0.48s-0.25,0.17-0.42,0.17s-0.3-0.06-0.41-0.17S271.48,429.27,271.48,429.06z M272.54,437.23h-0.97v-6.42h0.97
		V437.23z"/>
	<path class="st9" d="M281.59,430.69c0.73,0,1.28,0.19,1.64,0.57s0.54,0.97,0.54,1.78v4.19h-0.97v-4.18c0-0.52-0.11-0.9-0.33-1.15
		s-0.56-0.38-1.02-0.38c-0.61,0-1.05,0.17-1.34,0.52s-0.43,0.88-0.43,1.6v3.59h-0.97v-4.18c0-0.52-0.11-0.9-0.33-1.15
		s-0.56-0.38-1.02-0.38c-0.61,0-1.06,0.18-1.34,0.54s-0.42,0.96-0.42,1.79v3.37h-0.97v-6.42h0.79l0.16,0.88h0.05
		c0.18-0.31,0.44-0.56,0.78-0.73s0.71-0.26,1.12-0.26c1,0,1.66,0.36,1.97,1.09h0.05c0.19-0.34,0.47-0.61,0.83-0.8
		S281.13,430.69,281.59,430.69z"/>
	<path class="st9" d="M288.48,437.34c-0.95,0-1.7-0.29-2.25-0.87c-0.55-0.58-0.82-1.39-0.82-2.42s0.25-1.85,0.76-2.46
		s1.18-0.91,2.02-0.91s1.48,0.27,1.95,0.8c0.47,0.52,0.7,1.21,0.7,2.09v0.62h-4.42c0.02,0.75,0.21,1.32,0.57,1.71
		s0.88,0.59,1.55,0.59s1.35-0.14,2.02-0.43v0.87c-0.34,0.15-0.67,0.25-0.98,0.32S288.9,437.34,288.48,437.34z M289.8,433.4
		c0-0.61-0.14-1.08-0.41-1.4s-0.67-0.49-1.17-0.49s-0.92,0.17-1.23,0.5s-0.49,0.8-0.54,1.39H289.8z"/>
	<path class="st9" d="M292.36,436.61c0-0.26,0.06-0.46,0.18-0.6s0.29-0.21,0.52-0.21s0.4,0.07,0.53,0.21s0.19,0.33,0.19,0.59
		s-0.06,0.45-0.19,0.59s-0.3,0.21-0.52,0.21s-0.39-0.06-0.52-0.19S292.36,436.88,292.36,436.61z"/>
	<path class="st9" d="M305.79,430.69c0.73,0,1.28,0.19,1.64,0.57s0.54,0.97,0.54,1.78v4.19h-0.97v-4.18c0-0.52-0.11-0.9-0.33-1.15
		s-0.56-0.38-1.02-0.38c-0.61,0-1.05,0.17-1.34,0.52s-0.43,0.88-0.43,1.6v3.59h-0.97v-4.18c0-0.52-0.11-0.9-0.33-1.15
		s-0.56-0.38-1.02-0.38c-0.61,0-1.06,0.18-1.34,0.54s-0.42,0.96-0.42,1.79v3.37h-0.97v-6.42h0.79l0.16,0.88h0.05
		c0.18-0.31,0.44-0.56,0.78-0.73s0.71-0.26,1.12-0.26c1,0,1.66,0.36,1.97,1.09h0.05c0.19-0.34,0.47-0.61,0.83-0.8
		S305.33,430.69,305.79,430.69z"/>
	<path class="st9" d="M309.89,429.06c0-0.21,0.05-0.37,0.16-0.48s0.24-0.16,0.41-0.16s0.31,0.05,0.42,0.16s0.16,0.27,0.16,0.48
		s-0.05,0.37-0.16,0.48s-0.25,0.17-0.42,0.17s-0.3-0.06-0.41-0.17S309.89,429.27,309.89,429.06z M310.94,437.23h-0.97v-6.42h0.97
		V437.23z"/>
	<path class="st9" d="M316.04,430.69c0.78,0,1.37,0.19,1.75,0.57s0.58,0.97,0.58,1.78v4.19h-0.97v-4.15c0-0.53-0.12-0.92-0.36-1.17
		s-0.61-0.38-1.12-0.38c-0.68,0-1.17,0.18-1.48,0.54s-0.47,0.96-0.47,1.79v3.37H313v-6.42h0.79l0.16,0.88H314
		c0.2-0.32,0.48-0.56,0.83-0.74S315.59,430.69,316.04,430.69z"/>
	<path class="st9" d="M325.67,437.23h-0.8l-0.14-0.86h-0.05c-0.2,0.32-0.47,0.56-0.83,0.73s-0.76,0.25-1.21,0.25
		c-0.79,0-1.38-0.19-1.76-0.56s-0.57-0.97-0.57-1.78v-4.2h0.98v4.17c0,0.53,0.12,0.92,0.36,1.17s0.61,0.38,1.12,0.38
		c0.67,0,1.16-0.18,1.47-0.55s0.47-0.97,0.47-1.8v-3.38h0.97V437.23z"/>
	<path class="st9" d="M328.78,430.8h1.86v0.76h-1.86v3.78c0,0.38,0.09,0.68,0.27,0.89s0.43,0.31,0.75,0.31s0.61-0.04,0.89-0.12v0.75
		c-0.09,0.05-0.25,0.09-0.46,0.12s-0.4,0.05-0.56,0.05c-1.24,0-1.86-0.65-1.86-1.96v-3.82h-0.92v-0.47l0.92-0.4l0.41-1.37h0.56
		V430.8z"/>
	<path class="st9" d="M334.68,437.34c-0.95,0-1.7-0.29-2.25-0.87c-0.55-0.58-0.82-1.39-0.82-2.42s0.25-1.85,0.76-2.46
		s1.18-0.91,2.02-0.91s1.48,0.27,1.95,0.8c0.47,0.52,0.7,1.21,0.7,2.09v0.62h-4.42c0.02,0.75,0.21,1.32,0.57,1.71
		s0.88,0.59,1.55,0.59s1.35-0.14,2.02-0.43v0.87c-0.34,0.15-0.67,0.25-0.98,0.32S335.11,437.34,334.68,437.34z M336,433.4
		c0-0.61-0.14-1.08-0.41-1.4s-0.67-0.49-1.17-0.49s-0.92,0.17-1.23,0.5s-0.49,0.8-0.54,1.39H336z"/>
	<path class="st9" d="M340.33,436.54c1.05,0,1.58-0.33,1.58-0.98c0-0.25-0.11-0.46-0.33-0.64s-0.64-0.39-1.27-0.63
		c-0.6-0.22-1.03-0.42-1.28-0.59s-0.44-0.36-0.56-0.56s-0.18-0.46-0.18-0.76c0-0.52,0.21-0.93,0.64-1.24s1-0.46,1.71-0.46
		s1.4,0.14,2.07,0.42l-0.35,0.79c-0.64-0.26-1.21-0.39-1.7-0.39s-0.85,0.07-1.09,0.21s-0.36,0.34-0.36,0.6
		c0,0.17,0.04,0.32,0.13,0.44s0.23,0.24,0.42,0.35s0.57,0.27,1.13,0.47c0.76,0.28,1.28,0.56,1.54,0.84s0.4,0.63,0.4,1.06
		c0,0.6-0.22,1.06-0.67,1.38s-1.08,0.49-1.91,0.49s-1.48-0.13-1.95-0.4v-0.9C338.98,436.37,339.65,436.54,340.33,436.54z"/>
</g>
<g>
	<path class="st9" d="M377.3,452.09h2.15c0.96,0,1.67,0.18,2.13,0.55s0.69,0.92,0.69,1.67c0,1.04-0.53,1.74-1.58,2.11l2.13,3.53
		h-1.08l-1.9-3.27h-1.64v3.27h-0.91V452.09z M378.21,452.89v3h1.25c0.64,0,1.11-0.13,1.42-0.38c0.3-0.25,0.45-0.64,0.45-1.15
		s-0.15-0.89-0.46-1.12c-0.31-0.23-0.8-0.35-1.47-0.35H378.21z"/>
	<path class="st9" d="M384.1,452.09h2.41c1.22,0,2.17,0.34,2.85,1.01c0.68,0.68,1.02,1.62,1.02,2.84c0,1.3-0.35,2.29-1.06,2.97
		s-1.72,1.03-3.03,1.03h-2.18V452.09z M385.01,452.88v6.27h1.11c1.08,0,1.9-0.27,2.45-0.8c0.55-0.54,0.82-1.32,0.82-2.36
		c0-1.04-0.26-1.81-0.77-2.33s-1.28-0.78-2.29-0.78H385.01z"/>
	<path class="st9" d="M391.58,455.98c0-1.34,0.21-2.35,0.64-3.01s1.07-1,1.93-1c0.86,0,1.51,0.34,1.96,1.03s0.67,1.7,0.67,3.04
		c0,1.34-0.21,2.34-0.64,3.01s-1.08,1-1.94,1c-0.86,0-1.51-0.34-1.95-1.03S391.58,457.32,391.58,455.98z M395.46,453.53
		c-0.27-0.53-0.69-0.79-1.28-0.79s-1.02,0.26-1.29,0.78s-0.4,1.35-0.4,2.49c0,1.14,0.13,1.97,0.4,2.5c0.27,0.52,0.7,0.78,1.29,0.78
		s1.02-0.26,1.29-0.79c0.27-0.53,0.4-1.36,0.4-2.48C395.87,454.88,395.73,454.05,395.46,453.53z"/>
	<path class="st9" d="M397.87,455.98c0-1.34,0.21-2.35,0.64-3.01s1.07-1,1.93-1c0.86,0,1.51,0.34,1.96,1.03s0.67,1.7,0.67,3.04
		c0,1.34-0.21,2.34-0.64,3.01s-1.08,1-1.94,1c-0.86,0-1.51-0.34-1.95-1.03S397.87,457.32,397.87,455.98z M401.75,453.53
		c-0.27-0.53-0.69-0.79-1.28-0.79s-1.02,0.26-1.29,0.78s-0.4,1.35-0.4,2.49c0,1.14,0.13,1.97,0.4,2.5c0.27,0.52,0.7,0.78,1.29,0.78
		s1.02-0.26,1.29-0.79c0.27-0.53,0.4-1.36,0.4-2.48C402.16,454.88,402.02,454.05,401.75,453.53z"/>
	<path class="st9" d="M404.16,455.98c0-1.34,0.21-2.35,0.64-3.01s1.07-1,1.93-1c0.86,0,1.51,0.34,1.96,1.03s0.67,1.7,0.67,3.04
		c0,1.34-0.21,2.34-0.64,3.01s-1.08,1-1.94,1c-0.86,0-1.51-0.34-1.95-1.03S404.16,457.32,404.16,455.98z M408.04,453.53
		c-0.27-0.53-0.69-0.79-1.28-0.79s-1.02,0.26-1.29,0.78s-0.4,1.35-0.4,2.49c0,1.14,0.13,1.97,0.4,2.5c0.27,0.52,0.7,0.78,1.29,0.78
		s1.02-0.26,1.29-0.79c0.27-0.53,0.4-1.36,0.4-2.48C408.44,454.88,408.31,454.05,408.04,453.53z"/>
	<path class="st9" d="M412.9,451.98c0.76,0,1.35,0.17,1.77,0.52c0.42,0.35,0.64,0.83,0.64,1.44c0,0.5-0.14,0.91-0.42,1.23
		s-0.68,0.53-1.2,0.64v0.04c0.62,0.08,1.09,0.27,1.4,0.59s0.46,0.75,0.46,1.28c0,0.75-0.26,1.33-0.78,1.73s-1.26,0.6-2.21,0.6
		c-0.85,0-1.57-0.14-2.15-0.42v-0.85c0.7,0.34,1.43,0.52,2.19,0.52c1.36,0,2.04-0.53,2.04-1.59c0-0.95-0.75-1.43-2.25-1.43h-0.77
		v-0.77h0.78c0.61,0,1.1-0.14,1.46-0.41s0.54-0.65,0.54-1.12c0-0.38-0.13-0.68-0.39-0.9c-0.26-0.22-0.62-0.33-1.07-0.33
		c-0.34,0-0.66,0.05-0.96,0.14c-0.31,0.09-0.66,0.26-1.05,0.52l-0.45-0.6c0.33-0.26,0.7-0.46,1.12-0.6
		C412,452.05,412.44,451.98,412.9,451.98z"/>
	<path class="st9" d="M419.2,451.98c0.74,0,1.32,0.19,1.73,0.57c0.42,0.37,0.62,0.88,0.62,1.52c0,0.49-0.14,0.98-0.41,1.47
		s-0.8,1.1-1.57,1.85l-1.72,1.68v0.04h4.04v0.83h-5.17v-0.77l2.07-2.08c0.65-0.66,1.07-1.12,1.26-1.39s0.33-0.52,0.44-0.77
		c0.1-0.25,0.15-0.53,0.15-0.84c0-0.42-0.13-0.76-0.38-1c-0.26-0.24-0.61-0.37-1.06-0.37c-0.33,0-0.63,0.05-0.93,0.16
		c-0.29,0.11-0.62,0.3-0.98,0.58l-0.47-0.61C417.56,452.28,418.35,451.98,419.2,451.98z"/>
	<path class="st9" d="M425.49,451.98c0.74,0,1.32,0.19,1.73,0.57c0.42,0.37,0.62,0.88,0.62,1.52c0,0.49-0.14,0.98-0.41,1.47
		s-0.8,1.1-1.57,1.85l-1.72,1.68v0.04h4.04v0.83h-5.17v-0.77l2.07-2.08c0.65-0.66,1.07-1.12,1.26-1.39s0.33-0.52,0.44-0.77
		c0.1-0.25,0.15-0.53,0.15-0.84c0-0.42-0.13-0.76-0.38-1c-0.26-0.24-0.61-0.37-1.06-0.37c-0.33,0-0.63,0.05-0.93,0.16
		c-0.29,0.11-0.62,0.3-0.98,0.58l-0.47-0.61C423.85,452.28,424.64,451.98,425.49,451.98z"/>
	<path class="st9" d="M430.61,451.59v2.03c0,0.43-0.01,0.84-0.04,1.22h0.04c0.42-0.59,1.02-0.88,1.82-0.88
		c0.8,0,1.41,0.26,1.83,0.79c0.43,0.53,0.64,1.27,0.64,2.24s-0.22,1.72-0.65,2.25c-0.43,0.53-1.04,0.8-1.83,0.8
		s-1.39-0.29-1.82-0.87h-0.06l-0.19,0.76h-0.64v-8.36H430.61z M433.97,456.98c0-0.76-0.13-1.33-0.4-1.71s-0.69-0.56-1.28-0.56
		s-1.01,0.17-1.28,0.52c-0.27,0.35-0.4,0.93-0.4,1.76s0.14,1.42,0.41,1.78c0.28,0.35,0.72,0.53,1.33,0.53c0.54,0,0.95-0.2,1.22-0.59
		C433.84,458.32,433.97,457.74,433.97,456.98z"/>
</g>
</svg>
