<?xml version="1.0" encoding="utf-8"?>
<!-- Generator: Adobe Illustrator 25.1.0, SVG Export Plug-In . SVG Version: 6.00 Build 0)  -->
<svg version="1.1" id="Layer_1" xmlns="http://www.w3.org/2000/svg" xmlns:xlink="http://www.w3.org/1999/xlink" x="0px" y="0px"
	 viewBox="0 0 960 540" style="enable-background:new 0 0 960 540;" xml:space="preserve">
<style type="text/css">
	.st0{fill:none;stroke:#BFBFBF;stroke-width:0.75;stroke-linejoin:round;stroke-miterlimit:10;}
	.st1{fill:none;stroke:#D9D9D9;stroke-width:0.75;stroke-linejoin:round;stroke-miterlimit:10;}
	
		.st2{clip-path:url(#SVGID_2_);fill:none;stroke:#41BFC6;stroke-width:3;stroke-linecap:round;stroke-linejoin:round;stroke-miterlimit:10;}
	.st3{fill:#FFFFFF;}
	.st4{fill:none;stroke:#41BFC6;stroke-width:3;stroke-linecap:round;stroke-linejoin:round;stroke-miterlimit:10;}
	.st5{fill:#767171;}
</style>
<g>
	<line class="st0" x1="483.84" y1="412.54" x2="483.84" y2="416.16"/>
	<line class="st0" x1="96" y1="412.54" x2="96" y2="416.16"/>
	<line class="st0" x1="435.36" y1="412.54" x2="435.36" y2="416.16"/>
	<line class="st0" x1="386.88" y1="412.54" x2="386.88" y2="416.16"/>
	<line class="st0" x1="338.4" y1="412.54" x2="338.4" y2="416.16"/>
	<line class="st0" x1="289.92" y1="412.54" x2="289.92" y2="416.16"/>
	<line class="st0" x1="241.44" y1="412.54" x2="241.44" y2="416.16"/>
	<line class="st0" x1="192.96" y1="412.54" x2="192.96" y2="416.16"/>
	<line class="st0" x1="144.48" y1="412.54" x2="144.48" y2="416.16"/>
</g>
<g>
	<path class="st1" d="M96.7,206.16h387.49 M96.7,240.48h387.49 M96.7,274.56h387.49 M96.7,308.88h387.49 M96.7,342.96h387.49
		 M96.7,377.28h387.49"/>
</g>
<g>
	<path class="st1" d="M484.19,411.38 M484.19,206.16"/>
</g>
<g>
	<line class="st0" x1="96.7" y1="411.38" x2="96.7" y2="206.16"/>
</g>
<g>
	<line class="st0" x1="96.7" y1="411.38" x2="484.19" y2="411.38"/>
</g>
<g>
	<defs>
		<polyline id="SVGID_1_" points="483.84,205.92 96,205.92 96,411.84 483.84,411.84 		"/>
	</defs>
	<clipPath id="SVGID_2_">
		<use xlink:href="#SVGID_1_"  style="overflow:visible;"/>
	</clipPath>
	<polyline class="st2" points="96.7,411.38 120.96,408.72 145.2,403.44 177.36,372 209.76,343.44 241.92,307.44 290.4,270.72 
		484.19,236.92 	"/>
</g>
<g>
	<circle class="st3" cx="96.38" cy="411.25" r="2.88"/>
	
		<ellipse transform="matrix(0.1891 -0.982 0.982 0.1891 -325.6755 428.1148)" class="st4" cx="96.38" cy="411.25" rx="2.88" ry="2.88"/>
	<circle class="st3" cx="120.62" cy="408.61" r="2.88"/>
	
		<ellipse transform="matrix(0.1891 -0.982 0.982 0.1891 -303.4271 449.7767)" class="st4" cx="120.62" cy="408.61" rx="2.88" ry="2.88"/>
	<circle class="st3" cx="144.86" cy="403.33" r="2.88"/>
	
		<ellipse transform="matrix(0.2298 -0.9732 0.9732 0.2298 -280.9622 451.643)" class="st4" cx="144.86" cy="403.33" rx="2.88" ry="2.88"/>
	<circle class="st3" cx="177.26" cy="371.65" r="2.88"/>
	
		<ellipse transform="matrix(0.2298 -0.9732 0.9732 0.2298 -225.1737 458.7749)" class="st4" cx="177.26" cy="371.65" rx="2.88" ry="2.88"/>
	<circle class="st3" cx="209.42" cy="343.33" r="2.88"/>
	
		<ellipse transform="matrix(0.2298 -0.9732 0.9732 0.2298 -172.8402 468.2612)" class="st4" cx="209.42" cy="343.33" rx="2.88" ry="2.88"/>
	<circle class="st3" cx="241.82" cy="307.09" r="2.88"/>
	
		<ellipse transform="matrix(0.2298 -0.9732 0.9732 0.2298 -112.6136 471.8807)" class="st4" cx="241.82" cy="307.09" rx="2.88" ry="2.88"/>
	
		<ellipse transform="matrix(0.7071 -0.7071 0.7071 0.7071 -106.3221 284.5298)" class="st3" cx="290.3" cy="270.61" rx="2.88" ry="2.88"/>
	
		<ellipse transform="matrix(0.2298 -0.9732 0.9732 0.2298 -39.7681 490.9651)" class="st4" cx="290.3" cy="270.61" rx="2.88" ry="2.88"/>
	<circle class="st3" cx="483.98" cy="236.77" r="2.88"/>
	
		<ellipse transform="matrix(0.2298 -0.9732 0.9732 0.2298 142.3479 653.3987)" class="st4" cx="483.98" cy="236.77" rx="2.88" ry="2.88"/>
</g>
<g>
	<g>
		<line class="st4" x1="102.56" y1="468.52" x2="121.76" y2="468.52"/>
	</g>
	<g>
		<circle class="st3" cx="111.96" cy="468.24" r="2.88"/>
		<circle class="st4" cx="111.96" cy="468.24" r="2.88"/>
	</g>
</g>
<g>
	<path class="st5" d="M228.44,165.33h2.62c1.33,0,2.37,0.37,3.11,1.11s1.11,1.77,1.11,3.09c0,1.41-0.38,2.5-1.15,3.24
		s-1.87,1.12-3.31,1.12h-2.37V165.33z M229.44,166.19v6.84h1.21c1.18,0,2.08-0.29,2.67-0.88s0.9-1.44,0.9-2.57s-0.28-1.98-0.84-2.55
		s-1.39-0.85-2.5-0.85H229.44z"/>
	<path class="st5" d="M236.96,165.73c0-0.21,0.05-0.37,0.16-0.48s0.24-0.16,0.41-0.16s0.31,0.05,0.42,0.16s0.16,0.27,0.16,0.48
		s-0.05,0.37-0.16,0.48s-0.25,0.17-0.42,0.17s-0.3-0.06-0.41-0.17S236.96,165.94,236.96,165.73z M238.02,173.89h-0.97v-6.42h0.97
		V173.89z"/>
	<path class="st5" d="M241.7,173.21c1.05,0,1.58-0.33,1.58-0.98c0-0.25-0.11-0.46-0.33-0.64s-0.64-0.39-1.27-0.63
		c-0.6-0.22-1.03-0.42-1.28-0.59s-0.44-0.36-0.56-0.56s-0.18-0.46-0.18-0.76c0-0.52,0.21-0.93,0.64-1.24s1-0.46,1.71-0.46
		s1.4,0.14,2.07,0.42l-0.35,0.79c-0.64-0.26-1.21-0.39-1.7-0.39s-0.85,0.07-1.09,0.21s-0.36,0.34-0.36,0.6
		c0,0.17,0.04,0.32,0.13,0.44s0.23,0.24,0.42,0.35s0.57,0.27,1.13,0.47c0.76,0.28,1.28,0.56,1.54,0.84s0.4,0.63,0.4,1.06
		c0,0.6-0.22,1.06-0.67,1.38s-1.08,0.49-1.91,0.49s-1.48-0.13-1.95-0.4v-0.9C240.35,173.04,241.02,173.21,241.7,173.21z"/>
	<path class="st5" d="M247.42,173.21c1.05,0,1.58-0.33,1.58-0.98c0-0.25-0.11-0.46-0.33-0.64s-0.64-0.39-1.27-0.63
		c-0.6-0.22-1.03-0.42-1.28-0.59s-0.44-0.36-0.56-0.56s-0.18-0.46-0.18-0.76c0-0.52,0.21-0.93,0.64-1.24s1-0.46,1.71-0.46
		s1.4,0.14,2.07,0.42l-0.35,0.79c-0.64-0.26-1.21-0.39-1.7-0.39s-0.85,0.07-1.09,0.21s-0.36,0.34-0.36,0.6
		c0,0.17,0.04,0.32,0.13,0.44s0.23,0.24,0.42,0.35s0.57,0.27,1.13,0.47c0.76,0.28,1.28,0.56,1.54,0.84s0.4,0.63,0.4,1.06
		c0,0.6-0.22,1.06-0.67,1.38s-1.08,0.49-1.91,0.49s-1.48-0.13-1.95-0.4v-0.9C246.07,173.04,246.74,173.21,247.42,173.21z"/>
	<path class="st5" d="M251.15,170.68c0-1.05,0.26-1.86,0.78-2.45s1.24-0.88,2.16-0.88s1.64,0.3,2.16,0.9
		c0.54,0.59,0.8,1.41,0.8,2.44s-0.26,1.85-0.79,2.43s-1.26,0.88-2.19,0.88c-0.02,0-0.03,0-0.05,0c-0.85,0-1.54-0.3-2.07-0.9
		s-0.8-1.38-0.8-2.35C251.15,170.73,251.15,170.71,251.15,170.68z M254.09,168.19c-1.29,0-1.93,0.83-1.93,2.49
		c0,0.82,0.17,1.45,0.5,1.88s0.81,0.64,1.45,0.64s1.12-0.21,1.45-0.64s0.5-1.05,0.5-1.87s-0.17-1.44-0.5-1.86
		S254.73,168.19,254.09,168.19z"/>
	<path class="st5" d="M259.74,173.89h-0.97v-9.12h0.97V173.89z"/>
	<path class="st5" d="M267.1,173.89h-0.8l-0.14-0.86h-0.05c-0.2,0.32-0.47,0.56-0.83,0.73s-0.76,0.25-1.21,0.25
		c-0.79,0-1.38-0.19-1.76-0.56s-0.57-0.97-0.57-1.78v-4.2h0.98v4.17c0,0.53,0.12,0.92,0.36,1.17s0.61,0.38,1.12,0.38
		c0.67,0,1.16-0.18,1.47-0.55s0.47-0.97,0.47-1.8v-3.38h0.97V173.89z"/>
	<path class="st5" d="M270.21,167.47h1.86v0.76h-1.86v3.78c0,0.38,0.09,0.68,0.27,0.89s0.43,0.31,0.75,0.31s0.61-0.04,0.89-0.12
		v0.75c-0.09,0.05-0.25,0.09-0.46,0.12s-0.4,0.05-0.56,0.05c-1.24,0-1.86-0.65-1.86-1.96v-3.82h-0.92v-0.47l0.92-0.4l0.41-1.37h0.56
		V167.47z"/>
	<path class="st5" d="M273.32,165.73c0-0.21,0.05-0.37,0.16-0.48s0.24-0.16,0.41-0.16s0.31,0.05,0.42,0.16s0.16,0.27,0.16,0.48
		s-0.05,0.37-0.16,0.48s-0.25,0.17-0.42,0.17s-0.3-0.06-0.41-0.17S273.32,165.94,273.32,165.73z M274.37,173.89h-0.97v-6.42h0.97
		V173.89z"/>
	<path class="st5" d="M276.07,170.68c0-1.05,0.26-1.86,0.78-2.45s1.24-0.88,2.16-0.88s1.64,0.3,2.16,0.9
		c0.54,0.59,0.8,1.41,0.8,2.44s-0.26,1.85-0.79,2.43s-1.26,0.88-2.19,0.88c-0.02,0-0.03,0-0.05,0c-0.85,0-1.54-0.3-2.07-0.9
		s-0.8-1.38-0.8-2.35C276.07,170.73,276.07,170.71,276.07,170.68z M279.01,168.19c-1.29,0-1.93,0.83-1.93,2.49
		c0,0.82,0.17,1.45,0.5,1.88s0.81,0.64,1.45,0.64s1.12-0.21,1.45-0.64s0.5-1.05,0.5-1.87s-0.17-1.44-0.5-1.86
		S279.65,168.19,279.01,168.19z"/>
	<path class="st5" d="M286.72,167.36c0.78,0,1.37,0.19,1.75,0.57s0.58,0.97,0.58,1.78v4.19h-0.97v-4.15c0-0.53-0.12-0.92-0.36-1.17
		s-0.61-0.38-1.12-0.38c-0.68,0-1.17,0.18-1.48,0.54s-0.47,0.96-0.47,1.79v3.37h-0.97v-6.42h0.79l0.16,0.88h0.05
		c0.2-0.32,0.48-0.56,0.83-0.74S286.27,167.36,286.72,167.36z"/>
	<path class="st5" d="M295.14,168.35c0.47-0.66,1.13-1,2-1s1.52,0.29,1.99,0.87s0.7,1.4,0.7,2.46s-0.24,1.87-0.71,2.46
		s-1.14,0.87-2,0.87s-1.52-0.31-1.98-0.94h-0.07c0.05,0.38,0.07,0.73,0.07,1.07v2.64h-0.97v-9.3h0.79l0.13,0.88H295.14z
		 M295.14,170.68c0,0.9,0.15,1.54,0.45,1.94c0.3,0.39,0.78,0.58,1.45,0.58c0.56,0,0.99-0.22,1.3-0.67s0.47-1.07,0.47-1.86
		s-0.16-1.41-0.47-1.83s-0.75-0.64-1.33-0.64c-0.66,0-1.14,0.18-1.43,0.54s-0.44,0.94-0.45,1.73V170.68z"/>
	<path class="st5" d="M304.45,167.36c0.28,0,0.54,0.02,0.77,0.07l-0.13,0.9c-0.27-0.06-0.5-0.09-0.7-0.09
		c-0.52,0-0.97,0.21-1.34,0.63s-0.55,0.95-0.55,1.58v3.45h-0.97v-6.42h0.8l0.11,1.19h0.05c0.24-0.42,0.53-0.75,0.86-0.97
		S304.05,167.36,304.45,167.36z"/>
	<path class="st5" d="M306.06,170.68c0-1.05,0.26-1.86,0.78-2.45s1.24-0.88,2.16-0.88s1.64,0.3,2.16,0.9
		c0.54,0.59,0.8,1.41,0.8,2.44s-0.26,1.85-0.79,2.43s-1.26,0.88-2.19,0.88c-0.02,0-0.03,0-0.05,0c-0.85,0-1.54-0.3-2.07-0.9
		s-0.8-1.38-0.8-2.35C306.06,170.73,306.06,170.71,306.06,170.68z M308.99,168.19c-1.29,0-1.93,0.83-1.93,2.49
		c0,0.82,0.17,1.45,0.5,1.88s0.81,0.64,1.45,0.64s1.12-0.21,1.45-0.64s0.5-1.05,0.5-1.87s-0.17-1.44-0.5-1.86
		S309.64,168.19,308.99,168.19z"/>
	<path class="st5" d="M313.95,167.08c0-1.58,0.69-2.37,2.07-2.37c0.33,0,0.73,0.07,1.2,0.21l-0.25,0.78
		c-0.37-0.12-0.69-0.18-0.96-0.18c-0.37,0-0.64,0.12-0.81,0.37s-0.26,0.64-0.26,1.17v0.42h1.63v0.76h-1.63v5.67h-0.97v-5.67h-1.15
		v-0.44l1.15-0.35V167.08z"/>
	<path class="st5" d="M317.65,165.73c0-0.21,0.05-0.37,0.16-0.48s0.24-0.16,0.41-0.16s0.31,0.05,0.42,0.16s0.16,0.27,0.16,0.48
		s-0.05,0.37-0.16,0.48s-0.25,0.17-0.42,0.17s-0.3-0.06-0.41-0.17S317.65,165.94,317.65,165.73z M318.71,173.89h-0.97v-6.42h0.97
		V173.89z"/>
	<path class="st5" d="M321.74,173.89h-0.97v-9.12h0.97V173.89z"/>
	<path class="st5" d="M326.52,174.01c-0.95,0-1.7-0.29-2.25-0.87c-0.55-0.58-0.82-1.39-0.82-2.42s0.25-1.85,0.76-2.46
		s1.18-0.91,2.02-0.91s1.48,0.27,1.95,0.8c0.47,0.52,0.7,1.21,0.7,2.09v0.62h-4.42c0.02,0.75,0.21,1.32,0.57,1.71
		s0.88,0.59,1.55,0.59s1.35-0.14,2.02-0.43v0.87c-0.34,0.15-0.67,0.25-0.98,0.32S326.94,174.01,326.52,174.01z M327.83,170.07
		c0-0.61-0.14-1.08-0.41-1.4s-0.67-0.49-1.17-0.49s-0.92,0.17-1.23,0.5s-0.49,0.8-0.54,1.39H327.83z"/>
	<path class="st5" d="M331.56,172.5l0.09,0.13c-0.1,0.39-0.24,0.84-0.44,1.35s-0.39,1-0.6,1.45h-0.73c0.11-0.43,0.23-0.94,0.35-1.51
		c0.12-0.55,0.21-1.03,0.27-1.44H331.56z"/>
	<path class="st5" d="M338.56,173.14c0.66,0,1.15-0.12,1.49-0.38s0.51-0.6,0.51-1.05c0-0.29-0.06-0.54-0.18-0.73
		s-0.32-0.37-0.59-0.52s-0.7-0.34-1.28-0.55c-0.8-0.29-1.37-0.63-1.71-1.02s-0.51-0.91-0.51-1.55s0.25-1.16,0.74-1.55
		s1.16-0.59,1.99-0.59s1.61,0.16,2.32,0.47l-0.3,0.87c-0.7-0.3-1.39-0.45-2.06-0.45c-0.53,0-0.94,0.11-1.24,0.34
		s-0.45,0.54-0.45,0.94c0,0.29,0.05,0.54,0.16,0.73s0.29,0.36,0.54,0.52s0.65,0.33,1.2,0.53c0.91,0.33,1.53,0.68,1.86,1.04
		s0.5,0.84,0.5,1.42c0,0.75-0.27,1.33-0.82,1.76c-0.55,0.42-1.31,0.63-2.29,0.63s-1.74-0.13-2.28-0.39v-0.96
		C336.94,172.98,337.73,173.14,338.56,173.14z"/>
	<path class="st5" d="M343.42,167.92c0.67-0.37,1.39-0.55,2.17-0.55s1.34,0.17,1.71,0.51s0.55,0.89,0.55,1.63v4.38h-0.71l-0.19-0.91
		h-0.05c-0.32,0.4-0.64,0.67-0.96,0.82s-0.72,0.21-1.19,0.21c-0.64,0-1.14-0.17-1.5-0.5s-0.54-0.8-0.54-1.4
		c0-1.29,1.04-1.97,3.12-2.04l1.09-0.04v-0.4c0-0.51-0.11-0.88-0.33-1.12s-0.58-0.35-1.09-0.35s-1.1,0.16-1.76,0.49L343.42,167.92z
		 M343.72,172.13c0,0.35,0.11,0.61,0.32,0.8s0.51,0.28,0.9,0.28c0.61,0,1.08-0.17,1.43-0.5s0.52-0.8,0.52-1.39v-0.58l-0.97,0.04
		c-0.77,0.03-1.33,0.15-1.67,0.36S343.72,171.68,343.72,172.13z"/>
	<path class="st5" d="M350.83,173.89h-0.97v-9.12h0.97V173.89z"/>
	<path class="st5" d="M352.81,165.73c0-0.21,0.05-0.37,0.16-0.48s0.24-0.16,0.41-0.16s0.31,0.05,0.42,0.16s0.16,0.27,0.16,0.48
		s-0.05,0.37-0.16,0.48s-0.25,0.17-0.42,0.17s-0.3-0.06-0.41-0.17S352.81,165.94,352.81,165.73z M353.86,173.89h-0.97v-6.42h0.97
		V173.89z"/>
	<path class="st5" d="M358.49,174.01c-0.93,0-1.65-0.29-2.16-0.86c-0.51-0.57-0.76-1.39-0.76-2.45s0.26-1.89,0.77-2.47
		c0.52-0.59,1.26-0.88,2.21-0.88c0.3,0,0.6,0.03,0.91,0.1s0.56,0.14,0.75,0.24l-0.3,0.83c-0.22-0.09-0.45-0.16-0.69-0.21
		s-0.47-0.08-0.69-0.08c-1.3,0-1.96,0.83-1.96,2.49c0,0.79,0.16,1.4,0.48,1.82s0.79,0.63,1.41,0.63c0.53,0,1.08-0.12,1.65-0.35v0.86
		C359.68,173.9,359.14,174.01,358.49,174.01z"/>
	<path class="st5" d="M361.55,165.73c0-0.21,0.05-0.37,0.16-0.48s0.24-0.16,0.41-0.16s0.31,0.05,0.42,0.16s0.16,0.27,0.16,0.48
		s-0.05,0.37-0.16,0.48s-0.25,0.17-0.42,0.17s-0.3-0.06-0.41-0.17S361.55,165.94,361.55,165.73z M362.6,173.89h-0.97v-6.42h0.97
		V173.89z"/>
	<path class="st5" d="M367.7,167.36c0.78,0,1.37,0.19,1.75,0.57s0.58,0.97,0.58,1.78v4.19h-0.97v-4.15c0-0.53-0.12-0.92-0.36-1.17
		s-0.61-0.38-1.12-0.38c-0.68,0-1.17,0.18-1.48,0.54s-0.47,0.96-0.47,1.79v3.37h-0.97v-6.42h0.79l0.16,0.88h0.05
		c0.2-0.32,0.48-0.56,0.83-0.74S367.26,167.36,367.7,167.36z"/>
</g>
<g>
	<path class="st5" d="M72.14,211.42h-0.95v-6.11c0-0.48,0.02-0.96,0.05-1.44c-0.08,0.09-0.16,0.16-0.24,0.23s-0.55,0.46-1.43,1.17
		l-0.52-0.67l2.27-1.75h0.82V211.42z"/>
	<path class="st5" d="M78.08,202.73c0.81,0,1.44,0.21,1.89,0.62c0.45,0.41,0.68,0.96,0.68,1.66c0,0.54-0.15,1.07-0.45,1.61
		s-0.87,1.21-1.71,2.02l-1.88,1.83v0.05h4.41v0.9h-5.64v-0.84l2.26-2.27c0.71-0.72,1.17-1.23,1.38-1.51s0.37-0.56,0.47-0.84
		s0.16-0.58,0.16-0.91c0-0.46-0.14-0.82-0.42-1.09s-0.66-0.4-1.15-0.4c-0.36,0-0.69,0.06-1.01,0.18s-0.67,0.33-1.06,0.64l-0.52-0.66
		C76.3,203.06,77.16,202.73,78.08,202.73z"/>
	<path class="st5" d="M82.27,207.1c0-1.47,0.23-2.56,0.7-3.29s1.17-1.09,2.11-1.09s1.65,0.38,2.14,1.13s0.73,1.86,0.73,3.32
		s-0.23,2.55-0.7,3.28s-1.17,1.09-2.11,1.09s-1.65-0.37-2.13-1.12S82.27,208.56,82.27,207.1z M86.5,204.43
		c-0.29-0.57-0.76-0.86-1.4-0.86s-1.11,0.28-1.41,0.85s-0.44,1.47-0.44,2.72s0.15,2.15,0.44,2.72s0.76,0.85,1.41,0.85
		s1.11-0.29,1.4-0.86s0.44-1.48,0.44-2.71S86.79,205,86.5,204.43z"/>
	<path class="st5" d="M72.14,245.42h-0.95v-6.11c0-0.48,0.02-0.96,0.05-1.44c-0.08,0.09-0.16,0.16-0.24,0.23s-0.55,0.46-1.43,1.17
		l-0.52-0.67l2.27-1.75h0.82V245.42z"/>
	<path class="st5" d="M75.41,241.1c0-1.47,0.23-2.56,0.7-3.29s1.17-1.09,2.11-1.09s1.65,0.38,2.14,1.13s0.73,1.86,0.73,3.32
		s-0.23,2.55-0.7,3.28s-1.17,1.09-2.11,1.09s-1.65-0.37-2.13-1.12S75.41,242.56,75.41,241.1z M79.64,238.43
		c-0.29-0.57-0.76-0.86-1.4-0.86s-1.11,0.28-1.41,0.85s-0.44,1.47-0.44,2.72s0.15,2.15,0.44,2.72s0.76,0.85,1.41,0.85
		s1.11-0.29,1.4-0.86s0.44-1.48,0.44-2.71S79.93,239,79.64,238.43z"/>
	<path class="st5" d="M82.27,241.1c0-1.47,0.23-2.56,0.7-3.29s1.17-1.09,2.11-1.09s1.65,0.38,2.14,1.13s0.73,1.86,0.73,3.32
		s-0.23,2.55-0.7,3.28s-1.17,1.09-2.11,1.09s-1.65-0.37-2.13-1.12S82.27,242.56,82.27,241.1z M86.5,238.43
		c-0.29-0.57-0.76-0.86-1.4-0.86s-1.11,0.28-1.41,0.85s-0.44,1.47-0.44,2.72s0.15,2.15,0.44,2.72s0.76,0.85,1.41,0.85
		s1.11-0.29,1.4-0.86s0.44-1.48,0.44-2.71S86.79,239,86.5,238.43z"/>
	<path class="st5" d="M75.7,272.77c0-0.62,0.23-1.12,0.69-1.49s1.08-0.55,1.85-0.55s1.39,0.18,1.85,0.55s0.69,0.87,0.69,1.5
		c0,0.43-0.13,0.82-0.4,1.16s-0.68,0.66-1.25,0.94c0.7,0.34,1.2,0.69,1.48,1.05c0.3,0.36,0.45,0.78,0.45,1.27
		c0,0.71-0.25,1.28-0.74,1.71c-0.5,0.42-1.19,0.63-2.08,0.63s-1.58-0.2-2.07-0.6s-0.74-0.97-0.74-1.7c0-0.98,0.6-1.74,1.79-2.29
		c-0.53-0.3-0.92-0.63-1.15-0.98S75.7,273.22,75.7,272.77z M76.77,276.18c-0.26,0.3-0.39,0.68-0.39,1.12s0.16,0.8,0.49,1.06
		s0.78,0.39,1.37,0.39s1.04-0.14,1.37-0.41s0.49-0.65,0.49-1.13c0-0.38-0.15-0.72-0.46-1.01s-0.84-0.58-1.59-0.86
		C77.46,275.6,77.03,275.87,76.77,276.18z M79.39,271.88c-0.28-0.23-0.67-0.35-1.16-0.35s-0.88,0.12-1.15,0.35s-0.41,0.54-0.41,0.91
		s0.12,0.69,0.35,0.96c0.23,0.25,0.66,0.51,1.28,0.77c0.56-0.24,0.96-0.49,1.19-0.76s0.35-0.59,0.35-0.97S79.67,272.1,79.39,271.88z
		"/>
	<path class="st5" d="M82.27,275.1c0-1.47,0.23-2.56,0.7-3.29s1.17-1.09,2.11-1.09s1.65,0.38,2.14,1.13s0.73,1.86,0.73,3.32
		s-0.23,2.55-0.7,3.28s-1.17,1.09-2.11,1.09s-1.65-0.37-2.13-1.12S82.27,276.56,82.27,275.1z M86.5,272.43
		c-0.29-0.57-0.76-0.86-1.4-0.86s-1.11,0.28-1.41,0.85s-0.44,1.47-0.44,2.72s0.15,2.15,0.44,2.72s0.76,0.85,1.41,0.85
		s1.11-0.29,1.4-0.86s0.44-1.48,0.44-2.71S86.79,273,86.5,272.43z"/>
	<path class="st5" d="M78.6,308.09c0.77,0,1.38,0.23,1.82,0.69s0.67,1.09,0.67,1.9c0,0.89-0.24,1.59-0.73,2.1s-1.16,0.76-2.01,0.76
		s-1.54-0.33-2.07-1c-0.52-0.66-0.78-1.59-0.78-2.78c0-3.35,1.29-5.03,3.88-5.03c0.45,0,0.8,0.04,1.04,0.11v0.84
		c-0.29-0.1-0.64-0.15-1.03-0.15c-0.93,0-1.63,0.29-2.11,0.87s-0.74,1.47-0.79,2.69h0.07C76.99,308.42,77.67,308.09,78.6,308.09z
		 M78.35,308.85c-0.48,0-0.91,0.16-1.29,0.49s-0.57,0.7-0.56,1.12c0,0.4,0.07,0.77,0.23,1.12s0.38,0.62,0.67,0.83
		s0.6,0.31,0.94,0.31c0.02,0,0.03,0,0.04,0c0.56,0,0.99-0.18,1.29-0.53s0.46-0.83,0.46-1.45s-0.14-1.08-0.43-1.4
		s-0.71-0.48-1.27-0.48C78.4,308.85,78.37,308.85,78.35,308.85z"/>
	<path class="st5" d="M82.27,309.1c0-1.47,0.23-2.56,0.7-3.29s1.17-1.09,2.11-1.09s1.65,0.38,2.14,1.13s0.73,1.86,0.73,3.32
		s-0.23,2.55-0.7,3.28s-1.17,1.09-2.11,1.09s-1.65-0.37-2.13-1.12S82.27,310.56,82.27,309.1z M86.5,306.43
		c-0.29-0.57-0.76-0.86-1.4-0.86s-1.11,0.28-1.41,0.85s-0.44,1.47-0.44,2.72s0.15,2.15,0.44,2.72s0.76,0.85,1.41,0.85
		s1.11-0.29,1.4-0.86s0.44-1.48,0.44-2.71S86.79,307,86.5,306.43z"/>
	<path class="st5" d="M80.16,344.57h1.27v0.88h-1.27v1.97h-0.93v-1.97h-4.17v-0.85l4.07-5.79h1.03V344.57z M79.23,344.57v-2.84
		c0-0.6,0.02-1.23,0.06-1.9h-0.05c-0.19,0.38-0.36,0.69-0.53,0.93l-2.68,3.81H79.23z"/>
	<path class="st5" d="M82.27,343.1c0-1.47,0.23-2.56,0.7-3.29s1.17-1.09,2.11-1.09s1.65,0.38,2.14,1.13s0.73,1.86,0.73,3.32
		s-0.23,2.55-0.7,3.28s-1.17,1.09-2.11,1.09s-1.65-0.37-2.13-1.12S82.27,344.56,82.27,343.1z M86.5,340.43
		c-0.29-0.57-0.76-0.86-1.4-0.86s-1.11,0.28-1.41,0.85s-0.44,1.47-0.44,2.72s0.15,2.15,0.44,2.72s0.76,0.85,1.41,0.85
		s1.11-0.29,1.4-0.86s0.44-1.48,0.44-2.71S86.79,341,86.5,340.43z"/>
	<path class="st5" d="M78.08,372.74c0.81,0,1.44,0.21,1.89,0.62c0.45,0.41,0.68,0.96,0.68,1.66c0,0.54-0.15,1.07-0.45,1.61
		s-0.87,1.21-1.71,2.02l-1.88,1.83v0.05h4.41v0.9h-5.64v-0.84l2.26-2.27c0.71-0.72,1.17-1.23,1.38-1.51s0.37-0.56,0.47-0.84
		s0.16-0.58,0.16-0.91c0-0.46-0.14-0.82-0.42-1.09s-0.66-0.4-1.15-0.4c-0.36,0-0.69,0.06-1.01,0.18s-0.67,0.33-1.06,0.64l-0.52-0.66
		C76.3,373.06,77.16,372.74,78.08,372.74z"/>
	<path class="st5" d="M82.27,377.1c0-1.47,0.23-2.56,0.7-3.29s1.17-1.09,2.11-1.09s1.65,0.38,2.14,1.13s0.73,1.86,0.73,3.32
		s-0.23,2.55-0.7,3.28s-1.17,1.09-2.11,1.09s-1.65-0.37-2.13-1.12S82.27,378.56,82.27,377.1z M86.5,374.43
		c-0.29-0.57-0.76-0.86-1.4-0.86s-1.11,0.28-1.41,0.85s-0.44,1.47-0.44,2.72s0.15,2.15,0.44,2.72s0.76,0.85,1.41,0.85
		s1.11-0.29,1.4-0.86s0.44-1.48,0.44-2.71S86.79,375,86.5,374.43z"/>
	<path class="st5" d="M82.27,411.1c0-1.47,0.23-2.56,0.7-3.29s1.17-1.09,2.11-1.09s1.65,0.38,2.14,1.13s0.73,1.86,0.73,3.32
		s-0.23,2.55-0.7,3.28s-1.17,1.09-2.11,1.09s-1.65-0.37-2.13-1.12S82.27,412.56,82.27,411.1z M86.5,408.43
		c-0.29-0.57-0.76-0.86-1.4-0.86s-1.11,0.28-1.41,0.85s-0.44,1.47-0.44,2.72s0.15,2.15,0.44,2.72s0.76,0.85,1.41,0.85
		s1.11-0.29,1.4-0.86s0.44-1.48,0.44-2.71S86.79,409,86.5,408.43z"/>
</g>
<g>
	<path class="st5" d="M92.05,426.03c0-1.47,0.23-2.56,0.7-3.29s1.17-1.09,2.11-1.09s1.65,0.38,2.14,1.13s0.73,1.86,0.73,3.32
		s-0.23,2.55-0.7,3.28s-1.17,1.09-2.11,1.09s-1.65-0.37-2.13-1.12S92.05,427.5,92.05,426.03z M96.28,423.36
		c-0.29-0.57-0.76-0.86-1.4-0.86s-1.11,0.28-1.41,0.85s-0.44,1.47-0.44,2.72s0.15,2.15,0.44,2.72s0.76,0.85,1.41,0.85
		s1.11-0.29,1.4-0.86s0.44-1.48,0.44-2.71S96.57,423.93,96.28,423.36z"/>
	<path class="st5" d="M141.26,421.67c0.83,0,1.47,0.19,1.94,0.57s0.69,0.9,0.69,1.57c0,0.54-0.15,0.99-0.46,1.34
		s-0.74,0.58-1.31,0.7v0.05c0.68,0.08,1.19,0.3,1.52,0.64s0.5,0.81,0.5,1.39c0,0.82-0.28,1.45-0.85,1.89s-1.37,0.66-2.41,0.66
		c-0.93,0-1.71-0.15-2.35-0.46v-0.93c0.76,0.38,1.56,0.56,2.38,0.56c1.48,0,2.22-0.58,2.22-1.74c0-1.04-0.82-1.56-2.45-1.56h-0.84
		v-0.84h0.86c0.67,0,1.2-0.15,1.59-0.44s0.59-0.7,0.59-1.23c0-0.42-0.14-0.75-0.43-0.98s-0.68-0.36-1.17-0.36
		c-0.37,0-0.72,0.05-1.05,0.15s-0.72,0.29-1.15,0.57l-0.49-0.66c0.36-0.28,0.76-0.5,1.22-0.66S140.76,421.67,141.26,421.67z"/>
	<path class="st5" d="M145.4,426.03c0-1.47,0.23-2.56,0.7-3.29s1.17-1.09,2.11-1.09s1.65,0.38,2.14,1.13s0.73,1.86,0.73,3.32
		s-0.23,2.55-0.7,3.28s-1.17,1.09-2.11,1.09s-1.65-0.37-2.13-1.12S145.4,427.5,145.4,426.03z M149.63,423.36
		c-0.29-0.57-0.76-0.86-1.4-0.86s-1.11,0.28-1.41,0.85s-0.44,1.47-0.44,2.72s0.15,2.15,0.44,2.72s0.76,0.85,1.41,0.85
		s1.11-0.29,1.4-0.86s0.44-1.48,0.44-2.71S149.92,423.93,149.63,423.36z"/>
	<path class="st5" d="M189.02,425.02c0.77,0,1.38,0.23,1.82,0.69s0.67,1.09,0.67,1.9c0,0.89-0.24,1.59-0.73,2.1
		s-1.16,0.76-2.01,0.76s-1.54-0.33-2.07-1c-0.52-0.66-0.78-1.59-0.78-2.78c0-3.35,1.29-5.03,3.88-5.03c0.45,0,0.8,0.04,1.04,0.11
		v0.84c-0.29-0.1-0.64-0.15-1.03-0.15c-0.93,0-1.63,0.29-2.11,0.87s-0.74,1.47-0.79,2.69h0.07
		C187.41,425.35,188.09,425.02,189.02,425.02z M188.77,425.79c-0.48,0-0.91,0.16-1.29,0.49s-0.57,0.7-0.56,1.12
		c0,0.4,0.07,0.77,0.23,1.12s0.38,0.62,0.67,0.83s0.6,0.31,0.94,0.31c0.02,0,0.03,0,0.04,0c0.56,0,0.99-0.18,1.29-0.53
		s0.46-0.83,0.46-1.45s-0.14-1.08-0.43-1.4s-0.71-0.48-1.27-0.48C188.81,425.79,188.79,425.79,188.77,425.79z"/>
	<path class="st5" d="M192.63,426.03c0-1.47,0.23-2.56,0.7-3.29s1.17-1.09,2.11-1.09s1.65,0.38,2.14,1.13s0.73,1.86,0.73,3.32
		s-0.23,2.55-0.7,3.28s-1.17,1.09-2.11,1.09s-1.65-0.37-2.13-1.12S192.63,427.5,192.63,426.03z M196.86,423.36
		c-0.29-0.57-0.76-0.86-1.4-0.86s-1.11,0.28-1.41,0.85s-0.44,1.47-0.44,2.72s0.15,2.15,0.44,2.72s0.76,0.85,1.41,0.85
		s1.11-0.29,1.4-0.86s0.44-1.48,0.44-2.71S197.15,423.93,196.86,423.36z"/>
	<path class="st5" d="M238.61,427.13c-0.76,0-1.36-0.23-1.8-0.68s-0.67-1.08-0.67-1.9c0-0.9,0.25-1.6,0.74-2.12s1.15-0.77,1.97-0.77
		c0.02,0,0.04,0,0.06,0c0.85,0,1.53,0.34,2.05,1.01s0.78,1.58,0.78,2.72c0,0.02,0,0.04,0,0.05c0,3.35-1.3,5.03-3.89,5.03
		c-0.45,0-0.81-0.04-1.08-0.12v-0.84c0.32,0.1,0.67,0.15,1.07,0.15c0.94,0,1.65-0.29,2.12-0.87s0.74-1.47,0.78-2.67h-0.07
		c-0.21,0.32-0.49,0.57-0.85,0.74S239.06,427.13,238.61,427.13z M237.56,423.03c-0.3,0.36-0.46,0.84-0.46,1.45s0.14,1.07,0.43,1.39
		s0.71,0.47,1.27,0.47c0.02,0,0.05,0,0.07,0c0.5,0,0.93-0.16,1.31-0.48s0.57-0.68,0.57-1.08c0-0.01,0-0.02,0-0.04
		c0-0.41-0.07-0.78-0.23-1.13s-0.38-0.62-0.67-0.82s-0.61-0.3-0.95-0.3c-0.02,0-0.03,0-0.04,0
		C238.29,422.5,237.86,422.68,237.56,423.03z"/>
	<path class="st5" d="M242.92,426.03c0-1.47,0.23-2.56,0.7-3.29s1.17-1.09,2.11-1.09s1.65,0.38,2.14,1.13s0.73,1.86,0.73,3.32
		s-0.23,2.55-0.7,3.28s-1.17,1.09-2.11,1.09s-1.65-0.37-2.13-1.12S242.92,427.5,242.92,426.03z M247.15,423.36
		c-0.29-0.57-0.76-0.86-1.4-0.86s-1.11,0.28-1.41,0.85s-0.44,1.47-0.44,2.72s0.15,2.15,0.44,2.72s0.76,0.85,1.41,0.85
		s1.11-0.29,1.4-0.86s0.44-1.48,0.44-2.71S247.44,423.93,247.15,423.36z"/>
	<path class="st5" d="M283.88,430.36h-0.95v-6.11c0-0.48,0.02-0.96,0.05-1.44c-0.08,0.09-0.16,0.16-0.24,0.23s-0.55,0.46-1.43,1.17
		l-0.52-0.67l2.27-1.75h0.82V430.36z"/>
	<path class="st5" d="M289.77,421.67c0.81,0,1.44,0.21,1.89,0.62c0.45,0.41,0.68,0.96,0.68,1.66c0,0.54-0.15,1.07-0.45,1.61
		s-0.87,1.21-1.71,2.02l-1.88,1.83v0.05h4.41v0.9h-5.64v-0.84l2.26-2.27c0.71-0.72,1.17-1.23,1.38-1.51s0.37-0.56,0.47-0.84
		s0.16-0.58,0.16-0.91c0-0.46-0.14-0.82-0.42-1.09s-0.66-0.4-1.15-0.4c-0.36,0-0.69,0.06-1.01,0.18s-0.67,0.33-1.06,0.64l-0.52-0.66
		C287.98,421.99,288.84,421.67,289.77,421.67z"/>
	<path class="st5" d="M293.89,426.03c0-1.47,0.23-2.56,0.7-3.29s1.17-1.09,2.11-1.09s1.65,0.38,2.14,1.13s0.73,1.86,0.73,3.32
		s-0.23,2.55-0.7,3.28s-1.17,1.09-2.11,1.09s-1.65-0.37-2.13-1.12S293.89,427.5,293.89,426.03z M298.12,423.36
		c-0.29-0.57-0.76-0.86-1.4-0.86s-1.11,0.28-1.41,0.85s-0.44,1.47-0.44,2.72s0.15,2.15,0.44,2.72s0.76,0.85,1.41,0.85
		s1.11-0.29,1.4-0.86s0.44-1.48,0.44-2.71S298.42,423.93,298.12,423.36z"/>
	<path class="st5" d="M331.8,430.36h-0.95v-6.11c0-0.48,0.02-0.96,0.05-1.44c-0.08,0.09-0.16,0.16-0.24,0.23s-0.55,0.46-1.43,1.17
		l-0.52-0.67l2.27-1.75h0.82V430.36z"/>
	<path class="st5" d="M339.98,422.69h-3.43l-0.22,2.57c0.46-0.09,0.91-0.13,1.34-0.13c0.91,0,1.62,0.22,2.13,0.67
		c0.52,0.45,0.78,1.06,0.78,1.83c0,0.89-0.28,1.58-0.85,2.09s-1.34,0.76-2.31,0.76s-1.72-0.15-2.23-0.46v-0.94
		c0.28,0.18,0.62,0.32,1.02,0.42s0.8,0.15,1.2,0.15c0.69,0,1.23-0.16,1.61-0.49s0.57-0.79,0.57-1.4c0-1.2-0.73-1.79-2.2-1.79
		c-0.36,0-0.86,0.06-1.49,0.17l-0.5-0.32l0.32-4.01h4.26V422.69z"/>
	<path class="st5" d="M341.81,426.03c0-1.47,0.23-2.56,0.7-3.29s1.17-1.09,2.11-1.09s1.65,0.38,2.14,1.13s0.73,1.86,0.73,3.32
		s-0.23,2.55-0.7,3.28s-1.17,1.09-2.11,1.09s-1.65-0.37-2.13-1.12S341.81,427.5,341.81,426.03z M346.04,423.36
		c-0.29-0.57-0.76-0.86-1.4-0.86s-1.11,0.28-1.41,0.85s-0.44,1.47-0.44,2.72s0.15,2.15,0.44,2.72s0.76,0.85,1.41,0.85
		s1.11-0.29,1.4-0.86s0.44-1.48,0.44-2.71S346.33,423.93,346.04,423.36z"/>
	<path class="st5" d="M382.78,430.36h-0.95v-6.11c0-0.48,0.02-0.96,0.05-1.44c-0.08,0.09-0.16,0.16-0.24,0.23s-0.55,0.46-1.43,1.17
		l-0.52-0.67l2.27-1.75h0.82V430.36z"/>
	<path class="st5" d="M386.28,423.71c0-0.62,0.23-1.12,0.69-1.49s1.08-0.55,1.85-0.55s1.39,0.18,1.85,0.55s0.69,0.87,0.69,1.5
		c0,0.43-0.13,0.82-0.4,1.16s-0.68,0.66-1.25,0.94c0.7,0.34,1.2,0.69,1.48,1.05c0.3,0.36,0.45,0.78,0.45,1.27
		c0,0.71-0.25,1.28-0.74,1.71c-0.5,0.42-1.19,0.63-2.08,0.63s-1.58-0.2-2.07-0.6s-0.74-0.97-0.74-1.7c0-0.98,0.6-1.74,1.79-2.29
		c-0.53-0.3-0.92-0.63-1.15-0.98S386.28,424.15,386.28,423.71z M387.35,427.11c-0.26,0.3-0.39,0.68-0.39,1.12s0.16,0.8,0.49,1.06
		s0.78,0.39,1.37,0.39s1.04-0.14,1.37-0.41s0.49-0.65,0.49-1.13c0-0.38-0.15-0.72-0.46-1.01s-0.84-0.58-1.59-0.86
		C388.03,426.53,387.61,426.8,387.35,427.11z M389.96,422.81c-0.28-0.23-0.67-0.35-1.16-0.35s-0.88,0.12-1.15,0.35
		s-0.41,0.54-0.41,0.91s0.12,0.69,0.35,0.96c0.23,0.25,0.66,0.51,1.28,0.77c0.56-0.24,0.96-0.49,1.19-0.76s0.35-0.59,0.35-0.97
		S390.25,423.04,389.96,422.81z"/>
	<path class="st5" d="M392.79,426.03c0-1.47,0.23-2.56,0.7-3.29s1.17-1.09,2.11-1.09s1.65,0.38,2.14,1.13s0.73,1.86,0.73,3.32
		s-0.23,2.55-0.7,3.28s-1.17,1.09-2.11,1.09s-1.65-0.37-2.13-1.12S392.79,427.5,392.79,426.03z M397.02,423.36
		c-0.29-0.57-0.76-0.86-1.4-0.86s-1.11,0.28-1.41,0.85s-0.44,1.47-0.44,2.72s0.15,2.15,0.44,2.72s0.76,0.85,1.41,0.85
		s1.11-0.29,1.4-0.86s0.44-1.48,0.44-2.71S397.31,423.93,397.02,423.36z"/>
	<path class="st5" d="M429.78,421.67c0.81,0,1.44,0.21,1.89,0.62c0.45,0.41,0.68,0.96,0.68,1.66c0,0.54-0.15,1.07-0.45,1.61
		s-0.87,1.21-1.71,2.02l-1.88,1.83v0.05h4.41v0.9h-5.64v-0.84l2.26-2.27c0.71-0.72,1.17-1.23,1.38-1.51s0.37-0.56,0.47-0.84
		s0.16-0.58,0.16-0.91c0-0.46-0.14-0.82-0.42-1.09s-0.66-0.4-1.15-0.4c-0.36,0-0.69,0.06-1.01,0.18s-0.67,0.33-1.06,0.64l-0.52-0.66
		C427.99,421.99,428.85,421.67,429.78,421.67z"/>
	<path class="st5" d="M437.5,430.36h-0.95v-6.11c0-0.48,0.02-0.96,0.05-1.44c-0.08,0.09-0.16,0.16-0.24,0.23s-0.55,0.46-1.43,1.17
		l-0.52-0.67l2.27-1.75h0.82V430.36z"/>
	<path class="st5" d="M440.71,426.03c0-1.47,0.23-2.56,0.7-3.29s1.17-1.09,2.11-1.09s1.65,0.38,2.14,1.13s0.73,1.86,0.73,3.32
		s-0.23,2.55-0.7,3.28s-1.17,1.09-2.11,1.09s-1.65-0.37-2.13-1.12S440.71,427.5,440.71,426.03z M444.94,423.36
		c-0.29-0.57-0.76-0.86-1.4-0.86s-1.11,0.28-1.41,0.85s-0.44,1.47-0.44,2.72s0.15,2.15,0.44,2.72s0.76,0.85,1.41,0.85
		s1.11-0.29,1.4-0.86s0.44-1.48,0.44-2.71S445.23,423.93,444.94,423.36z"/>
	<path class="st5" d="M477.7,421.67c0.81,0,1.44,0.21,1.89,0.62c0.45,0.41,0.68,0.96,0.68,1.66c0,0.54-0.15,1.07-0.45,1.61
		s-0.87,1.21-1.71,2.02l-1.88,1.83v0.05h4.41v0.9H475v-0.84l2.26-2.27c0.71-0.72,1.17-1.23,1.38-1.51s0.37-0.56,0.47-0.84
		s0.16-0.58,0.16-0.91c0-0.46-0.14-0.82-0.42-1.09s-0.66-0.4-1.15-0.4c-0.36,0-0.69,0.06-1.01,0.18s-0.67,0.33-1.06,0.64l-0.52-0.66
		C475.91,421.99,476.77,421.67,477.7,421.67z"/>
	<path class="st5" d="M486.58,427.5h1.27v0.88h-1.27v1.97h-0.93v-1.97h-4.17v-0.85l4.07-5.79h1.03V427.5z M485.64,427.5v-2.84
		c0-0.6,0.02-1.23,0.06-1.9h-0.05c-0.19,0.38-0.36,0.69-0.53,0.93l-2.68,3.81H485.64z"/>
	<path class="st5" d="M488.62,426.03c0-1.47,0.23-2.56,0.7-3.29s1.17-1.09,2.11-1.09s1.65,0.38,2.14,1.13s0.73,1.86,0.73,3.32
		s-0.23,2.55-0.7,3.28s-1.17,1.09-2.11,1.09s-1.65-0.37-2.13-1.12S488.62,427.5,488.62,426.03z M492.85,423.36
		c-0.29-0.57-0.76-0.86-1.4-0.86s-1.11,0.28-1.41,0.85s-0.44,1.47-0.44,2.72s0.15,2.15,0.44,2.72s0.76,0.85,1.41,0.85
		s1.11-0.29,1.4-0.86s0.44-1.48,0.44-2.71S493.15,423.93,492.85,423.36z"/>
</g>
<g>
	<path class="st5" d="M37.09,332.78v-2.62c0-1.33,0.37-2.37,1.11-3.11s1.77-1.11,3.09-1.11c1.41,0,2.5,0.38,3.24,1.15
		s1.12,1.87,1.12,3.31v2.37H37.09z M37.96,331.78h6.84v-1.21c0-1.18-0.29-2.08-0.88-2.67s-1.44-0.9-2.57-0.9s-1.98,0.28-2.55,0.84
		s-0.85,1.39-0.85,2.5V331.78z"/>
	<path class="st5" d="M37.5,324.26c-0.21,0-0.37-0.05-0.48-0.16s-0.16-0.24-0.16-0.41s0.05-0.31,0.16-0.42s0.27-0.16,0.48-0.16
		s0.37,0.05,0.48,0.16s0.17,0.25,0.17,0.42s-0.06,0.3-0.17,0.41S37.71,324.26,37.5,324.26z M45.66,323.21v0.97h-6.42v-0.97H45.66z"
		/>
	<path class="st5" d="M44.98,319.52c0-1.05-0.33-1.58-0.98-1.58c-0.25,0-0.46,0.11-0.64,0.33s-0.39,0.64-0.63,1.27
		c-0.22,0.6-0.42,1.03-0.59,1.28s-0.36,0.44-0.56,0.56s-0.46,0.18-0.76,0.18c-0.52,0-0.93-0.21-1.24-0.64s-0.46-1-0.46-1.71
		s0.14-1.4,0.42-2.07l0.79,0.35c-0.26,0.64-0.39,1.21-0.39,1.7s0.07,0.85,0.21,1.09s0.34,0.36,0.6,0.36c0.17,0,0.32-0.04,0.44-0.13
		s0.24-0.23,0.35-0.42s0.27-0.57,0.47-1.13c0.28-0.76,0.56-1.28,0.84-1.54s0.63-0.4,1.06-0.4c0.6,0,1.06,0.22,1.38,0.67
		s0.49,1.08,0.49,1.91s-0.13,1.48-0.4,1.95h-0.9C44.81,320.87,44.98,320.2,44.98,319.52z"/>
	<path class="st5" d="M44.98,313.8c0-1.05-0.33-1.58-0.98-1.58c-0.25,0-0.46,0.11-0.64,0.33s-0.39,0.64-0.63,1.27
		c-0.22,0.6-0.42,1.03-0.59,1.28s-0.36,0.44-0.56,0.56s-0.46,0.18-0.76,0.18c-0.52,0-0.93-0.21-1.24-0.64s-0.46-1-0.46-1.71
		s0.14-1.4,0.42-2.07l0.79,0.35c-0.26,0.64-0.39,1.21-0.39,1.7s0.07,0.85,0.21,1.09s0.34,0.36,0.6,0.36c0.17,0,0.32-0.04,0.44-0.13
		s0.24-0.23,0.35-0.42s0.27-0.57,0.47-1.13c0.28-0.76,0.56-1.28,0.84-1.54s0.63-0.4,1.06-0.4c0.6,0,1.06,0.22,1.38,0.67
		s0.49,1.08,0.49,1.91s-0.13,1.48-0.4,1.95h-0.9C44.81,315.15,44.98,314.48,44.98,313.8z"/>
	<path class="st5" d="M42.44,310.07c-1.05,0-1.86-0.26-2.45-0.78s-0.88-1.24-0.88-2.16s0.3-1.64,0.9-2.16
		c0.59-0.54,1.41-0.8,2.44-0.8s1.85,0.26,2.43,0.79s0.88,1.26,0.88,2.19c0,0.02,0,0.03,0,0.05c0,0.85-0.3,1.54-0.9,2.07
		s-1.38,0.8-2.35,0.8C42.5,310.07,42.47,310.07,42.44,310.07z M39.95,307.13c0,1.29,0.83,1.93,2.49,1.93c0.82,0,1.45-0.17,1.88-0.5
		s0.64-0.81,0.64-1.45s-0.21-1.12-0.64-1.45s-1.05-0.5-1.87-0.5s-1.44,0.17-1.86,0.5S39.95,306.49,39.95,307.13z"/>
	<path class="st5" d="M45.66,301.48v0.97h-9.12v-0.97H45.66z"/>
	<path class="st5" d="M45.66,296.88v1.14l-6.42,2.44v-1.04l3.81-1.38c0.91-0.32,1.49-0.5,1.73-0.55v-0.05
		c-0.2-0.04-0.62-0.17-1.25-0.39s-2.06-0.74-4.29-1.55v-1.04L45.66,296.88z"/>
	<path class="st5" d="M45.78,290.7c0,0.95-0.29,1.7-0.87,2.25c-0.58,0.55-1.39,0.82-2.42,0.82s-1.85-0.25-2.46-0.76
		s-0.91-1.18-0.91-2.02s0.27-1.48,0.8-1.95c0.52-0.47,1.21-0.7,2.09-0.7h0.62v4.42c0.75-0.02,1.32-0.21,1.71-0.57
		s0.59-0.88,0.59-1.55s-0.14-1.35-0.43-2.02h0.87c0.15,0.34,0.25,0.67,0.32,0.98S45.78,290.27,45.78,290.7z M41.83,289.38
		c-0.61,0-1.08,0.14-1.4,0.41s-0.49,0.67-0.49,1.17s0.17,0.92,0.5,1.23s0.8,0.49,1.39,0.54V289.38z"/>
	<path class="st5" d="M45.66,281.39v0.79l-0.86,0.13v0.05c0.65,0.45,0.98,1.11,0.98,1.98s-0.29,1.53-0.86,2
		c-0.58,0.46-1.4,0.7-2.45,0.7s-1.88-0.23-2.46-0.7s-0.88-1.13-0.88-1.98s0.32-1.51,0.95-1.98v-0.08l-0.46,0.04l-0.45,0.02h-2.61
		v-0.97H45.66z M42.67,282.36h-0.21c-0.91,0-1.56,0.15-1.95,0.46c-0.39,0.29-0.58,0.78-0.58,1.45c0,0.57,0.22,1.01,0.66,1.31
		s1.07,0.45,1.88,0.45s1.43-0.15,1.85-0.45s0.63-0.74,0.63-1.32c0-0.66-0.18-1.15-0.54-1.44S43.48,282.36,42.67,282.36z"/>
	<path class="st5" d="M44.27,278.3l0.13-0.09c0.39,0.1,0.84,0.24,1.35,0.44s1,0.39,1.45,0.6v0.73c-0.43-0.11-0.94-0.23-1.51-0.35
		c-0.55-0.12-1.03-0.21-1.44-0.27V278.3z"/>
	<path class="st5" d="M36.97,271.96c0-0.57,0.23-1,0.7-1.31s1.13-0.46,2.01-0.46s1.54,0.15,1.99,0.45s0.68,0.73,0.68,1.29
		s-0.23,1-0.7,1.3s-1.13,0.45-2,0.45C37.86,273.69,36.97,273.11,36.97,271.96z M45.66,271.3v0.86l-8.57-4.75v-0.86L45.66,271.3z
		 M37.67,271.96c0,0.32,0.16,0.55,0.48,0.7s0.82,0.22,1.5,0.22s1.18-0.07,1.5-0.22s0.49-0.38,0.49-0.7c0-0.64-0.66-0.96-1.99-0.96
		S37.67,271.32,37.67,271.96z M43.07,268.53c-0.88,0-1.54-0.15-1.99-0.44s-0.67-0.72-0.67-1.29s0.23-1,0.69-1.31s1.13-0.46,2-0.46
		s1.54,0.15,1.99,0.45s0.68,0.73,0.68,1.3s-0.23,1-0.7,1.3S43.94,268.53,43.07,268.53z M43.09,265.84c-0.67,0-1.17,0.08-1.49,0.23
		s-0.48,0.4-0.48,0.72s0.16,0.56,0.48,0.71s0.82,0.22,1.49,0.22s1.18-0.07,1.51-0.22s0.49-0.38,0.49-0.71s-0.16-0.57-0.49-0.72
		S43.77,265.84,43.09,265.84z"/>
	<path class="st5" d="M45.66,253.71v1.03l-2.72,1.07v3.43l2.72,1.05v1.01l-8.6-3.39v-0.84L45.66,253.71z M42.04,256.12l-2.65,1
		c-0.34,0.13-0.76,0.27-1.24,0.4c0.37,0.09,0.78,0.21,1.24,0.37l2.65,1.01V256.12z"/>
	<path class="st5" d="M44.9,250.71c0-0.66-0.12-1.15-0.38-1.49s-0.6-0.51-1.05-0.51c-0.29,0-0.54,0.06-0.73,0.18
		s-0.37,0.32-0.52,0.59s-0.34,0.7-0.55,1.28c-0.29,0.8-0.63,1.37-1.02,1.71s-0.91,0.51-1.55,0.51s-1.16-0.25-1.55-0.74
		s-0.59-1.16-0.59-1.99s0.16-1.61,0.47-2.32l0.87,0.3c-0.3,0.7-0.45,1.39-0.45,2.06c0,0.53,0.11,0.94,0.34,1.24s0.54,0.45,0.94,0.45
		c0.29,0,0.54-0.05,0.73-0.16s0.36-0.29,0.52-0.54s0.33-0.65,0.53-1.2c0.33-0.91,0.68-1.53,1.04-1.86s0.84-0.5,1.42-0.5
		c0.75,0,1.33,0.27,1.76,0.82c0.42,0.55,0.63,1.31,0.63,2.29s-0.13,1.74-0.39,2.28h-0.96C44.74,252.33,44.9,251.54,44.9,250.71z"/>
	<path class="st5" d="M44.9,244.12c0-0.66-0.12-1.15-0.38-1.49s-0.6-0.51-1.05-0.51c-0.29,0-0.54,0.06-0.73,0.18
		s-0.37,0.32-0.52,0.59s-0.34,0.7-0.55,1.28c-0.29,0.8-0.63,1.37-1.02,1.71s-0.91,0.51-1.55,0.51s-1.16-0.25-1.55-0.74
		s-0.59-1.16-0.59-1.99s0.16-1.61,0.47-2.32l0.87,0.3c-0.3,0.7-0.45,1.39-0.45,2.06c0,0.53,0.11,0.94,0.34,1.24s0.54,0.45,0.94,0.45
		c0.29,0,0.54-0.05,0.73-0.16s0.36-0.29,0.52-0.54s0.33-0.65,0.53-1.2c0.33-0.91,0.68-1.53,1.04-1.86s0.84-0.5,1.42-0.5
		c0.75,0,1.33,0.27,1.76,0.82c0.42,0.55,0.63,1.31,0.63,2.29s-0.13,1.74-0.39,2.28h-0.96C44.74,245.75,44.9,244.95,44.9,244.12z"/>
	<path class="st5" d="M45.66,232.94v1.03l-2.72,1.07v3.43l2.72,1.05v1.01l-8.6-3.39v-0.84L45.66,232.94z M42.04,235.35l-2.65,1
		c-0.34,0.13-0.76,0.27-1.24,0.4c0.37,0.09,0.78,0.21,1.24,0.37l2.65,1.01V235.35z"/>
	<path class="st5" d="M45.66,229.08v1.01h-3.28l-5.29,2.85v-1.09l4.28-2.27l-4.28-2.29v-1.08l5.24,2.86H45.66z"/>
</g>
<g>
	<path class="st5" d="M275.39,443.74h-2.71v7.68h-1v-7.68h-2.71v-0.88h6.42V443.74z"/>
	<path class="st5" d="M276.45,443.25c0-0.21,0.05-0.37,0.16-0.48s0.24-0.16,0.41-0.16s0.31,0.05,0.42,0.16s0.16,0.27,0.16,0.48
		s-0.05,0.37-0.16,0.48s-0.25,0.17-0.42,0.17s-0.3-0.06-0.41-0.17S276.45,443.47,276.45,443.25z M277.5,451.42h-0.97V445h0.97
		V451.42z"/>
	<path class="st5" d="M286.55,444.88c0.73,0,1.28,0.19,1.64,0.57s0.54,0.97,0.54,1.78v4.19h-0.97v-4.18c0-0.52-0.11-0.9-0.33-1.15
		s-0.56-0.38-1.02-0.38c-0.61,0-1.05,0.17-1.34,0.52s-0.43,0.88-0.43,1.6v3.59h-0.97v-4.18c0-0.52-0.11-0.9-0.33-1.15
		s-0.56-0.38-1.02-0.38c-0.61,0-1.06,0.18-1.34,0.54s-0.42,0.96-0.42,1.79v3.37h-0.97V445h0.79l0.16,0.88h0.05
		c0.18-0.31,0.44-0.56,0.78-0.73s0.71-0.26,1.12-0.26c1,0,1.66,0.36,1.97,1.09h0.05c0.19-0.34,0.47-0.61,0.83-0.8
		S286.09,444.88,286.55,444.88z"/>
	<path class="st5" d="M293.44,451.54c-0.95,0-1.7-0.29-2.25-0.87c-0.55-0.58-0.82-1.39-0.82-2.42s0.25-1.85,0.76-2.46
		s1.18-0.91,2.02-0.91s1.48,0.27,1.95,0.8c0.47,0.52,0.7,1.21,0.7,2.09v0.62h-4.42c0.02,0.75,0.21,1.32,0.57,1.71
		s0.88,0.59,1.55,0.59s1.35-0.14,2.02-0.43v0.87c-0.34,0.15-0.67,0.25-0.98,0.32S293.86,451.54,293.44,451.54z M294.76,447.59
		c0-0.61-0.14-1.08-0.41-1.4s-0.67-0.49-1.17-0.49s-0.92,0.17-1.23,0.5s-0.49,0.8-0.54,1.39H294.76z"/>
	<path class="st5" d="M297.32,450.81c0-0.26,0.06-0.46,0.18-0.6s0.29-0.21,0.52-0.21s0.4,0.07,0.53,0.21s0.19,0.33,0.19,0.59
		s-0.06,0.45-0.19,0.59s-0.3,0.21-0.52,0.21s-0.39-0.06-0.52-0.19S297.32,451.07,297.32,450.81z"/>
	<path class="st5" d="M310.75,444.88c0.73,0,1.28,0.19,1.64,0.57s0.54,0.97,0.54,1.78v4.19h-0.97v-4.18c0-0.52-0.11-0.9-0.33-1.15
		s-0.56-0.38-1.02-0.38c-0.61,0-1.05,0.17-1.34,0.52s-0.43,0.88-0.43,1.6v3.59h-0.97v-4.18c0-0.52-0.11-0.9-0.33-1.15
		s-0.56-0.38-1.02-0.38c-0.61,0-1.06,0.18-1.34,0.54s-0.42,0.96-0.42,1.79v3.37h-0.97V445h0.79l0.16,0.88h0.05
		c0.18-0.31,0.44-0.56,0.78-0.73s0.71-0.26,1.12-0.26c1,0,1.66,0.36,1.97,1.09h0.05c0.19-0.34,0.47-0.61,0.83-0.8
		S310.29,444.88,310.75,444.88z"/>
	<path class="st5" d="M314.85,443.25c0-0.21,0.05-0.37,0.16-0.48s0.24-0.16,0.41-0.16s0.31,0.05,0.42,0.16s0.16,0.27,0.16,0.48
		s-0.05,0.37-0.16,0.48s-0.25,0.17-0.42,0.17s-0.3-0.06-0.41-0.17S314.85,443.47,314.85,443.25z M315.9,451.42h-0.97V445h0.97
		V451.42z"/>
	<path class="st5" d="M321,444.88c0.78,0,1.37,0.19,1.75,0.57s0.58,0.97,0.58,1.78v4.19h-0.97v-4.15c0-0.53-0.12-0.92-0.36-1.17
		s-0.61-0.38-1.12-0.38c-0.68,0-1.17,0.18-1.48,0.54s-0.47,0.96-0.47,1.79v3.37h-0.97V445h0.79l0.16,0.88h0.05
		c0.2-0.32,0.48-0.56,0.83-0.74S320.56,444.88,321,444.88z"/>
	<path class="st5" d="M330.63,451.42h-0.8l-0.14-0.86h-0.05c-0.2,0.32-0.47,0.56-0.83,0.73s-0.76,0.25-1.21,0.25
		c-0.79,0-1.38-0.19-1.76-0.56s-0.57-0.97-0.57-1.78V445h0.98v4.17c0,0.53,0.12,0.92,0.36,1.17s0.61,0.38,1.12,0.38
		c0.67,0,1.16-0.18,1.47-0.55s0.47-0.97,0.47-1.8V445h0.97V451.42z"/>
	<path class="st5" d="M333.74,445h1.86v0.76h-1.86v3.78c0,0.38,0.09,0.68,0.27,0.89s0.43,0.31,0.75,0.31s0.61-0.04,0.89-0.12v0.75
		c-0.09,0.05-0.25,0.09-0.46,0.12s-0.4,0.05-0.56,0.05c-1.24,0-1.86-0.65-1.86-1.96v-3.82h-0.92v-0.47l0.92-0.4l0.41-1.37h0.56V445z
		"/>
	<path class="st5" d="M339.65,451.54c-0.95,0-1.7-0.29-2.25-0.87c-0.55-0.58-0.82-1.39-0.82-2.42s0.25-1.85,0.76-2.46
		s1.18-0.91,2.02-0.91s1.48,0.27,1.95,0.8c0.47,0.52,0.7,1.21,0.7,2.09v0.62h-4.42c0.02,0.75,0.21,1.32,0.57,1.71
		s0.88,0.59,1.55,0.59s1.35-0.14,2.02-0.43v0.87c-0.34,0.15-0.67,0.25-0.98,0.32S340.07,451.54,339.65,451.54z M340.96,447.59
		c0-0.61-0.14-1.08-0.41-1.4s-0.67-0.49-1.17-0.49s-0.92,0.17-1.23,0.5s-0.49,0.8-0.54,1.39H340.96z"/>
	<path class="st5" d="M345.29,450.73c1.05,0,1.58-0.33,1.58-0.98c0-0.25-0.11-0.46-0.33-0.64s-0.64-0.39-1.27-0.63
		c-0.6-0.22-1.03-0.42-1.28-0.59s-0.44-0.36-0.56-0.56s-0.18-0.46-0.18-0.76c0-0.52,0.21-0.93,0.64-1.24s1-0.46,1.71-0.46
		s1.4,0.14,2.07,0.42l-0.35,0.79c-0.64-0.26-1.21-0.39-1.7-0.39s-0.85,0.07-1.09,0.21s-0.36,0.34-0.36,0.6
		c0,0.17,0.04,0.32,0.13,0.44s0.23,0.24,0.42,0.35s0.57,0.27,1.13,0.47c0.76,0.28,1.28,0.56,1.54,0.84s0.4,0.63,0.4,1.06
		c0,0.6-0.22,1.06-0.67,1.38s-1.08,0.49-1.91,0.49s-1.48-0.13-1.95-0.4v-0.9C343.94,450.56,344.61,450.73,345.29,450.73z"/>
</g>
<g>
	<path class="st5" d="M128.81,466.03h2.15c0.96,0,1.67,0.18,2.13,0.55s0.69,0.92,0.69,1.67c0,1.04-0.53,1.74-1.58,2.11l2.13,3.53
		h-1.08l-1.9-3.27h-1.64v3.27h-0.91V466.03z M129.72,466.83v3h1.25c0.64,0,1.11-0.13,1.42-0.38c0.3-0.25,0.45-0.64,0.45-1.15
		s-0.15-0.89-0.46-1.12c-0.31-0.23-0.8-0.35-1.47-0.35H129.72z"/>
	<path class="st5" d="M135.61,466.03h2.41c1.22,0,2.17,0.34,2.85,1.01c0.68,0.68,1.02,1.62,1.02,2.84c0,1.3-0.35,2.29-1.06,2.97
		s-1.72,1.03-3.03,1.03h-2.18V466.03z M136.52,466.82v6.27h1.11c1.08,0,1.9-0.27,2.45-0.8c0.55-0.54,0.82-1.32,0.82-2.36
		c0-1.04-0.26-1.81-0.77-2.33s-1.28-0.78-2.29-0.78H136.52z"/>
	<path class="st5" d="M143.1,469.92c0-1.34,0.21-2.35,0.64-3.01s1.07-1,1.93-1c0.86,0,1.51,0.34,1.96,1.03s0.67,1.7,0.67,3.04
		c0,1.34-0.21,2.34-0.64,3.01s-1.08,1-1.94,1c-0.86,0-1.51-0.34-1.95-1.03S143.1,471.26,143.1,469.92z M146.98,467.47
		c-0.27-0.53-0.69-0.79-1.28-0.79s-1.02,0.26-1.29,0.78s-0.4,1.35-0.4,2.49c0,1.14,0.13,1.97,0.4,2.5c0.27,0.52,0.7,0.78,1.29,0.78
		s1.02-0.26,1.29-0.79c0.27-0.53,0.4-1.36,0.4-2.48C147.38,468.82,147.24,468,146.98,467.47z"/>
	<path class="st5" d="M149.39,469.92c0-1.34,0.21-2.35,0.64-3.01s1.07-1,1.93-1c0.86,0,1.51,0.34,1.96,1.03s0.67,1.7,0.67,3.04
		c0,1.34-0.21,2.34-0.64,3.01s-1.08,1-1.94,1c-0.86,0-1.51-0.34-1.95-1.03S149.39,471.26,149.39,469.92z M153.27,467.47
		c-0.27-0.53-0.69-0.79-1.28-0.79s-1.02,0.26-1.29,0.78s-0.4,1.35-0.4,2.49c0,1.14,0.13,1.97,0.4,2.5c0.27,0.52,0.7,0.78,1.29,0.78
		s1.02-0.26,1.29-0.79c0.27-0.53,0.4-1.36,0.4-2.48C153.67,468.82,153.53,468,153.27,467.47z"/>
	<path class="st5" d="M155.68,469.92c0-1.34,0.21-2.35,0.64-3.01s1.07-1,1.93-1c0.86,0,1.51,0.34,1.96,1.03s0.67,1.7,0.67,3.04
		c0,1.34-0.21,2.34-0.64,3.01s-1.08,1-1.94,1c-0.86,0-1.51-0.34-1.95-1.03S155.68,471.26,155.68,469.92z M159.56,467.47
		c-0.27-0.53-0.69-0.79-1.28-0.79s-1.02,0.26-1.29,0.78s-0.4,1.35-0.4,2.49c0,1.14,0.13,1.97,0.4,2.5c0.27,0.52,0.7,0.78,1.29,0.78
		s1.02-0.26,1.29-0.79c0.27-0.53,0.4-1.36,0.4-2.48C159.96,468.82,159.82,468,159.56,467.47z"/>
	<path class="st5" d="M164.41,465.92c0.76,0,1.35,0.17,1.77,0.52c0.42,0.35,0.64,0.83,0.64,1.44c0,0.5-0.14,0.91-0.42,1.23
		s-0.68,0.53-1.2,0.64v0.04c0.62,0.08,1.09,0.27,1.4,0.59s0.46,0.75,0.46,1.28c0,0.75-0.26,1.33-0.78,1.73s-1.26,0.6-2.21,0.6
		c-0.85,0-1.57-0.14-2.15-0.42v-0.85c0.7,0.34,1.43,0.52,2.19,0.52c1.36,0,2.04-0.53,2.04-1.59c0-0.95-0.75-1.43-2.25-1.43h-0.77
		v-0.77h0.78c0.61,0,1.1-0.14,1.46-0.41s0.54-0.65,0.54-1.12c0-0.38-0.13-0.68-0.39-0.9c-0.26-0.22-0.62-0.33-1.07-0.33
		c-0.34,0-0.66,0.05-0.96,0.14c-0.31,0.09-0.66,0.26-1.05,0.52l-0.45-0.6c0.33-0.26,0.7-0.46,1.12-0.6
		C163.51,465.99,163.95,465.92,164.41,465.92z"/>
	<path class="st5" d="M168.26,469.92c0-1.34,0.21-2.35,0.64-3.01s1.07-1,1.93-1c0.86,0,1.51,0.34,1.96,1.03s0.67,1.7,0.67,3.04
		c0,1.34-0.21,2.34-0.64,3.01s-1.08,1-1.94,1c-0.86,0-1.51-0.34-1.95-1.03S168.26,471.26,168.26,469.92z M172.13,467.47
		c-0.27-0.53-0.69-0.79-1.28-0.79s-1.02,0.26-1.29,0.78s-0.4,1.35-0.4,2.49c0,1.14,0.13,1.97,0.4,2.5c0.27,0.52,0.7,0.78,1.29,0.78
		s1.02-0.26,1.29-0.79c0.27-0.53,0.4-1.36,0.4-2.48C172.54,468.82,172.4,468,172.13,467.47z"/>
	<path class="st5" d="M176.99,465.92c0.76,0,1.35,0.17,1.77,0.52c0.42,0.35,0.64,0.83,0.64,1.44c0,0.5-0.14,0.91-0.42,1.23
		s-0.68,0.53-1.2,0.64v0.04c0.62,0.08,1.09,0.27,1.4,0.59s0.46,0.75,0.46,1.28c0,0.75-0.26,1.33-0.78,1.73s-1.26,0.6-2.21,0.6
		c-0.85,0-1.57-0.14-2.15-0.42v-0.85c0.7,0.34,1.43,0.52,2.19,0.52c1.36,0,2.04-0.53,2.04-1.59c0-0.95-0.75-1.43-2.25-1.43h-0.77
		v-0.77h0.78c0.61,0,1.1-0.14,1.46-0.41s0.54-0.65,0.54-1.12c0-0.38-0.13-0.68-0.39-0.9c-0.26-0.22-0.62-0.33-1.07-0.33
		c-0.34,0-0.66,0.05-0.96,0.14c-0.31,0.09-0.66,0.26-1.05,0.52l-0.45-0.6c0.33-0.26,0.7-0.46,1.12-0.6
		C176.09,465.99,176.53,465.92,176.99,465.92z"/>
	<path class="st5" d="M181.45,468.41c0.62-0.34,1.28-0.5,1.99-0.5s1.23,0.16,1.57,0.47c0.33,0.31,0.5,0.81,0.5,1.5v4.02h-0.66
		l-0.18-0.84h-0.04c-0.29,0.37-0.59,0.62-0.88,0.75c-0.29,0.13-0.66,0.2-1.09,0.2c-0.58,0-1.04-0.15-1.38-0.45s-0.5-0.73-0.5-1.28
		c0-1.19,0.95-1.81,2.86-1.87l1-0.03v-0.37c0-0.46-0.1-0.81-0.3-1.02c-0.2-0.22-0.53-0.33-1-0.33s-1.01,0.15-1.62,0.45
		L181.45,468.41z M181.73,472.27c0,0.32,0.1,0.56,0.29,0.73s0.47,0.25,0.82,0.25c0.56,0,0.99-0.15,1.31-0.46
		c0.32-0.31,0.48-0.73,0.48-1.28v-0.53l-0.89,0.04c-0.71,0.03-1.22,0.13-1.53,0.33C181.88,471.55,181.73,471.86,181.73,472.27z"/>
</g>
</svg>
