<svg width="0" height="0" class="hidden">

	<symbol xmlns="http://www.w3.org/2000/svg" viewBox="0 0 24 24" id="linkedin"><path d="M20.47 2H3.53a1.45 1.45 0 00-1.47 1.43v17.14A1.45 1.45 0 003.53 22h16.94a1.45 1.45 0 001.47-1.43V3.43A1.45 1.45 0 0020.47 2zM8.09 18.74h-3v-9h3v9zM6.59 8.48a1.56 1.56 0 010-3.12 1.57 1.57 0 110 3.12zm12.32 10.26h-3v-4.83c0-1.21-.43-2-1.52-2A1.65 1.65 0 0012.85 13a2 2 0 00-.1.73v5h-3v-9h3V11a3 3 0 012.71-1.5c2 0 3.45 1.29 3.45 4.06v5.18z"/></symbol>

	<symbol xmlns="http://www.w3.org/2000/svg" viewBox="0 0 24 24" id="facebook"><path d="M15.12 5.32H17V2.14c-.91-.1-1.82-.14-2.74-.14-2.72 0-4.58 1.66-4.58 4.7v2.62H6.61v3.56h3.07V22h3.68v-9.12h3.06l.46-3.56h-3.52V7.05c0-1.05.28-1.73 1.76-1.73z"/></symbol>

	<symbol xmlns="http://www.w3.org/2000/svg" viewBox="0 0 24 24" id="twitter"><path d="M22 5.8a8.5 8.5 0 01-2.36.64 4.13 4.13 0 001.81-2.27 8.2 8.2 0 01-2.61 1 4.1 4.1 0 00-7 3.74 11.64 11.64 0 01-8.45-4.29 4.16 4.16 0 00-.07 4c.32.6.78 1.1 1.34 1.48a4.05 4.05 0 01-1.86-.51v.05a4.1 4.1 0 003.3 4 3.93 3.93 0 01-1.87.1 4.11 4.11 0 003.83 2.84A8.22 8.22 0 012 18.28a11.57 11.57 0 006.29 1.85A11.59 11.59 0 0020 8.45v-.53a8.43 8.43 0 002-2.12z"/></symbol>

	<symbol xmlns="http://www.w3.org/2000/svg" viewBox="0 0 492 492" id="a11y"><path d="M225.3 97a48.5 48.5 0 100-97 48.5 48.5 0 000 97z"/><path d="M300.2 371.7a107.3 107.3 0 01-103 77.6c-59 0-107.1-48.1-107.1-107.2 0-43.8 26.4-81.4 64-98v-45.5A150.1 150.1 0 0047.4 342 150 150 0 00197.3 492a150 150 0 00136-87.2l-17-33.2h-16z"/><path d="M441.5 429.2l-65-127.6a28.4 28.4 0 00-25.3-15.6H268v-19h71.6a21 21 0 0017-9c2.5-3.6 4.3-7.7 4.3-12.3 0-11.8-9.5-21.4-21.3-21.4H268V160a42.4 42.4 0 00-42.7-42.7 42.7 42.7 0 00-42.7 42.7v139.4c0 24 19.5 43.5 43.6 43.5h107.5l57 112.2a28.4 28.4 0 1050.8-25.9z"/></symbol>

	<symbol viewBox="0 0 511 511.9" xmlns="http://www.w3.org/2000/svg" id="instagram"><path d="M511 151c-1-28-6-46-12-63s-16-32-30-45c-12-13-28-23-45-29-16-7-35-11-62-12-27-2-36-2-106-2L151 1c-27 2-46 6-62 12-17 7-33 17-46 30S20 71 14 88 3 123 2 150c-1 28-2 37-2 106l2 106c1 27 6 45 12 62s16 32 29 45 29 23 46 30c16 6 35 10 62 11a1885 1885 0 00211 0c27-1 46-5 62-12 34-13 62-40 75-74 6-17 11-35 12-62l1-106-1-105zm-46 209c-1 25-5 38-9 47-9 22-26 40-49 49-9 3-22 7-47 8-27 2-35 2-103 2l-104-2c-25-1-38-5-47-8-11-4-22-11-30-19-8-9-15-19-19-30-3-9-8-22-9-47l-1-104 1-103c1-25 6-39 9-48 4-11 11-21 19-29 9-9 19-15 30-19 9-4 22-8 47-9 27-1 35-2 104-2 68 0 76 1 103 2 25 1 39 5 48 9 11 4 21 10 29 19 8 8 15 18 19 29 4 9 8 23 9 48l1 103-1 103zm0 0"/><path d="M256 125a132 132 0 101 263 132 132 0 00-1-263zm0 216a85 85 0 110-170 85 85 0 010 170zm0 0"/><path d="M424 119a31 31 0 11-62 0 31 31 0 0162 0zm0 0"/></symbol>
</svg>