<svg xmlns="http://www.w3.org/2000/svg" xmlns:xlink="http://www.w3.org/1999/xlink" width="250.925" height="56.192" viewBox="0 0 250.925 56.192">
  <defs>
    <clipPath id="clip-path">
      <rect id="Прямоугольник_3" data-name="Прямоугольник 3" width="250.925" height="56.192" fill="none"/>
    </clipPath>
    <clipPath id="clip-path-2">
      <rect id="Прямоугольник_13" data-name="Прямоугольник 13" width="46.33" height="46.33" rx="6.085" fill="none"/>
    </clipPath>
  </defs>
  <g id="logo" transform="translate(-25.467 -29.99)">
    <g id="Сгруппировать_3" data-name="Сгруппировать 3" transform="translate(25.467 29.99)">
      <g id="Сгруппировать_2" data-name="Сгруппировать 2" transform="translate(0 0)" clip-path="url(#clip-path)">
        <g id="Сгруппировать_1" data-name="Сгруппировать 1" transform="translate(68.022 10.955)">
          <path id="Контур_1" data-name="Контур 1" d="M229.491,58.928,214.806,85.516h14.685V92.59H202.122V92.1l14.684-26.588H203.2V58.441h26.3Z" transform="translate(-202.122 -58.441)" fill="#212425"/>
          <path id="Контур_2" data-name="Контур 2" d="M293.691,58.441V92.59H285.4V58.441Z" transform="translate(-253.332 -58.441)" fill="#212425"/>
          <path id="Контур_3" data-name="Контур 3" d="M355.149,58.441V92.59h-8V73.076l-9.757,13.953H335.44l-9.757-13.953V92.59h-8V58.441h7.22L336.416,75.32l11.513-16.879Z" transform="translate(-273.185 -58.441)" fill="#212425"/>
          <path id="Контур_4" data-name="Контур 4" d="M455.816,92.2v.39h-8.538l-2.049-5.317H431.667l-2.049,5.317h-8.538V92.2l14.343-33.759h6.049ZM442.693,80.687,438.449,69.71,434.2,80.687Z" transform="translate(-336.769 -58.441)" fill="#212425"/>
          <path id="Контур_5" data-name="Контур 5" d="M545.828,92.2v.39h-8.781L530.7,80.638h-4.879V92.59h-8.293V58.441h15.806c7.415,0,11.757,4.244,11.757,11.074,0,4.976-2.244,8.586-6.342,10.2Zm-20-18.636h6.44c2.878,0,4.537-1.61,4.537-4.049,0-2.39-1.659-4-4.537-4h-6.44Z" transform="translate(-396.081 -58.441)" fill="#212425"/>
          <path id="Контур_6" data-name="Контур 6" d="M629.035,92.347v.244h-10.05L607.179,77.955V92.59h-8.293V58.441h8.293V71.417L618.3,58.441H628.45v.244L614.4,74.491Z" transform="translate(-446.109 -58.441)" fill="#212425"/>
        </g>
      </g>
    </g>
    <g id="Сгруппировать_14" data-name="Сгруппировать 14" transform="translate(30.399 34.921)">
      <g id="Сгруппировать_13" data-name="Сгруппировать 13" transform="translate(0 0)" clip-path="url(#clip-path-2)">
        <g id="Сгруппировать_4" data-name="Сгруппировать 4" transform="translate(0 0)">
          <rect id="Прямоугольник_4" data-name="Прямоугольник 4" width="15.443" height="15.443" fill="#827326"/>
        </g>
        <g id="Сгруппировать_5" data-name="Сгруппировать 5" transform="translate(30.887 30.886)">
          <rect id="Прямоугольник_5" data-name="Прямоугольник 5" width="15.443" height="15.443" fill="#268732"/>
        </g>
        <g id="Сгруппировать_6" data-name="Сгруппировать 6" transform="translate(30.887 0)">
          <rect id="Прямоугольник_6" data-name="Прямоугольник 6" width="15.443" height="15.443" fill="#871e1f"/>
        </g>
        <g id="Сгруппировать_7" data-name="Сгруппировать 7" transform="translate(0 30.886)">
          <rect id="Прямоугольник_7" data-name="Прямоугольник 7" width="15.443" height="15.443" fill="#827326"/>
        </g>
        <g id="Сгруппировать_8" data-name="Сгруппировать 8" transform="translate(15.443 15.443)">
          <rect id="Прямоугольник_8" data-name="Прямоугольник 8" width="15.443" height="15.443" fill="#452e66"/>
        </g>
        <g id="Сгруппировать_9" data-name="Сгруппировать 9" transform="translate(15.443 30.886)">
          <rect id="Прямоугольник_9" data-name="Прямоугольник 9" width="15.443" height="15.443" fill="#871e1f"/>
        </g>
        <g id="Сгруппировать_10" data-name="Сгруппировать 10" transform="translate(30.887 15.443)">
          <rect id="Прямоугольник_10" data-name="Прямоугольник 10" width="15.443" height="15.443" fill="#2d8273"/>
        </g>
        <g id="Сгруппировать_11" data-name="Сгруппировать 11" transform="translate(0 15.443)">
          <rect id="Прямоугольник_11" data-name="Прямоугольник 11" width="15.443" height="15.443" fill="#960e72"/>
        </g>
        <g id="Сгруппировать_12" data-name="Сгруппировать 12" transform="translate(15.443 0)">
          <rect id="Прямоугольник_12" data-name="Прямоугольник 12" width="15.443" height="15.443" fill="#268732"/>
        </g>
      </g>
    </g>
    <g id="Сгруппировать_20" data-name="Сгруппировать 20" transform="translate(25.467 29.99)">
      <g id="Сгруппировать_19" data-name="Сгруппировать 19" transform="translate(0 0)" clip-path="url(#clip-path)">
        <g id="Сгруппировать_15" data-name="Сгруппировать 15" transform="translate(45.641 -0.001)">
          <path id="Контур_7" data-name="Контур 7" d="M154.549,40.538h-2.473V36.172a3.716,3.716,0,0,0-3.712-3.712H144V29.987h4.367a6.192,6.192,0,0,1,6.185,6.185Z" transform="translate(-143.997 -29.987)" fill="#302e2e"/>
        </g>
        <g id="Сгруппировать_16" data-name="Сгруппировать 16" transform="translate(45.641 45.639)">
          <path id="Контур_8" data-name="Контур 8" d="M148.364,159.067H144v-2.473h4.367a3.716,3.716,0,0,0,3.712-3.712v-4.367h2.473v4.367A6.192,6.192,0,0,1,148.364,159.067Z" transform="translate(-143.997 -148.515)" fill="#302e2e"/>
        </g>
        <g id="Сгруппировать_17" data-name="Сгруппировать 17" transform="translate(0 45.639)">
          <path id="Контур_9" data-name="Контур 9" d="M36.019,159.068H31.652a6.192,6.192,0,0,1-6.185-6.185v-4.367H27.94v4.367a3.716,3.716,0,0,0,3.712,3.712h4.367Z" transform="translate(-25.467 -148.515)" fill="#302e2e"/>
        </g>
        <g id="Сгруппировать_18" data-name="Сгруппировать 18" transform="translate(0 -0.001)">
          <path id="Контур_10" data-name="Контур 10" d="M27.94,40.539H25.467V36.172a6.192,6.192,0,0,1,6.185-6.184h4.367v2.473H31.652a3.716,3.716,0,0,0-3.712,3.711Z" transform="translate(-25.467 -29.988)" fill="#302e2e"/>
        </g>
      </g>
    </g>
  </g>
</svg>
